<?xml version="1.0" encoding="utf-8"?>
<!-- Generator: Adobe Illustrator 25.2.3, SVG Export Plug-In . SVG Version: 6.00 Build 0)  -->
<svg version="1.1" id="Layer_1" xmlns="http://www.w3.org/2000/svg" xmlns:xlink="http://www.w3.org/1999/xlink" x="0px" y="0px"
	 viewBox="0 0 172 268" style="enable-background:new 0 0 172 268;" xml:space="preserve">
<style type="text/css">
	.st0{fill:#2D0919;}
</style>
<path class="st0" d="M108.9,59.7c0,10.8-0.4,41-0.9,78.2c-0.3,24.3-0.7,51.5-1.1,78.3c-0.2,11.4-0.3,22.8-0.5,33.8
	c-0.1,6.4-0.2,12.7-0.3,18.8H65.6c0.1-4.1,0.2-8.3,0.3-12.6c0.5-21.7,0.9-45,0.9-67.9c0-15.8-0.3-31.4-0.8-46
	c-1.3-37.6-3.6-69.3-3.6-83.4C62.4,11,108.9,23.3,108.9,59.7z"/>
<path class="st0" d="M66.8,256.1l-0.3,12.7H19.5c-6.1-27.1-5.2-92.3-3.7-131.9c0.5-12.6,1-22.6,1.4-27.9
	c1.8-25.4,25.5-30.9,30.2-7.8c1.5,7.4,1.9,23.5,1.7,42.5c-0.3,40.3-2.8,93.3-1.6,101.9c1.6,11,15,10.8,18.5,10.5
	C66.5,256.1,66.8,256.1,66.8,256.1z"/>
<path class="st0" d="M104.8,215.8c0,0,17.9,4.9,20-17.1c2-21.9-6.9-124.8-3.1-152.9c3.8-28.1,29.2-23.6,32.2,4.3
	c3,27.9,8.1,166.1-5.7,183C134.4,250,104.8,250,104.8,250V215.8z"/>
<polygon class="st0" points="17.6,114.8 8,113.8 17.6,116.8 "/>
<polygon class="st0" points="16.4,133 10.6,132.2 16.4,134.2 "/>
<polygon class="st0" points="16.7,135.5 9.5,137.4 17.1,136.4 "/>
<polygon class="st0" points="23,94.5 18.2,92.9 22.3,95.2 "/>
<polygon class="st0" points="18.2,255.5 13.7,257.5 18.2,256.9 "/>
<polygon class="st0" points="16.5,159.3 8.7,157.3 15.5,160.7 11.8,162.2 16.1,161.9 "/>
<polygon class="st0" points="15.8,190.6 10.6,189.6 15.5,192 "/>
<polygon class="st0" points="16.5,221.2 8.1,223.4 16.1,223 "/>
<polygon class="st0" points="15.8,224.7 11.8,225.1 15.8,225.6 "/>
<polygon class="st0" points="39.9,89.6 45.6,85 41,90.4 "/>
<polygon class="st0" points="48.3,124 52.4,122.2 48.3,124.9 "/>
<polygon class="st0" points="48.3,146.8 53.9,149 48.3,148.1 "/>
<polygon class="st0" points="48.3,155.7 51.4,155 48.3,157.3 "/>
<polygon class="st0" points="48.3,176.6 53.5,176.9 48.5,178.2 56.1,179.5 45.8,179.7 "/>
<polygon class="st0" points="47,210.6 51.8,209.7 47,212.2 "/>
<polygon class="st0" points="46.2,230.8 50.4,231.5 46.2,231.8 "/>
<polygon class="st0" points="46.2,235 52.9,234 46.2,236.9 "/>
<polygon class="st0" points="63.6,67.9 54.9,67.9 63.6,69.7 "/>
<polygon class="st0" points="63.6,73.8 59.3,74.6 63.6,74.6 "/>
<path class="st0" d="M65.4,106c-0.5,0-6.6-0.3-6.6-0.3l6.6,1.2V106z"/>
<polygon class="st0" points="66.7,134.6 58.4,134.6 66.3,136.4 62.1,137.4 67.6,138 "/>
<polygon class="st0" points="67.3,176.1 60.8,175 67.6,177.7 "/>
<polygon class="st0" points="67.6,201.8 60.3,202.8 67.6,203.3 "/>
<polygon class="st0" points="67.3,207.7 62.4,206.2 67.6,209.2 "/>
<polygon class="st0" points="67.3,233.4 59.9,233.4 67.3,234.7 "/>
<polygon class="st0" points="65.7,46.8 55.6,41.6 65.7,45.3 "/>
<polygon class="st0" points="73.4,30.9 70.4,26 74.5,30.5 "/>
<path class="st0" d="M100.2,38.7c0.2-0.2,8.7-8.8,8.7-8.8l-7.2,9.7L100.2,38.7z"/>
<polygon class="st0" points="103.7,42.6 108.9,40.8 104.1,43.5 "/>
<polygon class="st0" points="107.6,75.9 115.4,72.9 107.6,77.5 "/>
<polygon class="st0" points="107.6,87.1 113.8,86.6 107.6,88.1 "/>
<polygon class="st0" points="106.3,108.2 114.3,104.7 107.6,109.8 113.8,110.3 106.3,111.6 "/>
<polygon class="st0" points="106.3,149.7 113.3,147.9 106.8,151 "/>
<polygon class="st0" points="105.9,197.3 113.8,196.1 106.3,198.8 "/>
<polygon class="st0" points="106.3,188.7 112.2,188.8 106.3,187.4 "/>
<polygon class="st0" points="144.2,31.9 151.4,25 145,32.6 "/>
<polygon class="st0" points="121.9,51.6 116.4,49.5 121.6,53.3 "/>
<polygon class="st0" points="121.5,72.9 117.3,73.8 121.5,74.2 "/>
<polygon class="st0" points="121.5,91.9 114.3,91.4 121.9,93.3 "/>
<polygon class="st0" points="125.4,131.6 115.4,129.9 123.6,133 117.4,132.8 125.4,134.6 "/>
<polygon class="st0" points="125.9,163.2 117,163.6 125.9,165.6 "/>
<polygon class="st0" points="125.9,168.7 118.8,169.2 125.9,170.4 "/>
<polygon class="st0" points="126.2,190.2 120,189.2 126.5,192 "/>
<polygon class="st0" points="153.1,56.8 159.5,55.1 154.5,57.6 159.1,57.6 153.8,58.8 "/>
<polygon class="st0" points="155,78.2 164.1,77.5 155,79.5 "/>
<polygon class="st0" points="156.3,100.6 160.3,99.9 156.3,101.7 "/>
<polygon class="st0" points="156.3,105.3 159.9,107.1 155.8,106.2 "/>
<polygon class="st0" points="156.3,133.1 163.4,130.3 156.3,134.6 "/>
<polygon class="st0" points="156.3,160.9 164.7,158.4 156.3,163.2 "/>
<polygon class="st0" points="156.3,166.9 162.6,167.5 156.3,168.1 "/>
<polygon class="st0" points="154.7,199.1 164.7,198 155.8,200.8 160.8,202.1 154.7,202.2 "/>
<polygon class="st0" points="104.3,262.3 114.4,261.1 104.8,264.6 "/>
</svg>
