<?xml version="1.0" encoding="utf-8"?>
<!-- Generator: Adobe Illustrator 25.2.3, SVG Export Plug-In . SVG Version: 6.00 Build 0)  -->
<svg version="1.1" id="Layer_1" xmlns="http://www.w3.org/2000/svg" xmlns:xlink="http://www.w3.org/1999/xlink" x="0px" y="0px"
	 viewBox="0 0 1654 1377" style="enable-background:new 0 0 1654 1377;" xml:space="preserve">
<style type="text/css">
	.st0{fill:#8C5927;}
	.st1{fill:#D3A972;}
	.st2{fill:#E4BB80;}
	.st3{fill:#805321;}
	.st4{fill:#C89E6C;}
	.st5{fill:#C0954E;}
	.st6{fill:#F1CA87;}
	.st7{fill:#987253;}
	.st8{fill:#89644B;}
	.st9{fill:#B98E62;}
	.st10{fill:#DEBB8D;}
	.st11{opacity:0.8;fill:#E6D3B3;}
	.st12{opacity:0.8;fill:#B49B84;}
	.st13{fill:#231F20;}
</style>
<g>
	<g>
		<g>
			<g>
				<polygon class="st0" points="1146.5,1227.7 991.5,1138.2 991.5,1044.9 1146.5,1134.3 				"/>
			</g>
			<g>
				<polygon class="st1" points="637.2,933.7 482.2,844.2 482.2,750.8 637.2,840.3 				"/>
			</g>
		</g>
	</g>
	<g>
		<g>
			<g>
				<polygon class="st0" points="1391.1,1086.5 1236.1,997 1236.1,903.6 1391.1,993.1 				"/>
			</g>
			<g>
				<polygon class="st1" points="881.8,792.4 726.8,702.9 726.8,609.6 881.8,699 				"/>
			</g>
		</g>
	</g>
	<g>
		<polygon class="st2" points="1391.1,993.1 1391.1,1086.5 1488.4,1030.3 1488.4,936.9 		"/>
		<polygon class="st2" points="1146.5,1134.3 1146.5,1227.7 1243.7,1171.5 1243.7,1078.2 		"/>
		<polygon class="st2" points="901.8,1275.6 901.8,1368.9 999.1,1312.8 999.1,1219.4 		"/>
	</g>
	<g>
		<polygon class="st2" points="945.1,735.8 945.1,829.1 1042.4,773 1042.4,679.6 		"/>
		<polygon class="st2" points="700.5,877 700.5,970.4 797.8,914.2 797.8,820.9 		"/>
		<polygon class="st3" points="455.9,1018.3 455.9,1111.6 553.1,1055.5 553.1,962.1 		"/>
	</g>
	<g>
		<polygon class="st2" points="586.5,528.8 586.5,622.2 683.8,566 683.8,472.6 		"/>
		<polygon class="st2" points="341.9,670 341.9,763.4 439.2,707.2 439.2,613.9 		"/>
		<polygon class="st3" points="97.3,811.3 97.3,904.6 194.5,848.5 194.5,755.1 		"/>
	</g>
	<polygon class="st4" points="0,755.2 901.8,1275.6 901.8,1247.5 0,727.2 	"/>
	<polygon class="st5" points="114,689.4 1015.8,1209.8 1015.8,1181.7 114,661.4 	"/>
	<polygon class="st5" points="179.3,651.1 1081.1,1171.4 1081.1,1143.3 179.3,623 	"/>
	<polygon class="st5" points="244.6,614 1146.5,1134.3 1146.5,1106.3 244.6,585.9 	"/>
	<polygon class="st5" points="358.6,548.2 1260.4,1068.5 1260.4,1040.5 358.6,520.1 	"/>
	<polygon class="st5" points="423.9,509.8 1325.8,1030.2 1325.8,1002.1 423.9,481.7 	"/>
	<polygon class="st5" points="489.3,472.8 1391.1,993.2 1391.1,965.1 489.3,444.8 	"/>
	<polygon class="st6" points="1391.1,965 489.3,444.7 586.5,388.5 1488.4,908.9 	"/>
	<polygon class="st6" points="1146.5,1106.3 244.6,585.9 341.9,529.8 1243.7,1050.1 	"/>
	<polygon class="st6" points="1325.8,1002.7 423.9,482.4 472.6,454.3 1374.4,974.7 	"/>
	<polygon class="st6" points="1260.4,1040.5 358.6,520.1 407.2,492 1309.1,1012.4 	"/>
	<polygon class="st6" points="901.8,1247.5 0,727.2 97.3,671 999.1,1191.3 	"/>
	<polygon class="st6" points="1081.1,1144 179.3,623.6 227.9,595.6 1129.8,1115.9 	"/>
	<polygon class="st6" points="1015.8,1181.7 114,661.4 162.6,633.3 1064.4,1153.6 	"/>
	<polygon class="st2" points="1391.1,965 1391.1,993.1 1488.4,936.9 1488.4,908.9 	"/>
	<polygon class="st2" points="1146.5,1106.3 1146.5,1134.3 1243.7,1078.2 1243.7,1050.1 	"/>
	<polygon class="st2" points="1325.8,1002.7 1325.8,1030.8 1374.4,1002.7 1374.4,974.7 	"/>
	<polygon class="st2" points="1260.4,1040.5 1260.4,1068.5 1309.1,1040.5 1309.1,1012.4 	"/>
	<polygon class="st2" points="901.8,1247.5 901.8,1275.6 999.1,1219.4 999.1,1191.3 	"/>
	<polygon class="st2" points="1081.1,1144 1081.1,1172.1 1129.8,1144 1129.8,1115.9 	"/>
	<polygon class="st2" points="1015.8,1181.7 1015.8,1209.8 1064.4,1181.7 1064.4,1153.6 	"/>
	<g>
		<g>
			<g>
				<polygon class="st4" points="97.3,811.3 97.3,904.6 0,848.5 0,755.1 				"/>
			</g>
			<g>
				<polygon class="st4" points="901.8,1275.6 901.8,1368.9 804.6,1312.8 804.6,1219.4 				"/>
			</g>
			<g>
				<polygon class="st4" points="455.9,1018.3 455.9,1111.6 358.6,1055.5 358.6,962.1 				"/>
			</g>
		</g>
	</g>
</g>
<g>
	<g>
		<g>
			<g>
				<g>
					<polygon class="st7" points="316.1,367 486.1,465.2 486.1,661.5 316.1,563.3 					"/>
					<polygon class="st8" points="316.1,367 486.1,465.2 486.1,467 316.1,369.4 					"/>
					<polygon class="st9" points="769.4,301.6 486.1,465.2 486.1,661.5 769.4,497.9 					"/>
					<polygon class="st10" points="316.1,367 486.1,465.2 769.4,301.6 599.4,203.4 					"/>
					<polygon class="st11" points="712.7,268.9 429.5,432.5 372.7,399.8 656.1,236.2 					"/>
				</g>
				<polygon class="st12" points="429.5,432.5 429.4,497.9 372.7,465.2 372.7,399.8 				"/>
			</g>
			<g>
				<path class="st13" d="M584.3,520.4c-1.7-9.6-12.8-11.4-26.1-3.7c0,0-0.1,0-0.1,0.1c-1.6,0.9-3.1,1.9-4.6,3
					c-1.2,0.9-2.4,1.8-3.5,2.7c-3.8,3.2-7.3,7-10.1,10.8c-4.1,5.7-7,11.7-7.8,17.1l25-14.4v32.1c0,1.9-1.4,4.3-3,5.3
					c-1.7,1-3,0.2-3-1.8v-1.1c0-0.7-0.5-1-1.1-0.6c-0.6,0.3-1.1,1.2-1.1,1.9v1.1c0,3.3,2.3,4.7,5.2,3c2.9-1.7,5.2-5.7,5.2-9v-32.1
					L584.3,520.4z"/>
				<g>
					<path class="st13" d="M591.5,565.4l-68.4,39.5v-78.9l68.4-39.5V565.4z M525.8,600.3l63.1-36.4V491l-63.1,36.4V600.3z"/>
				</g>
			</g>
			<g>
				<g>
					<path class="st13" d="M665.7,522.5L597.4,562V483l68.4-39.5V522.5z M600,557.4l63.1-36.4v-72.8L600,484.6V557.4z"/>
				</g>
				<g>
					<path class="st13" d="M644.2,467.5v19.9c0,6.5-4.6,14.5-10.2,17.7l-4.3,2.5c-5.6,3.2-10.2,0.6-10.2-5.9v-19.9l12.5-7.2
						l-2.7,7.4l5.3-3.1l-7.2,22l11.9-26.9l-5.4,3.1l2.8-5.3L644.2,467.5z"/>
					<polygon class="st13" points="633.8,526.7 630,528.9 630,504 633.8,501.8 					"/>
					<polygon class="st13" points="631.9,525.8 618.9,538.1 644.2,523.4 					"/>
				</g>
			</g>
			<g>
				<g>
					<path class="st13" d="M739.3,480l-68.4,39.5v-78.9l68.4-39.5V480z M673.6,514.9l63.1-36.4v-72.8l-63.1,36.4V514.9z"/>
				</g>
				<g>
					<path class="st13" d="M732.7,472.4l-55.2,31.9l27.3-71.8L732.7,472.4z M682.9,497.5l44.4-25.6l-22.4-32.1L682.9,497.5z"/>
				</g>
				<g>
					<path class="st13" d="M702.7,478.4c0-1.7,1-3.5,2.4-4.2c1.4-0.8,2.4-0.2,2.4,1.5c0,1.6-0.9,3.4-2.4,4.2
						C703.7,480.8,702.7,480.1,702.7,478.4z M703.7,471.2l-0.6-22l3.9-2.2l-0.6,22.6L703.7,471.2z"/>
				</g>
			</g>
		</g>
		<g>
			<g>
				<g>
					<polygon class="st7" points="25.1,535.1 195.1,633.3 195.1,829.6 25.1,731.4 					"/>
					<polygon class="st8" points="25.1,535.1 195.1,633.3 195.1,635.1 25.1,537.5 					"/>
					<polygon class="st9" points="478.4,469.7 195.1,633.3 195.1,829.6 478.4,666 					"/>
					<polygon class="st10" points="25.1,535.1 195.1,633.3 478.4,469.7 308.4,371.5 					"/>
					<polygon class="st11" points="421.7,437 138.5,600.6 81.7,567.8 365.1,404.3 					"/>
				</g>
				<polygon class="st12" points="138.5,600.6 138.4,666 81.7,633.3 81.7,567.8 				"/>
			</g>
			<g>
				<path class="st13" d="M293.3,688.4c-1.7-9.6-12.8-11.4-26.1-3.7c0,0-0.1,0-0.1,0.1c-1.6,0.9-3.1,1.9-4.6,3
					c-1.2,0.9-2.4,1.8-3.5,2.7c-3.8,3.2-7.3,7-10.1,10.8c-4.1,5.7-7,11.7-7.8,17.1l25-14.4v32.1c0,1.9-1.4,4.3-3,5.3
					c-1.7,1-3,0.2-3-1.8v-1.1c0-0.7-0.5-1-1.1-0.6c-0.6,0.3-1.1,1.2-1.1,1.9v1.1c0,3.3,2.3,4.7,5.2,3c2.9-1.7,5.2-5.7,5.2-9v-32.1
					L293.3,688.4z"/>
				<g>
					<path class="st13" d="M300.5,733.5l-68.4,39.5V694l68.4-39.5V733.5z M234.7,768.3l63.1-36.4v-72.8l-63.1,36.4V768.3z"/>
				</g>
			</g>
			<g>
				<g>
					<path class="st13" d="M374.7,690.6l-68.4,39.5v-78.9l68.4-39.5V690.6z M309,725.5l63.1-36.4v-72.8L309,652.7V725.5z"/>
				</g>
				<g>
					<path class="st13" d="M353.2,635.6v19.9c0,6.5-4.6,14.5-10.2,17.7l-4.3,2.5c-5.6,3.2-10.2,0.6-10.2-5.9v-19.9l12.5-7.2
						l-2.7,7.4l5.3-3.1l-7.2,22l11.9-26.9l-5.4,3.1l2.8-5.3L353.2,635.6z"/>
					<polygon class="st13" points="342.8,694.8 339,697 339,672.1 342.8,669.9 					"/>
					<polygon class="st13" points="340.9,693.9 327.9,706.2 353.2,691.5 					"/>
				</g>
			</g>
			<g>
				<g>
					<path class="st13" d="M448.3,648.1l-68.4,39.5v-78.9l68.4-39.5V648.1z M382.6,683l63.1-36.4v-72.8l-63.1,36.4V683z"/>
				</g>
				<g>
					<path class="st13" d="M441.7,640.4l-55.2,31.9l27.3-71.8L441.7,640.4z M391.9,665.6l44.4-25.6l-22.4-32.1L391.9,665.6z"/>
				</g>
				<g>
					<path class="st13" d="M411.7,646.5c0-1.7,1-3.5,2.4-4.2c1.4-0.8,2.4-0.2,2.4,1.5c0,1.6-0.9,3.4-2.4,4.2
						C412.7,648.8,411.7,648.1,411.7,646.5z M412.7,639.3l-0.6-22l3.9-2.2l-0.6,22.6L412.7,639.3z"/>
				</g>
			</g>
		</g>
	</g>
	<g>
		<g>
			<g>
				<g>
					<polygon class="st7" points="493.3,468.7 663.3,566.9 663.3,763.2 493.3,665.1 					"/>
					<polygon class="st8" points="493.3,468.7 663.3,566.9 663.3,568.7 493.3,471.1 					"/>
					<polygon class="st9" points="946.7,403.3 663.3,566.9 663.3,763.2 946.7,599.6 					"/>
					<polygon class="st10" points="493.3,468.7 663.3,566.9 946.7,403.3 776.7,305.2 					"/>
					<polygon class="st11" points="890,370.6 606.7,534.2 550,501.5 833.3,337.9 					"/>
				</g>
				<polygon class="st12" points="606.7,534.2 606.7,599.6 550,566.9 550,501.5 				"/>
			</g>
			<g>
				<path class="st13" d="M761.6,622.1c-1.7-9.6-12.8-11.4-26.1-3.7c0,0-0.1,0-0.1,0.1c-1.6,0.9-3.1,1.9-4.6,3
					c-1.2,0.9-2.4,1.8-3.5,2.7c-3.8,3.2-7.3,7-10.1,10.8c-4.1,5.7-7,11.7-7.8,17.1l25-14.4v32.1c0,1.9-1.4,4.3-3,5.3
					c-1.7,1-3,0.2-3-1.8v-1.1c0-0.7-0.5-1-1.1-0.6c-0.6,0.3-1.1,1.2-1.1,1.9v1.1c0,3.3,2.3,4.7,5.2,3c2.9-1.7,5.2-5.7,5.2-9v-32.1
					L761.6,622.1z"/>
				<g>
					<path class="st13" d="M768.7,667.1l-68.4,39.5v-78.9l68.4-39.5V667.1z M703,702l63.1-36.4v-72.8L703,629.2V702z"/>
				</g>
			</g>
			<g>
				<g>
					<path class="st13" d="M843,624.2l-68.4,39.5v-78.9l68.4-39.5V624.2z M777.3,659.1l63.1-36.4v-72.8l-63.1,36.4V659.1z"/>
				</g>
				<g>
					<path class="st13" d="M821.5,569.2v19.9c0,6.5-4.6,14.5-10.2,17.7l-4.3,2.5c-5.6,3.2-10.2,0.6-10.2-5.9v-19.9l12.5-7.2
						l-2.7,7.4l5.3-3.1l-7.2,22l11.9-26.9l-5.4,3.1l2.8-5.3L821.5,569.2z"/>
					<polygon class="st13" points="811,628.5 807.2,630.7 807.2,605.7 811,603.5 					"/>
					<polygon class="st13" points="809.1,627.5 796.1,639.8 821.5,625.2 					"/>
				</g>
			</g>
			<g>
				<g>
					<path class="st13" d="M916.5,581.8l-68.4,39.5v-78.9l68.4-39.5V581.8z M850.8,616.6l63.1-36.4v-72.8l-63.1,36.4V616.6z"/>
				</g>
				<g>
					<path class="st13" d="M910,574.1l-55.2,31.9l27.3-71.8L910,574.1z M860.2,599.2l44.4-25.6l-22.4-32.1L860.2,599.2z"/>
				</g>
				<g>
					<path class="st13" d="M880,580.2c0-1.7,1-3.5,2.4-4.2c1.4-0.8,2.4-0.2,2.4,1.5c0,1.6-0.9,3.4-2.4,4.2
						C881,582.5,880,581.8,880,580.2z M881,572.9l-0.6-22l3.9-2.2l-0.6,22.6L881,572.9z"/>
				</g>
			</g>
		</g>
		<g>
			<g>
				<g>
					<polygon class="st7" points="202.3,636.8 372.3,735 372.3,931.3 202.3,833.1 					"/>
					<polygon class="st8" points="202.3,636.8 372.3,735 372.3,736.8 202.3,639.2 					"/>
					<polygon class="st9" points="655.7,571.4 372.3,735 372.3,931.3 655.7,767.7 					"/>
					<polygon class="st10" points="202.3,636.8 372.3,735 655.7,571.4 485.7,473.2 					"/>
					<polygon class="st11" points="599,538.7 315.7,702.3 259,669.6 542.3,506 					"/>
				</g>
				<polygon class="st12" points="315.7,702.3 315.6,767.7 259,735 259,669.6 				"/>
			</g>
			<g>
				<path class="st13" d="M470.6,790.2c-1.7-9.6-12.8-11.4-26.1-3.7c0,0-0.1,0-0.1,0.1c-1.6,0.9-3.1,1.9-4.6,3
					c-1.2,0.9-2.4,1.8-3.5,2.7c-3.8,3.2-7.3,7-10.1,10.8c-4.1,5.7-7,11.7-7.8,17.1l25-14.4v32.1c0,1.9-1.4,4.3-3,5.3
					c-1.7,1-3,0.2-3-1.8v-1.1c0-0.7-0.5-1-1.1-0.6c-0.6,0.3-1.1,1.2-1.1,1.9v1.1c0,3.3,2.3,4.7,5.2,3c2.9-1.7,5.2-5.7,5.2-9v-32.1
					L470.6,790.2z"/>
				<g>
					<path class="st13" d="M477.7,835.2l-68.4,39.5v-78.9l68.4-39.5V835.2z M412,870.1l63.1-36.4v-72.8L412,797.3V870.1z"/>
				</g>
			</g>
			<g>
				<g>
					<path class="st13" d="M552,792.3l-68.4,39.5v-78.9l68.4-39.5V792.3z M486.3,827.2l63.1-36.4V718l-63.1,36.4V827.2z"/>
				</g>
				<g>
					<path class="st13" d="M530.4,737.3v19.9c0,6.5-4.6,14.5-10.2,17.7l-4.3,2.5c-5.6,3.2-10.2,0.6-10.2-5.9v-19.9l12.5-7.2
						l-2.7,7.4l5.3-3.1l-7.2,22l11.9-26.9L520,747l2.8-5.3L530.4,737.3z"/>
					<polygon class="st13" points="520,796.6 516.2,798.7 516.2,773.8 520,771.6 					"/>
					<polygon class="st13" points="518.1,795.6 505.1,807.9 530.4,793.2 					"/>
				</g>
			</g>
			<g>
				<g>
					<path class="st13" d="M625.5,749.8l-68.4,39.5v-78.9l68.4-39.5V749.8z M559.8,784.7l63.1-36.4v-72.8l-63.1,36.4V784.7z"/>
				</g>
				<g>
					<path class="st13" d="M618.9,742.2L563.8,774l27.3-71.8L618.9,742.2z M569.1,767.3l44.4-25.6l-22.4-32.1L569.1,767.3z"/>
				</g>
				<g>
					<path class="st13" d="M589,748.2c0-1.7,1-3.5,2.4-4.2c1.4-0.8,2.4-0.2,2.4,1.5c0,1.6-0.9,3.4-2.4,4.2
						C589.9,750.6,589,749.9,589,748.2z M590,741l-0.6-22l3.9-2.2l-0.6,22.6L590,741z"/>
				</g>
			</g>
		</g>
	</g>
	<g>
		<g>
			<g>
				<g>
					<polygon class="st7" points="668.8,569.3 838.8,667.4 838.8,863.7 668.7,765.6 					"/>
					<polygon class="st8" points="668.8,569.3 838.8,667.4 838.8,669.2 668.8,571.6 					"/>
					<polygon class="st9" points="1122.1,503.8 838.8,667.4 838.8,863.7 1122.1,700.1 					"/>
					<polygon class="st10" points="668.8,569.3 838.8,667.4 1122.1,503.8 952.1,405.7 					"/>
					<polygon class="st11" points="1065.4,471.1 782.2,634.7 725.4,602 1008.8,438.4 					"/>
				</g>
				<polygon class="st12" points="782.2,634.7 782.1,700.1 725.4,667.4 725.4,602 				"/>
			</g>
			<g>
				<path class="st13" d="M937,722.6c-1.7-9.6-12.8-11.4-26.1-3.7c0,0-0.1,0-0.1,0.1c-1.6,0.9-3.1,1.9-4.6,3
					c-1.2,0.9-2.4,1.8-3.5,2.7c-3.8,3.2-7.3,7-10.1,10.8c-4.1,5.7-7,11.7-7.8,17.1l25-14.4v32.1c0,1.9-1.4,4.3-3,5.3
					c-1.7,1-3,0.2-3-1.8v-1.1c0-0.7-0.5-1-1.1-0.6c-0.6,0.3-1.1,1.2-1.1,1.9v1.1c0,3.3,2.3,4.7,5.2,3c2.9-1.7,5.2-5.7,5.2-9V737
					L937,722.6z"/>
				<g>
					<path class="st13" d="M944.1,767.6l-68.4,39.5v-78.9l68.4-39.5V767.6z M878.4,802.5l63.1-36.4v-72.8l-63.1,36.4V802.5z"/>
				</g>
			</g>
			<g>
				<g>
					<path class="st13" d="M1018.4,724.7L950,764.2v-78.9l68.4-39.5V724.7z M952.7,759.6l63.1-36.4v-72.8l-63.1,36.4V759.6z"/>
				</g>
				<g>
					<path class="st13" d="M996.9,669.7v19.9c0,6.5-4.6,14.5-10.2,17.7l-4.3,2.5c-5.6,3.2-10.2,0.6-10.2-5.9V684l12.5-7.2l-2.7,7.4
						l5.3-3.1l-7.2,22l11.9-26.9l-5.4,3.1l2.8-5.3L996.9,669.7z"/>
					<polygon class="st13" points="986.4,729 982.7,731.2 982.7,706.2 986.4,704 					"/>
					<polygon class="st13" points="984.6,728 971.6,740.3 996.9,725.7 					"/>
				</g>
			</g>
			<g>
				<g>
					<path class="st13" d="M1092,682.3l-68.4,39.5v-78.9l68.4-39.5V682.3z M1026.3,717.1l63.1-36.4v-72.8l-63.1,36.4V717.1z"/>
				</g>
				<g>
					<path class="st13" d="M1085.4,674.6l-55.2,31.9l27.3-71.8L1085.4,674.6z M1035.6,699.7l44.4-25.6l-22.4-32.1L1035.6,699.7z"/>
				</g>
				<g>
					<path class="st13" d="M1055.4,680.7c0-1.7,1-3.5,2.4-4.2c1.4-0.8,2.4-0.2,2.4,1.5c0,1.6-0.9,3.4-2.4,4.2
						C1056.4,683,1055.4,682.3,1055.4,680.7z M1056.4,673.4l-0.6-22l3.9-2.2l-0.6,22.6L1056.4,673.4z"/>
				</g>
			</g>
		</g>
		<g>
			<g>
				<g>
					<polygon class="st7" points="377.7,737.3 547.7,835.5 547.7,1031.8 377.7,933.7 					"/>
					<polygon class="st8" points="377.7,737.3 547.7,835.5 547.7,837.3 377.7,739.7 					"/>
					<polygon class="st9" points="831.1,671.9 547.7,835.5 547.7,1031.8 831.1,868.2 					"/>
					<polygon class="st10" points="377.7,737.3 547.7,835.5 831.1,671.9 661.1,573.8 					"/>
					<polygon class="st11" points="774.4,639.2 491.2,802.8 434.4,770.1 717.7,606.5 					"/>
				</g>
				<polygon class="st12" points="491.2,802.8 491.1,868.2 434.4,835.5 434.4,770.1 				"/>
			</g>
			<g>
				<path class="st13" d="M646,890.7c-1.7-9.6-12.8-11.4-26.1-3.7c0,0-0.1,0-0.1,0.1c-1.6,0.9-3.1,1.9-4.6,3
					c-1.2,0.9-2.4,1.8-3.5,2.7c-3.8,3.2-7.3,7-10.1,10.8c-4.1,5.7-7,11.7-7.8,17.1l25-14.4v32.1c0,1.9-1.4,4.3-3,5.3
					c-1.7,1-3,0.2-3-1.8v-1.1c0-0.7-0.5-1-1.1-0.6c-0.6,0.3-1.1,1.2-1.1,1.9v1.1c0,3.3,2.3,4.7,5.2,3c2.9-1.7,5.2-5.7,5.2-9v-32.1
					L646,890.7z"/>
				<g>
					<path class="st13" d="M653.1,935.7l-68.4,39.5v-78.9l68.4-39.5V935.7z M587.4,970.6l63.1-36.4v-72.8l-63.1,36.4V970.6z"/>
				</g>
			</g>
			<g>
				<g>
					<path class="st13" d="M727.4,892.8L659,932.3v-78.9l68.4-39.5V892.8z M661.7,927.7l63.1-36.4v-72.8l-63.1,36.4V927.7z"/>
				</g>
				<g>
					<path class="st13" d="M705.9,837.8v19.9c0,6.5-4.6,14.5-10.2,17.7l-4.3,2.5c-5.6,3.2-10.2,0.6-10.2-5.9v-19.9l12.5-7.2
						l-2.7,7.4l5.3-3.1l-7.2,22l11.9-26.9l-5.4,3.1l2.8-5.3L705.9,837.8z"/>
					<polygon class="st13" points="695.4,897.1 691.7,899.2 691.7,874.3 695.4,872.1 					"/>
					<polygon class="st13" points="693.5,896.1 680.6,908.4 705.9,893.8 					"/>
				</g>
			</g>
			<g>
				<g>
					<path class="st13" d="M801,850.3l-68.4,39.5v-78.9l68.4-39.5V850.3z M735.3,885.2l63.1-36.4V776l-63.1,36.4V885.2z"/>
				</g>
				<g>
					<path class="st13" d="M794.4,842.7l-55.2,31.9l27.3-71.8L794.4,842.7z M744.6,867.8l44.4-25.6l-22.4-32.1L744.6,867.8z"/>
				</g>
				<g>
					<path class="st13" d="M764.4,848.8c0-1.7,1-3.5,2.4-4.2c1.4-0.8,2.4-0.2,2.4,1.5c0,1.6-0.9,3.4-2.4,4.2
						C765.4,851.1,764.4,850.4,764.4,848.8z M765.4,841.5l-0.6-22l3.9-2.2l-0.6,22.6L765.4,841.5z"/>
				</g>
			</g>
		</g>
	</g>
	<g>
		<g>
			<g>
				<g>
					<polygon class="st7" points="844.4,671.1 1014.5,769.3 1014.5,965.6 844.4,867.4 					"/>
					<polygon class="st8" points="844.4,671.1 1014.5,769.3 1014.5,771.1 844.4,673.5 					"/>
					<polygon class="st9" points="1297.8,605.7 1014.5,769.3 1014.5,965.6 1297.8,802 					"/>
					<polygon class="st10" points="844.4,671.1 1014.5,769.3 1297.8,605.7 1127.8,507.5 					"/>
					<polygon class="st11" points="1241.1,573 957.9,736.6 901.1,703.8 1184.5,540.3 					"/>
				</g>
				<polygon class="st12" points="957.9,736.6 957.8,802 901.1,769.3 901.1,703.8 				"/>
			</g>
			<g>
				<path class="st13" d="M1112.7,824.4c-1.7-9.6-12.8-11.4-26.1-3.7c0,0-0.1,0-0.1,0.1c-1.6,0.9-3.1,1.9-4.6,3
					c-1.2,0.9-2.4,1.8-3.5,2.7c-3.8,3.2-7.3,7-10.1,10.8c-4.1,5.7-7,11.7-7.8,17.1l25-14.4v32.1c0,1.9-1.4,4.3-3,5.3
					c-1.7,1-3,0.2-3-1.8v-1.1c0-0.7-0.5-1-1.1-0.6c-0.6,0.3-1.1,1.2-1.1,1.9v1.1c0,3.3,2.3,4.7,5.2,3c2.9-1.7,5.2-5.7,5.2-9v-32.1
					L1112.7,824.4z"/>
				<g>
					<path class="st13" d="M1119.8,869.5l-68.4,39.5V830l68.4-39.5V869.5z M1054.1,904.3l63.1-36.4v-72.8l-63.1,36.4V904.3z"/>
				</g>
			</g>
			<g>
				<g>
					<path class="st13" d="M1194.1,826.6l-68.4,39.5v-78.9l68.4-39.5V826.6z M1128.4,861.5l63.1-36.4v-72.8l-63.1,36.4V861.5z"/>
				</g>
				<g>
					<path class="st13" d="M1172.6,771.6v19.9c0,6.5-4.6,14.5-10.2,17.7l-4.3,2.5c-5.6,3.2-10.2,0.6-10.2-5.9v-19.9l12.5-7.2
						l-2.7,7.4l5.3-3.1l-7.2,22l11.9-26.9l-5.4,3.1l2.8-5.3L1172.6,771.6z"/>
					<polygon class="st13" points="1162.1,830.8 1158.4,833 1158.4,808.1 1162.1,805.9 					"/>
					<polygon class="st13" points="1160.3,829.9 1147.3,842.1 1172.6,827.5 					"/>
				</g>
			</g>
			<g>
				<g>
					<path class="st13" d="M1267.7,784.1l-68.4,39.5v-78.9l68.4-39.5V784.1z M1202,819l63.1-36.4v-72.8l-63.1,36.4V819z"/>
				</g>
				<g>
					<path class="st13" d="M1261.1,776.4l-55.2,31.9l27.3-71.8L1261.1,776.4z M1211.3,801.6l44.4-25.6l-22.4-32.1L1211.3,801.6z"/>
				</g>
				<g>
					<path class="st13" d="M1231.1,782.5c0-1.7,1-3.5,2.4-4.2c1.4-0.8,2.4-0.2,2.4,1.5c0,1.6-0.9,3.4-2.4,4.2
						C1232.1,784.8,1231.1,784.1,1231.1,782.5z M1232.1,775.3l-0.6-22l3.9-2.2l-0.6,22.6L1232.1,775.3z"/>
				</g>
			</g>
		</g>
		<g>
			<g>
				<g>
					<polygon class="st7" points="553.4,839.2 723.4,937.4 723.4,1133.7 553.4,1035.5 					"/>
					<polygon class="st8" points="553.4,839.2 723.4,937.4 723.4,939.2 553.4,841.6 					"/>
					<polygon class="st9" points="1006.8,773.8 723.4,937.4 723.4,1133.7 1006.8,970.1 					"/>
					<polygon class="st10" points="553.4,839.2 723.4,937.4 1006.8,773.8 836.8,675.6 					"/>
					<polygon class="st11" points="950.1,741.1 666.9,904.7 610.1,871.9 893.4,708.3 					"/>
				</g>
				<polygon class="st12" points="666.9,904.7 666.8,970.1 610.1,937.4 610.1,871.9 				"/>
			</g>
			<g>
				<path class="st13" d="M821.7,992.5c-1.7-9.6-12.8-11.4-26.1-3.7c0,0-0.1,0-0.1,0.1c-1.6,0.9-3.1,1.9-4.6,3
					c-1.2,0.9-2.4,1.8-3.5,2.7c-3.8,3.2-7.3,7-10.1,10.8c-4.1,5.7-7,11.7-7.8,17.1l25-14.4v32.1c0,1.9-1.4,4.3-3,5.3
					c-1.7,1-3,0.2-3-1.8v-1.1c0-0.7-0.5-1-1.1-0.6c-0.6,0.3-1.1,1.2-1.1,1.9v1.1c0,3.3,2.3,4.7,5.2,3c2.9-1.7,5.2-5.7,5.2-9V1007
					L821.7,992.5z"/>
				<g>
					<path class="st13" d="M828.8,1037.6l-68.4,39.5v-78.9l68.4-39.5V1037.6z M763.1,1072.4l63.1-36.4v-72.8l-63.1,36.4V1072.4z"/>
				</g>
			</g>
			<g>
				<g>
					<path class="st13" d="M903.1,994.7l-68.4,39.5v-78.9l68.4-39.5V994.7z M837.4,1029.6l63.1-36.4v-72.8l-63.1,36.4V1029.6z"/>
				</g>
				<g>
					<path class="st13" d="M881.6,939.7v19.9c0,6.5-4.6,14.5-10.2,17.7l-4.3,2.5c-5.6,3.2-10.2,0.6-10.2-5.9v-19.9l12.5-7.2
						l-2.7,7.4l5.3-3.1l-7.2,22l11.9-26.9l-5.4,3.1l2.8-5.3L881.6,939.7z"/>
					<polygon class="st13" points="871.1,998.9 867.4,1001.1 867.4,976.2 871.1,974 					"/>
					<polygon class="st13" points="869.2,998 856.3,1010.2 881.6,995.6 					"/>
				</g>
			</g>
			<g>
				<g>
					<path class="st13" d="M976.7,952.2l-68.4,39.5v-78.9l68.4-39.5V952.2z M911,987.1l63.1-36.4v-72.8L911,914.3V987.1z"/>
				</g>
				<g>
					<path class="st13" d="M970.1,944.5l-55.2,31.9l27.3-71.8L970.1,944.5z M920.3,969.7l44.4-25.6L942.2,912L920.3,969.7z"/>
				</g>
				<g>
					<path class="st13" d="M940.1,950.6c0-1.7,1-3.5,2.4-4.2c1.4-0.8,2.4-0.2,2.4,1.5c0,1.6-0.9,3.4-2.4,4.2
						C941.1,952.9,940.1,952.2,940.1,950.6z M941.1,943.4l-0.6-22l3.9-2.2l-0.6,22.6L941.1,943.4z"/>
				</g>
			</g>
		</g>
	</g>
	<g>
		<g>
			<g>
				<g>
					<polygon class="st7" points="1019.9,771.6 1189.9,869.8 1189.9,1066.1 1019.9,967.9 					"/>
					<polygon class="st8" points="1019.9,771.6 1189.9,869.8 1189.9,871.6 1019.9,774 					"/>
					<polygon class="st9" points="1473.2,706.2 1189.9,869.8 1189.9,1066.1 1473.2,902.5 					"/>
					<polygon class="st10" points="1019.9,771.6 1189.9,869.8 1473.2,706.2 1303.2,608 					"/>
					<polygon class="st11" points="1416.6,673.5 1133.3,837.1 1076.5,804.4 1359.9,640.8 					"/>
				</g>
				<polygon class="st12" points="1133.3,837.1 1133.2,902.5 1076.5,869.8 1076.5,804.4 				"/>
			</g>
			<g>
				<path class="st13" d="M1288.1,925c-1.7-9.6-12.8-11.4-26.1-3.7c0,0-0.1,0-0.1,0.1c-1.6,0.9-3.1,1.9-4.6,3
					c-1.2,0.9-2.4,1.8-3.5,2.7c-3.8,3.2-7.3,7-10.1,10.8c-4.1,5.7-7,11.7-7.8,17.1l25-14.4v32.1c0,1.9-1.4,4.3-3,5.3
					c-1.7,1-3,0.2-3-1.8v-1.1c0-0.7-0.5-1-1.1-0.6c-0.6,0.3-1.1,1.2-1.1,1.9v1.1c0,3.3,2.3,4.7,5.2,3c2.9-1.7,5.2-5.7,5.2-9v-32.1
					L1288.1,925z"/>
				<g>
					<path class="st13" d="M1295.3,970l-68.4,39.5v-78.9l68.4-39.5V970z M1229.6,1004.8l63.1-36.4v-72.8l-63.1,36.4V1004.8z"/>
				</g>
			</g>
			<g>
				<g>
					<path class="st13" d="M1369.5,927.1l-68.4,39.5v-78.9l68.4-39.5V927.1z M1303.8,962l63.1-36.4v-72.8l-63.1,36.4V962z"/>
				</g>
				<g>
					<path class="st13" d="M1348,872.1V892c0,6.5-4.6,14.5-10.2,17.7l-4.3,2.5c-5.6,3.2-10.2,0.6-10.2-5.9v-19.9l12.5-7.2l-2.7,7.4
						l5.3-3.1l-7.2,22l11.9-26.9l-5.4,3.1l2.8-5.3L1348,872.1z"/>
					<polygon class="st13" points="1337.6,931.3 1333.8,933.5 1333.8,908.6 1337.6,906.4 					"/>
					<polygon class="st13" points="1335.7,930.4 1322.7,942.7 1348,928 					"/>
				</g>
			</g>
			<g>
				<g>
					<path class="st13" d="M1443.1,884.6l-68.4,39.5v-78.9l68.4-39.5V884.6z M1377.4,919.5l63.1-36.4v-72.8l-63.1,36.4V919.5z"/>
				</g>
				<g>
					<path class="st13" d="M1436.5,877l-55.2,31.9l27.3-71.8L1436.5,877z M1386.7,902.1l44.4-25.6l-22.4-32.1L1386.7,902.1z"/>
				</g>
				<g>
					<path class="st13" d="M1406.5,883c0-1.7,1-3.5,2.4-4.2c1.4-0.8,2.4-0.2,2.4,1.5c0,1.6-0.9,3.4-2.4,4.2
						C1407.5,885.4,1406.5,884.7,1406.5,883z M1407.6,875.8l-0.6-22l3.9-2.2l-0.6,22.6L1407.6,875.8z"/>
				</g>
			</g>
		</g>
		<g>
			<g>
				<g>
					<polygon class="st7" points="728.9,939.7 898.9,1037.9 898.9,1234.2 728.9,1136 					"/>
					<polygon class="st8" points="728.9,939.7 898.9,1037.9 898.9,1039.7 728.9,942.1 					"/>
					<polygon class="st9" points="1182.2,874.3 898.9,1037.9 898.9,1234.2 1182.2,1070.6 					"/>
					<polygon class="st10" points="728.9,939.7 898.9,1037.9 1182.2,874.3 1012.2,776.1 					"/>
					<polygon class="st11" points="1125.6,841.6 842.3,1005.2 785.5,972.4 1068.9,808.9 					"/>
				</g>
				<polygon class="st12" points="842.3,1005.2 842.2,1070.6 785.5,1037.9 785.5,972.4 				"/>
			</g>
			<g>
				<path class="st13" d="M997.1,1093c-1.7-9.6-12.8-11.4-26.1-3.7c0,0-0.1,0-0.1,0.1c-1.6,0.9-3.1,1.9-4.6,3
					c-1.2,0.9-2.4,1.8-3.5,2.7c-3.8,3.2-7.3,7-10.1,10.8c-4.1,5.7-7,11.7-7.8,17.1l25-14.4v32.1c0,1.9-1.4,4.3-3,5.3
					c-1.7,1-3,0.2-3-1.8v-1.1c0-0.7-0.5-1-1.1-0.6c-0.6,0.3-1.1,1.2-1.1,1.9v1.1c0,3.3,2.3,4.7,5.2,3c2.9-1.7,5.2-5.7,5.2-9v-32.1
					L997.1,1093z"/>
				<g>
					<path class="st13" d="M1004.3,1138.1l-68.4,39.5v-78.9l68.4-39.5V1138.1z M938.6,1172.9l63.1-36.4v-72.8l-63.1,36.4V1172.9z"/>
				</g>
			</g>
			<g>
				<g>
					<path class="st13" d="M1078.5,1095.2l-68.4,39.5v-78.9l68.4-39.5V1095.2z M1012.8,1130.1l63.1-36.4v-72.8l-63.1,36.4V1130.1z"
						/>
				</g>
				<g>
					<path class="st13" d="M1057,1040.2v19.9c0,6.5-4.6,14.5-10.2,17.7l-4.3,2.5c-5.6,3.2-10.2,0.6-10.2-5.9v-19.9l12.5-7.2
						l-2.7,7.4l5.3-3.1l-7.2,22l11.9-26.9l-5.4,3.1l2.8-5.3L1057,1040.2z"/>
					<polygon class="st13" points="1046.6,1099.4 1042.8,1101.6 1042.8,1076.7 1046.6,1074.5 					"/>
					<polygon class="st13" points="1044.7,1098.5 1031.7,1110.7 1057,1096.1 					"/>
				</g>
			</g>
			<g>
				<g>
					<path class="st13" d="M1152.1,1052.7l-68.4,39.5v-78.9l68.4-39.5V1052.7z M1086.4,1087.6l63.1-36.4v-72.8l-63.1,36.4V1087.6z"
						/>
				</g>
				<g>
					<path class="st13" d="M1145.5,1045l-55.2,31.9l27.3-71.8L1145.5,1045z M1095.7,1070.2l44.4-25.6l-22.4-32.1L1095.7,1070.2z"/>
				</g>
				<g>
					<path class="st13" d="M1115.5,1051.1c0-1.7,1-3.5,2.4-4.2c1.4-0.8,2.4-0.2,2.4,1.5c0,1.6-0.9,3.4-2.4,4.2
						C1116.5,1053.4,1115.5,1052.7,1115.5,1051.1z M1116.5,1043.9l-0.6-22l3.9-2.2l-0.6,22.6L1116.5,1043.9z"/>
				</g>
			</g>
		</g>
	</g>
</g>
<g>
	<g>
		<g>
			<g>
				<g>
					<polygon class="st7" points="346.1,155.6 516.1,253.7 516.1,450.1 346.1,351.9 					"/>
					<polygon class="st8" points="346.1,155.6 516.1,253.7 516.1,255.6 346.1,157.9 					"/>
					<polygon class="st9" points="799.4,90.1 516.1,253.7 516.1,450.1 799.4,286.5 					"/>
					<polygon class="st10" points="346.1,155.6 516.1,253.7 799.4,90.1 629.4,-8 					"/>
					<polygon class="st11" points="742.7,57.5 459.5,221.1 402.7,188.3 686.1,24.7 					"/>
				</g>
				<polygon class="st12" points="459.5,221.1 459.4,286.5 402.7,253.7 402.7,188.3 				"/>
			</g>
			<g>
				<path class="st13" d="M614.3,308.9c-1.7-9.6-12.8-11.4-26.1-3.7c0,0-0.1,0-0.1,0.1c-1.6,0.9-3.1,1.9-4.6,3
					c-1.2,0.9-2.4,1.8-3.5,2.7c-3.8,3.2-7.3,7-10.1,10.8c-4.1,5.7-7,11.7-7.8,17.1l25-14.4v32.1c0,1.9-1.4,4.3-3,5.3
					c-1.7,1-3,0.2-3-1.8V359c0-0.7-0.5-1-1.1-0.6c-0.6,0.3-1.1,1.2-1.1,1.9v1.1c0,3.3,2.3,4.7,5.2,3c2.9-1.7,5.2-5.7,5.2-9v-32.1
					L614.3,308.9z"/>
				<g>
					<path class="st13" d="M621.5,353.9l-68.4,39.5v-78.9l68.4-39.5V353.9z M555.8,388.8l63.1-36.4v-72.8L555.8,316V388.8z"/>
				</g>
			</g>
			<g>
				<g>
					<path class="st13" d="M695.7,311.1l-68.4,39.5v-78.9l68.4-39.5V311.1z M630,345.9l63.1-36.4v-72.8L630,273.1V345.9z"/>
				</g>
				<g>
					<path class="st13" d="M674.2,256V276c0,6.5-4.6,14.5-10.2,17.7l-4.3,2.5c-5.6,3.2-10.2,0.6-10.2-5.9v-19.9l12.5-7.2l-2.7,7.4
						l5.3-3.1l-7.2,22l11.9-26.9l-5.4,3.1l2.8-5.3L674.2,256z"/>
					<polygon class="st13" points="663.8,315.3 660,317.5 660,292.6 663.8,290.4 					"/>
					<polygon class="st13" points="661.9,314.4 648.9,326.6 674.2,312 					"/>
				</g>
			</g>
			<g>
				<g>
					<path class="st13" d="M769.3,268.6l-68.4,39.5v-78.9l68.4-39.5V268.6z M703.6,303.5l63.1-36.4v-72.8l-63.1,36.4V303.5z"/>
				</g>
				<g>
					<path class="st13" d="M762.7,260.9l-55.2,31.9l27.3-71.8L762.7,260.9z M712.9,286l44.4-25.6l-22.4-32.1L712.9,286z"/>
				</g>
				<g>
					<path class="st13" d="M732.7,267c0-1.7,1-3.5,2.4-4.2c1.4-0.8,2.4-0.2,2.4,1.5c0,1.6-0.9,3.4-2.4,4.2
						C733.7,269.3,732.7,268.6,732.7,267z M733.7,259.8l-0.6-22l3.9-2.2l-0.6,22.6L733.7,259.8z"/>
				</g>
			</g>
		</g>
		<g>
			<g>
				<g>
					<polygon class="st7" points="55.1,323.7 225.1,421.8 225.1,618.1 55.1,520 					"/>
					<polygon class="st8" points="55.1,323.7 225.1,421.8 225.1,423.7 55.1,326 					"/>
					<polygon class="st9" points="508.4,258.2 225.1,421.8 225.1,618.1 508.4,454.5 					"/>
					<polygon class="st10" points="55.1,323.7 225.1,421.8 508.4,258.2 338.4,160.1 					"/>
					<polygon class="st11" points="451.7,225.5 168.5,389.2 111.7,356.4 395.1,192.8 					"/>
				</g>
				<polygon class="st12" points="168.5,389.2 168.4,454.5 111.7,421.8 111.7,356.4 				"/>
			</g>
			<g>
				<path class="st13" d="M323.3,477c-1.7-9.6-12.8-11.4-26.1-3.7c0,0-0.1,0-0.1,0.1c-1.6,0.9-3.1,1.9-4.6,3
					c-1.2,0.9-2.4,1.8-3.5,2.7c-3.8,3.2-7.3,7-10.1,10.8c-4.1,5.7-7,11.7-7.8,17.1l25-14.4v32.1c0,1.9-1.4,4.3-3,5.3
					c-1.7,1-3,0.2-3-1.8v-1.1c0-0.7-0.5-1-1.1-0.6s-1.1,1.2-1.1,1.9v1.1c0,3.3,2.3,4.7,5.2,3c2.9-1.7,5.2-5.7,5.2-9v-32.1L323.3,477
					z"/>
				<g>
					<path class="st13" d="M330.5,522l-68.4,39.5v-78.9l68.4-39.5V522z M264.7,556.9l63.1-36.4v-72.8l-63.1,36.4V556.9z"/>
				</g>
			</g>
			<g>
				<g>
					<path class="st13" d="M404.7,479.2l-68.4,39.5v-78.9l68.4-39.5V479.2z M339,514l63.1-36.4v-72.8L339,441.2V514z"/>
				</g>
				<g>
					<path class="st13" d="M383.2,424.1V444c0,6.5-4.6,14.5-10.2,17.7l-4.3,2.5c-5.6,3.2-10.2,0.6-10.2-5.9v-19.9l12.5-7.2l-2.7,7.4
						l5.3-3.1l-7.2,22l11.9-26.9l-5.4,3.1l2.8-5.3L383.2,424.1z"/>
					<polygon class="st13" points="372.8,483.4 369,485.6 369,460.6 372.8,458.5 					"/>
					<polygon class="st13" points="370.9,482.5 357.9,494.7 383.2,480.1 					"/>
				</g>
			</g>
			<g>
				<g>
					<path class="st13" d="M478.3,436.7l-68.4,39.5v-78.9l68.4-39.5V436.7z M412.6,471.6l63.1-36.4v-72.8l-63.1,36.4V471.6z"/>
				</g>
				<g>
					<path class="st13" d="M471.7,429l-55.2,31.9l27.3-71.8L471.7,429z M421.9,454.1l44.4-25.6l-22.4-32.1L421.9,454.1z"/>
				</g>
				<g>
					<path class="st13" d="M441.7,435.1c0-1.7,1-3.5,2.4-4.2c1.4-0.8,2.4-0.2,2.4,1.5c0,1.6-0.9,3.4-2.4,4.2
						C442.7,437.4,441.7,436.7,441.7,435.1z M442.7,427.9l-0.6-22l3.9-2.2l-0.6,22.6L442.7,427.9z"/>
				</g>
			</g>
		</g>
	</g>
	<g>
		<g>
			<g>
				<g>
					<polygon class="st7" points="523.3,257.3 693.3,355.5 693.3,551.8 523.3,453.6 					"/>
					<polygon class="st8" points="523.3,257.3 693.3,355.5 693.3,357.3 523.3,259.7 					"/>
					<polygon class="st9" points="976.7,191.9 693.3,355.5 693.3,551.8 976.7,388.2 					"/>
					<polygon class="st10" points="523.3,257.3 693.3,355.5 976.7,191.9 806.7,93.7 					"/>
					<polygon class="st11" points="920,159.2 636.7,322.8 580,290 863.3,126.4 					"/>
				</g>
				<polygon class="st12" points="636.7,322.8 636.7,388.2 580,355.5 580,290 				"/>
			</g>
			<g>
				<path class="st13" d="M791.6,410.6c-1.7-9.6-12.8-11.4-26.1-3.7c0,0-0.1,0-0.1,0.1c-1.6,0.9-3.1,1.9-4.6,3
					c-1.2,0.9-2.4,1.8-3.5,2.7c-3.8,3.2-7.3,7-10.1,10.8c-4.1,5.7-7,11.7-7.8,17.1l25-14.4v32.1c0,1.9-1.4,4.3-3,5.3
					c-1.7,1-3,0.2-3-1.8v-1.1c0-0.7-0.5-1-1.1-0.6c-0.6,0.3-1.1,1.2-1.1,1.9v1.1c0,3.3,2.3,4.7,5.2,3c2.9-1.7,5.2-5.7,5.2-9v-32.1
					L791.6,410.6z"/>
				<g>
					<path class="st13" d="M798.7,455.7l-68.4,39.5v-78.9l68.4-39.5V455.7z M733,490.5l63.1-36.4v-72.8L733,417.7V490.5z"/>
				</g>
			</g>
			<g>
				<g>
					<path class="st13" d="M873,412.8l-68.4,39.5v-78.9l68.4-39.5V412.8z M807.3,447.7l63.1-36.4v-72.8l-63.1,36.4V447.7z"/>
				</g>
				<g>
					<path class="st13" d="M851.5,357.8v19.9c0,6.5-4.6,14.5-10.2,17.7l-4.3,2.5c-5.6,3.2-10.2,0.6-10.2-5.9V372l12.5-7.2l-2.7,7.4
						l5.3-3.1l-7.2,22l11.9-26.9l-5.4,3.1l2.8-5.3L851.5,357.8z"/>
					<polygon class="st13" points="841,417 837.2,419.2 837.2,394.3 841,392.1 					"/>
					<polygon class="st13" points="839.1,416.1 826.1,428.3 851.5,413.7 					"/>
				</g>
			</g>
			<g>
				<g>
					<path class="st13" d="M946.5,370.3l-68.4,39.5v-78.9l68.4-39.5V370.3z M880.8,405.2l63.1-36.4V296l-63.1,36.4V405.2z"/>
				</g>
				<g>
					<path class="st13" d="M940,362.6l-55.2,31.9l27.3-71.8L940,362.6z M890.2,387.8l44.4-25.6l-22.4-32.1L890.2,387.8z"/>
				</g>
				<g>
					<path class="st13" d="M910,368.7c0-1.7,1-3.5,2.4-4.2c1.4-0.8,2.4-0.2,2.4,1.5c0,1.6-0.9,3.4-2.4,4.2
						C911,371,910,370.3,910,368.7z M911,361.5l-0.6-22l3.9-2.2l-0.6,22.6L911,361.5z"/>
				</g>
			</g>
		</g>
		<g>
			<g>
				<g>
					<polygon class="st7" points="232.3,425.4 402.3,523.6 402.3,719.9 232.3,621.7 					"/>
					<polygon class="st8" points="232.3,425.4 402.3,523.6 402.3,525.4 232.3,427.7 					"/>
					<polygon class="st9" points="685.7,360 402.3,523.6 402.3,719.9 685.7,556.3 					"/>
					<polygon class="st10" points="232.3,425.4 402.3,523.6 685.7,360 515.7,261.8 					"/>
					<polygon class="st11" points="629,327.3 345.7,490.9 289,458.1 572.3,294.5 					"/>
				</g>
				<polygon class="st12" points="345.7,490.9 345.6,556.3 289,523.5 289,458.1 				"/>
			</g>
			<g>
				<path class="st13" d="M500.6,578.7c-1.7-9.6-12.8-11.4-26.1-3.7c0,0-0.1,0-0.1,0.1c-1.6,0.9-3.1,1.9-4.6,3
					c-1.2,0.9-2.4,1.8-3.5,2.7c-3.8,3.2-7.3,7-10.1,10.8c-4.1,5.7-7,11.7-7.8,17.1l25-14.4v32.1c0,1.9-1.4,4.3-3,5.3
					c-1.7,1-3,0.2-3-1.8v-1.1c0-0.7-0.5-1-1.1-0.6c-0.6,0.3-1.1,1.2-1.1,1.9v1.1c0,3.3,2.3,4.7,5.2,3c2.9-1.7,5.2-5.7,5.2-9v-32.1
					L500.6,578.7z"/>
				<g>
					<path class="st13" d="M507.7,623.7l-68.4,39.5v-78.9l68.4-39.5V623.7z M442,658.6l63.1-36.4v-72.8L442,585.8V658.6z"/>
				</g>
			</g>
			<g>
				<g>
					<path class="st13" d="M582,580.9l-68.4,39.5v-78.9l68.4-39.5V580.9z M516.3,615.7l63.1-36.4v-72.8l-63.1,36.4V615.7z"/>
				</g>
				<g>
					<path class="st13" d="M560.4,525.9v19.9c0,6.5-4.6,14.5-10.2,17.7l-4.3,2.5c-5.6,3.2-10.2,0.6-10.2-5.9v-19.9l12.5-7.2
						l-2.7,7.4l5.3-3.1l-7.2,22l11.9-26.9l-5.4,3.1l2.8-5.3L560.4,525.9z"/>
					<polygon class="st13" points="550,585.1 546.2,587.3 546.2,562.4 550,560.2 					"/>
					<polygon class="st13" points="548.1,584.2 535.1,596.4 560.4,581.8 					"/>
				</g>
			</g>
			<g>
				<g>
					<path class="st13" d="M655.5,538.4l-68.4,39.5v-78.9l68.4-39.5V538.4z M589.8,573.3l63.1-36.4v-72.8l-63.1,36.4V573.3z"/>
				</g>
				<g>
					<path class="st13" d="M648.9,530.7l-55.2,31.9l27.3-71.8L648.9,530.7z M599.1,555.8l44.4-25.6l-22.4-32.1L599.1,555.8z"/>
				</g>
				<g>
					<path class="st13" d="M619,536.8c0-1.7,1-3.5,2.4-4.2c1.4-0.8,2.4-0.2,2.4,1.5c0,1.6-0.9,3.4-2.4,4.2
						C619.9,539.1,619,538.4,619,536.8z M620,529.6l-0.6-22l3.9-2.2l-0.6,22.6L620,529.6z"/>
				</g>
			</g>
		</g>
	</g>
	<g>
		<g>
			<g>
				<g>
					<polygon class="st7" points="698.8,357.8 868.8,456 868.8,652.3 698.7,554.1 					"/>
					<polygon class="st8" points="698.8,357.8 868.8,456 868.8,457.8 698.8,360.2 					"/>
					<polygon class="st9" points="1152.1,292.4 868.8,456 868.8,652.3 1152.1,488.7 					"/>
					<polygon class="st10" points="698.8,357.8 868.8,456 1152.1,292.4 982.1,194.2 					"/>
					<polygon class="st11" points="1095.4,259.7 812.2,423.3 755.4,390.6 1038.8,227 					"/>
				</g>
				<polygon class="st12" points="812.2,423.3 812.1,488.7 755.4,456 755.4,390.6 				"/>
			</g>
			<g>
				<path class="st13" d="M967,511.1c-1.7-9.6-12.8-11.4-26.1-3.7c0,0-0.1,0-0.1,0.1c-1.6,0.9-3.1,1.9-4.6,3
					c-1.2,0.9-2.4,1.8-3.5,2.7c-3.8,3.2-7.3,7-10.1,10.8c-4.1,5.7-7,11.7-7.8,17.1l25-14.4v32.1c0,1.9-1.4,4.3-3,5.3
					c-1.7,1-3,0.2-3-1.8v-1.1c0-0.7-0.5-1-1.1-0.6c-0.6,0.3-1.1,1.2-1.1,1.9v1.1c0,3.3,2.3,4.7,5.2,3c2.9-1.7,5.2-5.7,5.2-9v-32.1
					L967,511.1z"/>
				<g>
					<path class="st13" d="M974.1,556.2l-68.4,39.5v-78.9l68.4-39.5V556.2z M908.4,591l63.1-36.4v-72.8l-63.1,36.4V591z"/>
				</g>
			</g>
			<g>
				<g>
					<path class="st13" d="M1048.4,513.3L980,552.8v-78.9l68.4-39.5V513.3z M982.7,548.2l63.1-36.4V439l-63.1,36.4V548.2z"/>
				</g>
				<g>
					<path class="st13" d="M1026.9,458.3v19.9c0,6.5-4.6,14.5-10.2,17.7l-4.3,2.5c-5.6,3.2-10.2,0.6-10.2-5.9v-19.9l12.5-7.2
						l-2.7,7.4l5.3-3.1l-7.2,22l11.9-26.9l-5.4,3.1l2.8-5.3L1026.9,458.3z"/>
					<polygon class="st13" points="1016.4,517.5 1012.7,519.7 1012.7,494.8 1016.4,492.6 					"/>
					<polygon class="st13" points="1014.6,516.6 1001.6,528.9 1026.9,514.2 					"/>
				</g>
			</g>
			<g>
				<g>
					<path class="st13" d="M1122,470.8l-68.4,39.5v-78.9l68.4-39.5V470.8z M1056.3,505.7l63.1-36.4v-72.8l-63.1,36.4V505.7z"/>
				</g>
				<g>
					<path class="st13" d="M1115.4,463.2l-55.2,31.9l27.3-71.8L1115.4,463.2z M1065.6,488.3l44.4-25.6l-22.4-32.1L1065.6,488.3z"/>
				</g>
				<g>
					<path class="st13" d="M1085.4,469.2c0-1.7,1-3.5,2.4-4.2c1.4-0.8,2.4-0.2,2.4,1.5c0,1.6-0.9,3.4-2.4,4.2
						C1086.4,471.5,1085.4,470.8,1085.4,469.2z M1086.4,462l-0.6-22l3.9-2.2l-0.6,22.6L1086.4,462z"/>
				</g>
			</g>
		</g>
		<g>
			<g>
				<g>
					<polygon class="st7" points="407.7,525.9 577.7,624.1 577.7,820.4 407.7,722.2 					"/>
					<polygon class="st8" points="407.7,525.9 577.7,624.1 577.7,625.9 407.7,528.3 					"/>
					<polygon class="st9" points="861.1,460.5 577.7,624.1 577.7,820.4 861.1,656.8 					"/>
					<polygon class="st10" points="407.7,525.9 577.7,624.1 861.1,460.5 691.1,362.3 					"/>
					<polygon class="st11" points="804.4,427.8 521.2,591.4 464.4,558.6 747.7,395 					"/>
				</g>
				<polygon class="st12" points="521.2,591.4 521.1,656.8 464.4,624.1 464.4,558.6 				"/>
			</g>
			<g>
				<path class="st13" d="M676,679.2c-1.7-9.6-12.8-11.4-26.1-3.7c0,0-0.1,0-0.1,0.1c-1.6,0.9-3.1,1.9-4.6,3
					c-1.2,0.9-2.4,1.8-3.5,2.7c-3.8,3.2-7.3,7-10.1,10.8c-4.1,5.7-7,11.7-7.8,17.1l25-14.4V727c0,1.9-1.4,4.3-3,5.3
					c-1.7,1-3,0.2-3-1.8v-1.1c0-0.7-0.5-1-1.1-0.6c-0.6,0.3-1.1,1.2-1.1,1.9v1.1c0,3.3,2.3,4.7,5.2,3c2.9-1.7,5.2-5.7,5.2-9v-32.1
					L676,679.2z"/>
				<g>
					<path class="st13" d="M683.1,724.3l-68.4,39.5v-78.9l68.4-39.5V724.3z M617.4,759.1l63.1-36.4v-72.8l-63.1,36.4V759.1z"/>
				</g>
			</g>
			<g>
				<g>
					<path class="st13" d="M757.4,681.4L689,720.8v-78.9l68.4-39.5V681.4z M691.7,716.3l63.1-36.4V607l-63.1,36.4V716.3z"/>
				</g>
				<g>
					<path class="st13" d="M735.9,626.4v19.9c0,6.5-4.6,14.5-10.2,17.7l-4.3,2.5c-5.6,3.2-10.2,0.6-10.2-5.9v-19.9l12.5-7.2
						l-2.7,7.4l5.3-3.1l-7.2,22l11.9-26.9l-5.4,3.1l2.8-5.3L735.9,626.4z"/>
					<polygon class="st13" points="725.4,685.6 721.7,687.8 721.7,662.9 725.4,660.7 					"/>
					<polygon class="st13" points="723.5,684.7 710.6,696.9 735.9,682.3 					"/>
				</g>
			</g>
			<g>
				<g>
					<path class="st13" d="M831,638.9l-68.4,39.5v-78.9L831,560V638.9z M765.3,673.8l63.1-36.4v-72.8L765.3,601V673.8z"/>
				</g>
				<g>
					<path class="st13" d="M824.4,631.2l-55.2,31.9l27.3-71.8L824.4,631.2z M774.6,656.4l44.4-25.6l-22.4-32.1L774.6,656.4z"/>
				</g>
				<g>
					<path class="st13" d="M794.4,637.3c0-1.7,1-3.5,2.4-4.2c1.4-0.8,2.4-0.2,2.4,1.5c0,1.6-0.9,3.4-2.4,4.2
						C795.4,639.6,794.4,638.9,794.4,637.3z M795.4,630.1l-0.6-22l3.9-2.2l-0.6,22.6L795.4,630.1z"/>
				</g>
			</g>
		</g>
	</g>
	<g>
		<g>
			<g>
				<g>
					<polygon class="st7" points="874.4,459.7 1044.5,557.8 1044.5,754.1 874.4,656 					"/>
					<polygon class="st8" points="874.4,459.7 1044.5,557.8 1044.5,559.7 874.4,462 					"/>
					<polygon class="st9" points="1327.8,394.2 1044.5,557.8 1044.5,754.1 1327.8,590.5 					"/>
					<polygon class="st10" points="874.4,459.7 1044.5,557.8 1327.8,394.2 1157.8,296.1 					"/>
					<polygon class="st11" points="1271.1,361.5 987.9,525.2 931.1,492.4 1214.5,328.8 					"/>
				</g>
				<polygon class="st12" points="987.9,525.2 987.8,590.5 931.1,557.8 931.1,492.4 				"/>
			</g>
			<g>
				<path class="st13" d="M1142.7,613c-1.7-9.6-12.8-11.4-26.1-3.7c0,0-0.1,0-0.1,0.1c-1.6,0.9-3.1,1.9-4.6,3
					c-1.2,0.9-2.4,1.8-3.5,2.7c-3.8,3.2-7.3,7-10.1,10.8c-4.1,5.7-7,11.7-7.8,17.1l25-14.4v32.1c0,1.9-1.4,4.3-3,5.3
					c-1.7,1-3,0.2-3-1.8v-1.1c0-0.7-0.5-1-1.1-0.6c-0.6,0.3-1.1,1.2-1.1,1.9v1.1c0,3.3,2.3,4.7,5.2,3c2.9-1.7,5.2-5.7,5.2-9v-32.1
					L1142.7,613z"/>
				<g>
					<path class="st13" d="M1149.8,658l-68.4,39.5v-78.9l68.4-39.5V658z M1084.1,692.9l63.1-36.4v-72.8l-63.1,36.4V692.9z"/>
				</g>
			</g>
			<g>
				<g>
					<path class="st13" d="M1224.1,615.2l-68.4,39.5v-78.9l68.4-39.5V615.2z M1158.4,650l63.1-36.4v-72.8l-63.1,36.4V650z"/>
				</g>
				<g>
					<path class="st13" d="M1202.6,560.1V580c0,6.5-4.6,14.5-10.2,17.7l-4.3,2.5c-5.6,3.2-10.2,0.6-10.2-5.9v-19.9l12.5-7.2
						l-2.7,7.4l5.3-3.1l-7.2,22l11.9-26.9l-5.4,3.1l2.8-5.3L1202.6,560.1z"/>
					<polygon class="st13" points="1192.1,619.4 1188.4,621.6 1188.4,596.6 1192.1,594.5 					"/>
					<polygon class="st13" points="1190.3,618.5 1177.3,630.7 1202.6,616.1 					"/>
				</g>
			</g>
			<g>
				<g>
					<path class="st13" d="M1297.7,572.7l-68.4,39.5v-78.9l68.4-39.5V572.7z M1232,607.6l63.1-36.4v-72.8l-63.1,36.4V607.6z"/>
				</g>
				<g>
					<path class="st13" d="M1291.1,565l-55.2,31.9l27.3-71.8L1291.1,565z M1241.3,590.1l44.4-25.6l-22.4-32.1L1241.3,590.1z"/>
				</g>
				<g>
					<path class="st13" d="M1261.1,571.1c0-1.7,1-3.5,2.4-4.2c1.4-0.8,2.4-0.2,2.4,1.5c0,1.6-0.9,3.4-2.4,4.2
						C1262.1,573.4,1261.1,572.7,1261.1,571.1z M1262.1,563.9l-0.6-22l3.9-2.2l-0.6,22.6L1262.1,563.9z"/>
				</g>
			</g>
		</g>
		<g>
			<g>
				<g>
					<polygon class="st7" points="583.4,627.8 753.4,725.9 753.4,922.2 583.4,824.1 					"/>
					<polygon class="st8" points="583.4,627.8 753.4,725.9 753.4,727.8 583.4,630.1 					"/>
					<polygon class="st9" points="1036.8,562.3 753.4,725.9 753.4,922.2 1036.8,758.6 					"/>
					<polygon class="st10" points="583.4,627.8 753.4,725.9 1036.8,562.3 866.8,464.2 					"/>
					<polygon class="st11" points="980.1,529.6 696.9,693.3 640.1,660.5 923.4,496.9 					"/>
				</g>
				<polygon class="st12" points="696.9,693.3 696.8,758.6 640.1,725.9 640.1,660.5 				"/>
			</g>
			<g>
				<path class="st13" d="M851.7,781.1c-1.7-9.6-12.8-11.4-26.1-3.7c0,0-0.1,0-0.1,0.1c-1.6,0.9-3.1,1.9-4.6,3
					c-1.2,0.9-2.4,1.8-3.5,2.7c-3.8,3.2-7.3,7-10.1,10.8c-4.1,5.7-7,11.7-7.8,17.1l25-14.4v32.1c0,1.9-1.4,4.3-3,5.3
					c-1.7,1-3,0.2-3-1.8v-1.1c0-0.7-0.5-1-1.1-0.6c-0.6,0.3-1.1,1.2-1.1,1.9v1.1c0,3.3,2.3,4.7,5.2,3c2.9-1.7,5.2-5.7,5.2-9v-32.1
					L851.7,781.1z"/>
				<g>
					<path class="st13" d="M858.8,826.1l-68.4,39.5v-78.9l68.4-39.5V826.1z M793.1,861l63.1-36.4v-72.8l-63.1,36.4V861z"/>
				</g>
			</g>
			<g>
				<g>
					<path class="st13" d="M933.1,783.2l-68.4,39.5v-78.9l68.4-39.5V783.2z M867.4,818.1l63.1-36.4v-72.8l-63.1,36.4V818.1z"/>
				</g>
				<g>
					<path class="st13" d="M911.6,728.2v19.9c0,6.5-4.6,14.5-10.2,17.7l-4.3,2.5c-5.6,3.2-10.2,0.6-10.2-5.9v-19.9l12.5-7.2
						l-2.7,7.4l5.3-3.1l-7.2,22l11.9-26.9l-5.4,3.1l2.8-5.3L911.6,728.2z"/>
					<polygon class="st13" points="901.1,787.5 897.4,789.7 897.4,764.7 901.1,762.5 					"/>
					<polygon class="st13" points="899.2,786.6 886.3,798.8 911.6,784.2 					"/>
				</g>
			</g>
			<g>
				<g>
					<path class="st13" d="M1006.7,740.8l-68.4,39.5v-78.9l68.4-39.5V740.8z M941,775.6l63.1-36.4v-72.8L941,702.8V775.6z"/>
				</g>
				<g>
					<path class="st13" d="M1000.1,733.1L944.9,765l27.3-71.8L1000.1,733.1z M950.3,758.2l44.4-25.6l-22.4-32.1L950.3,758.2z"/>
				</g>
				<g>
					<path class="st13" d="M970.1,739.2c0-1.7,1-3.5,2.4-4.2c1.4-0.8,2.4-0.2,2.4,1.5c0,1.6-0.9,3.4-2.4,4.2
						C971.1,741.5,970.1,740.8,970.1,739.2z M971.1,731.9l-0.6-22l3.9-2.2l-0.6,22.6L971.1,731.9z"/>
				</g>
			</g>
		</g>
	</g>
	<g>
		<g>
			<g>
				<g>
					<polygon class="st7" points="1049.9,560.2 1219.9,658.3 1219.9,854.6 1049.9,756.5 					"/>
					<polygon class="st8" points="1049.9,560.2 1219.9,658.3 1219.9,660.2 1049.9,562.5 					"/>
					<polygon class="st9" points="1503.2,494.7 1219.9,658.3 1219.9,854.6 1503.2,691.1 					"/>
					<polygon class="st10" points="1049.9,560.2 1219.9,658.3 1503.2,494.7 1333.2,396.6 					"/>
					<polygon class="st11" points="1446.6,462 1163.3,625.7 1106.5,592.9 1389.9,429.3 					"/>
				</g>
				<polygon class="st12" points="1163.3,625.7 1163.2,691.1 1106.5,658.3 1106.5,592.9 				"/>
			</g>
			<g>
				<path class="st13" d="M1318.1,713.5c-1.7-9.6-12.8-11.4-26.1-3.7c0,0-0.1,0-0.1,0.1c-1.6,0.9-3.1,1.9-4.6,3
					c-1.2,0.9-2.4,1.8-3.5,2.7c-3.8,3.2-7.3,7-10.1,10.8c-4.1,5.7-7,11.7-7.8,17.1l25-14.4v32.1c0,1.9-1.4,4.3-3,5.3
					c-1.7,1-3,0.2-3-1.8v-1.1c0-0.7-0.5-1-1.1-0.6c-0.6,0.3-1.1,1.2-1.1,1.9v1.1c0,3.3,2.3,4.7,5.2,3c2.9-1.7,5.2-5.7,5.2-9V728
					L1318.1,713.5z"/>
				<g>
					<path class="st13" d="M1325.3,758.5l-68.4,39.5v-78.9l68.4-39.5V758.5z M1259.6,793.4l63.1-36.4v-72.8l-63.1,36.4V793.4z"/>
				</g>
			</g>
			<g>
				<g>
					<path class="st13" d="M1399.5,715.7l-68.4,39.5v-78.9l68.4-39.5V715.7z M1333.8,750.5l63.1-36.4v-72.8l-63.1,36.4V750.5z"/>
				</g>
				<g>
					<path class="st13" d="M1378,660.6v19.9c0,6.5-4.6,14.5-10.2,17.7l-4.3,2.5c-5.6,3.2-10.2,0.6-10.2-5.9v-19.9l12.5-7.2l-2.7,7.4
						l5.3-3.1l-7.2,22l11.9-26.9l-5.4,3.1l2.8-5.3L1378,660.6z"/>
					<polygon class="st13" points="1367.6,719.9 1363.8,722.1 1363.8,697.2 1367.6,695 					"/>
					<polygon class="st13" points="1365.7,719 1352.7,731.2 1378,716.6 					"/>
				</g>
			</g>
			<g>
				<g>
					<path class="st13" d="M1473.1,673.2l-68.4,39.5v-78.9l68.4-39.5V673.2z M1407.4,708.1l63.1-36.4v-72.8l-63.1,36.4V708.1z"/>
				</g>
				<g>
					<path class="st13" d="M1466.5,665.5l-55.2,31.9l27.3-71.8L1466.5,665.5z M1416.7,690.6l44.4-25.6l-22.4-32.1L1416.7,690.6z"/>
				</g>
				<g>
					<path class="st13" d="M1436.5,671.6c0-1.7,1-3.5,2.4-4.2c1.4-0.8,2.4-0.2,2.4,1.5c0,1.6-0.9,3.4-2.4,4.2
						C1437.5,673.9,1436.5,673.2,1436.5,671.6z M1437.6,664.4l-0.6-22l3.9-2.2l-0.6,22.6L1437.6,664.4z"/>
				</g>
			</g>
		</g>
		<g>
			<g>
				<g>
					<polygon class="st7" points="758.9,728.3 928.9,826.4 928.9,1022.7 758.9,924.6 					"/>
					<polygon class="st8" points="758.9,728.3 928.9,826.4 928.9,828.3 758.9,730.6 					"/>
					<polygon class="st9" points="1212.2,662.8 928.9,826.4 928.9,1022.7 1212.2,859.1 					"/>
					<polygon class="st10" points="758.9,728.3 928.9,826.4 1212.2,662.8 1042.2,564.7 					"/>
					<polygon class="st11" points="1155.6,630.1 872.3,793.8 815.5,761 1098.9,597.4 					"/>
				</g>
				<polygon class="st12" points="872.3,793.8 872.2,859.1 815.5,826.4 815.5,761 				"/>
			</g>
			<g>
				<path class="st13" d="M1027.1,881.6c-1.7-9.6-12.8-11.4-26.1-3.7c0,0-0.1,0-0.1,0.1c-1.6,0.9-3.1,1.9-4.6,3
					c-1.2,0.9-2.4,1.8-3.5,2.7c-3.8,3.2-7.3,7-10.1,10.8c-4.1,5.7-7,11.7-7.8,17.1l25-14.4v32.1c0,1.9-1.4,4.3-3,5.3
					c-1.7,1-3,0.2-3-1.8v-1.1c0-0.7-0.5-1-1.1-0.6c-0.6,0.3-1.1,1.2-1.1,1.9v1.1c0,3.3,2.3,4.7,5.2,3c2.9-1.7,5.2-5.7,5.2-9V896
					L1027.1,881.6z"/>
				<g>
					<path class="st13" d="M1034.3,926.6l-68.4,39.5v-78.9l68.4-39.5V926.6z M968.6,961.5l63.1-36.4v-72.8l-63.1,36.4V961.5z"/>
				</g>
			</g>
			<g>
				<g>
					<path class="st13" d="M1108.5,883.8l-68.4,39.5v-78.9l68.4-39.5V883.8z M1042.8,918.6l63.1-36.4v-72.8l-63.1,36.4V918.6z"/>
				</g>
				<g>
					<path class="st13" d="M1087,828.7v19.9c0,6.5-4.6,14.5-10.2,17.7l-4.3,2.5c-5.6,3.2-10.2,0.6-10.2-5.9V843l12.5-7.2l-2.7,7.4
						l5.3-3.1l-7.2,22l11.9-26.9l-5.4,3.1l2.8-5.3L1087,828.7z"/>
					<polygon class="st13" points="1076.6,888 1072.8,890.2 1072.8,865.2 1076.6,863.1 					"/>
					<polygon class="st13" points="1074.7,887.1 1061.7,899.3 1087,884.7 					"/>
				</g>
			</g>
			<g>
				<g>
					<path class="st13" d="M1182.1,841.3l-68.4,39.5v-78.9l68.4-39.5V841.3z M1116.4,876.2l63.1-36.4v-72.8l-63.1,36.4V876.2z"/>
				</g>
				<g>
					<path class="st13" d="M1175.5,833.6l-55.2,31.9l27.3-71.8L1175.5,833.6z M1125.7,858.7l44.4-25.6l-22.4-32.1L1125.7,858.7z"/>
				</g>
				<g>
					<path class="st13" d="M1145.5,839.7c0-1.7,1-3.5,2.4-4.2c1.4-0.8,2.4-0.2,2.4,1.5c0,1.6-0.9,3.4-2.4,4.2
						C1146.5,842,1145.5,841.3,1145.5,839.7z M1146.5,832.5l-0.6-22l3.9-2.2l-0.6,22.6L1146.5,832.5z"/>
				</g>
			</g>
		</g>
	</g>
</g>
</svg>
