<?xml version="1.0" encoding="utf-8"?>
<!-- Generator: Adobe Illustrator 25.2.3, SVG Export Plug-In . SVG Version: 6.00 Build 0)  -->
<svg version="1.1" id="Layer_1" xmlns="http://www.w3.org/2000/svg" xmlns:xlink="http://www.w3.org/1999/xlink" x="0px" y="0px"
	 viewBox="0 0 3840 386" style="enable-background:new 0 0 3840 386;" xml:space="preserve">
<style type="text/css">
	.st0{fill:#47132B;}
</style>
<g>
	<g>
		<path class="st0" d="M1920.2,206.4l0,179.6H0V206.4c33.3,0,60,3.1,67-0.4c7-3.6,1,1.5,15,0c14-1.6-4,0.5,19,0
			c23-0.6,12-1.6,30,0.4c18,2,32,9.1,50-0.4c18-9.5,35-5,51-1.3c16,3.7,49,2.6,59,6.1c10,3.6,7-0.6,21,0c14,0.6,13,4.4,21,1.5
			c8-2.9,10-10,19-5.5c9,4.6,42-6.5,42-6.5s0.9,6,16,6.5c15.1,0.6,17.1,1.4,28.1,0c11-1.4,17,4.4,25,0c8-4.4,11-12.7,31-6.5
			c20,6.1,12,2.8,25,5.5c13,2.7,43-2.7,49,0c6,2.7,35-4.7,40,0c5,4.7,12,8.6,30,7.6c18-1,33,4,38,0c5-4,42-5.3,53-7.6
			c11-2.3,26-3.1,36,0.8c10,3.9,24,1.1,39,0c15-1.1,21-8.9,24,0c3,8.9,29-2.9,42,0c13,2.9,16.6-4.5,26.9-0.1
			c10.3,4.4,30.1,10.1,41.1,8.6c11-1.5,29-6.6,59-7.6c30-1,31-5,46,0c15,5,58-8.6,65-9.3c7-0.7-2-9.3,18,0c1.2,0.6,2.4,1.1,3.5,1.6
			c16.5,7.1,17.4,3,31.5,7.7c5.5,1.9,10.8,2.2,15.6,1.9c8.2-0.4,15-2.6,19.4-1.9c0.5,0.1,2.1,0,4.6-0.2c9.4-0.7,31.6-3.2,59.5-6
			c6.8-0.7,14-1.4,21.3-2.1c15.4-1.5,31.8-3,48.3-4.3c53.9-4.2,108.9-6.6,133.2-1c54,12.6,89-1.3,116-3.3
			c11.2-0.8,27.7,2.4,41.6,1.3c19.5-1.5,36.3-7.1,47.4-5.3c19,3,19-2,28,3c9,5,36,3,48,2c12-1,34,14,59,12c25-2,28,4,37,0
			c9-4,25.6,1.9,38.6,2.8C1891.7,207.1,1875,206.4,1920.2,206.4z"/>
		<path class="st0" d="M90.5,206c7.4-1.7,14.6-3.3,19.7-6.4c4.8-3,7.6-7.7,7.9-7.8c0.6-0.1,2.2,6-2.9,9.9c-5.1,4,10.9-7.7,14.9-9.4
			c4-1.7-4.7,7.4-2.7,10.4c2,3,9-6.3,11.3-6.1c2.3,0.1-6.4,6.3,0,9.8c6.4,3.6,17.2-12,19.9-10.5c2.7,1.4-10.9,10.8-4.7,11.8
			c6.3,1,8.4-5.6,11.4-8.4c3-2.8,6.1-3.8,7.6-3.2c1.4,0.6-5.5,2.2-6.4,9.1c-0.2,1.5,10.8,1.9,15.6,3.3c2.1,0.6,18.1,12.2,7.9,14.4
			c-14,3-57.1-3.7-68.7-6.7C95.1,209.2,76.2,209.2,90.5,206z"/>
		<path class="st0" d="M207.6,215.7c0,0,2.9-56.6,2.9-109.6c0-37-2.9-72.2-2.9-85.2c0-31.4,30.6-23.3,30.6,0.6s-2.7,194.1-2.7,194.1
			H207.6z"/>
		<path class="st0" d="M237,206.6c7.1-8.4,25.7-12.1,25.6-10.6c0,1.4-14.4,5.6-11.5,9.9c2.9,4.3,22.1-10.5,24.7-8.2
			c2.6,2.3-11,6.2-7.8,10.3c3.2,4.1,9.4-10.2,24.4-7.7s-11.1-0.7-12.5,8.7c-1.4,9.4-28.1,17.1-28.1,17.1S229.9,215,237,206.6z"/>
		<path class="st0" d="M752.4,204.4c0,0,5-6.7,13.7-6.6s10.2-2.3,10.2-2.3s-2.3,3-7.7,4.7c-5.5,1.7-1.3,6.5-1.3,6.5s3.5-5.3,7.2-6.2
			c3.7-1,5.5-1.1,6.4-0.7c0.8,0.4-6.8,3.2-4.4,8.8c2.5,5.6,5.1-9.6,17.6-10.8c0,0-8.5,4.2-5.9,10.2c0,0,6.6-7.1,11-6.8
			c0,0-2.9,2.4-1.8,4.3c1.2,1.9,5.9-4.2,11.3-4.7c0,0-3.7,3-2.4,5.1c1.3,2.1-25.8,11.5-37.3,7.7
			C757.4,209.9,752.4,204.4,752.4,204.4z"/>
		<path class="st0" d="M418.5,208c0,0-8.3-6.2-15.5-6.8c0,0,9.5,0.8,17.1,2.6c0,0-12-10.1-21.7-10.5c0,0,15.6-0.8,24.2,6.9l-5.3-8.2
			c0,0,9.7,3.2,18.1,13.3l2.8,0.5c0,0,3.6-8.1-3.5-10c0,0,5.6-0.7,12.5,9.1c0,0,1.9-10.9-10.3-16.5c0,0,6.8-0.1,16.3,10.3
			c0,0-5-11.2,0.7-15.9c0,0-0.7,7,3.2,10.3c0,0-1.1-18.9,8.7-25.6c0,0-8.6,12.6-2.2,18.4c0,0-0.6-20.8,28.8-23.6
			c0,0-29.5,7.8-18.5,25.7c0,0,7-17.3,28.2-18.2c21.2-0.9,27.7-4.7,27.7-4.7s-19.2,7.4-29.6,8.5c-10.4,1.2-0.8,12.5-0.8,12.5
			s4.7-10.5,22.4-9.1c0,0-17.9,1.8-12.6,11.5c0,0,17.7-10.3,31.3-10.2c0,0-13.1,3.7-12.2,9.1c0,0,13.1,0.5,20.2-3.9
			c0,0-3.5,4.7-11.6,6.9c0,0,10.7,0.6,14.8-4.9c0,0-2,6.7-6.4,9.5c0,0,8.2-3.8,13.9-3.2c0,0-5.8,3.3-5.4,6c0.4,2.7,5.9,1.2,9-2.6
			c0,0,1,3.4-0.4,6c-1.4,2.6,3.7-0.7,3.7-0.7s5.9-12.6,15.9-15c0,0-12.8,7.5-9.5,20.8c0,0,2.6-7.6,8.2-11.2c0,0-5.6,10.3,7.7,11.2
			c0,0-1.8-4.9,7.4-10.1c0,0-5.1,7.5-1.3,11c3.8,3.5-31,31.6-31,31.6L418.5,208z"/>
		<path class="st0" d="M688.5,210.3c0,0,5.9-8.1,18.8-10.7c0,0-14.6,8.2-11.6,12.7c0,0,8.5-9.5,16-10.2c0,0-6.7,7.6-2.4,8.9
			c4.3,1.3,13.2-3.3,13.2-3.3s-1.5-11.6,15.2-15.6c0,0-12.2,6.4-5.2,14.7c0,0,4.6-9.2,9.8-10.2c0,0-6.5,7.3-1.3,10.4
			c5.2,3.1-23,15.7-23.5,15.9c-0.4,0.1-27.2-1.5-27.2-1.5L688.5,210.3z"/>
		<path class="st0" d="M963,214.5c0,0-2.3-10-9.8-11.7c0,0,6.8-2.2,15.6,7.9c0,0,1.3-12.7,13.7-16.4c0,0-6.6,8.8-2,15.4
			c0,0,3.1-4.4,7.4-7.1c4.3-2.8,9.2-1.9,9.2-1.9s-6.1,4.1-5.5,6.9c0.6,2.8,4.6,1.4,4.6,1.4s6.6-18.6,29.9-19.5
			c0,0-21.8,7.7-15.5,18.8c0,0,4.9-9.7,19.1-11c0,0-10.5,3.1-8.7,10.8c1.8,7.8,47.7,1.9,47.7,1.9s14.4-8.8,16.7-19.6
			c0,0,0.2,9.9-2.6,15.3c0,0,8.1-12.5,18-16.5c6.2-2.5,12.4,0.2,12.4,0.2s-5.9-0.7-9.8,4.1c-3.9,4.8-3.5,7.3-3.5,7.3l-18.7,19.3
			l-118.9,2.6L963,214.5z"/>
		<path class="st0" d="M1295.5,198.5c0,0-0.9-6.8-12.7-6.2c0,0,12.1-3.2,20.8,5.2c0,0-4-13-15-16.7c0,0,11.3,1.1,20.9,15.8l10.3-0.9
			c0,0-11.2-12.1-11.9-25c0,0,3.9,11.7,15.3,15.3c0,0,0.5-13.7,12.1-19c0,0-7.2,5.4-5.9,13.9c0,0,10.5-6,15-17
			c4.5-11,14.6-12.4,14.6-12.4s-12.5,6.2-12.4,25.9c0,0,8.3-18,27.4-19.7c0,0-19.9,8.8-16.6,20.8c1.3,4.8,9.5-3.5,13.4-3.4
			c4,0.1,12.6,4,12.6,4s7.5-15.7,21.4-18.6c0,0-15.6,6.4-11.2,19.1c0,0,2.4-5.8,9.2-8.2c0,0-7,3.5-3.8,10c3.1,6.5,9.2-13.4,9.2-13.8
			c0-0.4,1.1,6-0.5,12.7c0,0,4.1-0.4,14.8-7.6c10.7-7.3,21.9-24.5,21.9-24.5s-11.3,20.7-15.2,29.4c0,0,13.2-12.9,20.5-14.4
			c0,0-15.5,8.8-12.3,20.9c0,0,7-4.9,16.5-6.4c0,0-14.4,3.6-14.1,16.5l14.1,0.3c0,0,2.7-6.7,10.4-9.8c0,0-7.9,5.9-5.2,11.6
			c0,0,6.4-12.4,19.9-16.1c0,0-14.7,4.9-12.8,18.7c1.9,13.8-119.9,17.8-119.9,17.8L1295.5,198.5z"/>
		<path class="st0" d="M1489.8,199.5c0,0,5.5-3.7,12.1-5.4c0,0-7.8,4.3-6.1,7.5c1.7,3.2,18.1-13.4,27.5-14.8c0,0-16.4,9.1-13.6,15.2
			c0,0,5.8-7.6,12-9.4c0,0-7,3.8-6.2,7.9c0.8,4.1,28.1-3.2,28.1-3.2s5.7-8.8,17.3-12.4c11.6-3.6,14.3-7,14.3-7s-6.3,7.1-12.5,9.9
			c-6.2,2.8-8.3,9.1-8.3,9.1l6.1-2c0,0,3.8-6.2,11.2-7.8c0,0-6.3,3.3-5,7.2c1.3,4-30,17.7-30,17.7l-46.9-3.7V199.5z"/>
		<path class="st0" d="M1803.8,203.2c0,0-4.8-5.5-17.2-6c0,0,11.7-0.9,20.6,2.2c0,0-9-14-25.1-15.2c0,0,17.2-0.4,26.9,12.1
			c0,0-8.4-15.4,3.4-17c0,0-7.7,3.3,1.1,13.3c0,0,7.2-11.9,24.9-15.7c17.7-3.8,22.8-8.2,22.8-8.2s-10.6,7.1-21.5,9.8
			c-10.9,2.6-14.7,13.8-14.7,13.8s13.6-7.6,26.8-8.3c0,0-16.9,5-16.9,11.1s11.4-3.7,24.3-3.6c0,0-18.8,4-14.4,11.3
			C1849.1,210.1,1803.8,203.2,1803.8,203.2z"/>
		<path class="st0" d="M1712.3,193.8c0.3-0.1,4.9-6.2,16-8c11.1-1.9,13.4-5.3,13.4-5.3s-5.7,5.8-12.7,7.6c-6.9,1.8-5.4,5.7-5.4,5.7
			s5.3-4.1,12.5-4.7c0,0-6.7,1.8-4,5.1c2.7,3.3,15.8-7.1,23.5-7.9c0,0-9,3.6-7.3,8.5c1.7,4.9-29.5,8.5-30,8.1
			C1717.7,202.7,1712.3,193.8,1712.3,193.8z"/>
		<path class="st0" d="M1679.7,189.7c0,0,4.5-7.8,16.7-7.3c0,0-8.1,1.4-7.3,6.9C1689.9,194.8,1679.7,189.7,1679.7,189.7z"/>
		<path class="st0" d="M210.5,150.7c0,0-11.6,1.5-12.8-6.9c-1.2-8.3,3-79.8-0.1-95c-3.1-15.2-18.7-11.6-19.9,5.1
			c-1.2,16.7-4.6,103.5,4.6,112.5c9.3,9,27.6,7.4,27.6,7.4L210.5,150.7z"/>
		<path class="st0" d="M235.5,124.2c0,0,11.8,3.2,13.2-11.2c1.3-14.4-4.6-82.1-2.1-100.5s19.2-15.5,21.2,2.8
			c2,18.3,5.3,109.3-3.7,120.4c-9.1,11.1-28.6,11.1-28.6,11.1V124.2z"/>
	</g>
	<g>
		<path class="st0" d="M1919.8,206.4l0,179.6H3840V206.4c-33.3,0-60,3.1-67-0.4c-7-3.6-1,1.5-15,0c-14-1.6,4,0.5-19,0
			c-23-0.6-12-1.6-30,0.4c-18,2-32,9.1-50-0.4c-18-9.5-35-5-51-1.3c-16,3.7-49,2.6-59,6.1c-10,3.6-7-0.6-21,0c-14,0.6-13,4.4-21,1.5
			c-8-2.9-10-10-19-5.5c-9,4.6-42-6.5-42-6.5s-0.9,6-16,6.5c-15.1,0.6-17.1,1.4-28.1,0c-11-1.4-17,4.4-25,0c-8-4.4-11-12.7-31-6.5
			c-20,6.1-12,2.8-25,5.5c-13,2.7-43-2.7-49,0c-6,2.7-35-4.7-40,0c-5,4.7-12,8.6-30,7.6c-18-1-33,4-38,0s-42-5.3-53-7.6
			c-11-2.3-26-3.1-36,0.8c-10,3.9-24,1.1-39,0c-15-1.1-21-8.9-24,0c-3,8.9-29-2.9-42,0c-13,2.9-16.6-4.5-26.9-0.1
			c-10.3,4.4-30.1,10.1-41.1,8.6c-11-1.5-29-6.6-59-7.6c-30-1-31-5-46,0c-15,5-58-8.6-65-9.3c-7-0.7,2-9.3-18,0
			c-1.3,0.6-2.4,1.1-3.5,1.6c-16.5,7.1-17.4,3-31.5,7.7c-5.5,1.9-10.8,2.2-15.6,1.9c-8.2-0.4-15-2.6-19.4-1.9
			c-0.5,0.1-2.1,0-4.6-0.2c-9.4-0.7-31.6-3.2-59.5-6c-6.8-0.7-14-1.4-21.3-2.1c-15.4-1.5-31.8-3-48.3-4.3
			c-53.9-4.2-108.9-6.6-133.2-1c-54,12.6-89-1.3-116-3.3c-11.2-0.8-27.7,2.4-41.6,1.3c-19.5-1.5-36.3-7.1-47.4-5.3c-19,3-19-2-28,3
			c-9,5-36,3-48,2c-12-1-34,14-59,12c-25-2-28,4-37,0c-9-4-25.6,1.9-38.6,2.8C1948.3,207.1,1965,206.4,1919.8,206.4z"/>
		<path class="st0" d="M3749.5,206c-7.4-1.7-14.6-3.3-19.7-6.4c-4.8-3-7.6-7.7-7.9-7.8c-0.6-0.1-2.2,6,2.9,9.9
			c5.1,4-10.9-7.7-14.9-9.4c-4-1.7,4.7,7.4,2.7,10.4c-2,3-9-6.3-11.3-6.1c-2.3,0.1,6.4,6.3,0,9.8c-6.4,3.6-17.2-12-19.9-10.5
			c-2.7,1.4,10.9,10.8,4.7,11.8c-6.3,1-8.4-5.6-11.4-8.4c-3-2.8-6.1-3.8-7.6-3.2c-1.4,0.6,5.5,2.2,6.4,9.1
			c0.2,1.5-10.8,1.9-15.6,3.3c-2.1,0.6-18.1,12.2-7.9,14.4c14,3,57.1-3.7,68.7-6.7C3744.9,209.2,3763.8,209.2,3749.5,206z"/>
		<path class="st0" d="M3632.4,215.7c0,0-2.9-56.6-2.9-109.6c0-37,2.9-72.2,2.9-85.2c0-31.4-30.6-23.3-30.6,0.6s2.7,194.1,2.7,194.1
			H3632.4z"/>
		<path class="st0" d="M3603,206.6c-7.1-8.4-25.7-12.1-25.6-10.6c0,1.4,14.4,5.6,11.5,9.9c-2.9,4.3-22.1-10.5-24.7-8.2
			c-2.6,2.3,11,6.2,7.8,10.3c-3.2,4.1-9.4-10.2-24.4-7.7s11.1-0.7,12.5,8.7c1.4,9.4,28.1,17.1,28.1,17.1S3610.1,215,3603,206.6z"/>
		<path class="st0" d="M3087.6,204.4c0,0-5-6.7-13.7-6.6c-8.7,0.1-10.2-2.3-10.2-2.3s2.3,3,7.7,4.7c5.5,1.7,1.3,6.5,1.3,6.5
			s-3.5-5.3-7.2-6.2c-3.7-1-5.5-1.1-6.4-0.7s6.8,3.2,4.4,8.8c-2.5,5.6-5.1-9.6-17.6-10.8c0,0,8.5,4.2,5.9,10.2c0,0-6.6-7.1-11-6.8
			c0,0,2.9,2.4,1.8,4.3c-1.2,1.9-5.9-4.2-11.3-4.7c0,0,3.7,3,2.4,5.1c-1.3,2.1,25.8,11.5,37.3,7.7
			C3082.6,209.9,3087.6,204.4,3087.6,204.4z"/>
		<path class="st0" d="M3421.5,208c0,0,8.3-6.2,15.5-6.8c0,0-9.5,0.8-17.1,2.6c0,0,12-10.1,21.7-10.5c0,0-15.6-0.8-24.2,6.9l5.3-8.2
			c0,0-9.7,3.2-18.1,13.3l-2.8,0.5c0,0-3.6-8.1,3.5-10c0,0-5.6-0.7-12.5,9.1c0,0-1.9-10.9,10.3-16.5c0,0-6.8-0.1-16.3,10.3
			c0,0,5-11.2-0.7-15.9c0,0,0.7,7-3.2,10.3c0,0,1.1-18.9-8.7-25.6c0,0,8.6,12.6,2.2,18.4c0,0,0.6-20.8-28.8-23.6
			c0,0,29.5,7.8,18.5,25.7c0,0-7-17.3-28.2-18.2c-21.2-0.9-27.7-4.7-27.7-4.7s19.2,7.4,29.6,8.5c10.4,1.2,0.8,12.5,0.8,12.5
			s-4.7-10.5-22.4-9.1c0,0,17.9,1.8,12.6,11.5c0,0-17.7-10.3-31.3-10.2c0,0,13.1,3.7,12.2,9.1c0,0-13.1,0.5-20.2-3.9
			c0,0,3.5,4.7,11.6,6.9c0,0-10.7,0.6-14.8-4.9c0,0,2,6.7,6.4,9.5c0,0-8.2-3.8-13.9-3.2c0,0,5.8,3.3,5.4,6s-5.9,1.2-9-2.6
			c0,0-1,3.4,0.4,6c1.4,2.6-3.7-0.7-3.7-0.7s-5.9-12.6-15.9-15c0,0,12.8,7.5,9.5,20.8c0,0-2.6-7.6-8.2-11.2c0,0,5.6,10.3-7.7,11.2
			c0,0,1.8-4.9-7.4-10.1c0,0,5.1,7.5,1.3,11c-3.8,3.5,31,31.6,31,31.6L3421.5,208z"/>
		<path class="st0" d="M3151.5,210.3c0,0-5.9-8.1-18.8-10.7c0,0,14.6,8.2,11.6,12.7c0,0-8.5-9.5-16-10.2c0,0,6.7,7.6,2.4,8.9
			s-13.2-3.3-13.2-3.3s1.5-11.6-15.2-15.6c0,0,12.2,6.4,5.2,14.7c0,0-4.6-9.2-9.8-10.2c0,0,6.5,7.3,1.3,10.4
			c-5.2,3.1,23,15.7,23.5,15.9c0.4,0.1,27.2-1.5,27.2-1.5L3151.5,210.3z"/>
		<path class="st0" d="M2877,214.5c0,0,2.3-10,9.8-11.7c0,0-6.8-2.2-15.6,7.9c0,0-1.3-12.7-13.7-16.4c0,0,6.6,8.8,2,15.4
			c0,0-3.1-4.4-7.4-7.1c-4.3-2.8-9.2-1.9-9.2-1.9s6.1,4.1,5.5,6.9c-0.6,2.8-4.6,1.4-4.6,1.4s-6.6-18.6-29.9-19.5
			c0,0,21.8,7.7,15.4,18.8c0,0-4.9-9.7-19.1-11c0,0,10.5,3.1,8.7,10.8c-1.8,7.8-47.7,1.9-47.7,1.9s-14.4-8.8-16.7-19.6
			c0,0-0.2,9.9,2.6,15.3c0,0-8.1-12.5-18-16.5c-6.2-2.5-12.4,0.2-12.4,0.2s5.9-0.7,9.8,4.1c3.9,4.8,3.5,7.3,3.5,7.3l18.7,19.3
			l118.9,2.6L2877,214.5z"/>
		<path class="st0" d="M2544.5,198.5c0,0,0.9-6.8,12.7-6.2c0,0-12.1-3.2-20.8,5.2c0,0,4-13,15-16.7c0,0-11.3,1.1-20.9,15.8
			l-10.3-0.9c0,0,11.2-12.1,11.9-25c0,0-3.9,11.7-15.3,15.3c0,0-0.5-13.7-12.1-19c0,0,7.2,5.4,5.9,13.9c0,0-10.5-6-15-17
			c-4.5-11-14.6-12.4-14.6-12.4s12.5,6.2,12.4,25.9c0,0-8.3-18-27.4-19.7c0,0,19.9,8.8,16.6,20.8c-1.3,4.8-9.5-3.5-13.4-3.4
			c-4,0.1-12.6,4-12.6,4s-7.5-15.7-21.4-18.6c0,0,15.6,6.4,11.2,19.1c0,0-2.4-5.8-9.2-8.2c0,0,7,3.5,3.8,10
			c-3.1,6.5-9.2-13.4-9.2-13.8c0-0.4-1.1,6,0.5,12.7c0,0-4.1-0.4-14.8-7.6c-10.7-7.3-21.9-24.5-21.9-24.5s11.3,20.7,15.2,29.4
			c0,0-13.2-12.9-20.5-14.4c0,0,15.5,8.8,12.3,20.9c0,0-7-4.9-16.5-6.4c0,0,14.4,3.6,14.1,16.5l-14.1,0.3c0,0-2.7-6.7-10.4-9.8
			c0,0,7.9,5.9,5.2,11.6c0,0-6.4-12.4-19.9-16.1c0,0,14.7,4.9,12.8,18.7c-1.9,13.8,119.9,17.8,119.9,17.8L2544.5,198.5z"/>
		<path class="st0" d="M2350.2,199.5c0,0-5.5-3.7-12.1-5.4c0,0,7.8,4.3,6.1,7.5c-1.7,3.2-18.1-13.4-27.5-14.8
			c0,0,16.4,9.1,13.6,15.2c0,0-5.8-7.6-12-9.4c0,0,7,3.8,6.2,7.9c-0.8,4.1-28.1-3.2-28.1-3.2s-5.7-8.8-17.3-12.4
			c-11.6-3.6-14.3-7-14.3-7s6.3,7.1,12.5,9.9c6.2,2.8,8.3,9.1,8.3,9.1l-6.1-2c0,0-3.8-6.2-11.2-7.8c0,0,6.3,3.3,5,7.2
			c-1.3,4,30,17.7,30,17.7l46.9-3.7V199.5z"/>
		<path class="st0" d="M2036.2,203.2c0,0,4.8-5.5,17.2-6c0,0-11.7-0.9-20.6,2.2c0,0,9-14,25.1-15.2c0,0-17.2-0.4-26.9,12.1
			c0,0,8.4-15.4-3.4-17c0,0,7.7,3.3-1.1,13.3c0,0-7.2-11.9-24.9-15.7c-17.7-3.8-22.8-8.2-22.8-8.2s10.6,7.1,21.5,9.8
			c10.9,2.6,14.7,13.8,14.7,13.8s-13.6-7.6-26.8-8.3c0,0,16.9,5,16.9,11.1s-11.4-3.7-24.3-3.6c0,0,18.8,4,14.4,11.3
			C1990.9,210.1,2036.2,203.2,2036.2,203.2z"/>
		<path class="st0" d="M2127.7,193.8c-0.3-0.1-4.9-6.2-16-8c-11.1-1.9-13.4-5.3-13.4-5.3s5.7,5.8,12.7,7.6c6.9,1.8,5.4,5.7,5.4,5.7
			s-5.3-4.1-12.5-4.7c0,0,6.7,1.8,4,5.1c-2.7,3.3-15.8-7.1-23.5-7.9c0,0,9,3.6,7.3,8.5c-1.7,4.9,29.5,8.5,30,8.1
			C2122.3,202.7,2127.7,193.8,2127.7,193.8z"/>
		<path class="st0" d="M2160.3,189.7c0,0-4.5-7.8-16.7-7.3c0,0,8.1,1.4,7.3,6.9C2150.1,194.8,2160.3,189.7,2160.3,189.7z"/>
		<path class="st0" d="M3629.5,150.7c0,0,11.6,1.5,12.8-6.9s-3-79.8,0.1-95c3.1-15.2,18.7-11.6,19.9,5.1
			c1.2,16.7,4.6,103.5-4.6,112.5c-9.3,9-27.6,7.4-27.6,7.4L3629.5,150.7z"/>
		<path class="st0" d="M3604.5,124.2c0,0-11.8,3.2-13.2-11.2c-1.3-14.4,4.6-82.1,2.1-100.5c-2.5-18.5-19.2-15.5-21.2,2.8
			s-5.3,109.3,3.7,120.4c9.1,11.1,28.6,11.1,28.6,11.1V124.2z"/>
	</g>
</g>
</svg>
