<?xml version="1.0" encoding="utf-8"?>
<!-- Generator: Adobe Illustrator 25.2.3, SVG Export Plug-In . SVG Version: 6.00 Build 0)  -->
<svg version="1.1" id="Layer_1" xmlns="http://www.w3.org/2000/svg" xmlns:xlink="http://www.w3.org/1999/xlink" x="0px" y="0px"
	 viewBox="0 0 3840 360" style="enable-background:new 0 0 3840 360;" xml:space="preserve">
<style type="text/css">
	.st0{fill:#841F2D;}
</style>
<g>
	<g>
		<path class="st0" d="M0,86.5c30.2,0,38.4-5.4,49.5-2.1c11.1,3.2,4.6,2.1,26.6,2.1c22,0,22,0,34,0s18-3,25-5c7-2,53-1,59,1.5
			c6,2.5,13.5,4.2,23,3.5c9.5-0.7,30-13.9,44-7c14,7,71.1,6.8,89.1,8.9c18,2.1,39-3.1,54,0c15,3.1-2-6,45,0c47,6,80.1-3.1,104.1,0
			c24,3.1,70.7,20.8,90.7,19.8s138.5,1.4,164.5,6.2c26,4.8,94.1-23.9,119.1-17c25,7,119.1-2.2,138.1-6.6
			c19-4.4,86.9-21.7,123.8-21.3c37,0.4,91.3,6.6,111.3,4.8c20-1.8,27,19.2,91.1,25.6c64,6.4,373.3,0,373.3,0s10-7.5,40-4.5
			c30,3,28,4,43,3c15-1,25.8-4.9,30.8-5.9c5-1,18.9-6.1,42.3-6.1V360H0V86.5z"/>
		<path class="st0" d="M45.1,84.3c-0.6-2.1-4.7-5-12.5-4.7c0,0,8.8-2.3,14.2,1.2c0,0-0.2-4.2-4.5-5.6c0,0,3.8-0.5,9,5.8
			c0,0,1.7-6.3,5.7-7.4c0,0-4.3,4.4-1.9,7.6c1.4,1.9,4.4-3.7,10-8.5c3.7-3.2,9.2-6,13.6-6.4c0,0-10.5,3.1-10.4,11.4
			c0,0,3.7-4.8,9.4-4.1c0,0-8.7,1.6-6.6,9.7c2,8.1,8.9-5,15.5-5.7c0,0-8.1,3.4-5.1,9.3c0,0,1.6-6.2,4.7-6.3c0,0-3.5,3.5-1,6.3
			c0,0,1.9-6,9-5.2c7,0.7,8.4-0.8,8.5-0.6c0.1,0.2-3.6,2.3-7.9,2.9c-4.3,0.6-3,5-3,5s-26.1,7.8-26.6,7.8
			C64.5,96.7,45.6,86.5,45.1,84.3z"/>
		<path class="st0" d="M123.6,85.8c0,0,5.8-10,11-11.6c0,0-7.2,5.9-2.4,8.4c4.8,2.5,8.7-13,16-12.2c0,0-7.3,4.2-3.1,8.1
			s7.4-2.1,6.1-5.2c0,0,2.5,1,2.2,5.2c0,0,4.2-14.5,13.8-14.1c0,0-10.7,2-6.9,14.9c0,0,2-9.8,12-9.3c0,0-7.6,1.7-6.2,5.6
			c0,0,2.6-2.2,5.3-1.8c0,0-6,1.5-2.3,5.5c3.6,4,7.6-5.2,11.4-5.5c0,0-3.7,4.4-1.5,7.8c2.2,3.5-23.8,10.6-23.8,10.6L123.6,85.8z"/>
		<path class="st0" d="M287.6,86.3c0,0,14.7-7.1,25.7-8c0,0-16.1,4.3-12.1,10c0,0,3.7-7,18.8-6.4c0,0-11.3,1.6-4.3,6.4
			c7.1,4.8,10.3-1.7,18.1-8.9c7.9-7.2,16.5-4.8,16.5-4.8s-16.9,0.6-13.3,15.3c0,0,8.5-9.8,17.9-9.1c0,0-12.3,2.2-6.7,9.1
			c5.6,6.8,10.4-7.1,24.8-7.8c0,0-9.7,1.2-6.9,6.7c2.8,5.6,12.4,0.3,12.4,0.3s7.1-6.2,0.2-9c0,0,4.4-0.7,7.6,4.4
			c0,0,4.5-7.9,1.3-10.3c-3.2-2.4-2.5-6.5-2.5-6.5s2,4.5,5.5,5.7c3.5,1.2,4.7,5.2,4.7,5.2s8.9-14,25.8-13.1c0,0-15.5,2.9-13.7,11.8
			c0,0,6.5-1.9,10.4,0.7c0,0,3.1-8,6.8-8.4c0,0-5.5,6.6-0.8,11.7c4.7,5.2,4.1-6.5,11.5-8.6c0,0-7.2,4.9-2.7,10.9
			c0,0,5.6-6.9,16.3-4.9c0,0-16.3,0.6-5.9,10.8c10.4,10.2,2.8-4.9,10.4-6.5c0,0-2.8,5.3,1.1,8.1c3.9,2.8,1.5-10.2,12.5-10.6
			c0,0-6.5,1.5-5.1,11c1.5,9.5-12,24.2-12,24.2l-161.2-12.3L287.6,86.3z"/>
		<path class="st0" d="M576.2,96.9c0,0-2.5-9.8-8.3-10.4c0,0,2.3-2,11.4,4c0,0-2.8-10.2-7.8-11.5c0,0,4.7,2,15.3,11.5
			c0,0,5.2-9.6,18.1-9c0,0-16,1.8-8.6,12.9c0,0,7.6-10.9,27.4-7.3c0,0-21.3,1.8-16.3,12.1c5,10.2,37.8,0,37.8,0s-14.8,5.7-11.8,10.9
			c3,5.3,18.8-9.4,18.8-9.4s-5.3,8.1,0,10.6c5.3,2.4,8-11.1,18.8-13c10.8-1.9,13.7-4.3,13.7-4.3s-4.9,4.9-11.2,6.6
			c-6.3,1.7-5.7,7.4-1.9,9.1c3.8,1.7,4.1-8.1,17.5-7.4c0,0-11.1,4.4-0.8,9.4c10.2,5,6.5-13.3,6.5-13.3s4.4,5.7,4,12.6
			c0,0,9.1-9.2,20.1-10.6c0,0-13.3,4.9-8.2,11.1c5.1,6.2,17.3-9.2,19.2-10.9c0,0-4.2,11,1.7,12.4c5.9,1.4-10.8,22.9-10.8,22.9
			l-157.6-15.5L576.2,96.9z"/>
		<path class="st0" d="M762.3,116.6c0,0-1.6-30.6-1.6-59.3c0-20,1.6-39.1,1.6-46.1c0-17-16.6-12.6-16.6,0.3c0,13,1.5,105,1.5,105
			H762.3z"/>
		<path class="st0" d="M760.7,81.5c0,0,6.3,0.8,6.9-3.7c0.7-4.5-1.6-43.2,0.1-51.4c1.7-8.2,10.2-6.3,10.8,2.8c0.6,9,2.5,56-2.5,60.8
			c-5,4.9-15,4-15,4L760.7,81.5z"/>
		<path class="st0" d="M747.1,67.2c0,0-6.4,1.7-7.1-6.1c-0.7-7.8,2.5-44.4,1.1-54.4c-1.4-10-10.4-8.4-11.5,1.5
			c-1.1,9.9-2.9,59.1,2,65.1c4.9,6,15.5,6,15.5,6V67.2z"/>
		<path class="st0" d="M968.7,99.3c0,0,0-5.8-10.5-7.6c0,0,8-1.5,18.9,7.6c0,0-4.3-17.2-10.2-17.4c0,0,7.5-1.8,16.3,11.4
			c0,0-4.3-16.4,12.3-20.5c0,0-16.4,11.3,0,18.3c16.4,7,11-15.2,12.6-15.6c1.6-0.3-1.4,12.8,14.1,20.2c0,0,5.7-20.4,18.1-23
			c0,0-8.6,8-3.1,16.1c5.6,8.2,8.1-9.4,22-10.7c0,0-10.9,4.8-6.8,11.7c0,0,11.9-1.9,14.8-10.5c0,0,1.7,7.6-6.6,15.7
			c-8.3,8.1-88,11.8-88,11.8L968.7,99.3z"/>
		<path class="st0" d="M1629.5,107.5c0,0,0.4-7.5-11.4-11.3c0,0,8.2-2.6,16.2,5c0,0,1.2-8.5,8-18.6c0,0-2.8,10.1,0.3,12.9
			c0,0,5.5-9.4,14.7-13.5c9.2-4.1,14.4-2.2,19.6-1.6c0,0-8.4,0.6-13.2,3.7c-4.8,3.1-5.1,7.7,1.1,10.5c5.2-8.4,15.7-8.7,15.7-8.7
			s-10.9,6.9-6.7,10.3c1.7,1.4,7.7,0.3,12.3-2.3c6.8-3.8,9-10.2,22.3-11.8c0,0-14.8,8.3-8.9,13.7c5.9,5.4,21.5-9.6,33.2-8.9
			c0,0-20.7,5.1-14.9,18.2c5.8,13.1,14.3-9.7,24.1-12.2c0,0-8,8.4-1.6,11.3c6.5,2.9,16.5-0.7,16.5-0.7s1.4-7.8-6-12.6
			c0,0,9.6,2.7,14.7,9.7c0,0-0.5-13.1,12.9-17.1c0,0-8.9,5.8-3.8,11.1c0,0,7.1-18.1,24.8-18.8c0,0-18.1,7.4-14.1,17.7
			c0,0,5.3-9.7,15.6-10.2c0,0-10.2,6.4-1.1,11.7c0,0,7.8-4.9,15.4-4.9c0,0-15.8,2.9-9.2,12.4c6.5,9.5,17.1-11.6,23.3-12.7
			c0,0-7.8,7.3,0,11.7c7.8,4.4-12.5,22.7-12.5,22.7l-168.6,1.1L1629.5,107.5z"/>
	</g>
	<g>
		<path class="st0" d="M3840,86.5c-30.2,0-38.4-5.4-49.5-2.1c-11.1,3.2-4.6,2.1-26.6,2.1c-22,0-22,0-34,0c-12,0-18-3-25-5
			c-7-2-53-1-59,1.5c-6,2.5-13.5,4.2-23,3.5c-9.5-0.7-30-13.9-44-7c-14,7-71.1,6.8-89.1,8.9c-18,2.1-39-3.1-54,0c-15,3.1,2-6-45,0
			c-47,6-80.1-3.1-104.1,0c-24,3.1-70.7,20.8-90.7,19.8s-138.5,1.4-164.5,6.2c-26,4.8-94.1-23.9-119.1-17c-25,7-119.1-2.2-138.1-6.6
			c-19-4.4-86.9-21.7-123.8-21.3c-37,0.4-91.3,6.6-111.3,4.8c-20-1.8-27,19.2-91.1,25.6c-64,6.4-373.3,0-373.3,0s-10-7.5-40-4.5
			c-30,3-28,4-43,3c-15-1-25.8-4.9-30.8-5.9c-5-1-18.9-6.1-42.3-6.1V360H3840V86.5z"/>
		<path class="st0" d="M3794.9,84.3c0.6-2.1,4.7-5,12.5-4.7c0,0-8.8-2.3-14.2,1.2c0,0,0.2-4.2,4.5-5.6c0,0-3.8-0.5-9,5.8
			c0,0-1.7-6.3-5.7-7.4c0,0,4.3,4.4,1.9,7.6c-1.4,1.9-4.4-3.7-10-8.5c-3.7-3.2-9.2-6-13.6-6.4c0,0,10.5,3.1,10.4,11.4
			c0,0-3.7-4.8-9.4-4.1c0,0,8.7,1.6,6.6,9.7s-8.9-5-15.5-5.7c0,0,8.1,3.4,5.1,9.3c0,0-1.6-6.2-4.7-6.3c0,0,3.5,3.5,1,6.3
			c0,0-1.9-6-8.9-5.2s-8.4-0.8-8.5-0.6c-0.1,0.2,3.6,2.3,7.9,2.9c4.3,0.6,3,5,3,5s26.1,7.8,26.6,7.8
			C3775.5,96.7,3794.4,86.5,3794.9,84.3z"/>
		<path class="st0" d="M3716.4,85.8c0,0-5.8-10-11-11.6c0,0,7.2,5.9,2.4,8.4c-4.8,2.5-8.7-13-16-12.2c0,0,7.3,4.2,3.1,8.1
			s-7.4-2.1-6.1-5.2c0,0-2.5,1-2.2,5.2c0,0-4.2-14.5-13.8-14.1c0,0,10.7,2,6.9,14.9c0,0-2-9.8-12-9.3c0,0,7.6,1.7,6.2,5.6
			c0,0-2.6-2.2-5.3-1.8c0,0,6,1.5,2.3,5.5c-3.6,4-7.6-5.2-11.4-5.5c0,0,3.7,4.4,1.5,7.8c-2.2,3.5,23.8,10.6,23.8,10.6L3716.4,85.8z"
			/>
		<path class="st0" d="M3552.4,86.3c0,0-14.7-7.1-25.7-8c0,0,16.1,4.3,12.1,10c0,0-3.7-7-18.8-6.4c0,0,11.3,1.6,4.3,6.4
			c-7.1,4.8-10.3-1.7-18.1-8.9c-7.9-7.2-16.5-4.8-16.5-4.8s16.9,0.6,13.3,15.3c0,0-8.5-9.8-17.9-9.1c0,0,12.3,2.2,6.7,9.1
			c-5.6,6.8-10.4-7.1-24.8-7.8c0,0,9.7,1.2,6.9,6.7c-2.8,5.6-12.3,0.3-12.3,0.3s-7.1-6.2-0.2-9c0,0-4.4-0.7-7.6,4.4
			c0,0-4.5-7.9-1.3-10.3c3.2-2.4,2.5-6.5,2.5-6.5s-2,4.5-5.5,5.7c-3.5,1.2-4.7,5.2-4.7,5.2s-8.9-14-25.8-13.1
			c0,0,15.5,2.9,13.7,11.8c0,0-6.5-1.9-10.4,0.7c0,0-3.1-8-6.8-8.4c0,0,5.5,6.6,0.8,11.7c-4.7,5.2-4.1-6.5-11.5-8.6
			c0,0,7.2,4.9,2.7,10.9c0,0-5.6-6.9-16.3-4.9c0,0,16.3,0.6,5.9,10.8c-10.4,10.2-2.8-4.9-10.4-6.5c0,0,2.8,5.3-1.1,8.1
			c-3.9,2.8-1.5-10.2-12.5-10.6c0,0,6.5,1.5,5.1,11c-1.5,9.5,12,24.2,12,24.2l161.2-12.3L3552.4,86.3z"/>
		<path class="st0" d="M3263.8,96.9c0,0,2.5-9.8,8.3-10.4c0,0-2.3-2-11.4,4c0,0,2.8-10.2,7.8-11.5c0,0-4.7,2-15.3,11.5
			c0,0-5.2-9.6-18.1-9c0,0,16,1.8,8.6,12.9c0,0-7.6-10.9-27.4-7.3c0,0,21.3,1.8,16.3,12.1s-37.8,0-37.8,0s14.8,5.7,11.8,10.9
			c-3,5.3-18.8-9.4-18.8-9.4s5.3,8.1,0,10.6c-5.3,2.4-8-11.1-18.8-13c-10.8-1.9-13.7-4.3-13.7-4.3s4.9,4.9,11.2,6.6
			c6.3,1.7,5.7,7.4,1.9,9.1c-3.8,1.7-4.1-8.1-17.5-7.4c0,0,11.1,4.4,0.8,9.4c-10.2,5-6.4-13.3-6.4-13.3s-4.4,5.7-4,12.6
			c0,0-9.1-9.2-20.1-10.6c0,0,13.3,4.9,8.2,11.1c-5.1,6.2-17.3-9.2-19.2-10.9c0,0,4.2,11-1.7,12.4c-5.9,1.4,10.8,22.9,10.8,22.9
			l157.6-15.5L3263.8,96.9z"/>
		<path class="st0" d="M3077.7,116.6c0,0,1.6-30.6,1.6-59.3c0-20-1.6-39.1-1.6-46.1c0-17,16.6-12.6,16.6,0.3c0,13-1.5,105-1.5,105
			H3077.7z"/>
		<path class="st0" d="M3079.3,81.5c0,0-6.3,0.8-6.9-3.7c-0.7-4.5,1.6-43.2-0.1-51.4c-1.7-8.2-10.2-6.3-10.8,2.8s-2.5,56,2.5,60.8
			c5,4.9,15,4,15,4L3079.3,81.5z"/>
		<path class="st0" d="M3092.9,67.2c0,0,6.4,1.7,7.1-6.1c0.7-7.8-2.5-44.4-1.1-54.4c1.4-10,10.4-8.4,11.5,1.5
			c1.1,9.9,2.9,59.1-2,65.1c-4.9,6-15.5,6-15.5,6V67.2z"/>
		<path class="st0" d="M2871.3,99.3c0,0,0-5.8,10.5-7.6c0,0-8-1.5-18.9,7.6c0,0,4.3-17.2,10.2-17.4c0,0-7.5-1.8-16.3,11.4
			c0,0,4.3-16.4-12.3-20.5c0,0,16.4,11.3,0,18.3c-16.4,7-11-15.2-12.6-15.6c-1.6-0.3,1.4,12.8-14.1,20.2c0,0-5.7-20.4-18.1-23
			c0,0,8.6,8,3.1,16.1c-5.6,8.2-8.1-9.4-22-10.7c0,0,10.9,4.8,6.8,11.7c0,0-11.9-1.9-14.8-10.5c0,0-1.7,7.6,6.6,15.7
			c8.3,8.1,88,11.8,88,11.8L2871.3,99.3z"/>
		<path class="st0" d="M2210.5,107.5c0,0-0.4-7.5,11.4-11.3c0,0-8.2-2.6-16.2,5c0,0-1.2-8.5-8-18.6c0,0,2.8,10.1-0.3,12.9
			c0,0-5.5-9.4-14.7-13.5c-9.2-4.1-14.4-2.2-19.6-1.6c0,0,8.4,0.6,13.2,3.7c4.8,3.1,5.1,7.7-1.1,10.5c-5.2-8.4-15.7-8.7-15.7-8.7
			s10.9,6.9,6.7,10.3c-1.7,1.4-7.7,0.3-12.3-2.3c-6.8-3.8-9-10.2-22.3-11.8c0,0,14.8,8.3,8.9,13.7c-5.9,5.4-21.5-9.6-33.2-8.9
			c0,0,20.7,5.1,14.9,18.2c-5.8,13.1-14.3-9.7-24.1-12.2c0,0,8,8.4,1.6,11.3c-6.5,2.9-16.5-0.7-16.5-0.7s-1.4-7.8,6-12.6
			c0,0-9.6,2.7-14.7,9.7c0,0,0.5-13.1-12.9-17.1c0,0,8.9,5.8,3.8,11.1c0,0-7.1-18.1-24.8-18.8c0,0,18.1,7.4,14.1,17.7
			c0,0-5.3-9.7-15.6-10.2c0,0,10.2,6.4,1.1,11.7c0,0-7.8-4.9-15.4-4.9c0,0,15.8,2.9,9.2,12.4c-6.5,9.5-17.1-11.6-23.3-12.7
			c0,0,7.8,7.3,0,11.7c-7.8,4.4,12.5,22.7,12.5,22.7l168.6,1.1L2210.5,107.5z"/>
	</g>
</g>
</svg>
