<?xml version="1.0" encoding="utf-8"?>
<!-- Generator: Adobe Illustrator 25.2.3, SVG Export Plug-In . SVG Version: 6.00 Build 0)  -->
<svg version="1.1" id="Layer_1" xmlns="http://www.w3.org/2000/svg" xmlns:xlink="http://www.w3.org/1999/xlink" x="0px" y="0px"
	 viewBox="0 0 3840 370" style="enable-background:new 0 0 3840 370;" xml:space="preserve">
<style type="text/css">
	.st0{fill:#B22630;}
</style>
<g>
	<g>
		<path class="st0" d="M0,54.7c25.8,0,47.9-11.7,77.9-9.7c30,2,34.9-8.7,49.9-5.2c15,3.5,53.2-13,74.2-8c21,5,56,6.7,83,7.3
			c27,0.6,88,12.6,101,12.6s5-2,32-4c27-2,49-17.2,73-8.6c24,8.6,82,24.1,99,19.3c17-4.8,30-5.8,56-8.8s16-8.5,50-4.8
			c34,3.8,82,21.1,111.1,19.2c29-2,110.4,0.5,132.4,3.3c22,2.8,191.5-16.7,209.5-16.7s10,2,36,2s64-2,76-1c12,1,26,2.4,56,7.7
			s71.6-2.2,92.6-1.9c21,0.3,43.1,1.2,62.5,6.4c19.3,5.3,77.9-14.9,105.9-17c28-2.1,77.5-6.7,106.5,0.5c29,7.2,136.5,5.9,149.5,11.1
			s38.9,3.4,44.9,1.3c6-2.1,8.5-5,41.1-5V370H0V54.7z"/>
		<path class="st0" d="M1509.1,66.6c0,0-0.7-12.8-0.7-24.7c0-8.3,0.7-16.3,0.7-19.2c0-7.1-6.9-5.3-6.9,0.1c0,5.4,0.6,43.8,0.6,43.8
			H1509.1z"/>
		<path class="st0" d="M1508.4,52c0,0,2.6,0.3,2.9-1.5c0.3-1.9-0.7-18,0-21.4c0.7-3.4,4.2-2.6,4.5,1.2c0.3,3.8,1,23.3-1,25.4
			c-2.1,2-6.2,1.7-6.2,1.7L1508.4,52z"/>
		<path class="st0" d="M1502.7,46c0,0-2.7,0.7-3-2.5c-0.3-3.3,1-18.5,0.5-22.7c-0.6-4.2-4.3-3.5-4.8,0.6c-0.5,4.1-1.2,24.6,0.8,27.1
			c2.1,2.5,6.5,2.5,6.5,2.5V46z"/>
		<path class="st0" d="M509.7,48.6c0,0,0.7-12.8,0.7-24.7c0-8.3-0.7-16.3-0.7-19.2c0-7.1,6.9-5.3,6.9,0.1S516,48.6,516,48.6H509.7z"
			/>
		<path class="st0" d="M510.4,34c0,0-2.6,0.3-2.9-1.5c-0.3-1.9,0.7-18,0-21.4c-0.7-3.4-4.2-2.6-4.5,1.2c-0.3,3.8-1,23.3,1,25.4
			c2.1,2,6.2,1.7,6.2,1.7L510.4,34z"/>
		<path class="st0" d="M516,28c0,0,2.7,0.7,3-2.5c0.3-3.3-1-18.5-0.5-22.7c0.6-4.2,4.3-3.5,4.8,0.6c0.5,4.1,1.2,24.6-0.8,27.1
			c-2.1,2.5-6.5,2.5-6.5,2.5V28z"/>
	</g>
	<g>
		<path class="st0" d="M3840,54.7c-25.8,0-47.9-11.7-77.9-9.7s-34.9-8.7-49.9-5.2c-15,3.5-53.2-13-74.2-8c-21,5-56,6.7-83,7.3
			c-27,0.6-88,12.6-101,12.6s-5-2-32-4c-27-2-49-17.2-73-8.6c-24,8.6-82,24.1-99,19.3c-17-4.8-30-5.8-56-8.8c-26-3-16-8.5-50-4.8
			c-34,3.8-82.1,21.1-111.1,19.2c-29-2-110.4,0.5-132.4,3.3c-22,2.8-191.5-16.7-209.5-16.7s-10,2-36,2s-64-2-76-1
			c-12,1-26,2.4-56,7.7c-30,5.3-71.6-2.2-92.6-1.9c-21,0.3-43.1,1.2-62.5,6.4c-19.3,5.3-77.9-14.9-105.9-17
			c-28-2.1-77.5-6.7-106.5,0.5S2019,53.2,2006,58.4s-38.9,3.4-44.9,1.3c-6-2.1-8.5-5-41.1-5V370h1920V54.7z"/>
		<path class="st0" d="M2330.9,66.6c0,0,0.7-12.8,0.7-24.7c0-8.3-0.7-16.3-0.7-19.2c0-7.1,6.9-5.3,6.9,0.1c0,5.4-0.6,43.8-0.6,43.8
			H2330.9z"/>
		<path class="st0" d="M2331.6,52c0,0-2.6,0.3-2.9-1.5c-0.3-1.9,0.7-18,0-21.4c-0.7-3.4-4.2-2.6-4.5,1.2c-0.3,3.8-1,23.3,1,25.4
			c2.1,2,6.2,1.7,6.2,1.7L2331.6,52z"/>
		<path class="st0" d="M2337.3,46c0,0,2.7,0.7,3-2.5c0.3-3.3-1-18.5-0.5-22.7c0.6-4.2,4.3-3.5,4.8,0.6c0.5,4.1,1.2,24.6-0.8,27.1
			c-2.1,2.5-6.5,2.5-6.5,2.5V46z"/>
		<path class="st0" d="M3330.3,48.6c0,0-0.7-12.8-0.7-24.7c0-8.3,0.7-16.3,0.7-19.2c0-7.1-6.9-5.3-6.9,0.1s0.6,43.8,0.6,43.8H3330.3
			z"/>
		<path class="st0" d="M3329.6,34c0,0,2.6,0.3,2.9-1.5c0.3-1.9-0.7-18,0-21.4s4.2-2.6,4.5,1.2c0.3,3.8,1,23.3-1,25.4
			c-2.1,2-6.2,1.7-6.2,1.7L3329.6,34z"/>
		<path class="st0" d="M3324,28c0,0-2.7,0.7-3-2.5c-0.3-3.3,1-18.5,0.5-22.7c-0.6-4.2-4.3-3.5-4.8,0.6c-0.5,4.1-1.2,24.6,0.8,27.1
			c2.1,2.5,6.5,2.5,6.5,2.5V28z"/>
	</g>
</g>
</svg>
