<?xml version="1.0" encoding="utf-8"?>
<!-- Generator: Adobe Illustrator 25.2.3, SVG Export Plug-In . SVG Version: 6.00 Build 0)  -->
<svg version="1.1" id="Layer_1" xmlns="http://www.w3.org/2000/svg" xmlns:xlink="http://www.w3.org/1999/xlink" x="0px" y="0px"
	 viewBox="0 0 4000 4000" style="enable-background:new 0 0 4000 4000;" xml:space="preserve">
<style type="text/css">
	.st0{fill:#FFFFFF;}
	.st1{fill:#0F52BA;}
	.st2{fill:none;}
	.st3{font-family:'FjallaOne-Regular';}
	.st4{font-size:600px;}
</style>
<path d="M3093.9,1344.8l-146.1-74.9l-438.7-224.8l-468.7,39.6l1.8-173.1c-6.4-43-23.2-74-50.7-93.1c-27.1-18.7-55.1-20.6-83.9-5.7
	l-1,312.3c-103.4,10.8-203.1,26.8-299.2,47.8l-210.6,37.9l-0.8-194.7c-6.8-17.7-14.5-32.2-23.1-43.6c-24.2-32.2-55.3-39.9-93.4-23
	l-2.4,299.5c-13,2.8-24.9,5.8-35.8,8.8c-16.5,4.7-30.4,9.6-41.8,14.8c-12.8,14.2-28.6,31.5-47.4,52l-0.7,0.8
	c-35.4-1-70.7,2-105.9,8.9l-2.8,0.7c-23.3-1.4-41.3,1.8-54,9.4c-9.4,5.6-15.9,13.7-19.6,24.2l-2.1,76.1l-28.3,0.4l-3.2-3.2
	c-1.4-0.7-2.8-1.3-4.3-1.9c-20.1-8.2-47.6-11.4-82.7-9.6c-12.1,0.6-25.1,1.9-39,3.8l-0.3,18l-69.8,11.7c-9.2,2.4-17.8,5.1-25.8,7.8
	c-24.3,8.5-42.4,18.6-54.3,30.4c-11.8,11.1-17.9,23.7-18.3,37.8l-5.7,193l-82.8,5.3c-18.2,15.3-25.5,39.8-22,73.3
	c0.2,4.7,0.8,9.5,1.8,14.5c-6.9,9-13.3,18.5-19.5,28.7c-10.4,17.7-19.7,37.6-28,59.8l3.5,291l125.3,3.1c3.6,3.3,7.2,6.5,11,9.6
	c-91.8,6.8-137.7,14-137.7,21.6c0,13.2,147.6,23.3,442.8,30.4c295.5,7.3,652.1,9.5,1069.9,6.7c417.9-3.1,774.5-10.4,1069.8-21.9
	c295.5-11.1,443.2-23.4,443.2-36.9c0-7.6-49.8-14.3-149.3-20.2c4.5-9.2,8-19.7,10.6-31.5c4.5-24.7,4.9-53.6,1.1-86.8h1.4
	c0.5-8.9,0.9-17.8,1.2-26.8l77,1.2l-2.5-148.3l-6.8-383.4l-111.8-55.2l-21.2-10.7l-53.2-27.2L3093.9,1344.8 M3399.7,1771.1
	l3.2,122.6l-865.6-212.5l-6,70.1l8.1-640.8l859.2,433.6l5.7,228.7L3399.7,1771.1 M3409.6,1998.1l0.4,19.8l-916.6-155.1l-146.5,5
	l-0.3-29.8l155.3-9.2L3409.6,1998.1 M3293.9,2057.2c4.3-15.6,9.4-23.4,15.2-23.4c5.9,0,11.1,7.8,15.6,23.4c1.9,7,3.4,14.5,4.5,22.6
	c1.4,10.2,2.1,21.3,2.2,33.2c0.7,22-1,40.9-5.2,56.6c-3.8,15.6-8.6,23.4-14.5,23.4c-5.2,0-9.6-5.6-13.1-16.7c-1.2-2.1-2-4.4-2.4-6.8
	c-4.5-15.8-7-34.7-7.5-56.6c0-12.2,0.5-23.3,1.5-33.2c0.3-3.1,0.6-6,1.1-8.9C3292,2066,3292.9,2061.4,3293.9,2057.2 M3253.2,2104.2
	c0.2,23.8-1.8,44.2-6.1,61.2c-4.2,17-9.6,25.5-16.2,25.5c-5.2,0-9.8-6-13.8-18c-1.2-2.4-2.1-4.9-2.6-7.5c-5.2-17-7.9-37.4-8.1-61.2
	c-0.2-17.5,0.8-32.8,2.9-46.1c0.9-5.2,1.9-10,2.8-14.5c4.5-16.8,10-25.1,16.6-25.1c6.4,0,11.9,8.4,16.6,25.1
	C3250.1,2060.7,3252.7,2080.9,3253.2,2104.2 M2610.3,1957.3l56.6-1.1c-30.3,21.6-47.9,62.8-52.6,123.6c-0.7,9.7-1.1,19.8-1.2,30.4
	c-1-10.4-2.1-20.6-3.4-30.4c-5.3-37.3-13.7-70.6-25.2-99.9C2586.1,1969.8,2594.7,1962.3,2610.3,1957.3 M2685,2021.1
	c9.2,0,17.1,8.3,23.7,24.8c4.3,10.1,7.3,21.4,9.1,34c1.2,8.3,1.8,17.2,1.9,26.6c0.5,23.6-2.3,43.7-8.5,60.2
	c-5.9,16.7-13.4,25.1-22.6,25.1c-7.8,0-14.6-5.8-20.6-17.3c-1.4-2.3-2.6-4.9-3.5-7.8c-6.9-16.5-10.5-36.6-11-60.2
	c-0.1-9.4,0.3-18.3,1.1-26.6c0.7-6.9,1.8-13.4,3.1-19.4c1.2-4.7,2.5-9.6,3.9-14.6C2668,2029.3,2675.8,2021.1,2685,2021.1
	 M3021,2124.8h53.4c3.1,29.7,8.6,49,16.7,58l-80.7-2.8l-17.4-3.6C3002.2,2175.3,3011.5,2158.1,3021,2124.8 M1909.7,1150.6l-1.3,32.6
	l-1.8,46.3c-3.6-5.4-9-10.2-16.2-14.6c-28.8-16.6-70.6-24.8-125.2-24.5c-3.9-0.1-7.8-0.1-11.8-0.2c-0.2,0-0.5,0-0.8,0
	c-34.2-0.5-73.9-0.7-119-0.4l234.3-36.1L1909.7,1150.6 M1303.3,970.4c15.9-8.8,31.3-3.1,46.2,16.9c5.2,7,10.3,15.7,15.3,26.2
	l-1.8,213.9l-12.3,2.8l1.7-222.3l-8.5,79.2l-4.6,145.8l-36.1,8.2V970.4 M1601.8,1323c-9.7,10.8-24.7,12.9-45,6.3
	c-81.6,4.2-165.2,10.5-250.6,18.8c-9,0.9-18.1,1.9-27.2,2.8l-141.6,30.4l29.3-38.2c4.7-6.9,9.6-13,14.5-18.5
	c12-14.4,23.6-25.1,34.7-32.1c31.4-8.5,61.4-16,90.2-22.4c12.3-2.8,24.3-5.3,36.2-7.4l-30.5,37.9l43.5-37.9
	c85.9-8.9,177.7-14.4,275.4-16.3c13.5,0.7,21.2,5.7,23.1,14.9l-13.5,23l22,12.1l-27.7,21.9C1621.9,1316,1611,1317.5,1601.8,1323
	 M1324.6,1387.3l11.3,5.7l-13.5,89.5l-10.3-1.4L1324.6,1387.3 M1527.8,1506.7l8.2,1.8c9.4,1.4,17.5,10.6,24.1,27.6v-1.4
	c0-3.6,0-5.5,0-5.7c-1-21.2,6.5-31.4,22.3-30.4c35.6-3.3,70.7-3.1,105.4,0.6l5.3,1.5c11.1,1.4,16.7,8.2,17,20.2l-7.2,298.1
	c-4.5,9.2-14.1,13.4-29,12.4l-95.6-4.2l15.2-9.2l0.7-71.2l98.8,0.4c-29.5-5-62.5-7-98.8-6.1l0.4-59.4c28.5-2.8,62.3-3.7,101.2-2.5
	c-35.4-5.5-69.1-7.7-101.2-6.8v-82.2l94.2-9.2c-26.2-3.3-66-2.5-119.3,2.2v223.4l-5.3-11l-1.4-31.2l-11.7-1.8v36.8l-33-46.7
	l1.4-120.8l-418.4-30l-25.2,40.3l-2.1,58.8l-0.7,23.8l133.5-3.2l5.3,0.3l1.8,0.3h0.7c34.7,5.5,50.4,23,47.1,52.8l-1.8,3.9
	c0.7-15.6-7.5-25.5-24.5-29.8l-19.4,30.4l-0.8-26.2l-14.2-18.7l0.3,50.6c-0.9,10.4-7.2,16.2-18.8,17.3l-101.6,2.8l-6-0.7
	c-14.2-5.2-21.2-16.1-21.2-32.6c0-19.6,9.1-31.8,27.2-36.5l-47.1,1.5l-6,133.4l-1.1,20.5l-0.3,3.9l0.3-0.3v31.9l171-3.9l-2.1-33.2
	l-164.9,1.7l-1.4,0.8c0-0.5,0.1-0.8,0.3-0.8c24.6-32.8,45.8-53.3,63.7-61.6l134.9-7.4l-22.7-18.1l40,9.2l-37.8,80.4v35.7l-7.1,0.3
	l-190.5,5.4l-213.2,5.7l-78,2.1l-25.3,0.7l-35.8,1.1l-1.8-1.4l-4.2,0.8l-37.9,0.4l-99.8,1l-1.4-25.5l-0.3-8.5c0-0.5,0.1-0.9,0.3-1.1
	c8-20.5,21.3-41.4,40-62.7l67.7,1.8l17,0.4l-0.7,59.5l-113.3,3.9l-0.4,24.1l135.3-3.2l9.5-331.6l1.5-50c0.9-5,2.5-9.8,4.6-14.5
	c5-11.3,13.4-21.1,25.3-29.5c25.8-18.2,68-29.3,126.5-33.5c0.6-0.3,1.2-0.5,1.8-0.6c0.4-0.1,0.7-0.2,1.1-0.2v-2.3v-15.7
	c2.7-0.5,5.4-0.9,8-1.2c19.7-2.7,36.8-1.9,51.2,2.2l-3.5,3.2l-31.8,5.2l2.1,18.4l13.8-9.2l-0.7-0.7l2.2-0.7v2.2l0.3-0.4v-1.8
	l5.3-3.6l41.2-1.3l84.9-2.9c7.3-0.7,14.2-0.6,20.6,0.3c3.3,0.5,6.7,1.2,10.2,2.2L1527.8,1506.7 M1605.2,1468.4
	c-1.6,15.3-18.7,23.2-51.3,23.7l-107.6-6.1l94.2,1.5c36.1-3.7,55.1-13.4,57-29l15.6-94.2c2.8-4.1,6.8-6.9,12.1-8.5L1605.2,1468.4
	 M1794.3,1244.8c-0.2-0.5-0.6-1.1-1.1-1.8c-6.8-15.1-28.2-20-64.1-14.5l-59.5,8.2c-103.6-11.1-216.5-6.8-338.8,13.1
	c89-28.1,212-42.1,368.9-42.1c106.7,5.4,167.8,23.8,183.4,55.2L1794.3,1244.8 M1800,1258.8c9.2,2.2,13.8,10.4,13.8,24.8l2.1,175.9
	c-1.2,11.6-5.8,18.7-13.8,21.2h-49.9c9,14.2,18.1,21,27.2,20.5c-1.2,5.9-4.5,11-9.9,15.2c-5.7,3.8-12.6,5.8-20.9,6
	c-13.7,0.5-23.6-9.8-29.7-30.8c10.1,4.5,18.2,3.2,24.1-3.9c-6.4,1.6-13.8-1.2-22.3-8.5l-20.8-24.8l-14.9,4.9l-13.1,14.2l-17.3-1.8
	l23-25.5l4.9-26.2l-1.8-145.5l-21.2-20.2l73.6-14.8c24.3-4.5,36.3,2.1,35.8,19.8L1800,1258.8 M1845.3,1380.7l-22.4-5.7l-2.1-47
	c19.1,6.1,29.8,22.3,31.9,48.5l-1.4,418.8c-1.9,30.2-18.7,42.8-50.6,37.6l-85-6.1l-0.6-11.7l84.2,5.7c27.3,1.4,41.3-10.2,41.8-34.7
	l1.4-131l-121-8.8l2.2-96.2l1.3-21.2l94.2,8.8c0.9,0,2,0,3.2,0c9.9-1.7,17.1-10.6,21.6-26.9L1845.3,1380.7 M1644.2,1346.1
	c5.6-24.6,13.5-38.5,23.7-41.7v51.8l-9.2,87.4c-3.3,10.6-8.5,19.1-15.6,25.5l-22.2,17.3L1644.2,1346.1 M2270.8,1150.6l-1-1.4
	c-46-12.1-89-21.8-128.9-29.1l354.4-24.4l-1.8,348l0.4,1l-0.7,235.1l-146.2,1.8l-2.1,32.5l-6.1-441.4
	C2337.6,1208,2314.9,1167.3,2270.8,1150.6 M2004.6,899.9c0.5,2.1,1.1,4.5,1.8,7l-14.9,1128.3c-1.9,18.4-6.2,33.2-12.9,44.6
	c-16.2,27.4-46.4,34-90.5,19.8c5-6.5,9.5-13.1,13.3-19.8c10.7-18.6,17-38.3,18.9-59.1l1.5-13.1l16.6-1167.5
	C1970.7,833.2,1992.8,853.2,2004.6,899.9 M2040.7,1106.3c-0.2,0-0.5,0-0.7,0v-1.1L2040.7,1106.3 M2035.4,1144.6
	c10.4-0.7,26.5-0.6,48.5,0.3c22.9,0.9,51.9,5.3,87.1,13.1l87.1,27.6c23.3,9.1,36.2,26.5,38.4,52.1c0.1,0.1,0.1,0.2,0.1,0.3
	l7.1,437.2l-74.4-13.1c-0.2,0-0.5,0-0.7,0c-13-2.6-22.9,2.5-29.8,15.2l-171.7-26.6l4.2-392.9l0.7-43.2c0-0.2,0.1-0.5,0.4-0.8
	L2035.4,1144.6 M1051.2,1371.1c-18.6-12.1-35.3-10.6-49.9,4.2c14.2-8.3,27.6-8.8,40.3-1.8l-1.4,72.6l-51.7-1.8l1.8-69.4
	c5.5-14.4,23.9-21.1,55.2-20.1c24.3-7.8,58.1-11.9,101.3-12.4l-14.9,16.3c-33.5,1.2-55.7,4-66.5,8.5c-1.9-5.4-6-7.8-12.4-7
	c3.7,2.6,5.8,7.1,6.3,13.4l-2.5,72.9h-5.7V1371.1 M1075.3,1384.9c9.2-7.1,23.8-9.8,43.8-8.2l-15.5,27.9l57.8-7l-12.1,56.7l-76.8-6.4
	L1075.3,1384.9 M1215.2,1422.1l3.5-15.9l79.3,20.8l-3.2,50.7l-62-2.9l0.4-29.7C1234,1433,1227.9,1425.3,1215.2,1422.1
	 M1220.8,1453.6l-1.4,3.9l-0.7,13.9h-10.9l6.7-37.2C1218.7,1435.8,1220.8,1442.2,1220.8,1453.6 M1258,1822.8
	c0.2-0.7,0.6-1.4,1.1-2.1c18-47.2,19.5-75.4,4.6-84.6c65.1-25.2,134.8-22.6,209.2,7.8c55.5,26.9,99.7,85.6,132.8,176l-10.2-63
	l275.3,19.1l-3.2,41.8l-223.4-15.9l-32.5,35.4c0,0.4,0,0.8,0,1l0.8,2.8c11.8,33.8,17.7,80.1,17.5,138.8c0,10.3-0.2,20.9-0.6,31.9
	c-0.4-10.7-1.1-21.4-1.9-31.9c-3.5-42.9-10.7-84.1-21.4-123.6c-42-126.5-101.2-192.1-177.8-196.8c-72.9-8.5-136.2,47.4-190.1,167.8
	l-16.6-1.4C1223,1907.2,1235.1,1872.9,1258,1822.8 M1294.8,2145.3c-16.4-19-26.9-40.9-31.5-65.5c-2.1-11.1-2.9-22.8-2.5-35.1
	c1.4-38.9,14.8-72.3,40-100.2c25.7-27.9,55.9-41.8,90.6-41.8c35.2,0,64.6,13.9,88.2,41.8c24.3,27.8,35.8,61.2,34.7,100.2
	c-0.4,12.3-1.9,23.9-4.7,35.1c-6.1,24.6-18,46.5-35.7,65.5c-25,27.6-55.1,41.4-90.2,41.4C1349,2186.7,1319.4,2172.9,1294.8,2145.3
	 M1210.9,1957.7l1.8,221.2l-695.9,1.1l-5.4-209.2L1210.9,1957.7 M638.8,1759.1l0.7,2.1l-1.1,56.7l-14.6,0.6l-57.2,1.9
	c-1.9-2.8-3.4-5.8-4.6-8.8c-2.3-6.4-3.3-13.6-2.8-21.6c0.9-12.8,5.5-22.8,13.8-30.1l59.3-0.7L638.8,1759.1 M2281.8,1690.4
	c15.6,4.2,22.5,17.6,20.9,40v107.9c0.7,23.1-6.9,33.9-22.7,32.2l-50.6-4.9c-15.8-3.8-25.2-15.7-28-35.8c-0.7-2.8-1-5.7-1-8.5v-112.2
	c2.6-15.4,8.3-25,17-29c1.9-0.9,3.9-1.6,6-2.1c1.9-0.3,4.1-0.3,6.4,0L2281.8,1690.4 M2309.8,1909.2l-2.8,36.1l-300.9-27.6v-41
	L2309.8,1909.2 M2306.9,1950.2c12.7-22,26.9-33.9,42.4-35.8l147.3-7.1c41.3,1.7,66.8,21.1,76.4,58.4c-7.8-26.2-24.9-40-51.3-41.4
	c-41.2,6.6-65,58.4-71.4,155.4c-0.5,6.9-0.8,13.9-1.1,21.2l-167.1,0.3c-0.9-7.3-1.6-14.5-2.1-21.6c-0.3-3.8-0.5-7.6-0.7-11.3
	l8.5,23.7l142.3-1.8l11-89.9h-23c-6.6,21-10.3,45.4-11,73.2l-10.3,5.6c1.9-29.7,4.7-56,8.5-78.9l-37.9,0.3
	c-6.8,19.1-10.5,43.5-11,73.2l-9.2,8.5c0-1-0.1-1.9-0.1-2.8c-1.3-28,1.5-54.3,8.6-78.9h-43.1c-5,17.9-8.2,42.3-9.6,73.2l-7.5,8.5
	c-0.1-1-0.1-1.9-0.2-2.8c-2.2-29.7,0.1-56,7-78.9h-9.2l-11.3,17c2.6-16.6,6.9-31.6,12.8-45h131.3l19.1-13.8l-186.6,1.4l-17.7-6.4
	L2306.9,1950.2 M2208.9,1971.2l2.1-13.8c37,31.1,54.8,69.5,53.4,115c-0.1,2.5-0.2,5-0.3,7.4c-3.1,42.9-23.6,71.8-61.6,86.8l-245-7.1
	l29.1-8.1l185.8,5.6c0.7-0.3,1.5-0.6,2.5-1.1c20.3-10.4,33.9-31.4,40.7-63.1l-141.2-3.9c0.5-3,1-6.1,1.4-9.2
	c2.6-22.9,0.6-49.8-6-80.7l119.3,3.9l-23.4-32.2l31.8,2.1c28.5,36.5,40.3,72.1,35.6,106.9c-3.5,24.9-15.4,49.3-35.9,73.3l9.6,1
	c22-23.6,34.6-48.3,37.8-74.3C2248.8,2045.7,2236.9,2009.5,2208.9,1971.2 M1991.2,2086.6c1.4-2.1,2.6-4.3,3.8-6.8
	c9.5-19,14.2-47.8,14.2-86.4l43.9,1.8c7.4,32.3,9.2,60.5,5.5,84.6c-0.5,3-1.1,6-1.6,8.8c-5.9,23.6-14,37.4-24.4,41.5v-0.4
	c7.8-7.6,12.4-21.4,13.8-41.4L1991.2,2086.6 M2519.3,2007.6c11.1,0,20.8,8.7,29.1,26.2c6.4,13.3,10.6,28.6,12.4,46
	c0.6,5.5,0.9,11.2,1.1,17c0.7,24.6-2.8,45.7-10.3,63.4c-7.5,17.4-16.9,26.2-28,26.2c-9.2,0-17.4-6-24.8-18c-1.6-2.6-3.2-5.3-4.6-8.2
	c-8.3-17.7-12.8-38.8-13.5-63.4c-0.1-5.9,0-11.6,0.3-17c0.7-11.1,2.3-21.4,5.1-30.8c1.4-5.2,3.1-10.3,4.9-15.2
	C2498.8,2016.3,2508.2,2007.6,2519.3,2007.6 M1793.2,1773.2l1.1-33.3c1-9.4,5.6-14.1,13.8-14.1c13.7-1.4,20.3,7.3,19.8,26.2
	l-2.8,29.3c0,9.4-5.2,13.6-15.5,12.4C1798.7,1792.8,1793.2,1786,1793.2,1773.2 M1704.1,1947.4l166.7,8.8v102.3
	c-10.4,8-21.9,15.1-34.5,21.2c-36.3,17.7-81.3,27.3-135.1,28.7l1.1-2.9L1704.1,1947.4 M1322.1,1845.1l15.2-18.8
	c59-13,113.5,0.4,163.5,40c55.5,43.2,84,102.8,85.4,178.8c-10.9-72.9-39.8-125.6-86.8-158.2
	C1452.2,1854.1,1393.1,1840.2,1322.1,1845.1 M1936.7,2113.1l1.8,22.7l-159-2.1v-20.6H1936.7 M1818.1,2153.8
	c3.1,10.1,6.6,19.6,10.6,28.3c-68.4,0.7-135.1,1.6-200,2.5l0.3-37.5L1818.1,2153.8 M1816.2,1771.8l2.8-33.3l-13.8-1.8l-0.4,31.8
	c-0.7,4,3.4,6.8,12.4,8.5L1816.2,1771.8 M2548.4,2102.4l-2.9-12.7c2.4,52.2-6.1,81.1-25.4,86.7c0.5,0,1,0,1.8,0
	c9.2,0,16.9-7.8,23-23.3c5.7-14.6,8.4-31.9,8.2-51.7L2548.4,2102.4 M2489.2,2126.1c12.1-0.7,16.7-10.4,13.9-29.3h-16.7
	c0,0.2,0,0.5,0,0.7C2486.4,2107.7,2487.3,2117.2,2489.2,2126.1 M2494.6,2041.9c-4,10.4-6.6,22.2-7.8,35.4l4.6-11
	c6.5,2.6,11.2,7.1,14.2,13.4c3.7,7.9,4.8,18.8,3.1,32.6c3.1-2.4,5.3-9.1,6.7-20.2c0,24.1-8.2,37.3-24.8,39.7
	c1.6,7.5,4,14.6,7.1,21.2c3.6,7.8,7.4,13.7,11.4,17.7c8-0.7,14.5-7.2,19.4-19.4c5.4-12.5,7.6-27.8,6.4-45.7
	c-0.4-9.3-1.6-17.9-3.6-25.8c-1.9-7.3-4.5-14-7.8-20.2c-6.8-12.5-14.5-18.8-22.9-18.8C2498.7,2040.8,2496.7,2041.2,2494.6,2041.9
	 M2527.5,2034.5c9.4,4.5,16.1,12.1,20.1,23c-1.4-5.7-3.3-11-5.6-15.9c-6.8-15.4-14.8-23-24.1-23c-7.4,0-13.8,4.8-19.1,14.5
	c14.2-5.7,26.9,4.5,38.2,30.5C2536.1,2053.4,2532.9,2043.7,2527.5,2034.5 M2292.8,1726.2c0-12.3-3.1-20.2-9.2-23.8l-52.1-13.4
	c-1.4,0-2.6,0-3.6,0c-9,0.9-14.5,9.1-16.6,24.4l-1.8,102.3c0.9,22.2,8,35.2,21.2,38.9l43.2,5.2c10.6,1.2,16.5-3.6,17.6-14.5
	l1.4-47.8c-9.4-2.4-13.6-8.4-12.4-18.1c0.5-6.8,4.6-10.9,12.4-12.3L2292.8,1726.2 M572.3,1813.2v-1.1c-0.5,0.5-1.1,0.8-1.8,1.1
	H572.3 M572,1806.2c1,1.9,2.5,3.7,4.6,5.3v0.7l42.5-0.3l0.4-36.8c-8.5,10.9-19.6,20.9-33.4,30.1c-5.4,0.2-10.1-4.5-14.1-14.2
	C570.3,1796.8,570.3,1801.9,572,1806.2 M1196,2037.7c-10.5,11.8-24.7,23.6-42.6,35.5c-23.7,15.8-45.6,24.9-65.5,27.5
	c-7.7,1-162.7,2.5-465,4.6c-21-3-39.1-8.1-54.1-15.6c-18-8.8-31.5-20.6-40.4-35.4l3.4,111.5l666.4-0.2L1196,2037.7 M1416.9,2147.8
	c-2.4,2.2-3.5,4.4-3.5,6.8c-0.2,2.6,0.8,5.1,3.2,7.4c2.1,1.7,4.7,2.5,7.8,2.5c2.8,0,5.4-0.8,7.8-2.5c2.1-2.4,3.3-4.9,3.6-7.4
	c0-2.3-1.1-4.6-3.2-6.8c-2.1-1.9-4.7-2.8-7.8-2.8C1421.7,2144.9,1419,2145.9,1416.9,2147.8 M1368.8,2147.8c-2.1-1.9-4.7-2.8-7.8-2.8
	s-5.7,0.9-7.8,2.8c-2.1,2.2-3.2,4.4-3.2,6.8c-0.2,2.6,0.7,5.1,2.8,7.4c2.1,1.7,4.7,2.5,7.8,2.5s5.7-0.8,7.8-2.5
	c2.1-2.4,3.3-4.9,3.5-7.4C1371.9,2152.2,1370.9,2149.9,1368.8,2147.8 M1323.2,2114.5c0-2.8-1.3-5.3-3.9-7.4
	c-2.4-2.4-5.3-3.6-8.8-3.6c-3.3,0-6.2,1.2-8.8,3.6c-2.4,2.1-3.6,4.6-3.6,7.4c-0.2,2.8,0.8,5.3,3.2,7.4c2.6,2.2,5.6,3.2,8.9,3.2
	c3.5,0,6.5-1.1,8.8-3.2C1321.5,2119.8,1322.9,2117.3,1323.2,2114.5 M1472.9,2112.8c-2.4,0-4.5,0.8-6.3,2.4c-2.2,1.6-3.2,3.4-3.2,5.4
	c0,2.6,1,4.6,2.9,6c1.9,1.7,4,2.5,6.3,2.5c2.4,0,4.5-0.8,6.4-2.5c1.7-1.4,2.5-3.4,2.5-6c0-1.9-0.7-3.7-2.1-5.4
	C1477.4,2113.6,1475.2,2112.8,1472.9,2112.8 M1489.2,2049.7c0.5-24.3-7.1-45.1-22.6-62.6c-15.1-17.2-33.9-25.8-56.3-25.8
	c-22.2,0-41.7,8.6-58.4,25.8c-16.3,17.5-24.8,38.4-25.5,62.6c-0.3,10.7,0.9,20.8,3.7,30.1c3.5,12.1,9.6,23.1,18.2,32.9
	c15.6,17.2,34.5,25.9,56.7,25.9c22.4,0,41.9-8.6,58.4-25.9c9.4-9.9,16.2-20.8,20.4-32.9C1487,2070.5,1488.8,2060.4,1489.2,2049.7
	 M1378.3,2000.6c10.9-12.8,23.5-19.2,37.9-19.2s26.7,6.4,36.8,19.2c6.3,8.5,10.6,18.2,12.7,29c-9-12.8-17.9-20.9-26.9-24.4
	c8,17.7,9.2,35.2,3.5,52.7c-2.8,8.5-6.9,15.8-12.3,21.9c-5.8,6.6-13.2,11.9-22.1,15.9c12.9-1.3,24.1-6.6,33.8-15.9
	c5.9-5.7,11.2-12.9,15.8-21.6c-1.2,8-3.2,15.2-5.8,21.6c-5.9,14.5-15.2,25-27.9,31.6c-3.3,0.9-7,1.4-11.3,1.4
	c-14.4,0-26.8-6.5-37.1-19.5c-3.4-4.2-6.2-8.7-8.4-13.4c-4.4-9.6-6.3-20.4-5.8-32.6C1362.1,2029.1,1367.8,2013.5,1378.3,2000.6
	 M1393.2,2087.9c7.5,0.1,14.2-2.6,19.9-8.1c6.3-6,11.4-15.5,15.4-28.3h-59.1c2,12.8,5.3,22.2,10.1,28.3
	C1383.3,2084.6,1387.8,2087.3,1393.2,2087.9 M1483.9,1978.9c0-2.2-0.8-4.1-2.5-5.7c-1.9-1.6-4.2-2.4-6.8-2.4c-2.1,0-4.1,0.8-6,2.4
	c-1.9,1.6-2.8,3.5-2.8,5.7c0,2.3,0.9,4.5,2.8,6.4c1.9,1.7,3.9,2.5,6,2.5c2.6,0,4.8-0.8,6.8-2.5
	C1483.1,1983.4,1483.9,1981.3,1483.9,1978.9 M1419.1,1949.2c2.1,1.9,4.4,2.8,7.1,2.8c3.1,0,5.7-0.9,7.8-2.8c2.3-2.4,3.5-5,3.5-7.8
	c0-2.8-1-5.3-3.1-7.5c-2.1-2.1-4.7-3.1-7.8-3.1c-2.6,0-4.9,1-7.1,3.1c-2.1,2.2-3.2,4.7-3.2,7.5
	C1416.2,1944.2,1417.2,1946.8,1419.1,1949.2 M1376.9,1943.9c0-3.3-0.9-6.2-2.8-8.5c-2.3-2.4-5.2-3.6-8.5-3.6c-3.1,0-5.8,1.2-8.1,3.6
	c-2.4,2.3-3.6,5.2-3.6,8.5c-0.2,3.3,0.8,6,3.2,8.1c2.4,2.4,5.1,3.6,8.2,3.6c3.3,0,6.1-1.2,8.5-3.6
	C1375.9,1949.9,1376.9,1947.2,1376.9,1943.9 M1308.9,1969.8c-2.8,1.9-4.5,4.2-4.9,7.1c-0.4,3.1,0.5,5.7,2.8,7.8
	c2.1,2.4,5,3.8,8.5,4.2c2.8,0.5,5.8-0.1,8.8-1.8c2.6-1.9,4.1-4.4,4.6-7.4c0.7-2.6-0.3-5.1-2.9-7.5c-1.6-2.6-4-4.1-7-4.6
	C1315.6,1967.1,1312.3,1967.8,1308.9,1969.8 M1282.1,2053.9c2.6,2.4,5.5,3.6,8.5,3.6c3.5,0,6.4-1.2,8.8-3.6c2.8-1.6,4.2-3.8,4.2-6.3
	s-1.2-4.8-3.6-6.8c-2.6-2.1-5.6-3.2-9.2-3.2c-3.1,0-6,1.1-8.8,3.2c-2.4,1.9-3.6,4.2-3.6,6.8S1279.7,2052.3,1282.1,2053.9
	 M1990.8,919.7l-17.7,223.7l-11.7,909.5c-2.7,10.6-6.6,19.6-11.7,26.9c-6,8.6-13.7,14.9-23,18.8c16.6-2.6,29-8.8,37.3-18.8
	c6.1-7.3,10-16.6,11.6-27.9c0.3-1.2,0.4-2.5,0.4-3.9L1990.8,919.7 M1731.7,1279.4c0.3-10.9,8.8-16.9,25.5-18.1
	c-1.4-10.2-8.2-14.6-20.2-13.4l-60.6,13.4l18.4,10l-0.8,152.2c-0.7,11.3-2.3,20.2-4.9,26.6l9.2-10.7l26.5,31.5
	c12.1,7.8,21.2,7.7,27.3-0.3c-10.1,1.2-16.4-0.3-18.8-4.6L1731.7,1279.4 M1702.3,1303.1l21.6,4.2l0.7,47.8l-21.9-5L1702.3,1303.1
	 M1804.9,1283.7c-1.9-12.7-8.3-17.8-19.1-15.2c5,3.3,7.4,10.8,7.4,22.3l2.2,161.1c-1.6,14.6-4.7,21.6-9.2,20.9
	c12.5,2.4,19.3-3.7,20.5-18L1804.9,1283.7 M1186.2,1777.5l-0.7-43.2c-7.1,24.3-25.4,40.8-54.9,49.5l0.8-47
	c-13.7,29.7-25.9,43.8-36.5,42.1c-10.6-1.4-20.4-7.5-29.4-18.4c-4,22.9,1,34.9,15.2,36.1l94.2-3.9
	C1182.4,1790.8,1186.2,1785.8,1186.2,1777.5 M1005.6,1486.5c16,3.1,23.7,14.4,23.1,33.9l-3.6,196.9l21.6-38.6l2.5-158.6l14.2,0.7
	C1049.6,1494.9,1030.4,1483.5,1005.6,1486.5 M933.4,1554.2v1.7l-6.8,313.3l-13.9,18.8l13.5-1.1l21.6-1.3
	c19.8-3.6,31.3-12.3,34.6-26.2l6.8-286.8c-1.2-22.6-8.6-35.5-22.3-38.6l-33.6,3.9l-9.6,1.4L933.4,1554.2 M882.2,1543.9l-27.7,3.1
	l-10,1.4l9.2,12.8l-2.9,69l-10.2,244l-12,18l11-0.3l64.8-3.5l12.4-348.4L882.2,1543.9 M757.5,1558l-33,3.6
	c-16.5,4.2-26.3,12-29.4,23.3l-10.9,226.6l-3.9,70.1c0.4,8.3,4.9,13.4,13.4,15.2c2.9,0.7,6.3,1.1,10.3,1.1l17.6-0.7l22.1-0.8
	l8.1-199.3L757.5,1558 M794.8,1553.8l-24.2,2.8l-9.9,1.4l9.5,9.6l-2.4,68.1l-8.6,244.5l-8.9,15.9l8.5-0.8l41.1-1.8l21.6-0.9h0.4
	l8.6-189.9l7-153.8L794.8,1553.8 M1565.6,1523.7l-1,43.9c48.4-4.5,91.7-4.3,129.8,0.7l-15.5-9.5l0.3-29.8l23.4-2.8
	C1659.5,1518.1,1613.8,1517.3,1565.6,1523.7 M1268.7,1337.1l-25.8-4.6c11.3-20.3,27.5-36.9,48.4-49.9c-25.2,4.7-49.2,10.8-71.8,18.3
	c-17,16.3-34.1,37.3-51.3,63.1L1268.7,1337.1 M1557.4,1319.1c9,6.1,20.4,5.9,34.1-0.6l50.8-54.6c-1.1-6-6.5-9-16.2-9
	c-0.7,0-3.7-0.1-9-0.3L1557.4,1319.1 M2712.6,2110.2l-3.9,1.1l-2.1-11.7c1.9,49.5-5.2,77-21.2,82.5c0.7,0,1.3,0,1.8,0
	c7.6,0,13.9-7.4,19.1-22.2C2710.5,2145.9,2712.6,2129.3,2712.6,2110.2 M2657.8,2106.4v0.3c0.2,9.7,1.2,18.9,2.9,27.7
	c9.9-0.5,13.7-9.8,11.3-28H2657.8 M2669.8,2052.6c-1.6,0-3.3,0.4-4.9,1.3c-2.6,7.7-4.6,16.3-5.9,25.9c-0.4,2.5-0.7,5.1-0.9,7.8
	l3.9-10.2c1.5,0.7,2.9,1.5,4.2,2.4c8.9,6.8,12.2,20.6,9.9,41.4c2.6-2.4,4.5-8.9,5.7-19.5c0,22.9-6.9,35.4-20.6,37.5
	c1.7,7.3,3.7,14.2,6.1,20.6c3.1,7.5,6.1,13.2,9.2,17c6.6-0.7,11.9-6.9,15.9-18.5c4.5-12,6.3-26.7,5.3-43.9
	c-0.5-13-2.4-24.6-5.8-34.7c-1-3.1-2.2-6.1-3.4-8.9C2682.9,2058.7,2676.6,2052.6,2669.8,2052.6 M2703.8,2053.2
	c-5.7-14.6-12.3-21.9-19.8-21.9c-5.9,0-11.2,4.7-15.9,14.1c11.6-5.4,22.1,4.1,31.5,28.7c-0.7-9.4-3.3-18.5-7.8-27.2
	c7.8,4.2,13.3,11.4,16.3,21.6C2707.1,2063.1,2705.7,2058,2703.8,2053.2 M3209.6,2104.2v0.7c0,9.9,0.6,19.2,1.8,27.9
	c7.1-0.5,9.7-10,7.9-28.6H3209.6 M3219.6,2049.4c-0.9,0-2.1,0.4-3.6,1.1c-2.4,10.2-3.8,21.7-4.2,34.7l2.8-11
	c8.1,5.7,11.3,20.6,9.6,44.6c1.7-2.4,3-8.8,3.9-19.4c0,23.1-4.7,36-14.2,38.6c0.9,7.3,2.4,14,4.2,20.2c1.6,7.5,3.8,13.2,6.4,17
	c4.5-0.5,8.3-6.8,11.4-18.8c2.8-12,4-26.6,3.5-43.9c-0.5-17.2-2.7-32.1-6.8-44.6C3228.9,2055.5,3224.5,2049.4,3219.6,2049.4
	 M3248.2,2108.5l-2.9,0.7l-1.4-12.1c1.2,50.5-3.9,78.5-15.2,84c0.5,0,0.9,0,1.4,0c5.2,0,9.6-7.4,13.4-22.4
	C3246.7,2144.3,3248.2,2127.6,3248.2,2108.5 M3245,2066.4c-0.7-5.4-1.7-10.7-3.1-15.9c-4-14.6-8.6-21.9-13.8-21.9
	c-4.5,0-8.1,5-10.9,14.8c7.8-5.9,15,3.7,21.6,28.7c-0.3-9.7-2-19-5.3-27.9C3238.8,2048.3,3242.7,2055.8,3245,2066.4 M3326.8,2117
	l-2.1,0.3l-1.4-10.6c1,46.5-3.7,72.4-14.1,77.6c0.4,0,0.9,0,1.4,0c4.9,0,9-7,12.3-20.9C3325.5,2149.9,3326.8,2134.4,3326.8,2117
	 M3291.4,2113.1v0.8c0,9.2,0.7,17.7,2.1,25.4c6.4-0.2,8.6-9,6.8-26.2H3291.4 M3300.6,2062.8c-1,0-2,0.2-3.2,0.8
	c-1.1,5.1-2,10.5-2.7,16.2c-0.6,4.9-1,10.1-1.2,15.6l2.5-10.2c7.5,5.2,10.5,19,8.8,41.4c1.6-2.4,2.8-8.4,3.6-18.1
	c0,21.5-4.2,33.3-12.8,35.4c0.7,6.8,1.8,13.2,3.5,19.1c1.9,6.8,3.9,11.9,6,15.2c4.3-0.2,7.7-6,10.3-17.3c2.8-10.8,3.9-24.4,3.1-40.7
	c-0.2-15.4-2.1-28.9-5.5-40.4c0-0.1-0.1-0.2-0.1-0.4C3309.7,2068.3,3305.6,2062.8,3300.6,2062.8 M3324.4,2078.1
	c-0.7-4.7-1.8-9.6-3.2-14.5c-3.3-13.7-7.5-20.6-12.7-20.6c-4,0-7.4,4.6-9.9,13.9c6.7-5.1,13,2.5,18.9,22.9c0.3,1.2,0.6,2.4,0.9,3.6
	c0-1.2-0.1-2.4-0.2-3.6c-0.5-7.7-2.1-15.1-4.8-22.3C3318.6,2061.5,3322.2,2068.4,3324.4,2078.1 M1995.4,3200.9
	c311.1,0,579.4-103.4,805-310.1h-1610C1416,3097.6,1684.3,3200.9,1995.4,3200.9 M2912.3,2890.9c-4.5,4.7-9.1,9.4-13.9,14.1
	c-249.5,249.7-550.7,374.6-903.8,374.6c-352.6,0-653.6-124.9-903-374.6c-4.8-4.7-9.4-9.4-13.8-14.1H935.2h-70.8H508.9l551.9,130.6
	c261.5,241.9,573.1,362.8,934.6,362.8c363,0,675.2-122,936.7-366l551.9-127.4H2912.3 M3050.4,1278.4l179.4,91.2
	c-64.6-123.9-150.3-239.2-257-345.8c-269.7-270-595.5-405-977.4-405c-382.1,0-708.3,135-978.5,405
	c-122.1,122.6-216.6,256.6-283.2,402c16-3.2,33.5-5.5,52.4-6.9l-1-15.2c29.1-3.5,55.5-4.7,79.3-3.4
	c58.3-107.8,134.1-208.4,227.3-301.8c53-52.9,108.2-100.1,165.8-141.8l0.5-34.5c22.9-6.1,43.7-8.8,62.2-8
	C1519,788.1,1743.8,725,1994.7,725c353,0,654.3,124.5,903.8,373.5C2955.6,1155.8,3006.2,1215.8,3050.4,1278.4z"/>
<path class="st0" d="M1938.4,2135.8l-1.8-22.7h-157.2v20.6L1938.4,2135.8 M1337.3,1826.3l-15.2,18.8c71-4.9,130.2,9,177.4,41.8
	c46.9,32.6,75.8,85.4,86.8,158.2c-1.4-76-29.9-135.6-85.4-178.8C1450.8,1826.7,1396.3,1813.4,1337.3,1826.3 M1870.8,1956.2
	l-166.7-8.8l-1.8,158.2l-1.1,2.9c53.7-1.4,98.7-11,135.1-28.7c12.6-6.1,24.1-13.2,34.5-21.2V1956.2 M1794.3,1739.9l-1.1,33.3
	c0,12.7,5.4,19.6,16.3,20.6c10.4,1.2,15.5-3,15.5-12.4l2.8-29.3c0.5-18.9-6.1-27.6-19.8-26.2
	C1799.9,1725.8,1795.3,1730.5,1794.3,1739.9 M1819.1,1738.6l-2.8,33.3l1.1,5.3c-9-1.7-13.1-4.5-12.4-8.5l0.4-31.8L1819.1,1738.6
	 M2548.4,2033.8c-8.3-17.5-18-26.2-29.1-26.2c-11.1,0-20.5,8.7-28.3,26.2c-1.9,4.9-3.5,10-4.9,15.2c-2.7,9.4-4.4,19.7-5.1,30.8
	c-0.3,5.4-0.4,11.1-0.3,17c0.7,24.6,5.2,45.7,13.5,63.4c1.4,2.8,3,5.6,4.6,8.2c7.3,12,15.6,18,24.8,18c11.1,0,20.5-8.7,28-26.2
	c7.5-17.7,11-38.8,10.3-63.4c-0.1-5.8-0.5-11.5-1.1-17C2559,2062.4,2554.8,2047.1,2548.4,2033.8 M2547.6,2057.5
	c-4-10.9-10.7-18.5-20.1-23c5.4,9.2,8.6,18.9,9.5,29.1c-11.3-26-24-36.1-38.2-30.5c5.4-9.7,11.8-14.5,19.1-14.5
	c9.2,0,17.2,7.7,24.1,23C2544.3,2046.5,2546.2,2051.8,2547.6,2057.5 M2486.8,2077.4c1.2-13.2,3.8-25,7.8-35.4
	c2.1-0.7,4.1-1.1,6.1-1.1c8.5,0,16.1,6.3,22.9,18.8c3.3,6.1,5.9,12.9,7.8,20.2c2,7.9,3.2,16.5,3.6,25.8c1.2,17.9-1,33.2-6.4,45.7
	c-4.9,12.2-11.4,18.7-19.4,19.4c-4-4-7.8-9.9-11.4-17.7c-3.1-6.6-5.4-13.7-7.1-21.2c16.5-2.4,24.8-15.6,24.8-39.7
	c-1.4,11.1-3.6,17.8-6.7,20.2c1.7-13.8,0.6-24.7-3.1-32.6c-3-6.3-7.8-10.8-14.2-13.4L2486.8,2077.4 M2503.1,2096.8
	c2.8,18.9-1.8,28.7-13.9,29.3c-1.9-8.9-2.8-18.5-2.8-28.6c0-0.2,0-0.5,0-0.7H2503.1 M2545.5,2089.8l2.9,12.7l4.6-1.1
	c0.2,19.8-2.5,37.1-8.2,51.7c-6.1,15.6-13.8,23.3-23,23.3c-0.7,0-1.3,0-1.8,0C2539.4,2170.8,2547.9,2141.9,2545.5,2089.8
	 M1995,2079.8c-1.2,2.4-2.5,4.7-3.8,6.8l55.2,1.8c-1.4,20.1-6,33.9-13.8,41.4v0.4c10.4-4,18.5-17.9,24.4-41.5
	c0.6-2.9,1.1-5.8,1.6-8.8c3.7-24.1,1.8-52.3-5.5-84.6l-43.9-1.8C2009.2,2032,2004.5,2060.8,1995,2079.8 M2211,1957.3l-2.1,13.8
	c28,38.3,39.9,74.6,35.7,108.7c-3.2,26-15.8,50.8-37.8,74.3l-9.6-1c20.5-24,32.4-48.4,35.9-73.3c4.8-34.8-7.1-70.4-35.6-106.9
	l-31.8-2.1l23.4,32.2l-119.3-3.9c6.6,30.9,8.6,57.8,6,80.7c-0.4,3.1-0.9,6.2-1.4,9.2l141.2,3.9c-6.8,31.6-20.4,52.7-40.7,63.1
	c-1,0.4-1.8,0.8-2.5,1.1l-185.8-5.6l-29.1,8.1l245,7.1c38-15,58.5-43.9,61.6-86.8c0.1-2.4,0.2-4.9,0.3-7.4
	C2265.8,2026.8,2248,1988.5,2211,1957.3 M2349.4,1914.5c-15.6,1.9-29.7,13.8-42.4,35.8l-66.2,3.8l17.7,6.4l186.6-1.4l-19.1,13.8
	h-131.3c-5.9,13.4-10.1,28.4-12.8,45l11.3-17h9.2c-6.9,22.9-9.2,49.2-7,78.9c0.1,0.9,0.1,1.9,0.2,2.8l7.5-8.5
	c1.4-30.9,4.6-55.3,9.6-73.2h43.1c-7.1,24.6-9.9,50.9-8.6,78.9c0,0.9,0.1,1.9,0.1,2.8l9.2-8.5c0.5-29.7,4.2-54.1,11-73.2l37.9-0.3
	c-3.8,22.9-6.6,49.2-8.5,78.9l10.3-5.6c0.7-27.9,4.3-52.3,11-73.2h23l-11,89.9l-142.3,1.8l-8.5-23.7c0.2,3.7,0.4,7.5,0.7,11.3
	c0.5,7.1,1.2,14.3,2.1,21.6l167.1-0.3c0.3-7.3,0.6-14.4,1.1-21.2c6.4-97,30.2-148.8,71.4-155.4c26.5,1.4,43.6,15.2,51.3,41.4
	c-9.7-37.3-35.2-56.8-76.4-58.4L2349.4,1914.5 M2306.9,1945.3l2.8-36.1l-303.8-32.5v41L2306.9,1945.3 M2302.7,1730.4
	c1.6-22.5-5.3-35.8-20.9-40l-52.1-12.3c-2.3-0.3-4.5-0.3-6.4,0c-2.1,0.5-4.1,1.2-6,2.1c-8.7,4-14.4,13.7-17,29v112.2
	c0,2.8,0.3,5.7,1,8.5c2.8,20.1,12.2,32,28,35.8l50.6,4.9c15.8,1.6,23.4-9.1,22.7-32.2V1730.4 M2283.6,1702.4
	c6.1,3.5,9.2,11.5,9.2,23.8l0.4,41.1c-7.8,1.4-11.9,5.5-12.4,12.3c-1.2,9.7,2.9,15.7,12.4,18.1l-1.4,47.8
	c-1.2,10.9-7,15.7-17.6,14.5l-43.2-5.2c-13.2-3.8-20.3-16.8-21.2-38.9l1.8-102.3c2.1-15.4,7.6-23.5,16.6-24.4c1,0,2.1,0,3.6,0
	L2283.6,1702.4 M639.5,1761.2l-0.7-2.1l-6.5,0.1l-59.3,0.7c-8.3,7.3-12.9,17.3-13.8,30.1c-0.5,8,0.5,15.2,2.8,21.6
	c1.2,3.1,2.7,6,4.6,8.8l57.2-1.9l14.6-0.6L639.5,1761.2 M576.5,1811.5c-2.1-1.7-3.6-3.5-4.6-5.3c-1.7-4.3-1.7-9.4,0-15.2
	c4,9.7,8.7,14.4,14.1,14.2c13.7-9.2,24.9-19.2,33.4-30.1l-0.4,36.8l-42.5,0.3V1811.5 M572.3,1812.2v1.1h-1.8
	C571.2,1813,571.8,1812.7,572.3,1812.2 M1212.7,2178.9l-1.8-221.2l-699.5,13.1l5.4,209.2L1212.7,2178.9 M1153.4,2073.2
	c17.9-11.9,32.1-23.7,42.6-35.5l2.2,127.9l-666.4,0.2l-3.4-111.5c8.9,14.8,22.4,26.6,40.4,35.4c15,7.4,33.1,12.6,54.1,15.6
	c302.3-2.1,457.3-3.6,465-4.6C1107.9,2098.1,1129.7,2089,1153.4,2073.2 M1263.3,2079.8c4.6,24.6,15.1,46.5,31.5,65.5
	c24.5,27.6,54.2,41.4,88.8,41.4c35.2,0,65.2-13.8,90.2-41.4c17.7-19,29.6-40.9,35.7-65.5c2.7-11.1,4.3-22.8,4.7-35.1
	c1.2-38.9-10.4-72.3-34.7-100.2c-23.6-27.9-53-41.8-88.2-41.8c-34.7,0-64.9,13.9-90.6,41.8c-25.3,27.8-38.6,61.2-40,100.2
	C1260.4,2057,1261.3,2068.7,1263.3,2079.8 M1290.6,2057.5c-3.1,0-5.9-1.2-8.5-3.6c-2.4-1.6-3.6-3.8-3.6-6.3s1.2-4.8,3.6-6.8
	c2.8-2.1,5.8-3.2,8.8-3.2c3.6,0,6.6,1.1,9.2,3.2c2.4,1.9,3.6,4.2,3.6,6.8s-1.4,4.7-4.2,6.3C1297,2056.3,1294.1,2057.5,1290.6,2057.5
	 M1304,1976.8c0.5-2.8,2.1-5.2,4.9-7.1c3.3-1.9,6.7-2.7,10-2.2c3.1,0.5,5.4,2,7,4.6c2.6,2.3,3.6,4.8,2.9,7.5c-0.5,3-2,5.5-4.6,7.4
	c-3.1,1.7-6,2.3-8.8,1.8c-3.5-0.4-6.4-1.8-8.5-4.2C1304.5,1982.5,1303.6,1979.9,1304,1976.8 M1374.1,1935.4c1.9,2.3,2.8,5.2,2.8,8.5
	c0,3.3-1.1,6-3.2,8.1c-2.4,2.4-5.2,3.6-8.5,3.6c-3.1,0-5.8-1.2-8.2-3.6c-2.3-2.1-3.4-4.8-3.2-8.1c0-3.3,1.2-6.2,3.6-8.5
	c2.3-2.4,5-3.6,8.1-3.6C1368.9,1931.8,1371.8,1933,1374.1,1935.4 M1426.2,1952c-2.6,0-4.9-0.9-7.1-2.8c-1.9-2.4-2.8-5-2.8-7.8
	c0-2.8,1-5.3,3.2-7.5c2.2-2.1,4.5-3.1,7.1-3.1c3.1,0,5.7,1,7.8,3.1c2.1,2.2,3.1,4.7,3.1,7.5c0,2.8-1.2,5.3-3.5,7.8
	C1431.8,1951.1,1429.2,1952,1426.2,1952 M1481.4,1973.2c1.7,1.6,2.5,3.5,2.5,5.7c0,2.3-0.8,4.5-2.5,6.4c-1.9,1.7-4.2,2.5-6.8,2.5
	c-2.1,0-4.1-0.8-6-2.5c-1.9-1.9-2.8-4-2.8-6.4c0-2.2,0.9-4.1,2.8-5.7c1.9-1.6,3.9-2.4,6-2.4
	C1477.2,1970.8,1479.5,1971.6,1481.4,1973.2 M1466.6,1987.1c15.5,17.5,23.1,38.4,22.6,62.6c-0.3,10.7-2.1,20.8-5.4,30.1
	c-4.3,12.1-11.1,23.1-20.4,32.9c-16.5,17.2-36,25.9-58.4,25.9c-22.2,0-41.1-8.6-56.7-25.9c-8.7-9.9-14.8-20.8-18.2-32.9
	c-2.8-9.3-4-19.4-3.7-30.1c0.7-24.3,9.2-45.1,25.5-62.6c16.8-17.2,36.2-25.8,58.4-25.8C1432.7,1961.2,1451.4,1969.8,1466.6,1987.1
	 M1466.6,2115.2c1.9-1.6,4-2.4,6.3-2.4c2.3,0,4.5,0.8,6.4,2.4c1.4,1.6,2.1,3.4,2.1,5.4c0,2.6-0.8,4.6-2.5,6c-1.9,1.7-4,2.5-6.4,2.5
	c-2.3,0-4.4-0.8-6.3-2.5c-1.9-1.4-2.9-3.4-2.9-6C1463.3,2118.6,1464.4,2116.8,1466.6,2115.2 M1319.2,2107.1c2.6,2.1,3.9,4.6,3.9,7.4
	c-0.2,2.8-1.7,5.3-4.2,7.4c-2.4,2.2-5.3,3.2-8.8,3.2c-3.3,0-6.3-1.1-8.9-3.2c-2.4-2.1-3.4-4.6-3.2-7.4c0-2.8,1.2-5.3,3.6-7.4
	c2.6-2.4,5.5-3.6,8.8-3.6C1313.9,2103.6,1316.9,2104.7,1319.2,2107.1 M1361,2144.9c3.1,0,5.7,0.9,7.8,2.8c2.1,2.2,3.1,4.4,3.1,6.8
	c-0.2,2.6-1.4,5.1-3.5,7.4c-2.1,1.7-4.7,2.5-7.8,2.5s-5.7-0.8-7.8-2.5c-2.1-2.4-3.1-4.9-2.8-7.4c0-2.3,1.1-4.6,3.2-6.8
	C1355.3,2145.9,1357.9,2144.9,1361,2144.9 M1413.4,2154.5c0-2.3,1.2-4.6,3.5-6.8c2.1-1.9,4.7-2.8,7.8-2.8c3.1,0,5.7,0.9,7.8,2.8
	c2.2,2.2,3.2,4.4,3.2,6.8c-0.3,2.6-1.5,5.1-3.6,7.4c-2.4,1.7-5,2.5-7.8,2.5c-3.1,0-5.6-0.8-7.8-2.5
	C1414.2,2159.6,1413.2,2157.1,1413.4,2154.5 M1416.2,1981.4c-14.4,0-27,6.4-37.9,19.2c-10.6,13-16.3,28.5-17,46.7
	c-0.5,12.1,1.5,23,5.8,32.6c2.2,4.8,5,9.3,8.4,13.4c10.4,13,22.7,19.5,37.1,19.5c4.3,0,8-0.5,11.3-1.4c12.8-6.5,22.1-17.1,27.9-31.6
	c2.6-6.4,4.5-13.6,5.8-21.6c-4.7,8.7-10,15.9-15.8,21.6c-9.6,9.3-20.9,14.6-33.8,15.9c8.9-4,16.2-9.3,22.1-15.9
	c5.4-6.2,9.5-13.5,12.3-21.9c5.7-17.5,4.5-35-3.5-52.7c9,3.5,17.9,11.6,26.9,24.4c-2.1-10.8-6.4-20.5-12.7-29
	C1442.9,1987.8,1430.7,1981.4,1416.2,1981.4 M1413.2,2079.8c-5.7,5.6-12.4,8.3-19.9,8.1c-5.4-0.6-10-3.3-13.7-8.1
	c-4.7-6.1-8.1-15.5-10.1-28.3h59.1C1424.6,2064.3,1419.4,2073.8,1413.2,2079.8 M1259.1,1820.7c-0.5,0.7-0.8,1.4-1.1,2.1
	c-22.9,50.1-35,84.4-36.4,103l16.6,1.4c53.8-120.4,117.2-176.3,190.1-167.8c76.5,4.7,135.8,70.3,177.8,196.8
	c10.8,39.4,17.9,80.6,21.4,123.6c0.8,10.5,1.5,21.2,1.9,31.9c0.4-11,0.6-21.6,0.6-31.9c0.1-58.7-5.7-105-17.5-138.8l-0.8-2.8
	c0-0.2,0-0.6,0-1l32.5-35.4l223.4,15.9l3.2-41.8l-275.3-19.1l10.2,63c-33-90.4-77.3-149.1-132.8-176c-74.4-30.4-144.1-33-209.2-7.8
	C1278.6,1745.3,1277,1773.5,1259.1,1820.7 M1219.4,1457.4l1.4-3.9c0-11.3-2.1-17.8-6.4-19.4l-6.7,37.2h10.9L1219.4,1457.4
	 M1218.7,1406.2l-3.5,15.9c12.8,3.3,18.8,11,18.1,23l-0.4,29.7l62,2.9l3.2-50.7L1218.7,1406.2 M1001.3,1375.3
	c14.6-14.9,31.3-16.3,49.9-4.2v75.4h5.7l2.5-72.9c-0.5-6.4-2.6-10.9-6.3-13.4c6.4-0.7,10.5,1.6,12.4,7c10.8-4.5,33-7.3,66.5-8.5
	l14.9-16.3c-43.2,0.5-77,4.6-101.3,12.4c-31.3-1-49.7,5.7-55.2,20.1l-1.8,69.4l51.7,1.8l1.4-72.6
	C1029,1366.5,1015.5,1367.1,1001.3,1375.3 M2097.8,1166.5c0.2,0,0.6,0,1,0c40.1,1.6,91,13.1,152.6,34.3
	c23.2,10.3,38.3,22.6,45.1,36.8c-2.3-25.6-15.1-43-38.4-52.1l-87.1-27.6c-35.1-7.8-64.1-12.2-87.1-13.1c-22-1-38.1-1.1-48.5-0.3
	l-2.8,69.3c-0.3,0.3-0.4,0.5-0.4,0.8l-0.7,43.2c9.5-40.1,26.6-65.4,51.4-75.8l-35.5,9.5C2062.8,1172.7,2079.6,1164.4,2097.8,1166.5
	 M2177,1419.9c-2.1-0.2-4.1-0.1-6.1,0.4c-8,2.1-12.5,11.2-13.4,27.2l-1.4,70.4c-3.8,29.8,6.6,47.5,31.2,53.1l72.6,16
	c1,0,1.9,0.1,2.8,0.3c17.7,1.6,26.1-6.2,25.2-23.4l1.4-73.2c0-2.4-0.1-4.7-0.4-7.1c-1.1-24.1-9-38.5-23.7-43.2L2177,1419.9
	 M2167.4,1460.3c0.9-15.4,4-22.5,9.2-21.3l0.4,24.4l36.1,10.6l-0.8,92.1l-20.5-5.3c-15.6-3.3-24.2-15.3-25.8-35.8l1-64.7H2167.4
	 M2254.6,1576.4l-33.3-8.2v-91.7l58.1,16.7l-2.4,70.8C2276.9,1573.9,2269.4,1578.1,2254.6,1576.4 M2006.4,907
	c-0.7-2.6-1.3-4.9-1.8-7c-11.8-46.7-33.9-66.7-66.2-59.8l-16.6,1167.5l-1.5,13.1c-1.9,20.8-8.2,40.5-18.9,59.1
	c-3.9,6.7-8.3,13.3-13.3,19.8c44.1,14.2,74.3,7.6,90.5-19.8c6.7-11.3,11-26.1,12.9-44.6L2006.4,907 M1973.1,1143.4l17.7-223.7
	l-14.8,1128.2c0,1.4-0.1,2.7-0.4,3.9c-1.6,11.3-5.5,20.6-11.6,27.9c-8.3,10-20.7,16.2-37.3,18.8c9.3-3.9,17-10.2,23-18.8
	c5.1-7.3,9-16.2,11.7-26.9L1973.1,1143.4 M2269.8,1149.2l1,1.4c44.1,16.8,66.8,57.5,67.9,122.1l6.1,441.4l2.1-32.5l16.2-237.2
	l130.6,0.3l-0.4-1l1.8-348l-354.4,24.4C2180.8,1127.4,2223.8,1137.1,2269.8,1149.2 M1667.9,1304.4c-10.2,3.2-18.1,17.1-23.7,41.7
	l-23.3,140.4l22.2-17.3c7.1-6.4,12.3-14.9,15.6-25.5l9.2-87.4V1304.4 M1822.9,1374.9l22.4,5.7l-1.4,129.9
	c-4.5,16.3-11.7,25.2-21.6,26.9c-1.2,0-2.3,0-3.2,0l-94.2-8.8l-1.3,21.2l120,11.7l-1.1,93.4l-1.4,131c-0.5,24.5-14.4,36.1-41.8,34.7
	l-84.2-5.7l0.6,11.7l85,6.1c31.9,5.2,48.7-7.4,50.6-37.6l1.4-418.8c-2.1-26.2-12.8-42.4-31.9-48.5L1822.9,1374.9 M1813.8,1283.7
	c0-14.4-4.6-22.6-13.8-24.8l-31.2,0.7c0.5-17.7-11.5-24.3-35.8-19.8l-73.6,14.8l21.2,20.2l1.8,145.5l-4.9,26.2l-23,25.5l17.3,1.8
	l13.1-14.2l14.9-4.9l20.8,24.8c8.5,7.3,15.9,10.1,22.3,8.5c-5.9,7.1-13.9,8.4-24.1,3.9c6.1,21,16,31.3,29.7,30.8
	c8.3-0.2,15.2-2.2,20.9-6c5.4-4.2,8.7-9.3,9.9-15.2c-9.2,0.5-18.3-6.3-27.2-20.5h49.9c8-2.6,12.6-9.7,13.8-21.2L1813.8,1283.7
	 M1785.8,1268.4c10.9-2.6,17.2,2.5,19.1,15.2l1.8,171c-1.2,14.4-8,20.4-20.5,18c4.5,0.7,7.6-6.3,9.2-20.9l-2.2-161.1
	C1793.2,1279.2,1790.8,1271.7,1785.8,1268.4 M1757.2,1261.3c-16.7,1.2-25.2,7.2-25.5,18.1l1.8,186.5c2.4,4.3,8.7,5.8,18.8,4.6
	c-6.1,8-15.2,8.2-27.3,0.3l-26.5-31.5l-9.2,10.7c2.6-6.4,4.2-15.3,4.9-26.6l0.8-152.2l-18.4-10l60.6-13.4
	C1749,1246.7,1755.7,1251.2,1757.2,1261.3 M1723.9,1307.3l-21.6-4.2l0.3,47.1l21.9,5L1723.9,1307.3 M1793.2,1242.9
	c0.5,0.7,0.8,1.3,1.1,1.8l88.9,18c-15.6-31.4-76.7-49.8-183.4-55.2c-156.9,0-279.9,14-368.9,42.1c122.3-19.9,235.2-24.2,338.8-13.1
	l59.5-8.2C1765,1223,1786.4,1227.8,1793.2,1242.9 M1553.9,1492.2c32.6-0.5,49.7-8.4,51.3-23.7l19.9-112.5c-5.3,1.6-9.3,4.4-12.1,8.5
	l-15.6,94.2c-1.9,15.6-20.9,25.3-57,29l-94.2-1.5L1553.9,1492.2 M1535.9,1508.4l-8.2-1.8l-495.6-38.6c-3.5-0.9-6.9-1.7-10.2-2.2
	c-6.4-0.9-13.2-1-20.6-0.3l-84.9,2.9l-41.2,1.3l-5.3,3.6v1.8l-0.3,0.4v-2.2l-2.2,0.7l0.7,0.7l-13.8,9.2l-2.1-18.4l31.8-5.2l3.5-3.2
	c-14.4-4.2-31.5-4.9-51.2-2.2c-2.6,0.4-5.2,0.8-8,1.2v15.7v2.3c-0.4,0-0.7,0.1-1.1,0.2c-0.6,0.1-1.2,0.3-1.8,0.6
	c-58.5,4.2-100.7,15.4-126.5,33.5c-11.9,8.3-20.3,18.2-25.3,29.5c-2.1,4.7-3.7,9.6-4.6,14.5l-1.5,50l-9.5,331.6l-135.3,3.2l0.4-24.1
	l113.3-3.9l0.7-59.5l-17-0.4l-67.7-1.8c-18.6,21.3-32,42.2-40,62.7c-0.2,0.2-0.3,0.6-0.3,1.1l0.3,8.5l1.4,25.5l99.8-1l37.9-0.4
	l4.2-0.8l1.8,1.4l35.8-1.1l25.3-0.7l78-2.1l213.2-5.7l190.5-5.4l7.1-0.3v-35.7l37.8-80.4l-40-9.2l22.7,18.1l-134.9,7.4
	c-17.9,8.3-39.1,28.8-63.7,61.6c-0.2,0-0.3,0.2-0.3,0.8l1.4-0.8l164.9-1.7l2.1,33.2l-171,3.9v-31.9l-0.3,0.3l0.3-3.9l1.1-20.5
	l6-133.4l47.1-1.5c-18.2,4.7-27.2,16.9-27.2,36.5c0,16.5,7.1,27.3,21.2,32.6l6,0.7l101.6-2.8c11.6-1.2,17.8-7,18.8-17.3l-0.3-50.6
	l14.2,18.7l0.8,26.2l19.4-30.4c17,4.3,25.1,14.2,24.5,29.8l1.8-3.9c3.3-29.7-12.4-47.3-47.1-52.8h-0.7l-1.8-0.3l-5.3-0.3l-133.5,3.2
	l0.7-23.8l2.1-58.8l1.4-42.1l0.4-9.2l1.8-59.1c-0.5-22.6-8-39.7-22.7-51.3c-1.7-1.4-3.2-2.6-4.6-3.6c17.2,4.2,30.4,14.4,39.7,30.4
	l428.7,36.5v1.1c15.8,0.9,26.4,6.2,31.8,15.9l-31.8-5.7l-1.1,76.8l-1.4,120.8l33,46.7v-36.8l11.7,1.8l1.4,31.2l5.3,11v-223.4
	c53.3-4.7,93.1-5.4,119.3-2.2l-94.2,9.2v82.2c32.1-1,65.8,1.3,101.2,6.8c-38.9-1.2-72.7-0.4-101.2,2.5l-0.4,59.4
	c36.3-0.9,69.3,1.1,98.8,6.1l-98.8-0.4l-0.7,71.2l-15.2,9.2l95.6,4.2c14.9,1,24.5-3.2,29-12.4l7.2-298.1c-0.3-12-5.9-18.7-17-20.2
	l-5.3-1.5c-34.7-3.7-69.8-3.9-105.4-0.6c-15.8-1-23.3,9.2-22.3,30.4c0,0.2,0,2.1,0,5.7v1.4
	C1553.4,1519.1,1545.3,1509.9,1535.9,1508.4 M1564.6,1567.6l1-43.9c48.2-6.4,93.9-5.6,137.1,2.5l-23.4,2.8l-0.3,29.8l15.5,9.5
	C1656.2,1563.3,1613,1563.1,1564.6,1567.6 M770.5,1556.6l24.2-2.8l42.7-5l-7,153.8l-8.6,189.9h-0.4l-21.6,0.9l-41.1,1.8l-8.5,0.8
	l8.9-15.9l8.6-244.5l2.4-68.1l-9.5-9.6L770.5,1556.6 M724.5,1561.6l33-3.6l-5.7,139.1l-8.1,199.3l-22.1,0.8l-17.6,0.7
	c-4,0-7.4-0.4-10.3-1.1c-8.5-1.9-13-7-13.4-15.2l3.9-70.1l10.9-226.6C698.2,1573.6,708,1565.8,724.5,1561.6 M854.5,1547l27.7-3.1
	l34.5-4l-12.4,348.4l-64.8,3.5l-11,0.3l12-18l10.2-244l2.9-69l-9.2-12.8L854.5,1547 M933.4,1555.8v-1.7l-9.6-14.9l9.6-1.4l33.6-3.9
	c13.7,3.1,21.2,16,22.3,38.6l-6.8,286.8c-3.3,13.9-14.8,22.6-34.6,26.2l-21.6,1.3l-13.5,1.1l13.9-18.8L933.4,1555.8 M1028.7,1520.4
	c0.7-19.6-7-30.9-23.1-33.9c24.8-3,44,8.4,57.7,34.3l-14.2-0.7l-2.5,158.6l-21.6,38.6L1028.7,1520.4 M1185.4,1734.3l0.7,43.2
	c0,8.3-3.8,13.3-11.3,15.2l-94.2,3.9c-14.2-1.2-19.2-13.2-15.2-36.1c9,10.9,18.8,17,29.4,18.4c10.6,1.7,22.8-12.4,36.5-42.1l-0.8,47
	C1160.1,1775.1,1178.3,1758.6,1185.4,1734.3 M1335.9,1393.1l-11.3-5.7l-12.4,93.8l10.3,1.4L1335.9,1393.1 M1556.8,1329.3
	c20.3,6.6,35.3,4.5,45-6.3c9.2-5.5,20.2-7,32.9-4.7l27.7-21.9l-22-12.1l13.5-23c-1.9-9.2-9.6-14.2-23.1-14.9
	c-97.7,1.9-189.5,7.4-275.4,16.3l-43.5,37.9l30.5-37.9c-11.8,2.1-23.8,4.6-36.2,7.4c-28.8,6.4-58.9,13.9-90.2,22.4
	c-11.1,7-22.7,17.7-34.7,32.1c-5,5.4-9.8,11.6-14.5,18.5l-29.3,38.2l141.6-30.4c9.2-0.9,18.3-1.9,27.2-2.8
	C1391.6,1339.8,1475.1,1333.5,1556.8,1329.3 M1591.6,1318.5c-13.7,6.5-25.1,6.7-34.1,0.6l59.8-64.5c5.3,0.2,8.3,0.3,9,0.3
	c9.7,0,15.1,3,16.2,9L1591.6,1318.5 M1242.8,1332.5l25.8,4.6l-100.6,26.9c17.2-25.7,34.3-46.7,51.3-63.1
	c22.7-7.5,46.6-13.7,71.8-18.3C1270.3,1295.6,1254.1,1312.2,1242.8,1332.5 M1349.6,987.3c-14.9-20.1-30.3-25.7-46.2-16.9v270.8
	l36.1-8.2l4.6-145.8l8.5-79.2l-1.7,222.3l12.3-2.8l1.8-213.9C1359.9,1003,1354.8,994.3,1349.6,987.3 M1908.4,1183.2l1.3-32.6
	l-41.8,3.2l-234.3,36.1c45.1-0.3,84.7-0.1,119,0.4c0.3,0,0.5,0,0.8,0C1827.2,1180.9,1878.9,1178.5,1908.4,1183.2 M2708.7,2045.8
	c-6.6-16.5-14.5-24.7-23.7-24.8c-9.2,0-17,8.3-23.4,24.8c-1.4,5-2.7,9.8-3.9,14.6c-1.4,6.1-2.4,12.6-3.1,19.4
	c-0.8,8.3-1.2,17.1-1.1,26.6c0.5,23.6,4.1,43.7,11,60.2c0.9,2.8,2.1,5.4,3.5,7.8c5.9,11.6,12.8,17.3,20.6,17.3
	c9.2,0,16.8-8.4,22.6-25.1c6.2-16.5,9-36.6,8.5-60.2c-0.1-9.4-0.7-18.2-1.9-26.6C2716,2067.2,2713,2055.9,2708.7,2045.8
	 M2683.9,2031.3c7.5,0,14.1,7.3,19.8,21.9c1.9,4.7,3.3,9.8,4.2,15.2c-3-10.2-8.5-17.4-16.3-21.6c4.5,8.7,7.1,17.8,7.8,27.2
	c-9.4-24.5-19.9-34.1-31.5-28.7C2672.7,2036,2678.1,2031.3,2683.9,2031.3 M2664.9,2053.9c1.6-0.9,3.3-1.3,4.9-1.3
	c6.9,0,13.1,6.1,18.8,18.3c1.3,2.8,2.4,5.8,3.4,8.9c3.3,10.1,5.2,21.7,5.8,34.7c1,17.2-0.8,31.9-5.3,43.9
	c-4,11.6-9.3,17.7-15.9,18.5c-3.1-3.8-6.1-9.5-9.2-17c-2.3-6.4-4.4-13.3-6.1-20.6c13.7-2.1,20.6-14.6,20.6-37.5
	c-1.2,10.6-3.1,17.1-5.7,19.5c2.3-20.8-1-34.7-9.9-41.4c-1.3-1-2.7-1.8-4.2-2.4l-3.9,10.2c0.2-2.7,0.5-5.3,0.9-7.8
	C2660.3,2070.2,2662.2,2061.6,2664.9,2053.9 M2657.8,2106.7v-0.3h14.1c2.4,18.2-1.4,27.5-11.3,28
	C2658.9,2125.6,2658,2116.4,2657.8,2106.7 M2708.7,2111.4l3.9-1.1c0,19.1-2.1,35.6-6.4,49.6c-5.2,14.8-11.6,22.2-19.1,22.2
	c-0.4,0-1,0-1.8,0c16-5.4,23.1-32.9,21.2-82.5L2708.7,2111.4 M2666.9,1956.2l-56.6,1.1c-15.6,4.9-24.2,12.5-25.9,22.6
	c11.6,29.3,20,62.6,25.2,99.9c1.3,9.9,2.5,20,3.4,30.4c0.1-10.6,0.5-20.8,1.2-30.4C2619.1,2019,2636.6,1977.8,2666.9,1956.2
	 M3247.1,2165.4c4.2-17,6.3-37.4,6.1-61.2c-0.5-23.4-3.1-43.6-7.8-60.6c-4.7-16.8-10.3-25.1-16.6-25.1c-6.6,0-12.2,8.4-16.6,25.1
	c-0.9,4.5-1.9,9.3-2.8,14.5c-2.1,13.2-3.1,28.6-2.9,46.1c0.2,23.8,2.9,44.2,8.1,61.2c0.5,2.6,1.4,5.1,2.6,7.5c4,12,8.6,18,13.8,18
	C3237.5,2190.9,3242.9,2182.4,3247.1,2165.4 M3241.9,2050.4c1.4,5.2,2.5,10.5,3.1,15.9c-2.3-10.6-6.2-18-11.6-22.3
	c3.3,8.9,5.1,18.2,5.3,27.9c-6.6-25-13.8-34.5-21.6-28.7c2.8-9.9,6.5-14.8,10.9-14.8C3233.2,2028.5,3237.9,2035.8,3241.9,2050.4
	 M3245.4,2109.2l2.9-0.7c0,19.1-1.5,35.8-4.6,50.2c-3.8,14.9-8.3,22.4-13.4,22.4c-0.5,0-1,0-1.4,0c11.3-5.4,16.4-33.4,15.2-84
	L3245.4,2109.2 M3216,2050.4c1.4-0.7,2.6-1.1,3.6-1.1c5,0,9.3,6.1,13.1,18.4c4,12.5,6.3,27.4,6.8,44.6c0.5,17.2-0.7,31.9-3.5,43.9
	c-3.1,12-6.9,18.3-11.4,18.8c-2.6-3.8-4.7-9.5-6.4-17c-1.9-6.1-3.3-12.9-4.2-20.2c9.4-2.6,14.2-15.5,14.2-38.6
	c-0.9,10.6-2.2,17.1-3.9,19.4c1.7-24.1-1.5-38.9-9.6-44.6l-2.8,11C3212.2,2072.2,3213.6,2060.6,3216,2050.4 M3209.6,2104.9v-0.7h9.6
	c1.9,18.6-0.8,28.2-7.9,28.6C3210.2,2124.2,3209.6,2114.8,3209.6,2104.9 M3309.1,2033.8c-5.9,0-11,7.8-15.2,23.4
	c-1,4.2-1.9,8.8-2.8,13.8c-0.4,2.8-0.8,5.8-1.1,8.9c-1,9.9-1.5,21-1.5,33.2c0.5,22,3,40.9,7.5,56.6c0.4,2.4,1.2,4.6,2.4,6.8
	c3.5,11.1,7.9,16.7,13.1,16.7c5.9,0,10.7-7.8,14.5-23.4c4.2-15.8,6-34.7,5.2-56.6c-0.1-11.9-0.8-23-2.2-33.2
	c-1.1-8.1-2.6-15.6-4.5-22.6C3320.2,2041.6,3315,2033.8,3309.1,2033.8 M3321.1,2063.6c1.4,4.9,2.5,9.8,3.2,14.5
	c-2.1-9.7-5.8-16.5-11-20.6c2.6,7.2,4.2,14.6,4.8,22.3c0.1,1.2,0.1,2.4,0.2,3.6c-0.3-1.2-0.6-2.4-0.9-3.6
	c-5.9-20.4-12.2-28.1-18.9-22.9c2.6-9.2,5.9-13.9,9.9-13.9C3313.6,2043,3317.8,2049.8,3321.1,2063.6 M3297.4,2063.6
	c1.2-0.5,2.2-0.8,3.2-0.8c4.9,0,9.1,5.5,12.4,16.6c0,0.1,0.1,0.2,0.1,0.4c3.4,11.5,5.3,25,5.5,40.4c0.7,16.3-0.3,29.8-3.1,40.7
	c-2.6,11.3-6,17.1-10.3,17.3c-2.1-3.3-4.1-8.4-6-15.2c-1.7-5.9-2.8-12.3-3.5-19.1c8.5-2.1,12.8-13.9,12.8-35.4
	c-0.7,9.7-1.9,15.7-3.6,18.1c1.6-22.4-1.3-36.2-8.8-41.4l-2.5,10.2c0.2-5.5,0.6-10.7,1.2-15.6
	C3295.4,2074.1,3296.3,2068.7,3297.4,2063.6 M3291.4,2113.8v-0.8h8.9c1.9,17.2-0.4,26-6.8,26.2
	C3292.2,2131.5,3291.4,2123,3291.4,2113.8 M3324.7,2117.3l2.1-0.3c0,17.4-1.3,32.9-3.9,46.4c-3.3,13.9-7.4,20.9-12.3,20.9
	c-0.5,0-1,0-1.4,0c10.4-5.2,15.1-31.1,14.1-77.6L3324.7,2117.3 M3410,2017.9l-0.4-19.8l-907.7-169.2l-155.3,9.2l0.3,29.8l146.5-5
	L3410,2017.9 M3399.7,1771.1l4.7,1.8l-5.7-228.7l-859.2-433.6l-8.1,640.8l6-70.1l19.9-228L3399.7,1771.1z"/>
<path class="st1" d="M2098.8,1166.5c-0.4,0-0.8,0-1,0c-18.2-2.1-35,6.2-50.3,25.1l35.5-9.5c-24.8,10.4-41.9,35.7-51.4,75.8
	l-4.2,392.9l171.7,26.6c6.9-12.8,16.8-17.8,29.8-15.2c0.2,0,0.5,0,0.7,0l74.4,13.1l-7.1-437.2c0-0.1-0.1-0.2-0.1-0.3
	c-6.9-14.2-21.9-26.5-45.1-36.8C2189.8,1179.6,2138.9,1168.1,2098.8,1166.5 M2170.9,1420.3c1.9-0.5,4-0.6,6.1-0.4l88.1,20.5
	c14.7,4.7,22.6,19.1,23.7,43.2c0.3,2.4,0.4,4.7,0.4,7.1l-1.4,73.2c1,17.2-7.4,25-25.2,23.4c-0.9-0.2-1.8-0.3-2.8-0.3l-72.6-16
	c-24.6-5.6-35-23.3-31.2-53.1l1.4-70.4C2158.5,1431.5,2162.9,1422.4,2170.9,1420.3 M2221.2,1568.2l33.3,8.2
	c14.9,1.7,22.3-2.5,22.3-12.4l2.4-70.8l-58.1-16.7V1568.2 M2176.6,1439.1c-5.2-1.2-8.3,5.9-9.2,21.3h-0.4l-1,64.7
	c1.6,20.5,10.2,32.5,25.8,35.8l20.5,5.3l0.8-92.1l-36.1-10.6L2176.6,1439.1 M2040,1106.3c0.2,0,0.5,0,0.7,0l-0.7-1.1V1106.3
	 M2493.8,1444.7l-130.6-0.3l-16.2,237.2l146.2-1.8L2493.8,1444.7 M1843.6,1561.6l-120-11.7l-2.2,96.2l121,8.8L1843.6,1561.6
	 M1520.7,1544.9v-1.1l-428.7-36.5c-9.2-16-22.5-26.2-39.7-30.4c1.4,0.9,2.9,2.1,4.6,3.6c14.6,11.6,22.2,28.7,22.7,51.3l-1.8,59.1
	l-0.4,9.2l-1.4,42.1l25.2-40.3l418.4,30l1.1-76.8l31.8,5.7C1547.1,1551.2,1536.5,1545.8,1520.7,1544.9 M1890.3,1214.9
	c7.2,4.3,12.6,9.2,16.2,14.6l1.8-46.3c-29.5-4.6-81.2-2.3-155.1,7c4,0.1,7.9,0.1,11.8,0.2
	C1819.7,1190.2,1861.5,1198.4,1890.3,1214.9 M3402.9,1893.7l-3.2-122.6l-842.4-317.9l-19.9,228L3402.9,1893.7 M1256.1,1055.1
	c-37.5,30-73.9,62.6-109.2,97.9c-51.7,51.7-97.8,105.8-138,162.3c9.6-1.1,20.1-1.4,31.5-0.9l3.9-0.7c25-10.6,56.8-14.9,95.2-12.8
	l37.2-45.6c22.2-9.6,47.8-17.1,76.8-22.3L1256.1,1055.1 M1871.3,1101l4.1-294.2c-171.9,15.5-329.7,64.9-473.5,148.2
	c11.4,14.9,20.3,34,26.7,57.1c0,0.5,0.1,0.9,0.3,1.3l-0.7,168.6C1574.6,1147.8,1722.3,1120.7,1871.3,1101 M2882.1,1193
	c-12.5-13.5-25.3-26.8-38.4-40c-228.6-228.8-503.5-345.9-824.8-351.3c24.7,20.2,41.9,54.2,51.6,102.1c0,1.2,0.2,2.4,0.7,3.5
	l-1,144.8l453.8-41L2882.1,1193z"/>
<g transform="matrix( 1, 0, 0, 1, 0,0) ">
	<g>
		<g id="Layer2_1_MEMBER_0_FILL">
			<path class="st1" d="M2041.1,3061.9l57-43.5l-71.6-1.8l-24.1-67.6l-24.1,67.6l-71.9,1.8l57,43.5l-20.2,69l59.1-40.7l59.1,40.7
				L2041.1,3061.9z"/>
		</g>
	</g>
</g>
<rect y="2300.5" class="st2" width="4000" height="619"/>
<text transform="matrix(1 0 0 1 75.781 2833.4102)" class="st3 st4">CAL JR Logistics</text>
</svg>
