<?xml version="1.0" encoding="utf-8"?>
<!-- Generator: Adobe Illustrator 25.2.3, SVG Export Plug-In . SVG Version: 6.00 Build 0)  -->
<svg version="1.1" id="Layer_1" xmlns="http://www.w3.org/2000/svg" xmlns:xlink="http://www.w3.org/1999/xlink" x="0px" y="0px"
	 viewBox="0 0 281 81" style="enable-background:new 0 0 281 81;" xml:space="preserve">
<style type="text/css">
	.st0{fill:#FFFFFF;}
</style>
<path id="XMLID_13_" class="st0" d="M276.4,66.8h-46.1c0.6-0.9,1-2,1-3.1c0-3-2.5-5.5-5.5-5.5h-13.1c0.3-0.8,0.5-1.7,0.6-2.7
	c0.3-1.1,0.4-2.2,0.4-3.4c0-7-5-12.9-11.6-14.4c0-0.5,0-1,0-1.5c0-16.9-13.7-30.5-30.5-30.5c-8,0-15.3,3.1-20.8,8.2
	c-4.8-3.5-10.8-5.6-17.2-5.6c-1.8,0-3.5,0.2-5.2,0.5c-6-5.5-13.9-8.8-22.6-8.8C90.3,0,77.2,10.6,73.5,24.9
	c-9.4,0.8-17,7.7-18.8,16.8c-1.3-0.5-2.8-0.7-4.3-0.7c-7.2,0-13,5.8-13,13c0,1.5,0.3,3,0.7,4.3h-9.5c-3,0-5.5,2.5-5.5,5.5
	c0,1.2,0.4,2.3,1,3.1H3.8c-2.1,0-3.8,1.7-3.8,3.8v0.3c0,2.1,1.7,3.8,3.8,3.8H44c0,0,0,0.1,0,0.1v0.8c0,2.8,2.3,5.1,5.1,5.1h200
	c2.8,0,5.1-2.3,5.1-5.1v-0.8c0,0,0-0.1,0-0.1h22.2c2.1,0,3.8-1.7,3.8-3.8v-0.3C280.2,68.6,278.5,66.8,276.4,66.8z"/>
</svg>
