<?xml version="1.0" encoding="utf-8"?>
<!-- Generator: Adobe Illustrator 25.2.3, SVG Export Plug-In . SVG Version: 6.00 Build 0)  -->
<svg version="1.1" id="Layer_1" xmlns="http://www.w3.org/2000/svg" xmlns:xlink="http://www.w3.org/1999/xlink" x="0px" y="0px"
	 viewBox="0 0 287 49" style="enable-background:new 0 0 287 49;" xml:space="preserve">
<style type="text/css">
	.st0{fill:#FFFFFF;}
</style>
<path id="XMLID_16_" class="st0" d="M284.5,39.8h-34.1c0.3-0.6,0.5-1.3,0.5-2c0-2.2-1.8-4-4-4h-34.6c0-0.3,0-0.6,0-0.9
	c0-6.6-5.3-11.9-11.9-11.9c-3.2,0-6.1,1.3-8.3,3.3c-2.7-4.4-7.6-7.3-13.2-7.3c-4.3,0-8.1,1.7-10.9,4.5C164.2,9,152.6,0,139,0
	c-10,0-18.9,4.8-24.5,12.3c-4-3-9-4.8-14.4-4.8c-9.4,0-17.5,5.4-21.4,13.2c-2.7-2.4-6.3-3.8-10.2-3.8c-8.6,0-15.5,6.9-15.5,15.5
	c0,0.5,0,0.9,0.1,1.3H39.6c-2.2,0-4,1.8-4,4c0,0.7,0.2,1.4,0.5,2H2c-1.1,0-2,0.9-2,2c0,1.1,0.9,2,2,2h15.3c-0.2,0.4-0.3,0.8-0.3,1.3
	c0,1.8,1.5,3.3,3.3,3.3h204.3c1.8,0,3.3-1.5,3.3-3.3c0-0.5-0.1-0.9-0.3-1.3h56.8c1.1,0,2-0.9,2-2C286.5,40.7,285.6,39.8,284.5,39.8z
	"/>
</svg>
