<?xml version="1.0" encoding="utf-8"?>
<!-- Generator: Adobe Illustrator 25.2.3, SVG Export Plug-In . SVG Version: 6.00 Build 0)  -->
<svg version="1.1" id="Layer_1" xmlns="http://www.w3.org/2000/svg" xmlns:xlink="http://www.w3.org/1999/xlink" x="0px" y="0px"
	 viewBox="0 0 185 54" style="enable-background:new 0 0 185 54;" xml:space="preserve">
<style type="text/css">
	.st0{fill:#FFFFFF;}
</style>
<path id="XMLID_6_" class="st0" d="M3.1,43.1h14.5c0.2-6.3,5.4-11.4,11.8-11.4c1.8,0,3.6,0.4,5.1,1.2c3.5-7.4,11.1-12.6,19.9-12.6
	c0.2,0,0.4,0,0.5,0C61.8,8.2,74.8,0,89.8,0c17.3,0,32.1,11,37.7,26.4c3.7-3.3,8.6-5.2,14-5.2c11.7,0,21.2,9.5,21.2,21.2
	c0,0.2,0,0.5,0,0.7H181c1.7,0,3.1,1.4,3.1,3.1c0,1.7-1.4,3.1-3.1,3.1h-12.5c0.2,0.4,0.3,0.8,0.3,1.3c0,1.7-1.4,3.1-3.1,3.1H18.5
	c-1.7,0-3.1-1.4-3.1-3.1c0-0.4,0.1-0.9,0.3-1.3H3.1c-1.7,0-3.1-1.4-3.1-3.1C0,44.5,1.4,43.1,3.1,43.1z"/>
</svg>
