<?xml version="1.0" encoding="utf-8"?>
<!-- Generator: Adobe Illustrator 25.2.3, SVG Export Plug-In . SVG Version: 6.00 Build 0)  -->
<svg version="1.1" id="Layer_1" xmlns="http://www.w3.org/2000/svg" xmlns:xlink="http://www.w3.org/1999/xlink" x="0px" y="0px"
	 viewBox="0 0 149 40" style="enable-background:new 0 0 149 40;" xml:space="preserve">
<style type="text/css">
	.st0{fill:#FFFFFF;}
</style>
<path id="XMLID_2_" class="st0" d="M146.2,31.1H137c0.1-0.3,0.2-0.7,0.2-1.1c0-2-1.6-3.6-3.6-3.6h-15c-0.2-4.7-4-8.9-9.3-9.8
	c-2.6-0.4-5.1,0-7.1,1.1c0-0.4,0.1-0.8,0.1-1.2c0-7.3-7.2-13.2-16.1-13.2c-2.6,0-5,0.5-7.2,1.4c-1.9-1.8-4.4-2.9-7.3-2.9
	c-2.3,0-4.4,0.8-6.2,2C59.7-1,51.6-1.3,46.3,3.3c-3.1,2.7-4.7,6.6-4.7,10.7c-3.6-0.9-7.7,0-10.8,2.7c-1.7,1.4-2.8,3.2-3.5,5.1
	c-1.3-0.9-2.9-1.4-4.6-1.4c-4.4,0-8,3.6-8,8c0,1,0.2,1.9,0.5,2.7h-13c-1.2,0-2.2,1-2.2,2.2v0.2c0,1.2,1,2.2,2.2,2.2h8.5
	c0,0.1,0,0.2,0,0.3c0,2.1,1.7,3.8,3.8,3.8h123.8c2.1,0,3.8-1.7,3.8-3.8c0-0.1,0-0.2,0-0.3h4.1c1.2,0,2.2-1,2.2-2.2v-0.2
	C148.5,32.1,147.5,31.1,146.2,31.1z"/>
</svg>
