<?xml version="1.0" encoding="utf-8"?>
<!-- Generator: Adobe Illustrator 25.2.3, SVG Export Plug-In . SVG Version: 6.00 Build 0)  -->
<svg version="1.1" id="Layer_1" xmlns="http://www.w3.org/2000/svg" xmlns:xlink="http://www.w3.org/1999/xlink" x="0px" y="0px"
	 viewBox="0 0 3840 305" style="enable-background:new 0 0 3840 305;" xml:space="preserve">
<style type="text/css">
	.st0{opacity:8.000000e-02;fill:#FFEEE1;}
</style>
<path class="st0" d="M1518.7,3.8c-168.2-25.4-364.5,83.4-488.7,157.6c-209.2,124.9-388.1,84.4-591.3-58.5
	C235.5-40.1,139,101.6,0,101.6v97.7c165.7,0,204.3-144.1,434.6,10.4c134.9,90.6,328.2,109.4,471.2,86.2
	c70.2-11.4,127.9-41.4,161.3-61.5c101.4-61.2,175.5-124.3,309.1-109.6c133.6,14.6,406.6,74.5,543.7,74.5v-15v-82.7
	C1680.8,101.6,1687,29.2,1518.7,3.8z M345.4,137.3c-17.5-3.4-21.9-20.7-92.9-45.2c-70.9-24.5-135.3,59.6-195.1,62.4
	c-59.8,2.8-60.5-27.4-8-33.7c52.5-6.4,122.1-80.7,221.4-66.1C376.6,70.3,378,106,380.6,116.4C383.2,126.8,362.9,140.8,345.4,137.3z
	 M678.3,278.4c-89.4,0.5-173.3-56.6-210.6-77.4c-37.3-20.8-75.1-33.5-77.7-47.2c-2.7-13.7,12.9-33.5,26.3-33.5
	c13.3,0,60,28.3,102.5,70.2c79.5,78.4,194.5,68.4,230.2,68.3C784.5,258.7,767.7,277.9,678.3,278.4z M1598.8,131.8
	c-77.9-20.3-235.3-55.3-312.9-33.7c-125.1,34.9-209.2,100.2-212.1,90.8c-5-16.9,28-69.4,245.7-131c80.4-22.7,234.4-12.8,328.1,27.9
	C1741.4,126.4,1676.8,152,1598.8,131.8z"/>
<path class="st0" d="M1920,101.6v82.7v15c137.1,0,410.1-59.9,543.7-74.5c133.6-14.6,207.8,48.5,309.1,109.6
	c33.4,20.1,91.1,50.1,161.3,61.5c143,23.2,336.4,4.4,471.2-86.2c230.3-154.6,268.9-10.4,434.6-10.4v-97.7
	c-139,0-235.5-141.7-438.7,1.3c-203.2,142.9-382.1,183.4-591.3,58.5c-124.2-74.2-320.5-183-488.7-157.6
	C2153,29.2,2159.2,101.6,1920,101.6z M3459.4,116.4c2.6-10.4,4-46.1,109.8-61.6c99.2-14.6,168.9,59.7,221.4,66.1
	c52.5,6.4,51.8,36.5-8,33.7c-59.8-2.8-124.1-86.9-195.1-62.4c-70.9,24.5-75.3,41.8-92.9,45.2
	C3477.1,140.8,3456.8,126.8,3459.4,116.4z M3091.2,258.8c35.7,0.1,150.7,10.1,230.2-68.3c42.4-41.9,89.2-70.2,102.5-70.2
	c13.3,0,28.9,19.8,26.3,33.5c-2.7,13.7-40.5,26.4-77.7,47.2c-37.3,20.8-121.2,77.9-210.6,77.4
	C3072.3,277.9,3055.5,258.7,3091.2,258.8z M2192.3,85.8c93.8-40.7,247.8-50.6,328.1-27.9c217.7,61.5,250.7,114.1,245.7,131
	c-2.8,9.5-86.9-55.9-212.1-90.8c-77.7-21.6-235,13.4-312.9,33.7C2163.2,152,2098.6,126.4,2192.3,85.8z"/>
</svg>
