<?xml version="1.0" encoding="utf-8"?>
<!-- Generator: Adobe Illustrator 25.2.3, SVG Export Plug-In . SVG Version: 6.00 Build 0)  -->
<svg version="1.1" id="Layer_1" xmlns="http://www.w3.org/2000/svg" xmlns:xlink="http://www.w3.org/1999/xlink" x="0px" y="0px"
	 viewBox="0 0 419 84" style="enable-background:new 0 0 419 84;" xml:space="preserve">
<style type="text/css">
	.st0{fill:#FFFFFF;}
</style>
<path id="XMLID_54_" class="st0" d="M415.9,68.5h-49.8c0.5-0.9,0.8-1.9,0.8-2.9c0-3.3-2.6-5.9-5.9-5.9h-32.1c0-0.4,0.1-0.8,0.1-1.2
	c0-9-7.3-16.4-16.4-16.4c-3.5,0-6.7,1.1-9.3,2.9c-4.1-6-11-10-18.8-10c-4.5,0-8.6,1.3-12.2,3.5C265.6,16.3,245,0,220.5,0
	c-15.8,0-30.1,6.8-40,17.7c-7.4-5.2-16.3-8.2-26-8.2c-19.3,0-35.8,12-42.3,29c-3.5-2.2-7.6-3.5-12-3.5c-12.5,0-22.7,10.1-22.7,22.7
	c0,0.7,0,1.3,0.1,2H57.8c-3.3,0-5.9,2.6-5.9,5.9c0,1.1,0.3,2.1,0.8,2.9H2.9c-1.6,0-2.9,1.3-2.9,2.9v0c0,1.6,1.3,2.9,2.9,2.9h30.4
	c-0.5,0.9-0.8,1.9-0.8,2.9c0,3.3,2.6,5.9,5.9,5.9h303.1c3.3,0,5.9-2.6,5.9-5.9c0-1.1-0.3-2.1-0.8-2.9h69.2c1.6,0,2.9-1.3,2.9-2.9v0
	C418.8,69.8,417.5,68.5,415.9,68.5z"/>
</svg>
