<?xml version="1.0" encoding="utf-8"?>
<!-- Generator: Adobe Illustrator 25.2.3, SVG Export Plug-In . SVG Version: 6.00 Build 0)  -->
<svg version="1.1" id="Layer_1" xmlns="http://www.w3.org/2000/svg" xmlns:xlink="http://www.w3.org/1999/xlink" x="0px" y="0px"
	 viewBox="0 0 454 122" style="enable-background:new 0 0 454 122;" xml:space="preserve">
<style type="text/css">
	.st0{fill:#FFFFFF;}
</style>
<path id="XMLID_2490_" class="st0" d="M447.2,95.1h-28.3c0.3-1.1,0.6-2.2,0.6-3.4c0-6-4.9-10.9-10.9-10.9h-46
	c-0.5-14.5-12.3-27.4-28.5-30c-7.9-1.3-15.5,0.1-21.8,3.3c0.1-1.2,0.2-2.4,0.2-3.6c0-22.4-22-40.6-49.2-40.6c-7.9,0-15.4,1.6-22,4.3
	c-5.8-5.5-13.6-8.9-22.2-8.9c-7.1,0-13.6,2.3-18.9,6.2C182.5-3,157.9-4.1,141.6,10c-9.6,8.3-14.3,20.3-14.2,32.7
	c-10.9-2.8-23.4-0.1-33.1,8.3c-5.1,4.4-8.7,9.8-10.8,15.6c-4-2.7-8.7-4.4-13.9-4.4C56,62.2,45,73.2,45,86.8c0,3,0.6,5.8,1.6,8.4H6.8
	C3.1,95.1,0,98.2,0,102v0.6c0,3.8,3.1,6.8,6.8,6.8h25.9c0,0.3-0.1,0.6-0.1,0.8c0,6.5,5.3,11.7,11.7,11.7H423
	c6.5,0,11.7-5.3,11.7-11.7c0-0.3-0.1-0.6-0.1-0.8h12.5c3.8,0,6.8-3.1,6.8-6.8V102C454,98.2,450.9,95.1,447.2,95.1z"/>
</svg>
