<?xml version="1.0" encoding="utf-8"?>
<!-- Generator: Adobe Illustrator 25.2.3, SVG Export Plug-In . SVG Version: 6.00 Build 0)  -->
<svg version="1.1" id="Layer_1" xmlns="http://www.w3.org/2000/svg" xmlns:xlink="http://www.w3.org/1999/xlink" x="0px" y="0px"
	 viewBox="0 0 613 90" style="enable-background:new 0 0 613 90;" xml:space="preserve">
<style type="text/css">
	.st0{fill:#FFFFFF;}
</style>
<path id="XMLID_14_" class="st0" d="M609.9,78.8h-57.5c0.1-0.5,0.2-1.1,0.2-1.6c0-4.3-3.5-7.8-7.8-7.8h-30.1v-0.2
	c0-1.6-1.3-2.9-2.9-2.9h-11.9c-1.1-6.9-7-12.1-14.1-12.1h-9.8c-1.1-11.3-10.7-20.2-22.3-20.2c-4.4,0-8.4,1.3-11.9,3.4h-14.3
	c0.6-2.2,1-4.5,1-6.8C428.5,16.4,417,5,403,5c-5.2,0-10,1.6-14,4.2C384.3,3.6,377.2,0,369.4,0c-11.7,0-21.5,7.9-24.5,18.6
	c-4.6-3.3-10.3-5.2-16.4-5.2c-13.1,0-24.1,8.9-27.4,21c-4.9-4.6-11.4-7.5-18.7-7.5c-12.2,0-22.5,8.1-25.9,19.2
	c-5-5.1-13.1-8.4-22.4-8.4c-15.1,0-27.3,8.8-27.4,19.6c-4.1-2.6-9.9-3.9-16.2-3.2c-5.1,0.5-9.6,2.3-13,4.7
	c-1.2-7.9-8-13.9-16.2-13.9c-7.6,0-13.9,5.2-15.8,12.1c-2.2-2.2-5.2-3.6-8.6-3.6c-6.6,0-11.9,5.3-11.9,11.9c0,0.3,0.1,0.6,0.1,0.9
	H2.9c-1.6,0-2.9,1.3-2.9,2.9V70c0,1.6,1.3,2.9,2.9,2.9h69.2c-0.8,1.2-1.3,2.7-1.3,4.3c0,1.1,0.3,2.2,0.7,3.2H41.7
	c-1.9,0-3.4,1.5-3.4,3.4V84c0,1.9,1.5,3.4,3.4,3.4h197.2c1.6,0,2.9-1.1,3.3-2.5h96.2c-0.2,0.4-0.3,0.9-0.3,1.3v0.2
	c0,1.9,1.5,3.4,3.4,3.4h197.2c1.9,0,3.4-1.5,3.4-3.4v-0.2c0-0.5-0.1-0.9-0.3-1.3h68c1.7,0,3.1-1.4,3.1-3.1
	C613,80.1,611.6,78.8,609.9,78.8z"/>
</svg>
