<?xml version="1.0" encoding="utf-8"?>
<!-- Generator: Adobe Illustrator 25.2.3, SVG Export Plug-In . SVG Version: 6.00 Build 0)  -->
<svg version="1.1" id="Layer_1" xmlns="http://www.w3.org/2000/svg" xmlns:xlink="http://www.w3.org/1999/xlink" x="0px" y="0px"
	 viewBox="0 0 100 27" style="enable-background:new 0 0 100 27;" xml:space="preserve">
<style type="text/css">
	.st0{fill:#FFFFFF;}
</style>
<path id="XMLID_70_" class="st0" d="M98.3,20.9h-6.2c0.1-0.2,0.1-0.5,0.1-0.7c0-1.3-1.1-2.4-2.4-2.4H79.7c-0.1-3.2-2.7-6-6.3-6.6
	c-1.7-0.3-3.4,0-4.8,0.7c0-0.3,0-0.5,0-0.8c0-4.9-4.8-8.9-10.8-8.9c-1.7,0-3.4,0.3-4.8,0.9c-1.3-1.2-3-2-4.9-2c-1.6,0-3,0.5-4.2,1.4
	c-3.9-3.2-9.3-3.4-12.9-0.3C29,4,28,6.6,28,9.4c-2.4-0.6-5.1,0-7.3,1.8c-1.1,1-1.9,2.2-2.4,3.4c-0.9-0.6-1.9-1-3.1-1
	c-3,0-5.4,2.4-5.4,5.4c0,0.6,0.1,1.3,0.3,1.8H1.5c-0.8,0-1.5,0.7-1.5,1.5v0.1C0,23.3,0.7,24,1.5,24h5.7c0,0.1,0,0.1,0,0.2
	c0,1.4,1.2,2.6,2.6,2.6H93c1.4,0,2.6-1.2,2.6-2.6c0-0.1,0-0.1,0-0.2h2.8c0.8,0,1.5-0.7,1.5-1.5v-0.1C99.8,21.6,99.1,20.9,98.3,20.9z
	"/>
</svg>
