<?xml version="1.0" encoding="utf-8"?>
<!-- Generator: Adobe Illustrator 25.2.3, SVG Export Plug-In . SVG Version: 6.00 Build 0)  -->
<svg version="1.1" id="Layer_1" xmlns="http://www.w3.org/2000/svg" xmlns:xlink="http://www.w3.org/1999/xlink" x="0px" y="0px"
	 viewBox="0 0 340 99" style="enable-background:new 0 0 340 99;" xml:space="preserve">
<style type="text/css">
	.st0{fill:#FFFFFF;}
</style>
<path id="XMLID_79_" class="st0" d="M333.7,79.4h-26.7c-0.4-11.7-10-21-21.8-21c-3.4,0-6.6,0.8-9.4,2.1
	c-6.5-13.7-20.5-23.2-36.7-23.2c-0.3,0-0.7,0-1,0C225.5,15.1,201.5,0,173.9,0c-32,0-59.2,20.3-69.5,48.7c-6.9-6-15.9-9.7-25.7-9.7
	c-21.6,0-39.1,17.5-39.1,39.1c0,0.4,0,0.9,0,1.3H5.7C2.6,79.4,0,82,0,85.2c0,3.2,2.6,5.7,5.7,5.7h23.1c-0.3,0.7-0.5,1.5-0.5,2.3
	c0,3.2,2.6,5.7,5.7,5.7h271.4c3.2,0,5.7-2.6,5.7-5.7c0-0.8-0.2-1.6-0.5-2.3h23.1c3.2,0,5.7-2.6,5.7-5.7
	C339.5,82,336.9,79.4,333.7,79.4z"/>
</svg>
