<?xml version="1.0" encoding="utf-8"?>
<!-- Generator: Adobe Illustrator 25.2.3, SVG Export Plug-In . SVG Version: 6.00 Build 0)  -->
<svg version="1.1" id="Layer_1" xmlns="http://www.w3.org/2000/svg" xmlns:xlink="http://www.w3.org/1999/xlink" x="0px" y="0px"
	 viewBox="0 0 175 220" style="enable-background:new 0 0 175 220;" xml:space="preserve">
<g>
	
		<image style="overflow:visible;opacity:0.3;" width="32" height="19" xlink:href="5C4B4D06.png"  transform="matrix(1 0 0 1 57 127)">
	</image>
	
		<image style="overflow:visible;opacity:0.3;" width="47" height="49" xlink:href="5C4B4D0A.png"  transform="matrix(1 0 0 1 53 74)">
	</image>
	
		<image style="overflow:visible;opacity:0.3;" width="73" height="60" xlink:href="5C4B4D0D.png"  transform="matrix(1 0 0 1 0 64)">
	</image>
	
		<image style="overflow:visible;opacity:0.3;" width="32" height="33" xlink:href="5C4B4D0E.png"  transform="matrix(1 0 0 1 72 88)">
	</image>
	
		<image style="overflow:visible;opacity:0.3;" width="58" height="33" xlink:href="5C4B4D0C.png"  transform="matrix(1 0 0 1 19 133)">
	</image>
	
		<image style="overflow:visible;opacity:0.3;" width="27" height="15" xlink:href="5C4B4D0B.png"  transform="matrix(1 0 0 1 43 120)">
	</image>
	
		<image style="overflow:visible;opacity:0.6;" width="102" height="76" xlink:href="5C4B4D05.png"  transform="matrix(1 0 0 1 73 116)">
	</image>
	
		<image style="overflow:visible;opacity:0.3;" width="124" height="123" xlink:href="5C4B4D07.png"  transform="matrix(1 0 0 1 20 0)">
	</image>
	
		<image style="overflow:visible;opacity:0.3;" width="78" height="47" xlink:href="5C4B4D04.png"  transform="matrix(1 0 0 1 46 117)">
	</image>
	
		<image style="overflow:visible;opacity:0.6;" width="97" height="88" xlink:href="56E22239.png"  transform="matrix(1 0 0 1 46 45)">
	</image>
	
		<image style="overflow:visible;opacity:0.6;" width="11" height="13" xlink:href="56E2223F.png"  transform="matrix(1 0 0 1 68 118)">
	</image>
	
		<image style="overflow:visible;opacity:0.6;" width="16" height="16" xlink:href="56E22238.png"  transform="matrix(1 0 0 1 69 133)">
	</image>
	
		<image style="overflow:visible;opacity:0.6;" width="15" height="16" xlink:href="56E2223B.png"  transform="matrix(1 0 0 1 70 120)">
	</image>
	
		<image style="overflow:visible;opacity:0.6;" width="14" height="25" xlink:href="56E22227.png"  transform="matrix(1 0 0 1 66 99)">
	</image>
	
		<image style="overflow:visible;opacity:0.6;" width="38" height="43" xlink:href="56E22237.png"  transform="matrix(1 0 0 1 41 92)">
	</image>
	
		<image style="overflow:visible;opacity:0.54;" width="31" height="42" xlink:href="56E22229.png"  transform="matrix(1 0 0 1 70 102)">
	</image>
	
		<image style="overflow:visible;opacity:0.8;" width="44" height="39" xlink:href="56E2222B.png"  transform="matrix(1 0 0 1 43 92)">
	</image>
	
		<image style="overflow:visible;opacity:0.8;" width="118" height="117" xlink:href="56E22228.png"  transform="matrix(1 0 0 1 43 72)">
	</image>
	
		<image style="overflow:visible;opacity:0.8;" width="87" height="108" xlink:href="56E2222F.png"  transform="matrix(1 0 0 1 1 112)">
	</image>
	
		<image style="overflow:visible;opacity:0.6;" width="23" height="21" xlink:href="56E2224C.png"  transform="matrix(1 0 0 1 55 131)">
	</image>
	
		<image style="overflow:visible;opacity:0.3;" width="16" height="20" xlink:href="56E2224F.png"  transform="matrix(1 0 0 1 53 120)">
	</image>
	
		<image style="overflow:visible;opacity:0.3;" width="20" height="21" xlink:href="56E2224D.png"  transform="matrix(1 0 0 1 26 88)">
	</image>
	
		<image style="overflow:visible;opacity:0.3;" width="19" height="23" xlink:href="56E22243.png"  transform="matrix(1 0 0 1 47 98)">
	</image>
	
		<image style="overflow:visible;opacity:0.3;" width="38" height="31" xlink:href="56E22244.png"  transform="matrix(1 0 0 1 23 118)">
	</image>
	
		<image style="overflow:visible;opacity:0.6;" width="11" height="10" xlink:href="56E22247.png"  transform="matrix(1 0 0 1 67 129)">
	</image>
	
		<image style="overflow:visible;opacity:0.6;" width="45" height="22" xlink:href="56E22245.png"  transform="matrix(1 0 0 1 84 121)">
	</image>
	
		<image style="overflow:visible;opacity:0.6;" width="68" height="45" xlink:href="56E22242.png"  transform="matrix(1 0 0 1 104 86)">
	</image>
	
		<image style="overflow:visible;opacity:0.6;" width="17" height="16" xlink:href="56E2227C.png"  transform="matrix(1 0 0 1 77 138)">
	</image>
	
		<image style="overflow:visible;opacity:0.6;" width="43" height="39" xlink:href="56E2227F.png"  transform="matrix(1 0 0 1 78 135)">
	</image>
	
		<image style="overflow:visible;opacity:0.6;" width="24" height="60" xlink:href="56E22263.png"  transform="matrix(1 0 0 1 70 57)">
	</image>
	
		<image style="overflow:visible;opacity:0.6;" width="12" height="29" xlink:href="56E22261.png"  transform="matrix(1 0 0 1 74 83)">
	</image>
	
		<image style="overflow:visible;opacity:0.6;" width="29" height="22" xlink:href="56E2225F.png"  transform="matrix(1 0 0 1 81 117)">
	</image>
</g>
</svg>
