<?xml version="1.0" encoding="utf-8"?>
<!-- Generator: Adobe Illustrator 25.2.3, SVG Export Plug-In . SVG Version: 6.00 Build 0)  -->
<svg version="1.1" id="Layer_1" xmlns="http://www.w3.org/2000/svg" xmlns:xlink="http://www.w3.org/1999/xlink" x="0px" y="0px"
	 viewBox="0 0 500 500" style="enable-background:new 0 0 500 500;" xml:space="preserve">
<style type="text/css">
	.st0{fill:#FFFFFF;}
	.st1{fill:url(#SVGID_1_);}
	.st2{fill:#D9DADB;}
	.st3{clip-path:url(#SVGID_3_);}
	.st4{fill:#ECEDED;}
	.st5{fill:#E53948;}
</style>
<g>
	<g>
		<path class="st0" d="M250,5.6C385,5.6,494.4,115,494.4,250c0,135-109.4,244.4-244.4,244.4C115,494.4,5.6,385,5.6,250
			C5.6,115,115,5.6,250,5.6 M250,0C183.2,0,120.4,26,73.2,73.2C26,120.4,0,183.2,0,250c0,66.8,26,129.6,73.2,176.8
			C120.4,474,183.2,500,250,500c66.8,0,129.6-26,176.8-73.2C474,379.6,500,316.8,500,250c0-66.8-26-129.6-73.2-176.8
			C379.6,26,316.8,0,250,0L250,0z"/>
	</g>
	<g>
		<radialGradient id="SVGID_1_" cx="298.4528" cy="189.5415" r="323.5579" gradientUnits="userSpaceOnUse">
			<stop  offset="0.411" style="stop-color:#FFFFFF"/>
			<stop  offset="0.4926" style="stop-color:#F9F9F9"/>
			<stop  offset="0.5998" style="stop-color:#E9E9E9"/>
			<stop  offset="0.7212" style="stop-color:#CDCDCD"/>
			<stop  offset="0.8523" style="stop-color:#A8A8A8"/>
			<stop  offset="0.8589" style="stop-color:#A6A6A6"/>
			<stop  offset="0.8991" style="stop-color:#BBBBBB"/>
			<stop  offset="0.9877" style="stop-color:#E6E6E6"/>
		</radialGradient>
		<circle class="st1" cx="250" cy="250" r="245.3"/>
		<path class="st2" d="M250,5.6C385,5.6,494.4,115,494.4,250c0,135-109.4,244.4-244.4,244.4C115,494.4,5.6,385,5.6,250
			C5.6,115,115,5.6,250,5.6 M250,3.8c-65.8,0-127.6,25.6-174.1,72.1C29.4,122.4,3.8,184.2,3.8,250c0,65.8,25.6,127.6,72.1,174.1
			c46.5,46.5,108.3,72.1,174.1,72.1c65.8,0,127.6-25.6,174.1-72.1c46.5-46.5,72.1-108.3,72.1-174.1c0-65.8-25.6-127.6-72.1-174.1
			C377.6,29.4,315.8,3.8,250,3.8L250,3.8z"/>
	</g>
	<g>
		<defs>
			
				<ellipse id="SVGID_2_" transform="matrix(0.7071 -0.7071 0.7071 0.7071 -103.6058 249.8733)" cx="249.8" cy="250" rx="244.4" ry="244.4"/>
		</defs>
		<clipPath id="SVGID_3_">
			<use xlink:href="#SVGID_2_"  style="overflow:visible;"/>
		</clipPath>
		<g class="st3">
			<path class="st4" d="M292.3,13.6c0.2,0,0.5,0,0.7,0c-4.3-1.4-8.9-2.6-13.9-3.5c-0.2,0-0.3,0.1-0.5,0.1
				C283.5,11.1,288.1,12.2,292.3,13.6z"/>
			<path class="st4" d="M303.7,18.5c0.3,0,0.6,0,0.9,0c-3.3-1.9-7.1-3.5-11.4-4.9c-0.2,0-0.5,0-0.7,0
				C296.7,15.1,300.5,16.7,303.7,18.5z"/>
			<path class="st4" d="M311.6,24.6c1.8,2,2.9,4.1,3.3,6.2c0.3,0.1,0.7,0.2,1,0.2c-0.4-2.1-1.5-4.2-3.3-6.3
				C312.3,24.7,312,24.6,311.6,24.6z"/>
			<path class="st4" d="M307,20c-0.7-0.5-1.5-1-2.3-1.4c-0.3,0-0.6,0-0.9,0c0.8,0.4,1.5,0.9,2.3,1.4c2.2,1.5,4,3,5.4,4.5
				c0.3,0,0.7,0.1,1,0.1C311.1,23,309.3,21.5,307,20z"/>
			<path class="st4" d="M262.7,8.1c0.1,0,0.1-0.1,0.2-0.1c-5.4-0.4-10.9-0.6-16.4-0.5c0,0,0,0.1,0.1,0.1
				C252,7.5,257.4,7.7,262.7,8.1z"/>
			<path class="st4" d="M278.8,10c-5-0.9-10.2-1.6-15.6-2c-0.1,0-0.1,0.1-0.2,0.1c5.3,0.4,10.4,1.1,15.3,2
				C278.5,10.1,278.6,10,278.8,10z"/>
			<path class="st4" d="M284,54.2c1.2-0.3,2.4-0.6,3.6-0.9c-0.2-0.2-0.4-0.4-0.6-0.6c-1.2,0.3-2.3,0.6-3.6,0.9
				c-3.8,0.8-7.7,1.5-11.7,2c0.1,0.2,0.2,0.4,0.3,0.6C276.2,55.7,280.2,55,284,54.2z"/>
			<path class="st4" d="M300.5,48.9c-0.3-0.2-0.5-0.4-0.8-0.5c-3.6,1.6-7.7,3-12.4,4.2c0.2,0.2,0.4,0.4,0.6,0.6
				C292.7,52,296.9,50.5,300.5,48.9z"/>
			<path class="st4" d="M255.4,56.8c0,0.2,0,0.4,0.1,0.7c5.5-0.1,11-0.5,16.4-1.2c-0.1-0.2-0.2-0.4-0.3-0.6
				C266.2,56.3,260.8,56.7,255.4,56.8z"/>
			<path class="st4" d="M309.7,43.6c-0.3-0.1-0.6-0.3-0.9-0.4c-2.3,1.9-5.3,3.6-8.8,5.2c0.3,0.2,0.5,0.4,0.8,0.5
				C304.3,47.2,307.3,45.4,309.7,43.6z"/>
			<path class="st4" d="M316,31.1c-0.3-0.1-0.7-0.2-1-0.2c0.4,2.1,0,4.2-1,6.2c0.3,0.1,0.7,0.2,1,0.3C316,35.4,316.3,33.2,316,31.1z
				"/>
			<path class="st4" d="M314.9,37.5c-0.3-0.1-0.7-0.2-1-0.3c-1,2-2.7,4-5,5.9c0.3,0.1,0.6,0.3,0.9,0.4
				C312.2,41.6,313.9,39.6,314.9,37.5z"/>
			<path class="st4" d="M238.8,57c5.4,0.4,10.9,0.6,16.4,0.5c0-0.2,0-0.4-0.1-0.7c-5.4,0.1-10.9,0-16.1-0.5
				C238.9,56.6,238.8,56.8,238.8,57z"/>
			<path class="st4" d="M194.7,44.9c0.3-0.2,0.6-0.3,0.9-0.5c-2.2-1.5-4-3-5.4-4.5c-0.3,0.1-0.7,0.3-1,0.4
				C190.6,41.9,192.4,43.5,194.7,44.9z"/>
			<path class="st4" d="M223.1,54.3c-4.9-0.9-9.5-2.1-13.7-3.5c-0.2,0.2-0.5,0.4-0.7,0.6c4.3,1.4,8.9,2.6,13.9,3.5
				C222.8,54.7,223,54.5,223.1,54.3z"/>
			<path class="st4" d="M246.3,7.6c0,0-0.1-0.1-0.1-0.1c-5.5,0.1-11,0.5-16.4,1.2c0.1,0,0.2,0.1,0.3,0.1
				C235.5,8.2,240.9,7.8,246.3,7.6z"/>
			<path class="st4" d="M238.7,56.3c-5.3-0.4-10.4-1.1-15.3-2c-0.2,0.2-0.3,0.4-0.5,0.6c5,0.9,10.2,1.6,15.6,2
				C238.5,56.8,238.6,56.5,238.7,56.3z"/>
			<path class="st4" d="M218.2,10.9c3.8-0.8,7.7-1.5,11.7-2c-0.1,0-0.2-0.1-0.3-0.1c-4,0.5-8,1.2-11.8,2.1c-1.3,0.3-2.5,0.6-3.7,0.9
				c0.2,0,0.4,0,0.6,0.1C215.8,11.4,217,11.2,218.2,10.9z"/>
			<path class="st4" d="M202,16c3.6-1.6,7.7-3,12.4-4.2c-0.2,0-0.4,0-0.6-0.1c-4.8,1.2-9,2.7-12.6,4.3C201.4,16,201.7,16,202,16z"/>
			<path class="st4" d="M209.2,50.8c-4.2-1.4-8-3-11.2-4.8c-0.3,0.2-0.6,0.3-0.9,0.5c3.3,1.9,7.1,3.5,11.4,4.9
				C208.8,51.1,209,50.9,209.2,50.8z"/>
			<path class="st4" d="M197,46.3c0.3-0.2,0.6-0.3,0.9-0.5c-0.8-0.4-1.5-0.9-2.2-1.4c-0.3,0.2-0.6,0.3-0.9,0.5
				C195.4,45.4,196.2,45.9,197,46.3z"/>
			<path class="st4" d="M186.8,27.5c0.3-0.1,0.7-0.1,1-0.2c1-2,2.7-4,5-5.9c-0.3,0-0.6,0.1-1,0.1C189.6,23.4,187.8,25.4,186.8,27.5z
				"/>
			<path class="st4" d="M201.8,16.1c-0.3,0-0.5,0-0.8,0c-3.6,1.6-6.6,3.4-9,5.3c0.3,0,0.6-0.1,1-0.1
				C195.3,19.5,198.2,17.7,201.8,16.1z"/>
			<path class="st4" d="M190.1,39.9c-1.8-2-2.9-4.1-3.3-6.2c-0.4,0.1-0.7,0.2-1.1,0.3c0.4,2.1,1.5,4.2,3.3,6.3
				C189.4,40.1,189.8,40,190.1,39.9z"/>
			<path class="st4" d="M185.8,33.9c0.3-0.1,0.7-0.2,1.1-0.3c-0.4-2.1,0-4.2,1-6.2c-0.3,0.1-0.7,0.1-1,0.2
				C185.7,29.6,185.4,31.7,185.8,33.9z"/>
			<path class="st4" d="M320.9,94.7c9.1-2.4,17.1-5.1,24-8.2c-0.2-0.2-0.5-0.5-0.7-0.7c-6.8,3-14.8,5.8-23.8,8.1
				C320.6,94.1,320.7,94.4,320.9,94.7z"/>
			<path class="st4" d="M336.1,21.4c5.7,2.2,11,4.5,15.6,7.2c0.3,0.1,0.5,0.2,0.8,0.3c-4.5-2.5-9.5-4.8-14.9-6.9L336.1,21.4z"/>
			<path class="st4" d="M313.1,95.6c-7.2,1.6-14.7,2.9-22.4,3.9c0.1,0.3,0.2,0.6,0.3,0.8c7.7-1,15.2-2.3,22.5-3.9
				c2.4-0.5,4.6-1.1,6.9-1.6c-0.2-0.3-0.3-0.5-0.5-0.8C317.7,94.6,315.5,95.1,313.1,95.6z"/>
			<path class="st4" d="M290.5,100.4c-0.1-0.3-0.2-0.6-0.3-0.8c-10.1,1.3-20.5,2-30.9,2.2c0,0.3,0,0.6,0.1,0.8
				C269.9,102.4,280.3,101.7,290.5,100.4z"/>
			<path class="st4" d="M367,40.2c3.5,3.9,5.5,7.9,6.2,11.9c0.3,0.2,0.6,0.3,0.9,0.5c-0.7-4-2.8-8-6.3-11.9
				C367.5,40.5,367.2,40.3,367,40.2z"/>
			<path class="st4" d="M258.9,102.7c0-0.3,0-0.6-0.1-0.8c-10.4,0.2-20.7-0.1-30.9-0.9c-0.1,0.3-0.1,0.6-0.2,0.8
				C238,102.6,248.4,102.9,258.9,102.7z"/>
			<path class="st4" d="M344.5,85.6c0.2,0.2,0.5,0.5,0.7,0.7c6.8-3.1,12.5-6.4,17-10c-0.3-0.2-0.6-0.4-0.8-0.7
				C357,79.2,351.3,82.6,344.5,85.6z"/>
			<path class="st4" d="M372.1,64.9c-0.3-0.2-0.6-0.4-0.9-0.6c-2,3.9-5.2,7.6-9.6,11.2c0.3,0.2,0.6,0.4,0.8,0.7
				C366.9,72.5,370.2,68.8,372.1,64.9z"/>
			<path class="st4" d="M374.1,52.7c-0.3-0.2-0.6-0.3-0.9-0.5c0.7,4,0,8-1.9,11.8c0.3,0.2,0.6,0.4,0.9,0.6
				C374.2,60.8,374.8,56.8,374.1,52.7z"/>
			<path class="st4" d="M357.2,31.7c-1.4-0.9-2.9-1.8-4.4-2.7c-0.3-0.1-0.5-0.2-0.8-0.3c1.5,0.9,3,1.7,4.3,2.6
				c4.3,2.8,7.7,5.7,10.3,8.6c0.3,0.1,0.6,0.3,0.9,0.4C365,37.4,361.5,34.5,357.2,31.7z"/>
			<path class="st4" d="M148.6,81.6c0.3-0.2,0.5-0.5,0.8-0.7c-1.5-0.8-2.9-1.7-4.3-2.6c-0.3,0.2-0.5,0.4-0.8,0.7L148.6,81.6z"/>
			<path class="st4" d="M197.7,97.9c9.4,1.7,19.3,3,29.5,3.8c0.1-0.3,0.1-0.6,0.2-0.8c-10.1-0.8-20-2.1-29.3-3.8
				C198,97.4,197.9,97.6,197.7,97.9z"/>
			<path class="st4" d="M197.7,97c-9.3-1.8-18.1-4-26.1-6.6c-0.2,0.3-0.4,0.5-0.6,0.8c8.1,2.7,17,4.9,26.3,6.6
				C197.4,97.6,197.5,97.3,197.7,97z"/>
			<path class="st4" d="M134.6,69.5c-3.5-3.9-5.5-7.9-6.3-11.9c-0.3,0.2-0.6,0.3-0.9,0.5c0.7,4,2.8,8,6.3,11.9
				C134,69.9,134.3,69.7,134.6,69.5z"/>
			<path class="st4" d="M171.1,90.3c-8-2.7-15.2-5.7-21.4-9.2c-0.3,0.2-0.5,0.5-0.8,0.7c6.2,3.5,13.5,6.6,21.6,9.3
				C170.7,90.8,170.9,90.5,171.1,90.3z"/>
			<path class="st4" d="M144.3,78.9c0.3-0.2,0.5-0.4,0.8-0.7c-4.2-2.8-7.7-5.6-10.3-8.6c-0.3,0.2-0.6,0.4-0.9,0.6
				C136.5,73.2,140,76.1,144.3,78.9z"/>
			<path class="st4" d="M170,19l-1.6,0.5c-4.3,1.4-8.2,3-11.9,4.6c0.2-0.1,0.5-0.2,0.7-0.3C161,22.3,166.1,20.4,170,19z"/>
			<path class="st4" d="M127.4,57.9c0.3-0.2,0.6-0.3,0.9-0.5c-0.7-4,0-8,1.9-11.8c-0.3,0.1-0.6,0.3-0.9,0.4
				C127.3,49.9,126.7,53.9,127.4,57.9z"/>
			<path class="st4" d="M139.2,34.4c0.3-0.1,0.6-0.2,0.8-0.3c4.4-3.6,10.1-6.9,16.9-10c-0.2,0.1-0.5,0.2-0.7,0.3
				C149.4,27.4,143.7,30.8,139.2,34.4z"/>
			<path class="st4" d="M129.3,45.8c0.3-0.1,0.6-0.3,0.9-0.4c1.9-3.9,5.2-7.6,9.6-11.2c-0.3,0.1-0.6,0.2-0.8,0.3
				C134.5,38.1,131.3,41.9,129.3,45.8z"/>
			<path class="st4" d="M94.2,61.5l-0.7,0.6l-0.3,0.3c-5.8,4.8-10,9.9-12.6,15.1c0.2-0.2,0.5-0.4,0.7-0.6
				C83.9,71.5,88.3,66.4,94.2,61.5z"/>
			<path class="st4" d="M87.4,110.6c-4.9-5.5-7.8-11.1-8.8-16.7c-0.3,0.2-0.5,0.5-0.8,0.7c1,5.6,3.9,11.2,8.8,16.7
				C86.9,111.1,87.1,110.9,87.4,110.6z"/>
			<path class="st4" d="M77.8,94.4c0.2-0.2,0.5-0.5,0.8-0.7c-1-5.6-0.1-11.2,2.6-16.6c-0.2,0.2-0.5,0.4-0.7,0.6
				C77.7,83.2,76.8,88.8,77.8,94.4z"/>
			<path class="st4" d="M176.4,150.4c13.2,2.4,27.1,4.3,41.3,5.4c0-0.3,0.1-0.6,0.1-1c-14.2-1.1-28-2.9-41.2-5.4
				C176.6,149.7,176.5,150,176.4,150.4z"/>
			<path class="st4" d="M175.7,150.2c0.1-0.3,0.2-0.6,0.3-0.9c-13.1-2.5-25.4-5.6-36.7-9.3c-0.2,0.3-0.3,0.6-0.5,0.9
				C150.1,144.6,162.5,147.8,175.7,150.2z"/>
			<path class="st4" d="M262,157c0-0.3,0-0.7,0-1c-14.6,0.3-29.1-0.1-43.4-1.2c0,0.3-0.1,0.6-0.1,1C232.7,156.9,247.3,157.3,262,157
				z"/>
			<path class="st4" d="M306.3,153.8c-0.1-0.3-0.2-0.6-0.2-1c-14.2,1.8-28.8,2.8-43.3,3.2c0,0.3,0,0.7,0,1
				C277.4,156.7,292,155.6,306.3,153.8z"/>
			<path class="st4" d="M107.5,127.5c0.2-0.3,0.4-0.6,0.6-0.9c-2.1-1.2-4.1-2.4-6-3.7c-0.2,0.3-0.4,0.6-0.6,0.8
				C103.4,125,105.4,126.3,107.5,127.5z"/>
			<path class="st4" d="M420.7,103.8c2.7-5.5,3.6-11.1,2.7-16.7c-0.2-0.2-0.5-0.5-0.7-0.7c1,5.6,0,11.2-2.6,16.6
				C420.2,103.3,420.4,103.5,420.7,103.8z"/>
			<path class="st4" d="M408.4,64.1l-0.3-0.3l-0.7-0.6c2.3,1.9,4.3,3.9,6.1,5.9c0.2,0.2,0.5,0.4,0.7,0.6
				C412.5,67.9,410.6,66,408.4,64.1z"/>
			<path class="st4" d="M382.3,133.3c0.2,0.3,0.4,0.6,0.6,0.9c9.6-4.3,17.5-9,23.8-14c-0.2-0.3-0.4-0.5-0.7-0.8
				C399.8,124.3,391.8,129,382.3,133.3z"/>
			<path class="st4" d="M407,119.9c6.2-5,10.8-10.3,13.5-15.8c-0.2-0.3-0.5-0.5-0.7-0.7c-2.7,5.4-7.3,10.7-13.5,15.7
				C406.6,119.3,406.8,119.6,407,119.9z"/>
			<path class="st4" d="M348.4,144.9c0.1,0.3,0.3,0.6,0.4,0.9c12.7-3.3,23.9-7.2,33.6-11.4c-0.2-0.3-0.4-0.6-0.6-0.9
				C372.2,137.8,361,141.6,348.4,144.9z"/>
			<path class="st4" d="M101.5,123.8c0.2-0.3,0.4-0.6,0.6-0.8c-6-3.9-10.8-7.9-14.5-12c-0.2,0.3-0.5,0.5-0.7,0.8
				C90.6,115.8,95.5,119.9,101.5,123.8z"/>
			<path class="st4" d="M138.7,139.8c-11.2-3.7-21.4-8.1-30.1-13c-0.2,0.3-0.4,0.6-0.6,0.9c8.7,4.9,18.9,9.3,30.2,13
				C138.4,140.4,138.5,140.1,138.7,139.8z"/>
			<path class="st4" d="M348.1,146c-0.1-0.3-0.3-0.6-0.4-0.9c-3.1,0.8-6.3,1.6-9.6,2.3c-10.2,2.3-20.7,4.1-31.4,5.4
				c0.1,0.3,0.2,0.6,0.2,1c10.8-1.4,21.3-3.2,31.6-5.5C341.8,147.6,345,146.8,348.1,146z"/>
			<path class="st4" d="M413.8,69.5c4.8,5.5,7.7,11.1,8.8,16.7c0.2,0.2,0.5,0.4,0.7,0.7c-1-5.6-3.9-11.2-8.8-16.7
				C414.3,69.9,414,69.7,413.8,69.5z"/>
			<path class="st4" d="M75.7,181.4c0.1-0.3,0.3-0.6,0.5-1c-2.6-1.5-5-3-7.4-4.5c-0.2,0.3-0.3,0.6-0.5,1
				C70.7,178.4,73.2,179.9,75.7,181.4z"/>
			<path class="st4" d="M46.2,114.7l-0.7,1c-1,1.5-1.9,3.1-2.7,4.6c0.2-0.3,0.4-0.5,0.5-0.8C44.2,117.9,45.1,116.2,46.2,114.7z"/>
			<path class="st4" d="M39.4,141c0.2-0.3,0.4-0.6,0.5-0.9c-1.2-6.8-0.1-13.7,3.2-20.3c-0.2,0.3-0.4,0.5-0.5,0.8
				C39.4,127.3,38.3,134.1,39.4,141z"/>
			<path class="st4" d="M68.3,176.9c0.2-0.3,0.3-0.6,0.5-1c-7.3-4.8-13.2-9.7-17.7-14.7c-0.2,0.3-0.3,0.6-0.5,0.9
				C55.1,167.1,61,172.1,68.3,176.9z"/>
			<path class="st4" d="M159.7,209.3c16.1,3,33,5.2,50.4,6.6c0-0.4,0.1-0.7,0.1-1.1c-17.4-1.4-34.3-3.6-50.3-6.5
				C159.9,208.6,159.8,209,159.7,209.3z"/>
			<path class="st4" d="M113.2,197.6c0.1-0.3,0.2-0.7,0.4-1c-13.7-4.6-26.2-9.9-36.8-15.8c-0.2,0.3-0.3,0.6-0.4,1
				C87,187.7,99.4,193,113.2,197.6z"/>
			<path class="st4" d="M264.2,217.4c0-0.4,0-0.7,0-1.1c-17.8,0.4-35.6-0.1-53-1.5c0,0.4-0.1,0.7-0.1,1.1
				C228.5,217.3,246.4,217.8,264.2,217.4z"/>
			<path class="st4" d="M158.9,209.2c0.1-0.3,0.2-0.7,0.2-1c-16-3-31.1-6.8-44.9-11.3c-0.1,0.3-0.2,0.7-0.4,1
				C127.7,202.3,142.9,206.1,158.9,209.2z"/>
			<path class="st4" d="M50.8,160.8c-5.9-6.7-9.5-13.5-10.7-20.4c-0.2,0.3-0.4,0.6-0.5,0.9c1.3,6.9,4.8,13.7,10.8,20.4
				C50.4,161.5,50.6,161.2,50.8,160.8z"/>
			<path class="st4" d="M440.8,171.1c0.2,0.3,0.3,0.6,0.5,0.9c7.6-6.1,13.1-12.6,16.5-19.3c-0.2-0.3-0.3-0.6-0.5-0.9
				C453.9,158.6,448.4,165,440.8,171.1z"/>
			<path class="st4" d="M454.8,116.8c0.4,0.5,0.7,1.1,1,1.6c-0.1-0.2-0.2-0.4-0.4-0.6L454.8,116.8z"/>
			<path class="st4" d="M455.9,118.8c-0.1-0.1-0.1-0.2-0.2-0.3C455.8,118.6,455.9,118.7,455.9,118.8z"/>
			<path class="st4" d="M411.4,188.5c0.1,0.3,0.3,0.7,0.4,1c11.7-5.2,21.4-11,29.1-17.1c-0.2-0.3-0.3-0.6-0.5-0.9
				C432.7,177.6,423,183.3,411.4,188.5z"/>
			<path class="st4" d="M410.8,188.8c-11.7,5.2-25.4,9.9-40.9,13.9c0.1,0.3,0.2,0.7,0.3,1c15.5-4,29.2-8.7,41-14
				C411.1,189.5,410.9,189.1,410.8,188.8z"/>
			<path class="st4" d="M369.4,204c-0.1-0.3-0.2-0.7-0.3-1c-3.8,1-7.7,1.9-11.7,2.8c-12.4,2.8-25.3,5-38.4,6.6
				c0.1,0.3,0.1,0.7,0.2,1c13.2-1.7,26.1-3.9,38.5-6.7C361.7,205.9,365.6,205,369.4,204z"/>
			<path class="st4" d="M318.1,212.5c-17.4,2.2-35.2,3.5-53,3.9c0,0.4,0,0.7,0,1.1c17.9-0.4,35.7-1.7,53.1-3.9
				C318.2,213.2,318.2,212.9,318.1,212.5z"/>
			<path class="st4" d="M460.6,130.9c0.2,0.3,0.4,0.6,0.5,0.8c-0.8-4.3-2.5-8.7-5.2-13C458.3,122.8,459.9,126.9,460.6,130.9z"/>
			<path class="st4" d="M458,152.5c3.3-6.7,4.4-13.5,3.2-20.4c-0.2-0.3-0.4-0.6-0.5-0.8c1.2,6.8,0.1,13.7-3.2,20.3
				C457.6,151.9,457.8,152.2,458,152.5z"/>
			<path class="st4" d="M55.2,240.6c0.1-0.3,0.2-0.7,0.2-1c-2.9-1.6-5.6-3.3-8.2-5c-0.1,0.3-0.2,0.7-0.3,1
				C49.5,237.3,52.3,239,55.2,240.6z"/>
			<path class="st4" d="M27,217.7c-6.6-7.5-10.6-15.1-12-22.8c-0.1,0.3-0.2,0.7-0.3,1c1.4,7.7,5.4,15.3,12,22.8
				C26.8,218.4,26.9,218.1,27,217.7z"/>
			<path class="st4" d="M97,258.7c0.1-0.4,0.1-0.7,0.2-1.1c-15.4-5.1-29.2-11-41.1-17.7c-0.1,0.3-0.2,0.7-0.2,1
				C67.7,247.7,81.6,253.6,97,258.7z"/>
			<path class="st4" d="M15.7,179.1c-1.7,5.4-2,10.9-1.1,16.5c0.1-0.3,0.2-0.7,0.3-1c-1-5.6-0.6-11.1,1.1-16.6L15.7,179.1z"/>
			<path class="st4" d="M148,271.6c0-0.4,0.1-0.7,0.1-1.1c-17.9-3.4-34.8-7.6-50.2-12.7c-0.1,0.4-0.1,0.7-0.2,1.1
				C113.2,264,130.1,268.3,148,271.6z"/>
			<path class="st4" d="M265.6,280.9c0-0.4,0-0.7,0-1.1c-19.9,0.4-39.8-0.2-59.3-1.7c0,0.4,0,0.7-0.1,1.1
				C225.7,280.7,245.6,281.3,265.6,280.9z"/>
			<path class="st4" d="M148.9,271.8c17.9,3.3,36.9,5.8,56.3,7.3c0-0.4,0-0.7,0.1-1.1c-19.4-1.5-38.3-4-56.2-7.3
				C149,271.1,149,271.5,148.9,271.8z"/>
			<path class="st4" d="M27.4,218.1c-0.1,0.3-0.2,0.7-0.3,1c5.1,5.6,11.7,11.1,19.8,16.5c0.1-0.3,0.2-0.7,0.3-1
				C39,229.2,32.4,223.7,27.4,218.1z"/>
			<path class="st4" d="M325.8,275.5c-19.4,2.4-39.3,3.9-59.2,4.3c0,0.4,0,0.7,0,1.1c19.9-0.4,39.9-1.9,59.3-4.3
				C325.9,276.2,325.9,275.8,325.8,275.5z"/>
			<path class="st4" d="M481.8,208.4c3.7-7.4,4.9-15.1,3.6-22.7c-0.1-0.3-0.2-0.6-0.3-1c1.3,7.6,0.1,15.3-3.6,22.7
				C481.6,207.7,481.7,208,481.8,208.4z"/>
			<path class="st4" d="M462.9,229.2c0.1,0.3,0.2,0.7,0.3,1c8.5-6.8,14.7-14.1,18.4-21.5c-0.1-0.3-0.2-0.7-0.3-1
				C477.6,215.2,471.4,222.4,462.9,229.2z"/>
			<path class="st4" d="M484.5,181.4l-0.3-1.1c0.4,1.3,0.7,2.6,1,4c0.1,0.3,0.2,0.6,0.3,1C485.1,184,484.8,182.7,484.5,181.4z"/>
			<path class="st4" d="M462.5,229.6c-8.6,6.8-19.4,13.2-32.4,19.1c0.1,0.4,0.1,0.7,0.2,1.1c13-5.9,23.9-12.3,32.5-19.1
				C462.7,230.3,462.6,229.9,462.5,229.6z"/>
			<path class="st4" d="M383,265.9c-0.1-0.4-0.1-0.7-0.2-1.1c-4.2,1.1-8.6,2.1-13.1,3.1c-13.9,3.1-28.3,5.5-42.9,7.4
				c0,0.4,0.1,0.7,0.1,1.1c14.7-1.9,29.1-4.4,43-7.4C374.4,268,378.8,266.9,383,265.9z"/>
			<path class="st4" d="M429.4,249c-13.1,5.8-28.4,11.1-45.7,15.6c0.1,0.4,0.1,0.7,0.2,1.1c17.3-4.5,32.6-9.7,45.7-15.6
				C429.5,249.7,429.5,249.3,429.4,249z"/>
			<path class="st4" d="M48.4,302.4c0,0.2,0,0.4,0,0.5c12.3,6.9,26.7,13.1,42.7,18.4c0-0.2,0-0.4,0-0.5c0-0.2,0-0.3,0-0.5
				c-15.9-5.3-30.3-11.4-42.7-18.4C48.4,302,48.4,302.2,48.4,302.4z"/>
			<path class="st4" d="M91.9,321.6c16,5.3,33.5,9.7,52.1,13.1c0-0.2,0-0.4,0-0.5c0-0.2,0-0.3,0-0.5c-18.6-3.5-36.1-7.9-52.1-13.1
				c0,0.2,0,0.3,0,0.5C91.9,321.2,91.9,321.4,91.9,321.6z"/>
			<path class="st4" d="M39.2,297.3c2.7,1.8,5.6,3.5,8.6,5.2c0-0.2,0-0.4,0-0.5c0-0.2,0-0.3,0-0.5c-3-1.7-5.8-3.4-8.6-5.2
				c0,0.2,0,0.3,0,0.5C39.2,297,39.2,297.2,39.2,297.3z"/>
			<path class="st4" d="M328.4,339.3c0-0.2,0-0.3,0-0.5c-20.1,2.5-40.8,4-61.5,4.5c0,0.2,0,0.3,0,0.5c0,0.2,0,0.4,0,0.5
				c20.7-0.5,41.3-1.9,61.5-4.5C328.4,339.6,328.4,339.4,328.4,339.3z"/>
			<path class="st4" d="M18.6,279.2c0,0.2,0,0.3,0,0.5c0,0.2,0,0.4,0,0.5c9.3,9.1,10.3,10.1,20.5,17.1c0-0.2,0-0.4,0-0.5
				c0-0.2,0-0.3,0-0.5C30.7,290.8,23.9,285,18.6,279.2z"/>
			<path class="st4" d="M265.8,344.3c0-0.2,0-0.4,0-0.5c0-0.2,0-0.3,0-0.5c-20.7,0.4-41.3-0.2-61.5-1.7c0,0.2,0,0.3,0,0.5
				c0,0.2,0,0.4,0,0.5C224.5,344.1,245.1,344.7,265.8,344.3z"/>
			<path class="st4" d="M144.9,334.3c0,0.2,0,0.4,0,0.5c18.6,3.5,38.2,6,58.4,7.6c0-0.2,0-0.4,0-0.5c0-0.2,0-0.3,0-0.5
				c-20.1-1.6-39.8-4.1-58.4-7.6C144.9,334,144.9,334.2,144.9,334.3z"/>
			<path class="st4" d="M387.5,328.2c0-0.2,0-0.3,0-0.5c-4.4,1.1-8.9,2.2-13.6,3.2c-14.4,3.2-29.3,5.8-44.6,7.7c0,0.2,0,0.3,0,0.5
				c0,0.2,0,0.4,0,0.5c15.2-2,30.1-4.5,44.6-7.7c4.6-1,9.2-2.1,13.6-3.2C387.5,328.5,387.5,328.4,387.5,328.2z"/>
			<path class="st4" d="M489.7,269c0-0.2,0-0.3,0-0.5c-3.9,7.7-10.3,15.2-19.1,22.3c0,0.2,0,0.3,0,0.5c0,0.2,0,0.4,0,0.5
				c8.8-7.1,15.2-14.6,19.1-22.3C489.7,269.3,489.7,269.2,489.7,269z"/>
			<path class="st4" d="M494.2,250.7c0,5.8-1.5,11.6-4.3,17.3c0,0.2,0,0.3,0,0.5c0,0.2,0,0.4,0,0.5c2.8-5.6,4.2-11.4,4.3-17.2l0-0.6
				L494.2,250.7z"/>
			<path class="st4" d="M470.2,291.6c0-0.2,0-0.3,0-0.5c-8.9,7.1-20.1,13.7-33.6,19.8c0,0.2,0,0.3,0,0.5c0,0.2,0,0.4,0,0.5
				c13.5-6.1,24.8-12.7,33.6-19.8C470.2,292,470.2,291.8,470.2,291.6z"/>
			<path class="st4" d="M5.2,249.5c0,2.1,0.2,4.2,0.5,6.3c0-0.2,0-0.4,0-0.5c0-0.2,0-0.3,0-0.5c-0.4-2.2-0.5-4.3-0.5-6.5l0,0.6
				L5.2,249.5z"/>
			<path class="st4" d="M435.8,311.8c0-0.2,0-0.3,0-0.5c-13.6,6.1-29.4,11.5-47.4,16.2c0,0.2,0,0.3,0,0.5c0,0.2,0,0.4,0,0.5
				c18-4.7,33.8-10.1,47.4-16.2C435.8,312.1,435.8,312,435.8,311.8z"/>
			<path class="st4" d="M5.8,256.2c1.5,7.9,5.6,15.9,12.5,23.6c0-0.2,0-0.4,0-0.5c0-0.2,0-0.3,0-0.5c-6.9-7.8-11-15.7-12.5-23.6
				c0,0.2,0,0.3,0,0.5C5.8,255.9,5.8,256.1,5.8,256.2z"/>
			<path class="st4" d="M97.3,379c15.4,5.1,32.3,9.3,50.2,12.7c0-0.3-0.1-0.6-0.1-0.9c-17.9-3.4-34.8-7.6-50.3-12.7
				C97.2,378.4,97.2,378.7,97.3,379z"/>
			<path class="st4" d="M26.5,338.3c0.1,0.3,0.2,0.6,0.3,0.9c5.1,5.6,11.6,11.1,19.8,16.5c-0.1-0.3-0.2-0.6-0.2-0.9
				C38.1,349.4,31.5,343.9,26.5,338.3z"/>
			<path class="st4" d="M55.4,361.1c11.9,6.7,25.8,12.6,41.1,17.7c-0.1-0.3-0.1-0.6-0.2-0.9c-15.4-5.1-29.3-11-41.2-17.7
				C55.2,360.4,55.3,360.7,55.4,361.1z"/>
			<path class="st4" d="M148.4,391.9c17.9,3.3,36.8,5.8,56.2,7.3c0-0.3,0-0.6-0.1-0.9c-19.4-1.5-38.4-4-56.3-7.3
				C148.3,391.3,148.4,391.6,148.4,391.9z"/>
			<path class="st4" d="M264.9,400.9c0-0.3,0-0.6,0-0.9c-19.9,0.4-39.9-0.2-59.3-1.7c0,0.3,0,0.6,0,0.9
				C225.1,400.7,245,401.3,264.9,400.9z"/>
			<path class="st4" d="M325.3,395.7c-19.4,2.5-39.4,3.9-59.3,4.3c0,0.3,0,0.6,0,0.9c19.9-0.4,39.8-1.9,59.2-4.3
				C325.2,396.3,325.2,396,325.3,395.7z"/>
			<path class="st4" d="M46.5,355.7l8.2,5h0c-0.1-0.3-0.2-0.6-0.2-0.9c-2.9-1.6-5.6-3.3-8.3-5C46.3,355.1,46.4,355.4,46.5,355.7z"/>
			<path class="st4" d="M462.6,349.4c-0.1,0.3-0.2,0.6-0.3,0.9c8.5-6.8,14.7-14.1,18.4-21.5c0.1-0.3,0.2-0.6,0.3-0.9
				C477.2,335.3,471,342.6,462.6,349.4z"/>
			<path class="st4" d="M483.7,321.2c-0.6,2.1-1.5,4.2-2.5,6.3c-0.1,0.3-0.2,0.6-0.3,0.9c1-2,1.8-4.1,2.5-6.1L483.7,321.2z"/>
			<path class="st4" d="M462.1,349.8c-8.6,6.8-19.4,13.3-32.5,19.1c-0.1,0.3-0.2,0.6-0.2,0.9c13-5.9,23.9-12.3,32.4-19.1
				C461.9,350.4,462,350.1,462.1,349.8z"/>
			<path class="st4" d="M382.4,385c-4.2,1.1-8.6,2.1-13.1,3.1c-13.9,3.1-28.3,5.6-43,7.4c0,0.3-0.1,0.6-0.1,0.9
				c14.7-1.9,29.1-4.3,42.9-7.4c4.5-1,8.8-2,13.1-3.1C382.2,385.6,382.3,385.3,382.4,385z"/>
			<path class="st4" d="M15.1,319.4l0.2,0.5c1.9,6.4,5.6,12.7,11.1,18.9c-0.1-0.3-0.2-0.6-0.3-0.9c-5.6-6.3-9.3-12.7-11.1-19.1
				L15.1,319.4z"/>
			<path class="st4" d="M429,369.2c-13.1,5.8-28.4,11.1-45.7,15.6c-0.1,0.3-0.1,0.6-0.2,0.9c17.3-4.5,32.6-9.7,45.7-15.6
				C428.8,369.8,428.9,369.5,429,369.2z"/>
			<path class="st4" d="M113,425.7c13.8,4.5,28.9,8.3,44.9,11.3c-0.1-0.2-0.2-0.4-0.2-0.7c-16-3-31.2-6.8-45-11.4
				C112.8,425.3,112.9,425.5,113,425.7z"/>
			<path class="st4" d="M75,409.4c-0.1-0.2-0.3-0.5-0.4-0.7c-2.6-1.5-5-3-7.4-4.5c0.2,0.3,0.3,0.5,0.5,0.8
				C69.9,406.4,72.4,407.9,75,409.4z"/>
			<path class="st4" d="M75.5,409.7c10.6,6,23.1,11.3,36.8,15.8c-0.1-0.2-0.2-0.5-0.3-0.7c-13.8-4.6-26.2-9.9-36.9-15.9
				C75.2,409.2,75.4,409.4,75.5,409.7z"/>
			<path class="st4" d="M158.8,437.2c16,3,33,5.2,50.3,6.5c0-0.2-0.1-0.4-0.1-0.7c-17.4-1.4-34.4-3.6-50.4-6.6
				C158.6,436.8,158.7,437,158.8,437.2z"/>
			<path class="st4" d="M317.1,440.8c-17.4,2.2-35.3,3.5-53.1,3.9c0,0.2,0,0.4,0,0.6c17.8-0.4,35.6-1.7,53-3.9
				C317,441.2,317,441,317.1,440.8z"/>
			<path class="st4" d="M263,445.3c0-0.2,0-0.4,0-0.6c-17.9,0.4-35.7-0.1-53.1-1.5c0,0.2,0.1,0.4,0.1,0.7
				C227.4,445.2,245.2,445.7,263,445.3z"/>
			<path class="st4" d="M410.2,417.5c11.6-5.2,21.4-11,29-17.1c0.2-0.3,0.3-0.5,0.5-0.8c-7.7,6.1-17.4,11.9-29.1,17.1
				C410.5,417,410.3,417.2,410.2,417.5z"/>
			<path class="st4" d="M410,417c-11.7,5.2-25.4,9.9-41,14c-0.1,0.2-0.2,0.5-0.3,0.7c15.5-4,29.1-8.7,40.9-13.9
				C409.7,417.5,409.8,417.3,410,417z"/>
			<path class="st4" d="M67.6,404.9c-0.2-0.3-0.3-0.5-0.5-0.8c-7.3-4.8-13.2-9.7-17.8-14.8c0.2,0.3,0.3,0.5,0.5,0.8
				C54.4,395.2,60.3,400.1,67.6,404.9z"/>
			<path class="st4" d="M453.3,385.6l0.7-1c-3.4,5.1-8,10-13.9,14.8c-0.2,0.3-0.3,0.5-0.5,0.8C445.4,395.4,449.9,390.6,453.3,385.6z
				"/>
			<path class="st4" d="M44,382.4l0.6,1c1.4,2.1,3,4.3,4.9,6.4c-0.2-0.3-0.3-0.5-0.5-0.8C47.1,386.8,45.4,384.6,44,382.4z"/>
			<path class="st4" d="M368.2,431.2c-3.8,1-7.7,1.9-11.7,2.8c-12.5,2.8-25.4,5-38.5,6.7c-0.1,0.2-0.1,0.4-0.2,0.7
				c13.1-1.7,26-3.9,38.4-6.6c4-0.9,7.9-1.8,11.7-2.8C368,431.7,368.1,431.4,368.2,431.2z"/>
			<path class="st4" d="M346,465.3c0.1-0.2,0.3-0.3,0.4-0.5c-3.1,0.8-6.3,1.6-9.6,2.3c-10.2,2.3-20.8,4.1-31.6,5.5
				c-0.1,0.1-0.2,0.3-0.2,0.4c10.7-1.4,21.3-3.2,31.4-5.4C339.7,466.8,342.9,466.1,346,465.3z"/>
			<path class="st4" d="M260.2,476.2c0-0.1,0-0.3,0.1-0.4c-14.6,0.3-29.3-0.1-43.5-1.2c0,0.1,0.1,0.3,0.1,0.4
				C231.1,476.1,245.6,476.5,260.2,476.2z"/>
			<path class="st4" d="M175,469.6c13.1,2.4,26.9,4.2,41.1,5.4c0-0.1-0.1-0.3-0.1-0.4c-14.3-1.1-28.2-2.9-41.3-5.4
				C174.8,469.3,174.9,469.5,175,469.6z"/>
			<path class="st4" d="M304.6,472.7c-14.3,1.8-28.9,2.8-43.5,3.2c0,0.1,0,0.3-0.1,0.4c14.6-0.3,29.1-1.4,43.3-3.2
				C304.4,472.9,304.5,472.8,304.6,472.7z"/>
			<path class="st4" d="M137.6,460.2c11.3,3.7,23.6,6.8,36.7,9.3c-0.1-0.1-0.2-0.3-0.3-0.4c-13.1-2.5-25.6-5.6-36.9-9.3
				C137.3,459.9,137.4,460.1,137.6,460.2z"/>
			<path class="st4" d="M380.6,453.5c9.5-4.3,17.5-9,23.7-14c0.2-0.2,0.5-0.4,0.7-0.6c-6.3,5-14.3,9.7-23.8,14
				C381,453.2,380.8,453.3,380.6,453.5z"/>
			<path class="st4" d="M405.1,438.9l0.9-0.8c-0.2,0.2-0.5,0.4-0.7,0.6c-0.2,0.2-0.5,0.4-0.7,0.6L405.1,438.9L405.1,438.9z"/>
			<path class="st4" d="M346.7,465.1c12.7-3.3,23.8-7.1,33.4-11.4c0.2-0.2,0.4-0.3,0.6-0.5c-9.6,4.3-20.8,8.1-33.6,11.4
				C347,464.8,346.8,464.9,346.7,465.1z"/>
			<path class="st4" d="M137,460c-0.2-0.2-0.3-0.3-0.5-0.5c-11.3-3.7-21.5-8.1-30.2-13c0.2,0.2,0.4,0.4,0.6,0.5
				C115.6,452,125.8,456.3,137,460z"/>
			<path class="st4" d="M91.5,436.5l1,0.8c2.4,2,5,3.9,8,5.8c-0.2-0.2-0.4-0.4-0.6-0.5C96.7,440.6,93.9,438.6,91.5,436.5z"/>
			<path class="st4" d="M99.8,442.6c0.2,0.2,0.4,0.4,0.6,0.5c1.9,1.3,3.9,2.5,6,3.7c-0.2-0.2-0.4-0.4-0.6-0.5
				C103.7,445.1,101.7,443.9,99.8,442.6z"/>
			<path class="st4" d="M317.9,484.6c0.2-0.1,0.3-0.1,0.5-0.2c-2.2,0.6-4.5,1.1-6.9,1.6c-7.3,1.6-14.8,2.9-22.5,3.9
				c-0.1,0.1-0.2,0.1-0.3,0.2c7.6-1,15.1-2.3,22.4-3.9C313.4,485.7,315.7,485.2,317.9,484.6z"/>
			<path class="st4" d="M288.5,490c-10.2,1.3-20.6,2-31.1,2.3c0,0,0,0.1-0.1,0.1c10.4-0.2,20.7-1,30.9-2.2
				C288.3,490.1,288.4,490.1,288.5,490z"/>
			<path class="st4" d="M332.1,480.3c-4.1,1.4-8.6,2.8-13.3,4c-0.2,0.1-0.3,0.1-0.5,0.2c4.3-1.1,8.4-2.3,12.2-3.6L332.1,480.3z"/>
			<path class="st4" d="M196.1,487.7c9.3,1.7,19.2,3,29.3,3.8c-0.1,0-0.1-0.1-0.2-0.2c-10.2-0.8-20.1-2.1-29.5-3.8
				C195.8,487.6,195.9,487.7,196.1,487.7z"/>
			<path class="st4" d="M161.8,478.3l1.5,0.6c1.9,0.7,3.8,1.4,5.7,2c-0.2-0.1-0.4-0.2-0.6-0.2C166.2,479.9,163.9,479.1,161.8,478.3z
				"/>
			<path class="st4" d="M256.8,492.4c0,0,0-0.1,0.1-0.1c-10.5,0.2-20.9-0.1-31.1-0.9c0.1,0.1,0.1,0.1,0.2,0.2
				C236,492.4,246.4,492.7,256.8,492.4z"/>
			<path class="st4" d="M195.6,487.6c-0.1-0.1-0.3-0.1-0.4-0.2c-9.4-1.8-18.3-4-26.3-6.6c0.2,0.1,0.4,0.2,0.6,0.2
				C177.5,483.7,186.3,485.9,195.6,487.6z"/>
			<path class="st4" d="M48.4,301.9c0.1-20.4,2.7-40.9,7.4-60.9c0.1-0.3,0.2-0.7,0.2-1c4.8-20,11.6-39.5,20.3-58.2
				c0.1-0.3,0.3-0.6,0.4-1c8.7-18.7,19.2-36.5,31.2-53c0.2-0.3,0.4-0.6,0.6-0.9c12.1-16.5,25.6-31.7,40.3-45.1
				c0.3-0.2,0.5-0.5,0.8-0.7c14.8-13.4,30.7-25.1,47.5-34.6c0.3-0.2,0.6-0.3,0.9-0.5c16.9-9.5,34.6-16.8,52.9-21.6
				c-18.3,4.7-36.1,12-53.1,21.5c-0.3,0.2-0.6,0.3-0.9,0.5c-16.8,9.5-32.8,21.2-47.6,34.5c-0.3,0.2-0.5,0.5-0.8,0.7
				c-14.8,13.4-28.3,28.6-40.4,45.1c-0.2,0.3-0.4,0.6-0.6,0.9c-12,16.5-22.6,34.3-31.3,52.9c-0.2,0.3-0.3,0.6-0.5,1
				c-8.7,18.7-15.6,38.2-20.3,58.2c-0.1,0.3-0.2,0.7-0.2,1c-4.7,20-7.3,40.4-7.4,60.9c0,0.2,0,0.3,0,0.5c0,0.2,0,0.4,0,0.5
				c-0.1,20.4,2.3,39.6,6.8,57.2c0.1,0.3,0.2,0.6,0.2,0.9c4.6,17.6,11.3,33.6,19.8,47.9c0.1,0.2,0.3,0.5,0.4,0.7
				c8.6,14.2,19,26.6,30.9,36.9c0.2,0.2,0.4,0.4,0.6,0.5c6.8,5.8,14.1,11,21.8,15.5l0.9,0.5c-7.9-4.5-15.3-9.8-22.2-15.7
				c-0.2-0.2-0.4-0.4-0.6-0.5c-11.9-10.3-22.2-22.7-30.8-36.9c-0.1-0.2-0.3-0.5-0.4-0.7c-8.5-14.2-15.2-30.3-19.7-47.9
				c-0.1-0.3-0.2-0.6-0.2-0.9c-4.5-17.6-6.8-36.8-6.8-57.2c0-0.2,0-0.4,0-0.5C48.4,302.2,48.4,302,48.4,301.9z"/>
			<path class="st4" d="M171.1,90.3c-0.2,0.3-0.4,0.5-0.6,0.8c-11.6,14.8-22.3,31.2-31.8,48.8c-0.2,0.3-0.3,0.6-0.5,0.9
				c-9.5,17.6-17.8,36.4-24.7,55.8c-0.1,0.3-0.2,0.7-0.4,1c-6.8,19.5-12.3,39.7-16,60.1c-0.1,0.4-0.1,0.7-0.2,1.1
				c-3.7,20.4-5.8,41.1-5.9,61.5c0,0.2,0,0.3,0,0.5c0,0.2,0,0.4,0,0.5c-0.1,20.4,1.8,39.4,5.3,56.6c0.1,0.3,0.1,0.6,0.2,0.9
				c3.6,17.2,8.8,32.6,15.5,46c0.1,0.2,0.2,0.5,0.3,0.7c6.7,13.4,14.9,24.8,24.2,34.1c0.2,0.2,0.3,0.3,0.5,0.5
				c9.4,9.2,19.9,16.1,31.4,20.6c0.2,0.1,0.4,0.2,0.6,0.2c1.2,0.5,2.5,0.9,3.7,1.3l0.6,0.2c-1.3-0.4-2.6-0.9-3.9-1.4
				c-0.2-0.1-0.4-0.2-0.6-0.2c-11.4-4.5-21.9-11.4-31.3-20.6c-0.2-0.2-0.3-0.3-0.5-0.5c-9.3-9.2-17.4-20.6-24.1-34
				c-0.1-0.2-0.2-0.5-0.3-0.7c-6.6-13.5-11.8-28.9-15.4-46c-0.1-0.3-0.1-0.6-0.2-0.9c-3.5-17.2-5.3-36.1-5.2-56.6c0-0.2,0-0.4,0-0.5
				c0-0.2,0-0.3,0-0.5c0.1-20.4,2.2-41.1,5.9-61.5c0.1-0.4,0.1-0.7,0.2-1.1c3.7-20.4,9.1-40.6,16-60.1c0.1-0.3,0.2-0.7,0.4-1
				c6.9-19.5,15.1-38.2,24.5-55.9c0.2-0.3,0.3-0.6,0.5-0.9c9.5-17.6,20.1-34,31.6-48.8c0.2-0.3,0.4-0.5,0.6-0.8
				c11.6-14.8,24.1-27.9,37.2-39c0.2-0.2,0.5-0.4,0.7-0.6c13.2-11.1,27.1-20,41.5-26.5c-14.4,6.4-28.4,15.4-41.7,26.4
				c-0.2,0.2-0.5,0.4-0.7,0.6C195.3,62.4,182.7,75.5,171.1,90.3z"/>
			<path class="st4" d="M197.3,97.8c-7.8,15.8-14.9,33.1-21.3,51.5c-0.1,0.3-0.2,0.6-0.3,0.9c-6.3,18.4-11.9,37.9-16.5,57.9
				c-0.1,0.3-0.2,0.7-0.2,1c-4.6,20.1-8.2,40.7-10.8,61.4c0,0.4-0.1,0.7-0.1,1.1c-2.5,20.7-3.9,41.6-4,62c0,0.2,0,0.3,0,0.5
				c0,0.2,0,0.4,0,0.5c-0.1,20.4,1.1,39.2,3.4,56.1c0,0.3,0.1,0.6,0.1,0.9c2.3,16.8,5.8,31.8,10.2,44.7c0.1,0.2,0.2,0.4,0.2,0.7
				c4.4,12.8,9.8,23.6,16,32c0.1,0.1,0.2,0.3,0.3,0.4c6.2,8.4,13.2,14.4,20.9,18c0.1,0.1,0.3,0.1,0.4,0.2c2.8,1.3,5.8,2.2,8.8,2.8
				l0.5,0.1c-3-0.6-5.9-1.5-8.8-2.8c-0.1-0.1-0.3-0.1-0.4-0.2c-7.6-3.5-14.5-9.6-20.7-17.9c-0.1-0.1-0.2-0.3-0.3-0.4
				c-6.1-8.4-11.5-19.2-15.9-32c-0.1-0.2-0.2-0.4-0.2-0.7c-4.4-12.9-7.8-27.9-10.1-44.7c0-0.3-0.1-0.6-0.1-0.9
				c-2.3-16.9-3.5-35.7-3.4-56.1c0-0.2,0-0.4,0-0.5c0-0.2,0-0.3,0-0.5c0.1-20.5,1.5-41.3,4-62c0-0.4,0.1-0.7,0.1-1.1
				c2.5-20.7,6.1-41.4,10.7-61.4c0.1-0.3,0.2-0.7,0.2-1c4.6-20,10.1-39.5,16.4-57.9c0.1-0.3,0.2-0.6,0.3-0.9
				c6.3-18.4,13.4-35.7,21.1-51.5c0.1-0.3,0.3-0.5,0.4-0.8c7.7-15.7,16-29.9,24.8-42.1c0.2-0.2,0.3-0.4,0.5-0.6
				c8.8-12.2,18-22.3,27.5-30c-9.6,7.6-18.9,17.8-27.8,29.9c-0.2,0.2-0.3,0.4-0.5,0.6c-8.8,12.2-17.2,26.4-25,42.1
				C197.5,97.3,197.4,97.6,197.3,97.8z"/>
			<path class="st4" d="M203.3,341.9c0,0.2,0,0.4,0,0.5c-0.1,20.4,0.4,39.1,1.3,55.8c0,0.3,0,0.6,0.1,0.9c1,16.7,2.4,31.4,4.3,43.9
				c0,0.2,0.1,0.4,0.1,0.7c1.9,12.5,4.2,22.8,6.9,30.8c0,0.1,0.1,0.3,0.1,0.4c2.7,7.9,5.7,13.4,9.1,16.4c0.1,0.1,0.1,0.1,0.2,0.2
				c1.6,1.4,3.4,2.2,5.1,2.4l0.4,0c-1.7-0.1-3.4-0.9-5-2.4c-0.1,0-0.1-0.1-0.2-0.2c-3.3-3-6.2-8.5-8.9-16.4c0-0.1-0.1-0.3-0.1-0.4
				c-2.6-8-4.9-18.3-6.7-30.8c0-0.2-0.1-0.4-0.1-0.7c-1.8-12.6-3.3-27.3-4.2-43.9c0-0.3,0-0.6,0-0.9c-0.9-16.7-1.4-35.4-1.3-55.8
				c0-0.2,0-0.4,0-0.5c0-0.2,0-0.3,0-0.5c0.1-20.5,0.8-41.4,1.9-62.3c0-0.4,0-0.7,0.1-1.1c1.1-20.9,2.8-41.8,4.8-62.2
				c0-0.4,0.1-0.7,0.1-1.1c2-20.4,4.5-40.2,7.2-59.1c0-0.3,0.1-0.6,0.1-1c2.8-18.8,5.9-36.7,9.2-53c0.1-0.3,0.1-0.6,0.2-0.8
				c3.4-16.3,7-31.1,10.8-44c0.1-0.2,0.1-0.4,0.2-0.7c3.8-12.8,7.8-23.6,12-32c-4.2,8.3-8.3,19.2-12.2,32c-0.1,0.2-0.1,0.4-0.2,0.7
				c-3.9,12.8-7.6,27.6-11,43.9c-0.1,0.3-0.1,0.6-0.2,0.8c-3.4,16.3-6.6,34.2-9.4,53c0,0.3-0.1,0.6-0.1,1
				c-2.8,18.9-5.3,38.7-7.4,59.1c0,0.4-0.1,0.7-0.1,1.1c-2.1,20.4-3.7,41.3-4.9,62.2c0,0.4,0,0.7-0.1,1.1
				c-1.2,20.9-1.8,41.8-1.9,62.3C203.3,341.6,203.3,341.8,203.3,341.9z"/>
			<path class="st4" d="M255.2,57.5c1.3,13,2.5,27.9,3.7,44.4c0,0.3,0,0.6,0.1,0.8c1.1,16.5,2.1,34.4,3,53.4c0,0.3,0,0.7,0,1
				c0.9,19,1.6,38.9,2.2,59.4c0,0.4,0,0.7,0,1.1c0.6,20.5,1,41.4,1.3,62.4c0,0.4,0,0.7,0,1.1c0.3,20.9,0.4,41.9,0.3,62.3
				c0,0.2,0,0.3,0,0.5c0,0.2,0,0.4,0,0.5c-0.1,20.4-0.4,39.1-0.9,55.8c0,0.3,0,0.6,0,0.9c-0.5,16.6-1.1,31.3-1.9,43.8
				c0,0.2,0,0.4,0,0.6c-0.8,12.4-1.7,22.7-2.7,30.5c0,0.1,0,0.3-0.1,0.4c-1,7.8-2.2,13.2-3.4,16c0,0,0,0.1-0.1,0.1
				c-0.6,1.4-1.3,2.2-2,2.2l0.4,0c0.7,0,1.4-0.8,2.1-2.2c0,0,0-0.1,0.1-0.1c1.3-2.8,2.5-8.3,3.6-16.1c0-0.1,0-0.3,0.1-0.4
				c1.1-7.9,2.1-18.1,2.9-30.5c0-0.2,0-0.4,0-0.6c0.8-12.5,1.5-27.1,2-43.8c0-0.3,0-0.6,0-0.9c0.5-16.7,0.8-35.3,0.9-55.8
				c0-0.2,0-0.4,0-0.5c0-0.2,0-0.3,0-0.5c0.1-20.5,0-41.4-0.3-62.3c0-0.4,0-0.7,0-1.1c-0.3-20.9-0.8-41.9-1.4-62.3
				c0-0.4,0-0.7,0-1.1c-0.6-20.4-1.5-40.4-2.4-59.4c0-0.3,0-0.7,0-1c-1-18.9-2-36.9-3.2-53.4c0-0.3,0-0.6-0.1-0.8
				c-1.2-16.4-2.5-31.4-3.9-44.4c0-0.2,0-0.4-0.1-0.7c-1.4-13-2.9-23.9-4.5-32.4c1.5,8.5,2.9,19.5,4.2,32.4
				C255.1,57,255.1,57.2,255.2,57.5z"/>
			<path class="st4" d="M271.8,56.3c6.5,12.6,12.7,27.2,18.4,43.3c0.1,0.3,0.2,0.6,0.3,0.8c5.7,16.2,10.9,33.8,15.5,52.5
				c0.1,0.3,0.2,0.6,0.2,1c4.6,18.7,8.6,38.4,11.9,58.7c0.1,0.3,0.1,0.7,0.2,1c3.3,20.3,5.8,41.1,7.5,61.9c0,0.4,0.1,0.7,0.1,1.1
				c1.7,20.8,2.5,41.7,2.5,62.2c0,0.2,0,0.3,0,0.5c0,0.2,0,0.4,0,0.5c-0.1,20.4-1.2,39.1-3.1,55.9c0,0.3-0.1,0.6-0.1,0.9
				c-1.9,16.7-4.7,31.5-8.1,44.2c-0.1,0.2-0.1,0.4-0.2,0.7c-3.5,12.6-7.6,23.1-12.3,31.2c-0.1,0.1-0.2,0.3-0.2,0.4
				c-4.8,8.1-10.1,13.8-15.9,16.9c-0.1,0.1-0.2,0.1-0.3,0.2c-2.5,1.4-5.2,2.2-7.9,2.6l0.5-0.1c2.7-0.4,5.4-1.2,7.9-2.6
				c0.1-0.1,0.2-0.1,0.3-0.2c5.9-3.2,11.3-8.9,16.1-17c0.1-0.1,0.2-0.3,0.2-0.4c4.8-8.1,9-18.6,12.5-31.2c0.1-0.2,0.1-0.4,0.2-0.7
				c3.5-12.7,6.3-27.5,8.2-44.2c0-0.3,0.1-0.6,0.1-0.9c1.9-16.8,3-35.5,3.1-55.9c0-0.2,0-0.4,0-0.5c0-0.2,0-0.3,0-0.5
				c0.1-20.5-0.8-41.3-2.5-62.2c0-0.4-0.1-0.7-0.1-1.1c-1.7-20.8-4.3-41.6-7.6-61.9c-0.1-0.3-0.1-0.7-0.2-1
				c-3.3-20.2-7.4-40-12-58.7c-0.1-0.3-0.2-0.6-0.2-1c-4.7-18.7-9.9-36.3-15.7-52.4c-0.1-0.3-0.2-0.6-0.3-0.8
				c-5.8-16.1-12-30.7-18.6-43.3c-0.1-0.2-0.2-0.4-0.3-0.6c-5.6-10.5-10-17.2-14.2-22.8c5.3,7.2,9.1,14.2,14,22.8
				C271.6,55.8,271.7,56,271.8,56.3z"/>
			<path class="st4" d="M257.6,32.8c-2-2.7-4.1-5.5-6.6-8.4C253.2,27.2,255.3,29.8,257.6,32.8z"/>
			<path class="st4" d="M287.6,53.3C299.1,65,309.9,78.7,319.9,94c0.2,0.3,0.3,0.5,0.5,0.8c10,15.3,19.2,32.3,27.3,50.3
				c0.1,0.3,0.3,0.6,0.4,0.9c8.1,18,15.2,37.2,21,57c0.1,0.3,0.2,0.7,0.3,1c5.8,19.8,10.3,40.2,13.4,60.8c0.1,0.4,0.1,0.7,0.2,1.1
				c3,20.6,4.6,41.3,4.5,61.8c0,0.2,0,0.3,0,0.5c0,0.2,0,0.4,0,0.5c-0.1,20.4-1.9,39.3-5.2,56.3c-0.1,0.3-0.1,0.6-0.2,0.9
				c-3.3,17-8,32.2-14,45.3c-0.1,0.2-0.2,0.5-0.3,0.7c-6,13.1-13.2,24.1-21.5,32.9c-0.1,0.2-0.3,0.3-0.4,0.5
				c-8.3,8.7-17.6,15.2-27.7,19.2c-0.2,0.1-0.3,0.1-0.5,0.2c-2.1,0.8-4.1,1.5-6.3,2.1l0.6-0.2c2.1-0.6,4.1-1.2,6.1-2
				c0.2-0.1,0.4-0.1,0.5-0.2c10.2-4,19.5-10.5,27.8-19.2c0.1-0.2,0.3-0.3,0.4-0.5c8.3-8.8,15.6-19.9,21.6-33
				c0.1-0.2,0.2-0.5,0.3-0.7c6-13.2,10.7-28.3,14.1-45.3c0.1-0.3,0.1-0.6,0.2-0.9c3.3-17.1,5.1-35.9,5.2-56.3c0-0.2,0-0.4,0-0.5
				c0-0.2,0-0.3,0-0.5c0.1-20.5-1.5-41.2-4.6-61.8c-0.1-0.4-0.1-0.7-0.2-1.1c-3.1-20.6-7.7-41-13.5-60.8c-0.1-0.3-0.2-0.7-0.3-1
				c-5.9-19.8-13-38.9-21.1-56.9c-0.1-0.3-0.3-0.6-0.4-0.9c-8.2-18-17.4-34.9-27.5-50.2c-0.2-0.3-0.3-0.5-0.5-0.8
				c-10.1-15.3-21-29-32.5-40.6c-0.2-0.2-0.4-0.4-0.6-0.6c-11.6-11.6-23.8-21.2-36.4-28.3c12.5,7.1,24.6,16.7,36.1,28.3
				C287.2,52.9,287.4,53.1,287.6,53.3z"/>
			<path class="st4" d="M300.5,48.9c15.5,10.3,30.1,22.7,43.7,36.8c0.2,0.2,0.5,0.5,0.7,0.7c13.5,14.2,25.9,30,36.9,47
				c0.2,0.3,0.4,0.6,0.6,0.9c11,17.1,20.5,35.4,28.4,54.4c0.1,0.3,0.3,0.7,0.4,1c7.8,19.1,14,39,18.2,59.2c0.1,0.4,0.1,0.7,0.2,1.1
				c4.1,20.2,6.3,40.8,6.2,61.2c0,0.2,0,0.3,0,0.5c0,0.2,0,0.4,0,0.5c-0.1,20.4-2.5,39.5-6.9,56.9c-0.1,0.3-0.1,0.6-0.2,0.9
				c-4.4,17.4-10.7,33.1-18.8,46.9c-0.1,0.2-0.3,0.5-0.4,0.7c-8.1,13.8-17.8,25.7-28.9,35.4c-0.2,0.2-0.4,0.3-0.6,0.5
				c-9,7.8-18.8,14.2-29.4,19.1l0.7-0.3c10.5-4.9,20.3-11.3,29.2-19c0.2-0.2,0.4-0.3,0.6-0.5c11.1-9.8,20.9-21.7,29-35.5
				c0.1-0.2,0.3-0.5,0.4-0.7c8-13.9,14.4-29.6,18.8-47c0.1-0.3,0.2-0.6,0.2-0.9c4.4-17.4,6.7-36.5,6.9-56.9c0-0.2,0-0.4,0-0.5
				c0-0.2,0-0.3,0-0.5c0.1-20.4-2.1-41-6.3-61.2c-0.1-0.4-0.1-0.7-0.2-1.1c-4.2-20.2-10.4-40.1-18.3-59.1c-0.1-0.3-0.3-0.7-0.4-1
				c-7.9-19.1-17.5-37.3-28.5-54.4c-0.2-0.3-0.4-0.6-0.6-0.9c-11.1-17-23.5-32.8-37.1-46.9c-0.2-0.2-0.5-0.5-0.7-0.7
				c-13.6-14.1-28.3-26.5-43.8-36.8c-0.3-0.2-0.5-0.4-0.8-0.5c-15.6-10.3-32-18.4-49-24c16.9,5.6,33.3,13.8,48.8,24
				C300,48.6,300.3,48.8,300.5,48.9z"/>
			<path class="st4" d="M470.2,292.2c-0.2,20.4-3,39.7-8.1,57.6c-0.1,0.3-0.2,0.6-0.3,0.9c-5.2,17.8-12.7,34.2-22.2,48.9
				c-0.2,0.3-0.3,0.5-0.5,0.8c-9.5,14.6-21,27.6-34.2,38.5c-0.2,0.2-0.5,0.4-0.7,0.6c-0.6,0.5-1.3,1.1-2,1.6l1.2-0.9l1.1-0.9
				c0.2-0.2,0.5-0.4,0.7-0.6c13.2-11,24.7-23.9,34.3-38.6c0.2-0.3,0.3-0.5,0.5-0.8c9.5-14.7,17-31.1,22.2-49
				c0.1-0.3,0.2-0.6,0.3-0.9c5.1-17.9,7.9-37.2,8.1-57.6c0-0.2,0-0.4,0-0.5c0-0.2,0-0.3,0-0.5c0.1-20.4-2.5-40.7-7.5-60.5
				c-0.1-0.3-0.2-0.7-0.3-1c-5-19.7-12.3-38.9-21.7-57.1c-0.2-0.3-0.3-0.6-0.5-0.9c-9.4-18.2-20.8-35.4-33.8-51.3
				c-0.2-0.3-0.4-0.5-0.7-0.8c-13.1-15.8-27.8-30.3-43.9-42.9c-0.3-0.2-0.6-0.4-0.8-0.7c-16.1-12.6-33.5-23.4-51.8-32
				c-0.3-0.1-0.6-0.3-0.9-0.4c-18.5-8.6-37.9-14.9-58-18.7c20,3.8,39.4,10.2,57.8,18.8c0.3,0.1,0.6,0.3,0.9,0.4
				c18.3,8.6,35.7,19.5,51.7,32.1c0.3,0.2,0.6,0.4,0.8,0.7c16,12.7,30.7,27.1,43.8,43c0.2,0.3,0.4,0.5,0.7,0.8
				c13,15.9,24.3,33.1,33.7,51.3c0.2,0.3,0.3,0.6,0.5,0.9c9.3,18.2,16.6,37.4,21.6,57.2c0.1,0.3,0.2,0.7,0.3,1
				c4.9,19.8,7.5,40.1,7.4,60.5c0,0.2,0,0.3,0,0.5C470.2,291.8,470.2,292,470.2,292.2z"/>
			<path class="st4" d="M472,352c-0.2,0.5-0.5,1-0.7,1.5C471.5,353,471.7,352.5,472,352z"/>
			<path class="st4" d="M469.3,357.8c0.7-1.4,1.3-2.8,2-4.2c-1,2.1-1.9,4.2-3,6.2L469.3,357.8z"/>
			<path class="st4" d="M489.7,269.5c-0.2,20.4-3.2,40-8.8,58.4c-0.1,0.3-0.2,0.6-0.3,0.9c-2.4,7.9-5.4,15.7-8.7,23.1
				c3.4-7.6,6.4-15.4,8.9-23.5c0.1-0.3,0.2-0.6,0.3-0.9c5.6-18.4,8.6-38,8.8-58.4c0-0.2,0-0.4,0-0.5c0-0.2,0-0.3,0-0.5
				c0.1-20.4-2.8-40.5-8.1-59.7c-0.1-0.3-0.2-0.7-0.3-1c-5.5-19.2-13.4-37.6-23.6-54.9c-0.2-0.3-0.3-0.6-0.5-0.9
				c-10.2-17.2-22.6-33.3-36.8-47.8c-0.2-0.2-0.5-0.5-0.7-0.7c-14.2-14.5-30.2-27.4-47.7-38.4c-0.3-0.2-0.6-0.4-0.9-0.6
				c-17.5-10.9-36.4-20-56.4-26.7c-0.3-0.1-0.7-0.2-1-0.3c-20.1-6.7-41.2-11-63-12.7c21.8,1.7,42.9,6.1,63,12.8
				c0.3,0.1,0.7,0.2,1,0.3c20,6.8,38.9,15.8,56.3,26.8c0.3,0.2,0.6,0.4,0.9,0.6c17.4,11,33.4,24,47.7,38.5c0.2,0.2,0.5,0.5,0.7,0.7
				c14.2,14.5,26.5,30.6,36.7,47.9c0.2,0.3,0.4,0.6,0.5,0.9c10.1,17.3,18.1,35.7,23.5,54.9c0.1,0.3,0.2,0.7,0.3,1
				c5.4,19.2,8.2,39.3,8.1,59.7c0,0.2,0,0.3,0,0.5C489.7,269.2,489.7,269.3,489.7,269.5z"/>
			<path class="st4" d="M489.6,202.4c0.1,0.4,0.2,0.8,0.2,1.2C489.7,203.2,489.6,202.8,489.6,202.4z"/>
			<path class="st4" d="M314.9,30.9c0.3,0.1,0.7,0.2,1,0.2c20.3,4.8,39.5,11.9,57.3,21.1c0.3,0.2,0.6,0.3,0.9,0.5
				c17.7,9.3,34,20.6,48.4,33.7c0.2,0.2,0.5,0.4,0.7,0.7c14.4,13.1,27,28,37.3,44.2c0.2,0.3,0.4,0.6,0.5,0.8
				c10.3,16.3,18.4,33.9,23.9,52.6c0.1,0.3,0.2,0.6,0.3,1c1.6,5.5,3,11.1,4.1,16.8c-1.2-5.8-2.6-11.5-4.2-17.2
				c-0.1-0.3-0.2-0.6-0.3-1c-5.5-18.7-13.6-36.3-23.9-52.5c-0.2-0.3-0.4-0.6-0.5-0.8c-10.4-16.2-22.9-31-37.3-44.1
				c-0.2-0.2-0.5-0.4-0.7-0.7c-14.4-13-30.7-24.3-48.4-33.6c-0.3-0.2-0.6-0.3-0.9-0.5c-17.8-9.2-37-16.3-57.2-21
				c-0.3-0.1-0.7-0.2-1-0.2c-20.4-4.7-41.8-6.9-64-6.4C279.3,24.1,294.2,26.9,314.9,30.9z"/>
			<path class="st4" d="M490.7,208.4l-0.4-2.5c-0.1-0.8-0.3-1.6-0.5-2.4c0.3,1.7,0.6,3.4,0.9,5L490.7,208.4z"/>
			<path class="st4" d="M428.7,83.6c0.3,0.3,0.6,0.7,0.9,1C429.3,84.3,429,84,428.7,83.6z"/>
			<path class="st4" d="M311.6,24.6c0.3,0,0.7,0.1,1,0.1c19.2,2.8,37.5,8,54.3,15.5c0.3,0.1,0.6,0.3,0.9,0.4
				c16.8,7.5,32.2,17.3,46,28.9c0.2,0.2,0.5,0.4,0.7,0.6c5,4.3,9.7,8.8,14.2,13.6c-4.6-4.9-9.4-9.5-14.5-13.8
				c-0.2-0.2-0.5-0.4-0.7-0.6c-13.7-11.6-29.1-21.3-45.9-28.8c-0.3-0.1-0.6-0.3-0.9-0.4c-16.8-7.4-35-12.7-54.2-15.4
				c-0.3,0-0.7-0.1-1-0.1c-19.3-2.7-39.6-2.8-60.6-0.1C277.8,21.3,292,22.7,311.6,24.6z"/>
			<path class="st4" d="M432.2,87.5c-0.8-0.9-1.7-1.9-2.6-2.8c1.2,1.3,2.5,2.7,3.7,4.1L432.2,87.5z"/>
			<path class="st4" d="M370.2,37.4c-1-0.6-2.1-1.1-3.1-1.7c1.3,0.7,2.7,1.5,4,2.2L370.2,37.4z"/>
			<path class="st4" d="M366.6,35.4c0.2,0.1,0.3,0.2,0.5,0.3C366.9,35.6,366.7,35.5,366.6,35.4z"/>
			<path class="st4" d="M303.9,18.6c0.3,0,0.6,0,0.9,0c16.8,0.9,32.7,4.3,47.4,10.1c0.3,0.1,0.5,0.2,0.8,0.3c4.7,1.9,9.3,4,13.7,6.4
				c-4.5-2.4-9.2-4.6-14-6.5c-0.3-0.1-0.5-0.2-0.8-0.3c-14.6-5.8-30.5-9.2-47.2-10c-0.3,0-0.6,0-0.9,0c-16.8-0.7-34.5,1.1-52.8,5.9
				C269.2,19.6,287,17.8,303.9,18.6z"/>
			<path class="st4" d="M293.2,13.6c11.7-0.6,22.9,0.9,33.4,4.4l-0.6-0.2c-10.4-3.4-21.4-4.9-33-4.3c-0.2,0-0.5,0-0.7,0
				c-13.2,0.8-27,4.3-41.4,10.8c14.4-6.4,28.3-9.9,41.6-10.7C292.7,13.7,292.9,13.6,293.2,13.6z"/>
			<path class="st4" d="M279,10.1c5.5-1.1,10.8-1.2,15.9-0.2l-0.5-0.1c-5-0.9-10.3-0.9-15.7,0.3c-0.1,0-0.3,0.1-0.4,0.1
				c-8.7,1.9-17.9,6.6-27.4,14.3c9.6-7.6,18.9-12.3,27.7-14.2C278.7,10.1,278.9,10.1,279,10.1z"/>
			<path class="st4" d="M263,8.1c0.1,0,0.1-0.1,0.2-0.1c1.9-1.2,3.8-1.8,5.6-1.6l-0.4,0c-1.8-0.1-3.6,0.4-5.5,1.6
				c-0.1,0-0.1,0.1-0.2,0.1c-3.8,2.6-7.7,7.9-11.8,16.3C255.1,16,259.2,10.7,263,8.1z"/>
			<path class="st4" d="M246.2,7.5c0,0,0.1,0.1,0.1,0.1c1.5,2.7,3,8.2,4.6,16.7c-1.5-8.5-2.9-14-4.3-16.7c0,0,0-0.1-0.1-0.1
				c-0.7-1.3-1.3-1.9-2-1.9l-0.4,0C244.8,5.6,245.5,6.3,246.2,7.5z"/>
			<path class="st4" d="M229.6,8.7c0.1,0,0.2,0.1,0.3,0.1c6.7,2.3,13.8,7.4,21,15.5c-7.2-8.1-14.1-13.2-20.7-15.5
				c-0.1,0-0.2-0.1-0.3-0.1c-3.7-1.3-7.3-1.6-10.8-1.2l-0.5,0.1C222.1,7.1,225.8,7.5,229.6,8.7z"/>
			<path class="st4" d="M213.8,11.7c0.2,0,0.4,0,0.6,0.1c11.6,1.4,23.9,5.5,36.5,12.6c-12.5-7.1-24.7-11.2-36.3-12.6
				c-0.2,0-0.4,0-0.6-0.1c-8.8-0.6-11.8-0.7-17.6,0.3C201.6,11.2,205.6,11.4,213.8,11.7z"/>
			<path class="st4" d="M196.5,12c-2.3,0.3-4.8,0.8-8,1.5C191.8,12.8,194.4,12.3,196.5,12z"/>
			<path class="st4" d="M186.8,13.8c0.6-0.1,1.1-0.3,1.7-0.4c-0.3,0.1-0.6,0.1-1,0.2L186.8,13.8z"/>
			<path class="st4" d="M151.5,26.2c-0.8,0.3-1.6,0.7-2.3,1.1C149.9,26.9,150.7,26.6,151.5,26.2z"/>
			<path class="st4" d="M146.6,28.5c0.8-0.4,1.7-0.8,2.5-1.1c-0.6,0.3-1.2,0.5-1.8,0.8L146.6,28.5z"/>
			<path class="st4" d="M201.2,16c-15.5,0.1-30.3,2.8-43.9,7.9c-0.2,0.1-0.5,0.2-0.7,0.3c-1.7,0.7-3.4,1.3-5.1,2.1
				c1.6-0.7,3.1-1.3,4.7-1.9c0.2-0.1,0.5-0.2,0.7-0.3c13.7-5.1,28.5-7.8,44.1-7.9c0.3,0,0.5,0,0.8,0c15.7,0,32.1,2.7,49.1,8.2
				C234,18.8,217.6,16.1,202,16C201.7,16,201.4,16,201.2,16z"/>
			<path class="st4" d="M95.8,60.2c1.4-1.1,2.8-2.2,4.2-3.3c-1.1,0.8-2.2,1.7-3.3,2.5L95.8,60.2z"/>
			<path class="st4" d="M100.8,56.3c-0.3,0.2-0.6,0.4-0.8,0.7C100.3,56.7,100.5,56.5,100.8,56.3z"/>
			<path class="st4" d="M192,21.4c-18.4,1.7-35.8,6-52,12.6c-0.3,0.1-0.6,0.2-0.8,0.3c-13.8,5.7-26.7,13.1-38.4,21.9
				c11.6-8.8,24.4-16.1,38.1-21.7c0.3-0.1,0.6-0.2,0.8-0.3c16.2-6.6,33.7-10.9,52.1-12.7c0.3,0,0.6-0.1,1-0.1
				c23.8-2,39.7,0.3,58.1,2.9c-20-3.8-39.5-4.7-57.9-3C192.7,21.4,192.3,21.4,192,21.4z"/>
			<path class="st4" d="M30,142.8c0.8-1.6,1.6-3.2,2.4-4.7c-0.5,0.9-0.9,1.8-1.4,2.7L30,142.8z"/>
			<path class="st4" d="M33.1,136.8c-0.2,0.4-0.5,0.9-0.7,1.3C32.6,137.6,32.8,137.2,33.1,136.8z"/>
			<path class="st4" d="M186.8,27.5c-20,3.6-39,9.7-56.6,17.9c-0.3,0.1-0.6,0.3-0.9,0.4c-17.5,8.3-33.7,18.7-48,31
				c-0.2,0.2-0.5,0.4-0.7,0.6c-14.3,12.3-26.8,26.4-37.2,42.1c-0.2,0.3-0.4,0.5-0.5,0.8c-3.5,5.3-6.7,10.8-9.7,16.5
				c2.9-5.5,6.1-10.9,9.6-16.1c0.2-0.3,0.4-0.5,0.5-0.8C53.6,104.2,66.1,90,80.4,77.7c0.2-0.2,0.5-0.4,0.7-0.6
				c14.4-12.3,30.5-22.7,48.1-31c0.3-0.1,0.6-0.3,0.9-0.4c17.6-8.2,36.6-14.4,56.6-18c0.3-0.1,0.7-0.1,1-0.2
				c25.9-4.5,43.2-3.8,63.1-3c-21.8-1.7-43-0.6-63.1,2.9C187.5,27.3,187.2,27.4,186.8,27.5z"/>
			<path class="st4" d="M6.8,277.3c0.1,1.3,0.3,2.6,0.4,3.9C7.1,279.9,6.9,278.6,6.8,277.3z"/>
			<path class="st4" d="M7.2,281.2c0.1,1.1,0.3,2.2,0.4,3.2C7.5,283.4,7.4,282.3,7.2,281.2z"/>
			<path class="st4" d="M186.8,33.6c-0.4,0.1-0.7,0.2-1.1,0.3c-20.3,5.6-39.6,13.6-57.5,23.6c-0.3,0.2-0.6,0.3-0.9,0.5
				C109.5,68,93.1,80,78.5,93.7c-0.3,0.2-0.5,0.5-0.8,0.7c-14.5,13.7-27.3,29.1-37.8,45.7c-0.2,0.3-0.4,0.6-0.5,0.9
				c-10.5,16.7-18.8,34.7-24.5,53.6c-0.1,0.3-0.2,0.7-0.3,1c-5.6,18.9-8.7,38.8-8.9,59.2c0,0.2,0,0.3,0,0.5c0,0.2,0,0.4,0,0.5
				c0,7.3,0.4,14.4,1.1,21.5c-0.7-6.9-1-14-1-21.1c0-0.2,0-0.4,0-0.5c0-0.2,0-0.3,0-0.5c0.2-20.4,3.2-40.3,8.9-59.2
				c0.1-0.3,0.2-0.7,0.3-1c5.7-18.9,14-36.9,24.5-53.6c0.2-0.3,0.4-0.6,0.5-0.9c10.5-16.7,23.3-32.1,37.8-45.8
				c0.2-0.2,0.5-0.5,0.8-0.7c14.6-13.7,31-25.8,48.8-35.8c0.3-0.2,0.6-0.3,0.9-0.5c17.9-10,37.1-18,57.5-23.7
				c0.3-0.1,0.7-0.2,1.1-0.3h0c26.3-7,43.8-8.1,64.1-9.3C228.7,24.8,207.3,28,186.8,33.6z"/>
			<path class="st4" d="M7.6,284.4c0.3,2.2,0.6,4.5,1,6.7C8.3,288.9,7.9,286.7,7.6,284.4z"/>
			<path class="st4" d="M9.2,294.6c-0.2-1.1-0.4-2.3-0.6-3.4c0,0.3,0.1,0.5,0.1,0.8L9.2,294.6z"/>
			<path class="st4" d="M62.5,407.4c0.2,0.2,0.3,0.4,0.5,0.6C62.8,407.8,62.7,407.6,62.5,407.4z"/>
			<path class="st4" d="M67.2,412.9c-1.4-1.6-2.8-3.3-4.2-4.9c1,1.2,2,2.4,3,3.6L67.2,412.9z"/>
			<path class="st4" d="M18.6,279.2c0.2-20.4,3.1-40.6,8.4-60.1c0.1-0.3,0.2-0.7,0.3-1c5.4-19.5,13.3-38.3,23.2-56
				c0.2-0.3,0.3-0.6,0.5-0.9c10-17.7,22.1-34.3,35.8-49.5c0.2-0.3,0.5-0.5,0.7-0.8c13.8-15.1,29.4-28.8,46.2-40.6
				c0.3-0.2,0.6-0.4,0.9-0.6c16.9-11.8,35.2-21.6,54.5-29.3c0.3-0.1,0.7-0.3,1-0.4c24.9-9.6,41.5-12.4,60.7-15.6
				c-21,2.7-41.4,8-60.8,15.5c-0.3,0.1-0.7,0.3-1,0.4c-19.3,7.6-37.6,17.5-54.5,29.2c-0.3,0.2-0.6,0.4-0.9,0.6
				c-16.9,11.8-32.5,25.4-46.3,40.5c-0.2,0.3-0.5,0.5-0.7,0.8c-13.8,15.2-25.9,31.8-35.9,49.4c-0.2,0.3-0.3,0.6-0.5,0.9
				c-9.9,17.7-17.8,36.5-23.3,56c-0.1,0.3-0.2,0.7-0.3,1c-5.4,19.5-8.3,39.6-8.5,60.1c0,0.2,0,0.3,0,0.5c0,0.2,0,0.4,0,0.5
				c-0.1,20.4,2.7,39.9,7.8,58c0.1,0.3,0.2,0.6,0.3,0.9c5.2,18.1,12.9,34.9,22.7,50.2c0.2,0.3,0.3,0.5,0.5,0.8
				c4,6.1,8.3,12,12.9,17.6c-4.5-5.5-8.7-11.2-12.6-17.2c-0.2-0.3-0.3-0.5-0.5-0.8c-9.8-15.2-17.4-32-22.7-50.1
				c-0.1-0.3-0.2-0.6-0.3-0.9c-5.2-18.1-7.9-37.6-7.8-58c0-0.2,0-0.4,0-0.5C18.6,279.6,18.6,279.4,18.6,279.2z"/>
		</g>
		<g class="st3">
			<path class="st2" d="M26,344l0.8,2.1L28,348l0.4-0.1c-0.2-0.6-0.4-1.1-0.6-1.7l-1.1-2.1L26,344z"/>
			<polygon class="st2" points="27.1,344.5 28.2,344.5 27.7,342.2 25.9,341.6 			"/>
			<polygon class="st2" points="362.5,466.2 361.8,466.7 363.7,465.8 366.6,464.2 			"/>
			<polygon class="st2" points="363.8,466 363.8,466 363.8,466 			"/>
			<polygon class="st2" points="367.9,463.7 367.2,464 363.8,465.9 363.8,466 368.1,463.7 			"/>
			<path class="st2" d="M443.1,101l5.2,7l2.3,3.6l5.5,8.6l2.6,3.9l4.7,8.6l1.3,3.1l0.6,1.3l0.5,0.9l0,0c-0.6-2.2-1.3-4.4-2.4-6.6
				c-0.6-1.1-1.2-2.1-1.9-3.2l-2.4-4.3c-0.2-0.3-0.3-0.6-0.5-1l-1.2-1.9c-0.3-0.5-0.6-1-0.9-1.5l-1.7-2.7l-0.2-0.4h0
				c-3.5-5.3-8.6-12.1-12.4-17.2l-0.7-0.9l1.9,2.7l-1.1-1.2L443.1,101z"/>
			<path class="st2" d="M468.6,144l2.8,5.6l1.6,4.1l2.6,6.4l0.1,0.6l1.5,3.6l0.4,0.9c-0.2-2-0.5-4-1.1-6l-2.2-4.9l-1-2.4l-0.6-1.7
				c-1.4-2.9-2.8-5.8-4.3-8.6l0,0c-0.5-1.6-1.1-3.2-1.9-4.8c-1-1.8-1.9-3.6-3-5.3c1,2.2,1.8,4.4,2.4,6.6l1.4,2.7L468.6,144z"/>
			<g>
				<path class="st2" d="M458.6,123l-1.2-1.9c-0.3-0.5-0.6-1-0.9-1.5l-1.7-2.7l-0.2-0.4l5.1,8.4l-0.5-1
					C459,123.7,458.8,123.4,458.6,123z"/>
				<path class="st2" d="M464.1,132.6l0.7,1l-2.2-4l-2.8-4.6l1.9,3.3C462.4,129.7,463.3,131.2,464.1,132.6z"/>
				<polygon class="st2" points="440.9,97.7 441.5,98.4 442.2,99.3 				"/>
			</g>
			<polygon class="st2" points="483.9,179.7 483.3,177.8 483.4,178 484.4,181.2 			"/>
			<path class="st2" d="M464.1,132.6c0.5,1,1.1,1.9,1.6,2.9c-0.3-0.6-0.6-1.3-0.9-1.9L464.1,132.6z"/>
			<path class="st2" d="M467,138.1c0.5,1.2,0.9,2.3,1.3,3.5c1.5,2.8,3,5.7,4.3,8.6l0.6,1.7l1,2.4l2.2,4.9c0.5,2,0.9,4,1.1,6l0.5,1.3
				l0.7,0.7l3.2,8.4l1.9,5.9l-0.8-4l0.5,1.1l-0.2-0.7l-3.4-10.4C476.7,158.6,471.5,147.5,467,138.1z"/>
			<path class="st2" d="M465.7,135.5c0.4,0.9,0.8,1.7,1.3,2.6c-0.2-0.4-0.4-0.9-0.6-1.3C466.2,136.4,465.9,136,465.7,135.5z"/>
			<path class="st2" d="M486.2,187.9l-0.4-1.6l-0.1,0.1l0.5,2c0.1,0.5,0.2,1.1,0.2,1.6l0.5,2.2l0.3,1c0-0.4-0.1-0.9-0.2-1.3
				l-0.5-2.5l0.1,0.3L486.2,187.9z"/>
			<path class="st2" d="M483.8,181.6l0.2,0.7l1.2,4.2l0.4,1.7l0.8,1.8c-0.1-0.5-0.1-1.1-0.2-1.6l-0.5-2l0.1-0.1l-1.4-5.1l-0.5-1.4
				l-0.6-2l0.2,0.9l-0.5-1.1L483.8,181.6z"/>
			<polygon class="st2" points="486.2,187.9 485.8,186.3 485.7,186.3 486.4,188.9 			"/>
			<path class="st2" d="M486.5,189.3l0.5,2.5c0.1,0.4,0.1,0.9,0.2,1.3l0.6,2.2l0.6,2.2l0.1,0.2l-0.6-3.2c-0.1-0.9-0.3-1.7-0.5-2.6
				c0-0.1,0-0.1,0-0.2l-0.8-2.9l0.2,0.8L486.5,189.3z"/>
			<path class="st2" d="M489,199.6l0,0.2l-0.6-2.7c-0.1-0.3-0.1-0.5-0.2-0.8l-0.4-1.6l-0.1-0.6l0,0l0,0l-0.5-2.2
				c0.2,0.9,0.4,1.7,0.5,2.6l0.6,3.2l0.2,0.5l-0.3-1.9l0.6,2.7L489,199.6z"/>
			<g>
				<polygon class="st2" points="489.2,200.6 489.2,200.5 489.2,200.6 				"/>
				<path class="st2" d="M489.2,200.5l-0.9-4.3c0.1,0.3,0.1,0.5,0.2,0.8l0.6,2.7L489.2,200.5z"/>
				<path class="st2" d="M487.8,194.1l-0.5-2.2c0-0.1,0-0.1,0-0.2l0.7,2.9L487.8,194.1L487.8,194.1z"/>
			</g>
			<polygon class="st5" points="83.6,232.4 83.7,236.8 87.4,234.6 86.6,231.8 85.5,230.2 			"/>
			<path class="st2" d="M281.5,16.6l0.8,0.2l-0.3,0.2l0.9,0.1l0.1,0.6l1.4-0.1c0.3,0.1,0.6,0.3,0.9,0.4l0.1-0.5l-0.9-0.3l1.2-0.1
				c-0.4-0.2-0.7-0.3-1.1-0.5l0.6-0.1l-0.2-0.3h0l-3.6-0.4l0.7,0.5L281.5,16.6z"/>
			<polygon class="st2" points="286.3,18.3 289.2,18.1 287.9,18.5 287.5,18.7 289.6,18.8 288.7,19 288,19 288.2,19.3 289.4,19.5 
				290.1,19.7 292.8,19.3 292.6,19 293.5,18.9 290.4,18.4 292.1,18.3 294.4,18.8 294.9,18.7 294.9,18.5 296,18.6 296.8,18.3 
				295.9,18.1 296.8,18 297.2,17.7 291.6,17.4 290.9,17.2 289.7,17.3 288.8,17 289.1,16.8 288,16.5 287.3,16.8 287.1,17.2 
				287.5,17.5 286.3,17.7 			"/>
			<polygon class="st2" points="290,16.6 290.6,16.5 291.9,16.6 290.6,16.1 291.9,16 288.5,15.5 289.2,16.1 288.4,16.2 			"/>
			<polygon class="st2" points="355.5,43.5 355,42.8 353.7,42.5 352.9,42 350.6,41.7 349.3,41.3 348.9,41.9 350,43 351.1,43.7 
				350.1,44.3 352.4,45.5 350.6,45.2 352.6,46.2 353.1,46.9 350.7,46 349.1,46.6 352.8,49.2 353.3,48.7 352.6,47.9 352.7,47.3 
				354,48 355.2,50.1 356.4,49.8 356.3,48.7 357.6,49.2 358.3,50.5 359.6,51.1 359.3,50 361.2,48.9 359.1,46.7 358.6,45.6 
				356.4,44.4 357.1,44.2 			"/>
			<path class="st2" d="M375.3,46.4l-0.3,0.1l4,2.4l1.2,0.5l1.8,1.4l0.8,0.2l-1.3-1.2l3.8,2.6l0.6,0l-1.1-1.1l3.2,2.2l-0.2-0.5
				l-0.9-0.6l-1.4-1.3l2.5,1.6l0.5,0.2l-0.5-0.6l2.4,1.6l1.1,0.5c0.3,0.4,0.5,0.7,0.8,1.1l-0.3,0.1l2.5,1.8l-0.4-0.6l1.4,0.9l2.1,2
				l0-0.8l-1.7-1.8l2.8,2.2l1,1.3l4.2,3.7l-2.2-2.2l0.1-0.3l-1.1-0.9l-0.4-0.7l-1.9-1.8l-1-1.4l-2.9-2.4l0.6,0.8l-2.1-1.7l-3.3-2.3
				l-0.5-0.1l0.8,0.8l0.7,0.7c-0.7-0.4-1.4-0.9-2.1-1.3l-0.7-0.4l-2.2-1l0.3,0.5l-3-1.5l-1-0.2L383,50l-2.7-2.1l-4-2.4l0.6,1.1
				l1.3,1.2l-4.4-2.9L375.3,46.4z"/>
			<polygon class="st2" points="375.3,47.4 374.3,47 375.6,48.1 377.5,48.9 			"/>
			<polygon class="st2" points="377.8,48.8 380.2,50.6 380.5,50.2 			"/>
			<path class="st2" d="M364.8,42.9l0.3-0.2l-3.5-1.7c0.4,0.5,0.8,0.9,1.2,1.4l0.9,0.1L364.8,42.9z"/>
			<polygon class="st2" points="364.8,39.5 363.8,39.1 366.8,41 368.3,41.3 			"/>
			<path class="st2" d="M372.6,44l-2.4-1.3l1,1.1l1.9,1C372.9,44.5,372.8,44.3,372.6,44z"/>
			<polygon class="st2" points="389.1,54.4 386.8,53.6 387.9,54.6 387.4,54.4 391.4,57.3 392,57.4 390.4,56.1 391.4,56.3 			"/>
			<polygon class="st2" points="387.4,54.4 388.3,55.2 387.5,54.8 389.9,57 390.3,56.8 391.9,58.1 392.1,59.2 393.3,59.7 394.8,61 
				395.2,60.5 399.6,64.5 400.4,64.5 401.8,65.5 400.8,63.9 398.6,61.8 397.7,60.4 394.9,58.3 391.4,56.3 390.4,56.1 392,57.4 
				391.4,57.3 			"/>
			<path class="st2" d="M402.6,341.2l-1.1,1.3l-6.4,4.6l-1.4,5.3l-3.3,4.2l0.2,3.8l2.6,1.8l-0.4,1.7l2.2-0.1l1,1.4
				c0.8-0.2,1.6-0.5,2.4-0.7l2.6-2.5c-0.2,1.6-0.4,3.2-0.7,4.8l1.6,0.8l1.9-1.6l3.3-0.1l6.2-6.4l4.1-2.9l1.1,0.6l-1.5,3.3l-0.2,4.2
				l5.6-0.1l2.4,2.3l3.2-1.8l1.3,1.2L428,370l0.6,1.3c-0.3,1.1-0.6,2.1-0.8,3.1c1.4-0.6,2.9-1.3,4.3-2c-0.3,1.1-0.6,2.1-0.9,3.1
				l1.3,0.7l-1,4l0,0c0,0,0,0,0,0l-0.3,0.5l-2.6,4.1l0,2.2l-2.1,4l5-1.8l-1.2,4.4l1.9-1.6l0.9,0.2l-3.7,6l2.2-1.7l0.1,0l-2.4,5
				l-8.1,7.4l-5.1,5.4l0.4,0.6l1.8-1.7l-0.1,1.8c0.5-0.3,1-0.5,1.5-0.8l0.9,1.5l-0.6,1.6l-2.3,2.8l1-0.3l4.7-5.2l4.1-4.7l-0.1,0.8
				l6.4-7.9l2.9-3.2l2.8-4.4l1.7-3.5l2.7-3.6l4.5-5.5l1.4-1.1l0.6-0.9l1.6-1.7l1-1.5l4-3.9l1.3-2.2l1.7-2.3c0.4-0.8,0.7-1.7,1.1-2.5
				l3.3-5.8l2.6-6l1.4-2.7l2.3-5.9l2.9-10l1.4-2.8l2.8-7.8l0.5-1.6l1.1-2.4l1.3-3.8l0.1-1.1l0.9-1.8l2-8.9l0.2-6.3l-0.3-0.4
				l-1.2,1.6l-1.3-1.7l-0.4-1.8l-1.9-1.2l-1.9,2.5l-0.8-0.3l-1.2,1.2l-1.3-0.6l-0.6,0.3l-0.9,3l-1.4,2.3l1.2-5l-0.4-1.4l-1.8,0
				l-0.5-0.6l-0.5,0.7l-0.4-0.7l-0.6,0.6l-0.3-0.8l-1.7,1l-2.2,6.5l-0.5-2.3l1-2.8l0.2-2.2l-2.1,0.3l-1.2-1.4l0.4-4.9l-1.8-0.4
				l-0.7-4.3l-0.3-3.2l-1.1-1.5l-1.3,5.9l-0.9,5l-0.8,0.7l-0.4-1.2l-1.1,0.5l-0.6,1.9l-1.4,0.5l-1.2-1.7l-2.1,2.9l0.5,2.1l-2.1,1.2
				l0,0l-2.5,1.3l-0.7,1.5l-1.1-0.3l-0.7,1.9l-1.6,1.5l-1.8-1.9c0-1.1-0.1-2.3-0.1-3.4l-1.1-1.5l1.7-5l-2.2-4.4l-2.3,1.3l-0.5,3.1
				c-0.4,0.2-0.7,0.3-1.1,0.5l-1.2,2.6l-1.6-0.4l-1,2.5l-3.4-1.6l-2.2,0.9l2.5,6l2,1.2l-4.7,6l-0.8,2.4l-3.5,1.3l-1.2-1.9l-2.3,1.9
				l-0.7-3.8c-0.7,0.2-1.4,0.5-2.1,0.7c0,0.5,0,1.1,0,1.6c-1.7,0.6-3.4,1.1-5.2,1.7c0,0.7,0,1.4,0,2.1l2.6,1.6l-2.9,1.3
				c0,0.6,0,1.2,0,1.8l2.3,3.8l0.1,0.2l-2.8,14.4L402.6,341.2z"/>
			<polygon class="st2" points="451.7,295.1 452.3,293.2 453.4,292.7 453.8,293.9 454.6,293.3 455.5,288.2 456.8,282.3 455.8,282.5 
				453.3,279.8 450.6,279.6 449.5,283.3 449.9,287.6 451.3,289 450.3,295.6 			"/>
			<path class="st2" d="M440.8,292.4l2.5,1.9l0.3,2.4l1.2,0.8l0.5,2.5l2.1-1.2l-0.5-2.1l2.1-2.9l1.2,1.7l1-6.6l-1.4-1.5l-0.4-4.2
				l1.1-3.8l-0.4,0l-3.8,1.5l-1.1,2.1l-2.7,0.1l0.3,3.7c-0.5,0.2-0.9,0.4-1.4,0.7L440.8,292.4z"/>
			<path class="st2" d="M431.3,287.5l1.7,3.6l2.3-1.3l2.2,4.4l-1.7,5l1.1,1.5c0,1.1,0.1,2.3,0.1,3.4l1.8,1.9l1.6-1.5l0.7-1.9
				l1.1,0.3l0.7-1.5l2.5-1.3l0,0l-0.5-2.5l-1.2-0.8l-0.3-2.4l-2.5-1.9l0.7-4.8c0.5-0.2,0.9-0.4,1.4-0.7l-0.3-3.7l-3.3-2.1l-0.4-2.3
				l-4.1-2.6l-1.7,3.4l0.8,2.6l-2.3,1.9L431.3,287.5z"/>
			<path class="st2" d="M397,279.3l-0.9-1l-2.6,3.6l-1.9,6.6l2.5,0.1l2,2.9l-0.2,3l2.4,0.7c1.9-0.6,3.8-1.1,5.6-1.7l2.7,3.3l6.1-3.6
				l1,2.3l-1.6,3.3l1.3,5.7l1.4,1.7l-1.6,1.9l1.9,1.7l1.1,4.2l1.2,1.9l3.5-1.3l0.8-2.4l4.7-6l-2-1.2l-2.5-6l2.2-0.9l3.4,1.6l1-2.5
				l1.6,0.4l1.2-2.6c0.4-0.2,0.7-0.3,1.1-0.5l0.5-3.1l-1.7-3.6l0.3-3.3l2.3-1.9l-0.8-2.6l1.7-3.4l-0.5-0.3c0,0,0,0,0,0l-1.8,0.7
				l-1-3.3l-1.6-0.3l-3.1,0.8l-1.7-1.5l2.1-1.3l0.2-2.6l-5.6,3.1l-0.7,0.7l-0.6,1.9l-2.5,1.8l-3-1.1l-5.8,2.4l-1.7-2.9l-3.6,0.4
				l-2.5,1.8l-2.7,1.6l-0.2,2.6l1.5,3l-0.1,2.3l-1.8,1.6l-2.5-3l1.2-3.8L397,279.3z"/>
			<polygon class="st5" points="430.6,267.2 429.2,268.1 429,270.6 429.3,271.2 431.2,269.6 			"/>
			<g>
				<path class="st2" d="M375.3,321l-0.6,2.7l-1.9,0.6l-0.4,1.9l0,0l5.6,1.2l0.5,1.8l3.5,0.2l1.4-2l2.2,0.9l0.7,0.3l3.9-0.3l0.9,2.5
					l2.4,0.6l1.4,4.1l2.8-0.3l1.4-1.8l0,0l0,0l1.4,1l1.2-1.9l2.7,1.4l-1.8,4.3l3.2,0.5l2.2-11.7l-0.1-0.2l-2.3-3.8
					c0-0.6,0-1.2,0-1.8l2.9-1.3l-2.6-1.6c0-0.7,0-1.4,0-2.1c1.8-0.5,3.5-1.1,5.2-1.7c0-0.5,0-1.1,0-1.6c0.7-0.2,1.4-0.5,2.1-0.7
					l0.7,3.8l2.3-1.9l-1.1-4.2l-1.9-1.7l1.6-1.9l-1.4-1.7l-1.3-5.7l1.6-3.3l-1-2.3l-6.1,3.6l-2.7-3.3c-1.8,0.6-3.7,1.1-5.6,1.7
					l-2.4-0.7l0.2-3l-2-2.9l-2.5-0.1l1.9-6.6l2.6-3.6l1.8-2.5l0.5-1.9l-1.9-0.7l-4.8,6.2l-3.1,0.7l-0.7,1.8l-1.7-0.3l-2.5,4.7
					l-0.1,3.1l-3.1,3.9l-0.4,3l-0.3,1.7l-2.5,4l1.3,1.3l-0.4,4.1l0.7,6.3l1.5,0.1l-2.6,6.3L375.3,321z"/>
			</g>
			<path class="st2" d="M367.1,351.2l3.3-0.3l1.4,1l2.1-1.9l1.9-6.3l5.7-2.7l4.1-5.4c0-0.9,0-1.8,0.1-2.8l1.7-1.1l-1.7-3.5l0,0
				l-2.2-0.9l-1.4,2l0,0l-3.5-0.2l-0.5-1.8l-5.6-1.2l0,0l-0.1,0.5l-3.4,2.6c0,1,0,2.1,0,3.1c0,0.1,0,0.1,0,0.2l-1.7,1.6l-0.2,1.6
				l-1.4,1.6c0,1.8-0.1,3.6-0.1,5.4l3,1.6l-0.9,2.3L367.1,351.2z"/>
			<path class="st2" d="M367.5,346.7l-3.8,4.5l0.1,3.6l1.7,0.9l-1.8,2.2l4.5,2.1l4.1,6l2.1,9.3l5.2,5.3l-0.8,3.4l3.1,3.2l8.7,2.1
				l5.1,3.3l0,0l2.3-1.2l1.4-4l2.8-3.1l-1-1.1l0.8-4.1l2.2-1.8l-0.5-3.9l2.4-2.7l-2.4-4.5l-1.9,1.6l-1.6-0.8
				c0.2-1.6,0.5-3.2,0.7-4.8l-2.6,2.5c-0.8,0.2-1.6,0.5-2.4,0.7l-1-1.4l-2.2,0.1l0.4-1.7l-2.6-1.8l-0.2-3.8l3.3-4.2l1.4-5.3l6.4-4.6
				l1.1-1.3l2.7,0.1l0.6-2.7l-3.2-0.5l1.8-4.3l-2.7-1.4l-1.2,1.9l-1.4-1l0,0l-1.4,1.8l-2.8,0.3l-1.4-4.1l-2.4-0.6l-0.9-2.5l-3.9,0.3
				l-0.7-0.3l0,0l1.7,3.5l-1.7,1.1c0,0.9,0,1.8-0.1,2.8l-4.1,5.4l-5.7,2.7l-1.9,6.3l-2.1,1.9l-1.4-1l-3.3,0.3L367.5,346.7
				L367.5,346.7z"/>
			<polygon class="st2" points="415,396.1 416.9,400.2 419.5,398.8 423.2,400.6 418.2,407.1 422.4,405.4 427.7,400.8 429.4,398.2 
				433.1,392.2 432.2,392 430.2,393.6 431.5,389.2 426.4,391 428.5,387 428.5,384.8 429.1,384 427.5,382.9 425.1,383.8 420,387 
				417.1,391 417.3,392.6 417.3,392.6 417.3,392.6 415.4,395.5 			"/>
			<path class="st2" d="M416.3,414.9l-0.4-0.6l-2.2,2.5l-2.7,3.9l-2,2l-0.4,1.3l-2.1,2.1l-0.5,1.7l2.4-1.1l1.2,0.3l4.4-2.9v0
				l4.5-4.3l-1,0.3l2.3-2.8l0.6-1.6l-0.9-1.5c-0.5,0.3-1,0.5-1.5,0.8l0.1-1.8L416.3,414.9z"/>
			<path class="st2" d="M335.4,476.1l0.6,0.1l2.8-0.9l-1.4,0.7l1.9-0.5l2.1-1l3.3-1.1l1.1-0.5l1.7-0.5l0.3-0.3l0.1-0.2
				c-0.6,0.2-1.2,0.4-1.8,0.6l-0.3-0.1c-1.3,0.4-2.6,0.8-3.9,1.2l-0.2-0.2l1.6-0.9l0.3-0.6l-2.8,1.2l1.2-1.2l2.9-1.7l3.1-1.6l0-0.6
				l3.6-2.1l1.7-1.7l2-1.3l0.4-1.2l2.1-0.6l0.9-1l-1.2,0.2l1.2-1.3l-0.3-0.5l0.6-0.8l1.7-1.3c0.6-0.7,1.3-1.5,1.9-2.3l4.2-4.3
				l2.4-1.5l1.2-3.5l3.6-2l0.7-2l3.6-2.8l1.6-2.7l0.3-3.3l3.6-4l1.2-2.9l5.1-6.4l2.7-1.3l2.1-7l4.4-3.3l2.3-3.6l-3.3,1.1l1.7-5.1
				l-1.9-1.5l2.4-4.7l-0.2-3.3l-1.6-1.4c0,0,0,0,0,0l-1.1,3.2l-2.3,1.2l-1.7,9.2l-2.2,4.7l-1.5,0.9l-0.6,1.3l0.7,0.7l-1.8,4.4
				l-7.6,11.1l-0.5,2.3l-2.3,2.4l-2.2,5.3l-1.5,1.5l-4.4,5.5l-2,1.6l-1.4,1.5l-1.4,0.7l0,1l-2.3,1l-1.4,3.6l-5.1,4.5l-0.7,1.7
				l2.9-1.7l0.7,0.1l-2.3,2l-0.6,1l-1.6,1l0.1,0.5l-1.8,0.9l0.4,0.4l-3.8,2.5l-0.2,0.7l-1.9,1.2l0.2-1l-5.4,2.5l-0.8,0.9l3.5-1.3
				l-0.4,0.8l-1.9,1.1l-0.3,1.4l-0.8,0.7l-1.3,0.7l-0.6,0.6l-1.4,0.5l-0.9,1.4c-0.2,0.1-0.3,0.2-0.5,0.3l0.8-0.2l-0.4,0.6
				L335.4,476.1z"/>
			<polygon class="st2" points="339.4,470.7 338.6,471.6 341.3,470.4 341.3,469.7 			"/>
			<polygon class="st2" points="337.9,472.3 337.1,473.1 339.2,472.4 340.4,471.2 			"/>
			<polygon class="st2" points="336.3,474.8 337,473.5 335.9,473.8 334.8,474.8 335.2,474.8 333.8,475.8 			"/>
			<path class="st2" d="M336.2,475.4l-0.3-0.1l-2.1,0.8c-0.2,0.2-0.5,0.3-0.7,0.5l0.8,0l1-0.6L336.2,475.4z"/>
			<path class="st2" d="M334.4,477.5c0.3-0.2,0.7-0.4,1-0.6l0-0.3l-1.8,0.3l0.2,0.4l-0.8,0.5C333.5,477.7,333.9,477.6,334.4,477.5z"
				/>
			<polygon class="st2" points="336.5,476.4 336.4,476.6 335.6,477.2 338.2,476.2 338.7,475.9 			"/>
			<polygon class="st2" points="339,476.6 336.9,477.4 340.3,476.5 341.3,475.9 			"/>
			<polygon class="st2" points="350.2,472.5 348.5,473.3 349.2,473.1 351.1,472.2 			"/>
			<path class="st2" d="M346.4,472.9l-0.9,0.3c-1.4,0.9-2.8,1.7-4.3,2.5l0.4-0.1l2.1-0.7l1.6-0.5l2.3-0.9h0l1.1-0.5l-1.7,0.6
				l-1.4-0.1l1.1-0.6L346.4,472.9z"/>
			<path class="st2" d="M336,477.2l1.6-0.3l1.9-0.7l1.7-0.5c1.4-0.8,2.9-1.6,4.3-2.5l-3.2,1.1l-1.8,0.9l0.1,0.3l-1.8,0.5L336,477.2z
				"/>
			<path class="st2" d="M353.8,458.6l-3.1,2.9l3.1-1.4c0.4-0.5,0.9-1,1.3-1.6L353.8,458.6z"/>
			<polygon class="st2" points="349.5,464.1 349.5,464.1 351.4,462.6 351.2,462 348.6,463.1 348.8,463.7 347.1,465.1 			"/>
			<path class="st2" d="M400.3,399.2l-1.7,5.1l3.3-1.1c0.2-0.4,0.3-0.8,0.5-1.3l3.2-3.4l1,0.8c0.7-0.3,1.4-0.5,2.1-0.8l0.4,2
				l2.6-3.5c1.3-0.5,2.5-1,3.7-1.5l1.9-2.9l0,0l-0.1-1.6l2.9-4.1l5.1-3.1l2.4-0.9l1.6,1l2.1-3.3l0.3-0.5c0,0,0,0,0,0l1-4l-1.3-0.7
				c0.3-1,0.6-2.1,0.9-3.1c-1.4,0.7-2.8,1.3-4.3,2c0.3-1,0.6-2.1,0.8-3.1L428,370l1.2-3.5l-1.3-1.2l-3.2,1.8l-2.4-2.3l-5.6,0.1
				l0.2-4.2l1.5-3.3l-1.1-0.6l-4.1,2.9L407,366l-3.3,0.1l2.4,4.5l-2.4,2.7l0.5,3.9l-2.2,1.8l-0.8,4.1l1,1.1l-2.8,3.1l-0.3,0.8
				c0,0,0,0,0,0l1.6,1.4l0.2,3.3l-2.4,4.7L400.3,399.2z"/>
			<path class="st2" d="M342.1,471.7l-1.2,1.2l2.8-1.2l-0.3,0.6l-1.6,0.9l0.2,0.2c1.3-0.4,2.6-0.8,3.9-1.2l0.3,0.1
				c0.6-0.2,1.2-0.4,1.8-0.6l0.2-0.3l0.8-0.7l2.8-1.5l1.6-0.6l1.1-0.7l2.3-1.6l5.6-2.9l1.9-1.4l-1.3,0.1l-0.8-0.1l1.1-1.2l2.8-1.7
				l3.5-1.5l3.7-3.2l2.9-2l1.6-0.5l1.5-1.1l0.6-0.9l-3.3,1.6l1.2-1.5l2.4-1.8l2.4-0.3l2.9-1.7l3.1-3.1l0.9-1.4l1.6-0.4l4.4-2.2
				l5.5-3.4l4.5-4.1l-0.2-0.9l1.7-1.9l-0.8-0.9l0.5-1.7l2.1-2.1l0.4-1.3l2-2l2.7-3.9l2.2-2.5l5.1-5.4l8.1-7.4l2.4-5l-0.1,0l-2.2,1.7
				l-1.7,2.7l-5.3,4.5l-4.2,1.7l5.1-6.5l-3.7-1.8l-2.6,1.4l-1.9-4.1l0.4-0.6c-1.2,0.5-2.5,1-3.7,1.5l-2.6,3.5l-0.4-2
				c-0.7,0.3-1.4,0.5-2.1,0.8l-1-0.8l-3.2,3.4c-0.2,0.4-0.3,0.8-0.5,1.3l-2.3,3.6l-4.4,3.3l-2.1,7l-2.7,1.3l-5.1,6.4l-1.2,2.9
				l-3.6,4l-0.3,3.3l-1.6,2.7l-3.6,2.8l-0.7,2l-3.6,2l-1.2,3.5l-2.4,1.5l-4.2,4.3c-0.6,0.8-1.2,1.5-1.9,2.3l-1.7,1.3l-0.6,0.8
				l0.3,0.5l-1.2,1.3l1.2-0.2l-0.9,1l-2.1,0.6l-0.4,1.2l-2,1.3l-1.7,1.7l-3.6,2.1l0,0.6L345,470L342.1,471.7z"/>
			<polygon class="st5" points="411.6,241.4 406.3,242.2 406.7,245.8 410.4,244.8 			"/>
			<polygon class="st5" points="365.2,225.5 363.6,228.9 367,231.7 368.6,231.4 			"/>
			<path class="st5" d="M377.2,240.6l-4.9,0.1l-5.7-3.5c-0.6,0.1-1.3,0.3-1.9,0.4c-0.6,0.1-1.1,0.3-1.7,0.4l-3-1.8l-7.4,0.1l-9,4.1
				l-0.2,4.6l6.2-4.5l3.6-0.2l-0.7,2.5l5.4-1.2l4.4,1c0.9-0.2,1.7-0.4,2.6-0.6l2.7,2.5l2.5-1.3l2.1,1.4l-2,2l0.2,1.9l11.8-4.3h0
				l0.4-1.5L377.2,240.6z"/>
			<polygon class="st5" points="377.8,253.8 373.5,251.7 367.8,253.7 372.6,256.6 372.6,256.6 			"/>
			<path class="st5" d="M383.4,249.2l-0.2,2.4l7.7-1.3l1.3,0.4c-0.3-1.4-0.5-2.7-0.8-4.1l0.8-1.4c-0.3-1.5-0.6-3-0.9-4.5
				c-1.6,0.5-3.2,0.9-4.8,1.4l-1.1,2.7l3.2,0l-0.3,3.1L383.4,249.2z"/>
			<path class="st5" d="M392.2,250.7l1.4,0.4l2.7-3.6l5.3-1.2l1-2.7l-6.2-3.1l-4.7,0.2c-0.1,0-0.3,0.1-0.4,0.1
				c0.3,1.5,0.6,3,0.9,4.5l-0.8,1.4C391.7,248,392,249.3,392.2,250.7z"/>
			<polygon class="st5" points="369.6,294.7 374,296.2 374.1,298.8 377.2,301.8 379.7,297.8 380,296.1 377.8,294.1 373.7,292 
				369.3,291.9 363.4,296.5 360.8,296.2 357.6,294.4 356.3,296.1 357.7,298.4 356.7,301 360.4,300 364.5,303.2 367.9,301.4 
				366.1,298.9 369.3,294.9 			"/>
			<path class="st5" d="M353.2,290.4c-0.8,0.1-1.6,0.3-2.5,0.4l-1.8-1.5l-2.3-0.5l-2.4,1.5l0.2,4.5l8.1,2.3l0.1,2.3l1.8,0.6l1.2-0.7
				l1,1.6l1-2.6l-1.4-2.3h0l1.3-1.6L353.2,290.4z"/>
			<path class="st5" d="M337,284.2l2.5,2l4.7,4.1l2.4-1.5l2.3,0.5l1.8,1.5c0.8-0.1,1.6-0.3,2.5-0.4l-0.7-0.6l-0.3-11.9l1-3.8
				l-1.1-1.7l0.8-1.1c-0.6,0.1-1.2,0.2-1.8,0.3l-2.6,2.1l-1.8-0.5l-3,4.1l-1.4-0.4l-2.7,1.6l0.4,2.2l0,0l0,0l-2.5,2.5L337,284.2z"/>
			<polygon class="st5" points="335.6,281.1 336.1,278.4 332.6,278.4 330.1,277.1 327.7,277.9 325.5,281 331.3,282.5 334.6,283.6 
							"/>
			<path class="st5" d="M343.8,277.3l3-4.1l1.8,0.5l2.6-2.1c0.6-0.1,1.2-0.2,1.8-0.3l-3.8-2.4l-5.5,0.1l-2-0.5l-1.2,1.5l-7.2,1.4
				l-3.2,3.4l0.1,2.3l2.5,1.3l3.5-0.1l-0.4,2.7l1.9,2.1l2.5-2.5l0,0l-0.4-2.2l2.7-1.6L343.8,277.3z"/>
			<path class="st5" d="M317.3,275.9c0.1,1.1,0.2,2.2,0.2,3.2l2.8,1.9l5.2,0l2.2-3.1l2.4-0.8l-0.1-2.3l3.2-3.4l-1.2,0.2l-1-1.3
				c-0.9,0.1-1.8,0.2-2.7,0.4c-0.2-2.4-0.5-4.8-0.7-7.3c-2.2,0.3-4.3,0.6-6.5,0.8c0.1,0.6,0.1,1.2,0.2,1.8c-0.8,0.1-1.7,0.2-2.5,0.3
				l4.7,3.2c0,0.5,0.1,1.1,0.1,1.6c-1.5,0.2-3.1,0.4-4.6,0.5L317.3,275.9z"/>
			<path class="st5" d="M329.1,259.9l-1.5,3.5c0.2,2.4,0.5,4.8,0.7,7.3c0.9-0.1,1.8-0.2,2.7-0.4l-0.4-0.5l2.1-3.5h0l0-3.6l-1.2-1.6
				l0.5-1.6C331.1,259.6,330.1,259.8,329.1,259.9z"/>
			<path class="st5" d="M225.5,219l4,5.1l0.1,2.8l-2.1,0.6l3.9,3.3l4.4,3.1l1.2,2.3l0.4,4.1l5.9,5.1l1.4,2.9l3.6-1.7l-5.1-6.9
				l-2.4-7.2l-4.2-4.6l-0.7-2.4l-5.2-6.4l-1.7-9.4l6.8,3.4c0,0.8-0.1,1.5-0.1,2.3l3.1,7.4l3.8,4.3l2.2,0.3c0,0.8,0,1.5,0,2.3l3.7,3
				l-0.1,3.3l5.9,4.8l7.1,7.3l1.7,4.3l1.7,1.8l-1.4,4.2l2.8,4.2l4.1,1.8l2,2.1l6.1,1.2l3.7,2.7l5.5,2l3.8,0.4l4,1.6l5.3,0.9l5.9-3.1
				l3.9,1l6.5,5.6l0.7,0.5c-0.1-1.1-0.2-2.2-0.2-3.2l1.7-4.2c1.5-0.2,3.1-0.4,4.6-0.5c0-0.5-0.1-1.1-0.1-1.6l-4.7-3.2
				c0.8-0.1,1.7-0.2,2.5-0.3c-0.1-0.6-0.1-1.2-0.2-1.8c2.2-0.3,4.3-0.5,6.5-0.8l1.5-3.5c1-0.1,2-0.3,3-0.4l0.3-1.1l2.1,1.5l0.7-4.8
				l-1.9,0.2l3-6.6l-1.7-1.7l-5,0.9l-6.9,3.1l-1.1,5.2l0.3,1.8l-2.2,1.5l0.8,1.4l-4.7,0.5l-4.5,1.6l-3.5,1.3l-3-1.9l-2.7,0.2
				l-2.6-4.4l-3-3.2l-3.3-7.7l0.5-9.1l1.3-5l-0.1-0.4c-1.1,0.1-2.2,0.2-3.3,0.2l-4.7-1l-1.5-5.5l-3.3-1.7l-3.8-6.4l-4.4,0.1
				l-2.6,4.4l-4.9-3.6c0-0.8-0.1-1.5-0.1-2.3l-5.6-4.9l-1.2-2.2c-2.3,0-4.6,0-6.8,0c0,0.7,0,1.5,0,2.2c-3.2,0-6.3,0-9.5-0.1
				l-12.6-5.2c0-0.6,0.1-1.2,0.1-1.7c-3.1-0.1-6.3-0.3-9.4-0.5l1.6,7.1L225.5,219z"/>
			<path class="st5" d="M384.8,114l-1.1,1l-1.4-1.5l-1.5,0.1l0,1.6l-1.3,0.2l-0.8-1.4l-2.1,0.4l-1.3-5.9c-0.5,0.3-1,0.5-1.4,0.8
				l-0.1,2.9l1.7,5.7l-0.3,2.7l1.8,0.2l0.1,2.5l1.4,1.1l2.7-1.8l3.2-1.2l0.3,2.7l1.8-0.6l-0.2-3.1l1-0.2l1.4,2.1l1.6,0.2l0.7-0.8
				l-2.3-4.1l-1.3-0.5l-0.5,1l-1.5-0.4l0.2-2.5L384.8,114z"/>
			<path class="st5" d="M369.9,121.1l-0.6-0.6l-4.8-0.2c0.4,0.6,0.8,1.2,1.3,1.9l3.4,0.5L369.9,121.1z"/>
			<polygon class="st5" points="380.9,130.1 377.7,127.3 376.4,126.9 377.5,131.3 379.5,132 			"/>
			<polygon class="st5" points="317.3,106.3 316.7,108.8 319.9,110.5 319.9,107.7 			"/>
			<path class="st5" d="M274.6,63l1.4,2.5l3.6,0.3l0.7,0.6l-1.1,0.7l-2-0.4l1.4,1.5l2.3,0.6c2.5-0.8,5.3-0.4,7.8-1.2l3.4,0.3
				c0.6-0.1,1.1-0.2,1.7-0.3l-0.8-0.8l-1.2-0.2l0.4-0.8l2.3,0.2l0.8,1.3l3.2,0.5l0,1.4c0.6-0.1,1.2-0.3,1.7-0.4l1.3,1.2l3.3-0.1
				l3.2,2.3l-0.5,0.5l-0.2,3l2.5,1.7l-1.7,1.3l-2.4-0.1c-0.6,0.2-1.3,0.4-1.8,0.6c-0.1,1.6-0.1,1.6,1,3.4l2.7-0.3l1.5-1.3l3.4,0
				l2.1,0.7l0.6,1.1l5,1.2l1.5-0.4l1.9,0.8l6.6-0.1l-0.9-1l-2.9-0.8l-5.1-1.5l0.4-0.8l4.7,0.5l2.7,0.8l1.4-0.1
				c-4.9-4.6-4.9-4.6-6.1-5.1l-4.2-0.7l-2.8-2.1l-1.8-1.3c0.3-0.1,0.7-0.2,1-0.3l3,0.5l3.3,2.3l2.5,0l-1.5-1.9l0.9-0.8l-1.9-1.7
				l0.6-0.6c-0.6-0.5-1.1-1-1.7-1.5l-7.7-1.6l-0.6,1c-0.3-0.3-0.7-0.7-1-1l-2.2,0.2l-1.6-1.2l0.9-1.1l-2.8-1.7l-2.1-0.7l-2.1-0.2
				l-0.9,0.7l-1-1.2l-4.4-0.8c-0.3,0.1-0.6,0.2-0.9,0.2l-1.3-1.2l-2.4-0.7c-0.9,0.2-1.8,0.4-2.7,0.6l-0.6,1.4l-1.4-0.3l-0.7,1.4
				l-1.3-2.4l-2.6-1.9l-1.2-0.2l-2.1,1.6l0.4,1.6l1.9,1.4l-0.7,1.3l-1.9-0.9c-0.4-0.7-0.8-1.4-1.2-2.1l-0.1-2.2
				c-0.7,0.1-1.5,0.2-2.3,0.3l-1.2,1.6l0.3,1.2L274.6,63z"/>
			<polygon class="st5" points="302.3,73.5 302.3,73.5 302.3,73.5 			"/>
			<polygon class="st5" points="302.3,73.5 303.5,72.4 301.8,70.6 299.6,70.9 299.6,72.5 300.6,73.4 			"/>
			<polygon class="st5" points="292.6,85.6 292.3,87.2 293.9,86.5 295.3,88 296.7,86.5 297.6,85.9 298.2,85.1 299.8,85.8 302.6,86 
				302.6,86 302.8,84.9 299.6,83.1 297.1,82.8 295.8,81.7 294.3,81.4 293.1,81.9 290.6,79.7 290.5,80.8 291.4,84.2 			"/>
			<path class="st5" d="M302,87.8c-1,0.2-2,0.4-3.1,0.6l-0.3,2.5l2.7-0.2L302,87.8z"/>
			<path class="st5" d="M307.6,88.3c-0.7,0.1-1.4,0.3-2.1,0.4l0.8,2.1l2.1,0.8L307.6,88.3z"/>
			<polygon class="st5" points="288.8,58.3 290.4,58.4 287.1,56.6 286,57.6 283.9,57.1 287.4,59.5 			"/>
			<polygon class="st5" points="270.1,74.9 271.4,74.2 267,71.3 266.8,72.2 265,73 265.3,74.1 			"/>
			<polygon class="st5" points="241.4,67.5 238.7,67.6 237.8,68.1 238.6,69.4 243.4,69.3 244.9,70.5 241.8,70.6 238.4,71.4 
				239.6,72.5 243.5,73 244.8,75.5 250.2,74.6 252.7,73.7 254,72.7 256.8,74.2 260.4,74.5 261,73.1 260.6,71.7 262.9,72.4 
				262.8,70.6 260.2,69.3 259.2,69.6 257.9,69.3 257.2,66.7 255,63.2 252.4,62.1 251.9,62.9 253.5,65.8 252.1,66.7 250.9,63.6 
				249.4,63 248.1,64.1 247.9,63.2 245.8,62.3 244.9,63.5 243.7,63.5 244.1,61.1 240.4,62.4 239,64.4 237.3,65.9 239.2,66.1 			"/>
			<polygon class="st5" points="230.7,67.4 234.6,66.5 235.8,63.6 236.7,63.3 237.5,62.2 242.5,60.4 240.8,58.5 238.2,59.4 
				236.3,57.5 232.9,57.7 233,59.4 231.5,61.3 230.7,61.6 230.1,62.8 228.6,64 230.4,65.1 			"/>
			<polygon class="st5" points="261.8,64.7 265.1,67.3 265.7,66.5 265,65.1 266.4,66.1 267.5,65.4 265.5,62 264,62.1 265,59.6 
				264.1,59.3 262.6,60.1 261.5,59.4 261.6,62 261,63.2 259.2,62 258.8,63.2 260.3,64.4 			"/>
			<path class="st5" d="M278.3,31.5l0.8,0.1c0.3-0.2,0.5-0.4,0.7-0.6l1-0.2l1.4,0.3l-0.8,0.2l0.9,0.3l-1.3-0.1l-0.7,0.5l3.2,0.8
				l-2.4,0.1l-1.4-0.1l-0.7,0.3l2.5,0.5l-0.6,0.4l-0.9,0.1l1.5,0.9l-3.1-1.1c-0.1,0.4-0.3,1-0.4,1.4l1.3,0.4l2.1,0.2l-1,0.5
				l-2.2-0.6l1.9,1.3l-1.2,0.1l-0.1,0.4l0.7,2.3l1.2,0.5l0.8-0.5l0.6-0.4l1.5,2.1l-2.1,0.6l1.1,0.6l-1.7,1.5l0.6,0.8l3.2,0.1
				l0.8,0.6l0.7,0l1-1.1l1,0.3l1.2,1.1l-3.1,0.6l-0.2,0.7l1.6,0.3l1.7-0.3l-0.4,1l2,0.6l0.7-0.8l1.1,0.3l0-0.7l1.1,0.3l-0.6-1
				l2.7-0.8l3,0.1l1,0.8l4.3,0.8l3.2,1.9l1.7,0.3l1.7,1.6l1.7,0.2l0.4,1l1.3,0.2l0.6,0.8l-0.2,0.5l1.5,0.5l0.6-0.6l-1.3-1.8l2.6,1.1
				l0.8-0.7l2.2,1l2,0.8l0,0.6l-2.9-0.2l-1.1,0.5l0.3,0.7l4.1,0.4l1.7-0.9l3.2,2.5l-1.8,0.4l2.6,3.3l1.5-0.2l0,1.9l3.6,2.1l2.7,1.1
				l0.4-1l1.6,2.1l2.9,1.8l0.9-1l2.5,2.5l5.9,2.5l1.4-0.5l4,2.8l2.1-0.7l-0.2-1.7l3.8,2.3l1.7-1.6l-5.3-5l-4.1-1.8l-0.8-2.8
				l-1.8-0.9l1.2-0.3l-1.5-0.9l-2.2-0.6l0.8-0.5l-2.5-0.7l-1.1-2.5l1.3-0.1l-2.6-1.9l2.4,0.7l-1.3-3l-3.8-3.1l-0.2-0.9l-1.6-1l1,0
				l0.3-1.2l-1.5-3.2l-1.8-1.3l-0.3-0.8l-2.1-1.8l-1.5,1.3l1.6,2l-0.8,0.4l-1.3-1.4l-2.8-1.9l-2-0.1l0.3-0.6l0.9-0.2l1.9,0.3
				l2.3-0.6l-5.6-1.8c0,0.2-0.1,0.4-0.1,0.6l-1.1-0.6l-2,0.4l-0.1,0.5l-3.1-0.7l-2-1.6l1.6-0.5l-0.8-1.2l-1,0.3l-1.9-0.3l-0.6-1.5
				l-1-0.6l-2.4,0.1l0.4,0.6l-0.9,0l-2.4-0.7l1.4-0.5l-0.3-0.4l-2.7-0.5l-0.5,0.7l-2.5-0.3l-0.5-0.7l1.1-0.7l-0.9-0.3l-3.4-0.3
				l-1.1,0.3l1.3,0.7l-4.7-1.3l-0.8-0.8l-2-0.2l-0.3-0.5l-0.8-0.4l-0.3,0.5l0.3,0.4l-0.9-0.1l-0.8-0.4l0.2-0.7l-1.3-0.5l-0.2,0.6
				l-1.2-0.4l-0.6-0.9l-3.3-1l-1,0.5l0.3,0.7l1.8,0.4l-1,0.3l1.2,0.6l1.4,0.5l-2.5-0.5l-1.9-0.3l0.4,0.4l1.2,0.3l1.2,1l-0.7,0
				l-1.2-0.5l-0.7,0.7l-1.4-0.6l0.8-0.6l-1.6-1.1l-1.1,0.3l0.2,0.6l-1.2-0.4l-0.4,0.3l-0.4,0.3l-1.4-0.1l-0.6,0.5
				c-0.1,0.3-0.4,0.6-0.5,0.9l0.8,0.3l-0.4,0.1l-0.5,0.7l0.6,0.2l-1,0.3L278.3,31.5z"/>
			<polygon class="st5" points="281.4,32.5 279.4,32 279.1,32.3 280.4,32.5 			"/>
			<polygon class="st5" points="279.8,33.7 279.8,33.7 279.2,33.4 277.7,33.3 278.8,33.7 			"/>
			<polygon class="st5" points="284.7,47.1 284.6,46.1 283,46 283.4,46.9 			"/>
			<polygon class="st5" points="324.9,57.9 320.6,57.6 322.8,59.7 324.6,59.6 			"/>
			<path class="st5" d="M263,40.4l0.6,0.3l-0.5,0.5l1,0.6l1.7,0.3l0.3-0.6l0.3,0.5c0.6-0.1,1.1-0.2,1.7-0.3l-0.1-0.4l0.7,0.3
				l1.7-0.6l0,0.6l-1.2,0.7l1.2,0.6l-1.8-0.3l-1.5,0.1l0.6,0.7l0.8,0.2l1.7,1.2l1.6-0.1l0,0.7c-0.5,0.1-0.9,0.2-1.4,0.2l-0.6-0.4
				l-0.7,0.6l0.1,1.2l0.4,0.3l1.6,0.2l1.3,0.8l1.3,0.1l-0.8,0.8l-0.9-0.1l-1-0.9c-0.5,0.1-1,0.2-1.5,0.2l1.3,1.1l0.2,0.6
				c-0.3,0-0.6,0.1-0.9,0.1l-1.1,1.1l1.5,0.6c0.7-0.1,1.3-0.2,2-0.3l1.6,0.4l1.1-0.4l-1.1-0.6l1.7,0l0.6,0.2l0.7-0.1l0.1-0.7l0.9,0
				c0.2,0.3,0.4,0.5,0.7,0.8l1.1-0.8l0.6-1.1l-1.3-0.7l-0.1,0.7l-0.8-0.1l-0.4-0.7l-0.9-0.5l1-0.3l0-0.6l-1.1-0.8
				c0.6-0.1,1.2-0.3,1.8-0.4l-0.7-2l-1.5-0.1c0-0.2,0.1-0.5,0.1-0.7c-0.7-0.3-0.9-0.4-1-0.5l1-0.4l-0.9-0.5l1.5,0l0.8-0.4l-0.6-0.2
				l-0.1-1.1l-0.4-0.6l-0.1-2.1l-1.3,0.7l-0.6-0.7l1.2-0.8l-0.3-1.3c-0.1-0.1-0.2-0.1-0.4-0.2l-1.2,0.1l-1-0.4
				c-0.1,0.1-0.3,0.1-0.4,0.2l-0.5-0.1l0.2,0.9l-0.7,0l-0.2-0.7l-0.7,0.2l-0.6-0.1c-0.3,0.1-0.6,0.2-1,0.3l-1-0.2l-1.6,0.6l0.2,0.7
				c0,0-0.1-0.1-0.1-0.1c-0.1,0-0.1,0-0.2,0c-0.5,0.1-1,0.2-1.5,0.3l0.1,0.9l0.7,0.5c-0.3,0-0.5,0.1-0.8,0.1l-0.9-0.3l-0.9,0.2
				l0.1,0.4l0.8,0.5l-0.4,0.2l-0.6-0.4l-0.8,0.1l0,0.5l-0.6-0.2l-0.7,0.8l0.8,0.4C262.3,40.5,262.7,40.4,263,40.4z"/>
			<path class="st5" d="M260,43.9c0.1,0.2,0.2,0.4,0.3,0.7l1.4,0.8l1.5-0.3l1.3,0.4l-1.5,0.3l-0.1,0.5l0.9,0.8
				c0.4,0,0.8-0.1,1.1-0.1l-0.3,0.4l1,0.5c0.5-0.1,0.9-0.1,1.4-0.2l-0.3-0.9l1.1,0.8c0.3,0,0.5-0.1,0.8-0.1l-0.8-1.5l1.4-1.3
				l-0.8-0.7c-0.5,0.1-0.9,0.1-1.4,0.2l-0.1-0.6l-1.1-0.7l-0.5,0.4l-0.6-0.7l-1.4-0.1l-1.8-1.5l-0.9,0l0.1,0.5l-0.5,0.3l-0.2,1.4
				l1.2,0.5L260,43.9z"/>
			<path class="st5" d="M266.7,53l1.6,1.5l0,0.5l0.3,1l1.7,1.2l0.4-0.7l0.8,0.6l1.1-0.4l1-0.7l0.2,0.8c1.6-0.2,3.3-0.5,4.9-0.8
				l-0.1-0.8l1.3,0.6c1-0.2,2-0.4,3.1-0.6l0-0.9l-1.2-0.3l0.3-1.2l-2.2-0.1c-0.1-0.2-0.3-0.4-0.4-0.6l-1.3,0.9l-1.6-0.4l-1.7,1.4
				l-1.4-0.3l-1.1,0.7l-1.9-0.9l-1-0.8l0.8-0.3l-1.7-0.6c-0.6,0.1-1.2,0.1-1.8,0.2l-0.9-0.5l-2-0.4c-0.3,0.2-0.7,0.4-1,0.5
				c1.7,1.5,1.7,1.5,3.3,1.5L266.7,53z"/>
			<polygon class="st5" points="239,53.2 239.2,54.2 240.4,52.9 242.4,51.9 242.5,53.3 243.4,52.3 244.8,51.5 244.1,50.1 
				243.7,50.6 241.9,50.5 239.9,51.7 237.6,52.6 236.7,53.3 238.3,53.9 			"/>
			<path class="st5" d="M243.8,57.2l1.1-0.9l1.5,0.7l-2,1l0.8,0.6c0.7,0,1.4,0,2.1,0.1l1.5-1.1l1.9-0.5c1,0,1.9,0,2.9,0l0.6-2.3
				l-1.3-0.6l-0.3,1l-1.1-1l-0.3-1.7l-0.6-0.5l-1.3,1.1l0.6,1.1l-0.4,0.5l0.6,0.9l-2.3-0.3l-0.9-1.5c-0.4,0-0.8,0-1.2,0l-0.1-0.8
				l-1.7,0l0.4,0.7l-1.2,0.3l-0.6,0.6l0.5,0.7l-1.4,0.2l-0.4,0.7l1.6,0.7L243.8,57.2z"/>
			<path class="st5" d="M268.9,64.1c0.5,0,1-0.1,1.5-0.1l-1.1-1.9l2.8,0.4l0.7-4l-2.3,0.7l-1.8-0.7l-1.9,0.7l0.4,3.2L268.9,64.1z"/>
			<path class="st5" d="M257.4,55.8l1.4,0l1.5-0.7l-0.3,1.1l0.5,0.9l2.7-0.5l-0.5-1l0.1-1.1l-0.7-2l-1.2-0.3l-0.2,0.7l-0.7-0.4
				c-0.3,0-0.6,0-0.8,0l0.3,1.1l-1.1-0.7l-0.7,0.1l0.6,1.2l-0.2,0.5l-1.1-1.1l-1.2-0.9c-0.2,0-0.5,0-0.7,0l0.9,1.9L257.4,55.8z"/>
			<path class="st5" d="M267.5,57.2l-0.2-1.7l-1.1-0.4c-0.4,0-0.8,0.1-1.2,0.1l-0.6,1.2l1.6,1L267.5,57.2z"/>
			<path class="st5" d="M254.4,46.9l0.6,0.9l-1.4,0.3l0.7,0.7l1.3-0.2l1.5,0.1l0.8,1c0.4,0,0.9,0,1.3-0.1h0l0-0.6l-0.8-1.1l-0.7-0.8
				c-0.2,0-0.3,0-0.5,0l-0.7-0.6c-0.3,0-0.6,0-1,0l-0.7-0.7c-0.6,0-1.2,0-1.9,0l0.2,1L254.4,46.9z"/>
			<polygon class="st5" points="256.3,60.3 255,59.9 253.2,60.5 255.5,62.3 			"/>
			<path class="st5" d="M249.6,50.7c0-0.1,0-0.2-0.1-0.6l0.6-1l-2.7,0.3l-0.6,0.9c0.2,0.2,0.5,0.4,0.7,0.6
				C247.6,50.9,249.5,50.8,249.6,50.7z"/>
			<polygon class="st5" points="262.8,48.3 262.8,48.3 262.7,47.3 260.1,46.5 259.1,46.8 261,49 			"/>
			<path class="st5" d="M258.2,45l0.6,0l-0.4-0.9l-1.1-0.2l0.2,1.1C257.7,45.1,258,45,258.2,45z"/>
			<polygon class="st5" points="264.8,49.2 262.5,49.3 261.7,50.1 264.8,50.3 			"/>
			<polygon class="st5" points="268.3,50.1 268.9,50.2 268.7,49.3 267.7,49 266.7,49.3 267.4,50.3 			"/>
			<path class="st5" d="M255.8,51.7l-1.8-2c-0.3,0-0.6,0-0.9,0l0.9,1.8L255.8,51.7z"/>
			<polygon class="st5" points="250.6,48.3 249.5,47.1 247.2,47.7 247.3,48.2 			"/>
			<polygon class="st5" points="246.6,49.1 246.1,48.6 245.6,48.8 245.7,50.1 			"/>
			<polygon class="st5" points="245.7,50.1 245.7,50.1 245.7,50.1 			"/>
			<polygon class="st5" points="256.8,56.8 256.4,56.1 255.7,55.9 255.2,56.8 255.9,57.3 			"/>
			<polygon class="st5" points="255.9,57.3 255.9,57.3 255.9,57.3 			"/>
			<path class="st5" d="M145.9,79.1l0.6,1.6l1.2,0.3l1.5-1.6l-0.5-0.9l-1.9-0.2C146.5,78.6,146.2,78.9,145.9,79.1z"/>
			<polygon class="st5" points="135,97.5 136.8,95.5 132.8,96.2 132.3,97.5 			"/>
			<polygon class="st5" points="156.9,95.1 156.7,97.6 161.6,96.5 162.1,95.2 164.1,94.7 163.1,93.4 159,95.1 			"/>
			<path class="st5" d="M124.3,97.5c0.6,0.4,1.2,0.7,1.7,1.1l2.4-0.6l2.3-0.1l0.4-1.5l-3.9,0.3L124.3,97.5
				C124.4,97.5,124.4,97.5,124.3,97.5z"/>
			<polygon class="st5" points="191.6,109.1 193.8,103.4 192.2,102.5 190.5,103 191.4,105 190.8,106.8 			"/>
			<polygon class="st5" points="194.6,115.8 194.6,115.8 194.6,115.8 			"/>
			<polygon class="st5" points="193.6,113.2 192.7,114.1 193.2,116.5 194.6,115.8 194.6,115.8 194.6,115.8 194.6,115.8 195.4,116.8 
				196,114.5 195.3,111.2 193.7,111.7 			"/>
			<path class="st5" d="M193.9,118.5l-1.2-0.9l-1.3,2.4l0.7,3.8l2.2,3.6c0.3-0.8,0.5-1.5,0.8-2.3l-0.7-1.4l0.2-1.2l-0.5-1.3l1.5-2.3
				C195.1,118.7,194.5,118.6,193.9,118.5z"/>
			<polygon class="st5" points="201.8,131.7 200,132 201.7,135.2 206.5,139.7 206.5,139.7 209.9,141.3 209.7,138.7 207.1,136.8 
				206.2,134.4 203.5,133.3 			"/>
			<path class="st5" d="M201,65.1l-0.6-0.9c-0.5-0.2-1-0.3-1.6-0.5l-1.5-1.7l-1.3-0.1l-0.3-0.5l-0.6,0.3l-0.6-0.9l0.6-0.8l-0.4-1
				l-1.3,0.6l0.4,0.6l-1.3,1L192,60l1.1-0.8l-0.1-0.8l-1.2,0.4l0.7-0.8l-0.3-0.8l-2.4,0.7c-0.5-0.2-1-0.5-1.5-0.7l-3.6,0.6l-0.7-0.4
				l-2.7,0.7l-1.4,0.9l-2,0.4l-2.2-1l-1.8,0.9l0.1,3.1l-1,1.3l1.3,1l-0.5,0.9l1.2,0.5l-0.8,1c-0.3-0.2-0.6-0.3-0.9-0.5l-1.6,0.4
				l-2.1-1.2l1.5-0.9l-1.2-0.7l-2,0.3l-1.4-0.4l-2.9,0.5l-0.3,0.9l1.1,1l-1.5,0.5l-1,1.4l3.2,1.9l0,0.7l3.4-0.4l-0.6,1.2l-1,0
				l-1.1,1.7l-1.5,0.6l-1.2-0.7l-2.6,0.8l0.1-1.3c-0.3-0.1-0.5-0.3-0.8-0.4l-2.6,1.7l-2.1,0.3l-1.9,0.8l-0.6,1.7l1.3,2.1l-0.8,0.9
				l-1.2-1.5l-1.5,0.7l-0.5,2.8l1.8,0.7l1.7-0.9l-1.1,2.4l-1.4,0.9l-1.3,1.8l3-0.3l0.5,0.9l-0.7,2.2l1.2-0.2l0.9-1.5l0.9,0.2
				l-0.5,1.2l2.2-0.1l-0.5,0.8l-1.6,0.7l-2.3,1.9l-2.7,0.8l-0.9,0.6l-3.6,0.4l-1.6,0.9l-1.5-0.8l-4.4,1.3l-1.5,1.7l2.3,0.3l1.6-1
				l0.8,1.5l2.4-0.9l0.5,0.7l1.7-1.1l0.4,0.8l5.2-2.3l2.7-0.9l3.7-1.1l1.5,0.3l3.3-1.7l-0.7-1.7l2.4-1.4l1.1,0.4l4.7-2.8l3.1-0.7
				l0,1.7l-2.7,0.3l-4.5,3.5l-0.4,1.2l6.2-1.6l1.9,1.5l1.8-1l-0.8-1.5l1.8-1.3l1.6,0.6l0.5,1.3l-1.1,1l2.4,0.5l0.6,1.6l4,0.7l2.3,2
				l1.8-0.6l-0.6,1.4l2.4,3.9l1.8,0.2l0.7-1l1.3,1.7l1.3-1.7l0.1,2.2l-1.3,3.5l1.3-0.3l1.1-1.6l0.5,1.6l-0.7,1.9l-2.5,0.6l-0.9,2.3
				l3.6-1.1l0.5,3.1l1.8-0.3l-1.6,2l-0.1,1.9l1.7-1.2l-0.3,1.5l0.7,0.5l2.6-2.2l1.2-3.4l-3.3-2.4l0.1-7.3l-2.8-4.5l-4,0.9l-2-3
				l1.2-1.7c-1.4-0.3-2.8-0.6-4.1-0.9c5.5-8.8,11.2-17.2,17.1-24.8l-1.5-0.6l-0.4-1.2L201,65.1z"/>
			<path class="st5" d="M192.7,93.1l-1.2,1.7l2,3l4-0.9l2.8,4.5l-0.1,7.3l3.3,2.4l-1.2,3.4l-2.6,2.2c-0.2,0.5-0.4,1-0.5,1.5
				l-1.3,0.6l0,1.5l0.6,1.1l1.5,2l1.3,2.8l1,2.6l-0.1,1.2l5.4,3l2.9,3.6l0.8,1.9l1.9,1.3l0.1,0.5c24,2.3,49.3,2.5,73.9,0.4l1.8-2.1
				l1.5,1.8l5.7,0.8l3.5,1.9l1.7-1.9l4.6,0.8l3.3-4.4l3.8-0.2l3.1,3.1l2.4-0.2l3.8,4.3l10,0.5l4.7,3.7l-0.5,2.7l-4.9-2.8l1.9,7.2
				l-3.2,2.5l-0.6,4.5l5.4-5.1l4.4-1.7l1-3.8l5.3-2l0.6,0.1l2.2-4.5c3-0.8,5.9-1.6,8.7-2.4l2.4-3.3l-1.4-1.6l0.6-3.8l1.8-1.6
				l1.7,0.3l2.1,4.5l2.9,1.5l4.1-3.8l1,1.2l-1.3,4.6l2.8,3.1l1.8-4.2l-0.3-2.1l3.3-1l1.6-3.3l-3.3-1.4l-1.1,1.7l-6-1.5l-1.1-1.6
				l-1.6-0.1l-0.9-2.7l-4.2,0.6l1.8-2.9l1.7,0.3l0.8-1.1l-1.2-2.2l-3,0.5l-2.1,1.4l-3.4,5.8l-1.1,3.6l-1.3-5.5l3.4-5l0.5-2.6
				l5.6-3.1l6.7-0.8l0.5-3.4l-0.7-2l1.8-2.2l0-2.6l0.4-0.8l-2.5-2.5l-2.1-0.5l-1,0.6l-1.1-1.5l-1.5,0.5l-1.3,3l-1.9-2.5l2.1-3.2
				l-1.8-0.9l-2.3,1l-0.4-1l-1.9,0.4l-2-1.7l-3.1-0.2l-0.2-1.2l-1.4-0.2l-0.6-1.5l-3.8-2.4l-1.8,0.1l-0.9-1.6l-1.3,0.1l-0.6-1.2
				l-3.4-2.1l-1-0.1l2.6,4.2l-0.9,0.4l-0.9,3.1l-1.9-0.4l-3.5-1.6c-0.3,0.1-0.6,0.2-0.9,0.3l-3.2-5.1l-1.9-0.4l-2.4,0.7l-1.1-1.5
				l-5.4-1.6l-1,1.4c-0.7,0.2-1.4,0.4-2.1,0.5l-1-1.5l-2.7,0.8l-0.6,1.1l2.7,2.2l-0.3,1.2l1.7,1.2l0.5,1.7l1.8,0.8l-0.2,4.9l6.4,3.3
				l1.9,5.7l-4,4.8l3.4,2.5l0.7,2.5l3.4,3.1L327,123l1.4,2.7l-2-0.6l-0.9,1.6l-5.9-2.7l-4.5-7.1l0.2-2.3l-1.3-1.1l-5.6,0.6l-1,1.4
				l-0.9-1.8l-5.8-1.3l-3.8-2.6l-5.3-0.9l-3.8,1.8l0.1-2.3l-2.5-3.6l-1.7,0.1l-0.5,1l-2-1.6l-0.8-4.8l0.7-3.6l1.1-1.2l-0.8-0.8
				l1.3-1l0-1.6l2.1-0.1l1-1l-3.5-1.1l-0.9-1.3l4,0.7l0.2-1.8l1.5,0.6l2.1-1.2l0.1-2.8l-3.5-0.4l-3.2-0.9l3.3-1.4l2.9,1.1l0.3-2.1
				l-1-1.4l1.8-0.1l0.8,0.8l2-0.2c-0.2-0.3-0.4-0.7-0.6-1l1.7,0.2l1-1.8l0.7-0.2l-0.4-1.3l-3-1.3l1.1-1.7l-1.2-0.6l0.2-0.7l-3-0.5
				l-4.3,0.4l1.2,1.7l-0.1,1.3l0.7,1.7l-1.1,2l-2.6-1.8l-0.3-1.7l-2.6-1.2l0.4,2.4l-1.2-0.3c-0.4-0.8-0.7-1.7-1.1-2.5l-3-0.6
				l-0.3-1.6l-1.9-1.1l-1.9-2.9l-2-0.4l-1.7,2.1l1,1.9l0.6,1.9l3.4,1.3l0.4,1.5l1.1-0.3l0.2,1.6l-1.9,1.2l-0.3,1.4l-1.5-0.9
				l-2.3-0.7l1.2,1.6c-2.3,0.1-5.3,0.2-7.6,0.3l-2.1-1.2l-1.7,0.4l-2.9-2l-3.2,0.6l-0.1,1.2c0.7,0,1.3,0,2,0l-0.7,1.6l-1.3-0.1
				l-1,1.2l-0.7-2.2l-3.9,1.2l-5.6-0.9c0-0.3,0.1-0.6,0.1-0.9l2-0.5l-0.7-1.1l-3.3-0.3l-3.3-1.6l-2.1-0.4l-0.7-1.3l-2.4,0l-1,1
				l-1.7-0.1l1-2.4l-1.3-0.1l-1.3,2l-1.4-1l0.3-1.3l-0.9-1.6l-0.6,1.4l-1.7,1.2l-1.9,0.1l-0.8-0.5l2.5-1l0.2-0.7l-1.9,0.1l-2.1,1
				l-1.3,1.7l-1.7,0.8L214,71l2.1-0.9l0.8-1.1l-2,0.6l-0.8-0.7l-1.7,0.2l-1.1,0.6l0.4,0.7l-0.6,1.1l-0.5-0.5l-2.8-1.6l-0.2-1.2
				l-2-0.8c-5.9,7.7-11.6,16-17.1,24.8C189.9,92.5,191.3,92.8,192.7,93.1z M276.5,122l3.4,2.3l5.2,7.9l-0.2,3.5v0l-1.8-0.5l-0.8-3.5
				l-2.6-2.3l-3.8-4.8L276.5,122z M238.9,93.1l4.4,1.3l4.6-2.6l3.6,0.9c-2.8,1.5-6.4,3.4-9.2,4.8l-0.2,1.4l-5.5,0.3l-0.7-2.2
				l3.8-1.5L238.9,93.1z M233.8,78.8l0.6,0.6l-1,0.7l3.2,0.5l-1.6,2.5l-2-0.4l-2.5,2.5l-0.4-1.7l-1.5,1.3l-2.6-1l2.4-2.3l-2.9-1.5
				C228.1,79.7,231.4,79.2,233.8,78.8z"/>
			<path class="st5" d="M203.3,163.2l0.4,3.5l-0.5,4.7l-1.3,1.5l1.3,2.6l-0.2,3.4l4.3,10.7l2.8,4.9l0.4,2.8l6.8,2.7l3.7,4.8
				c3.1,0.2,6.3,0.3,9.4,0.5c0,0.6-0.1,1.2-0.1,1.7l12.6,5.2c3.2,0.1,6.3,0.1,9.5,0.1c0-0.7,0-1.5,0-2.2c2.3,0,4.6,0,6.8,0l1.2,2.2
				l5.6,4.9c0,0.8,0.1,1.5,0.1,2.3l4.9,3.6l2.6-4.4l4.4-0.1l3.8,6.4l3.3,1.7l1.5,5.5l4.7,1c1.1-0.1,2.2-0.2,3.3-0.2l-1.4-5.1
				l0.4-2.6l8-6l-0.1-2.7l2.1,1.1l7.3-0.6l1.4-1.4l2.3,0.7l0,1.4l3.3,0.1l0.4-1.9l3,1.1l-0.3-2.4l-3.6-1.2l1.2-1.6l3.3,0.9l2-1
				l6.2-0.5l3.6-1l0,1.2l1.4,1.6l4.2-2.4l5.8,4l-0.2,3.7l1.8,0.7l-0.8,1.1l2.1,2.5l4.8,4.7l1.1,2.2l2.3-1.1l-0.2-7.2l-3.3-6.4
				l-5.3-7.8l0.5-6.6l3.8-5.2l1.8-3.6l3-3.8l2.6-2.1l-0.6-1.9l0.9-1.3l-0.6-1.5l0.4-1.2l-2.2-3.1l-4.4-3.9l-0.2-3.6l1.3,0.4l2.2,2.1
				l1.3,2.6l1.2-1.8l-0.6-2.2l-2.3-1.8l0.8-1.9l1.9,1.9l0.6-3.1l-1.3-2.1l4.1-1.9l0.6-2.5l-2.7,0.8l0.2-2.3l5.3-2.6l-2.2-1.5
				l-0.7-3.1l2.2-4.8l-0.3-2.4l0.9-0.5l1.3,0.7l1.4-1.8l-1.1-1.9l-2.9-1.5l-2.1-4.5l-1.7-0.3l-1.8,1.6l-0.6,3.8l1.4,1.6l-2.4,3.3
				c-2.8,0.8-5.7,1.6-8.7,2.4l-2.2,4.5l1.8,0.3l-0.9,3l-5,3.4l-1,2.3l-7.5,6.1l-4.2-2.4l0.6-4.5l-0.8-3.5l-3.5,0.7l1.4-3.6l-1.3-2.2
				l-4,0.4l-1.2,2.4l-0.9,4.1l2,4l-2.4,5.1l-3.7-4.2l-0.4-9.9l5.9-4.4l-3-1.4l-4.7,1l-2.1-2l-1.6,0.7l-3.5,4l-4.7-0.2l-1.1-0.6
				l5.2-6.5l0.3-0.4h0l-4.6-0.8l-1.7,1.9l-3.5-1.9l-5.7-0.8l-1.5-1.8l-1.8,2.1c-24.6,2.1-49.9,1.9-73.9-0.4l0.6,3.4l-1.1,2.7l-2,0.5
				l0.8-3.4l-2.4,0.1l-1.9-1.2l0.5,4.9l-2.5,11.6L203.3,163.2z"/>
			<polygon class="st2" points="371.1,38.1 368,36.4 367.3,36.2 369,37.1 370,37.7 			"/>
			<polygon class="st2" points="350.9,31.1 352.9,32.3 353.1,32 			"/>
			<polygon class="st2" points="353.1,32 353.1,32 353.1,32 			"/>
			<polygon class="st2" points="311.9,16.4 309.7,16.1 312,16.8 311.9,16.4 			"/>
			<path class="st2" d="M354,29c-0.3-0.1-0.6-0.3-0.9-0.4l-2-0.9l2.3,1.1l3.5,1.6L354,29z"/>
			<polygon class="st2" points="285.1,8.4 283.8,8.2 281.7,7.9 283.7,8.3 			"/>
			<path class="st2" d="M254.7,8.9l1.1-0.2l3.6-0.1l1.4,0.1l1-0.1l2.6,0l0.6-0.2l2.5-0.1l-0.8-0.2l1.5-0.1l2.9,0.1l-0.4-0.2l3.2-0.2
				l1.9,0.1l0.7,0l-2.1-0.4l-0.7-0.1l0-0.1l1.4,0.1l-1.5-0.2l-1-0.1l-3-0.3l1.4,0.3l0,0.5l-2,0l0.7,0.3l-0.8,0l-1.2-0.2l-1,0.1
				l0.4,0.2l-1.5-0.1l-0.5,0.3l-1.2,0l-0.6-0.1l-0.8,0l0.3,0.1l-1.7,0.1l-4.3,0l-0.5,0.1l-2.9,0.1h0L253,8.6l0.3,0.2
				C253.8,8.9,254.2,8.9,254.7,8.9z"/>
			<polygon class="st2" points="235.2,13.9 235.5,13.6 236.3,13.3 235.7,13 236.2,12.9 235.7,12.5 233.9,12.5 233.8,12.9 
				232.2,13.2 232.6,13.6 			"/>
			<polygon class="st2" points="236.2,12 235,11.9 234.1,12.2 235,12.2 			"/>
			<polygon class="st2" points="229.1,13.2 230.4,13.1 231,12.8 231.5,13 232.7,12.7 232.9,12.5 233.4,12 232.7,12.1 231.7,11.9 
				230.1,12.1 229.2,12.1 227.5,12.5 228.5,12.7 			"/>
			<path class="st2" d="M225,13l0.9,0.3l0.8,0l-0.5-0.7c0.2,0,0.4-0.1,0.6-0.1l-0.9-0.6c-0.2,0-0.4,0.1-0.6,0.1l-0.4,0.3l-1.6,0.3
				l-0.9,0.6l2.3,0.1L225,13z"/>
			<polygon class="st2" points="220.9,13.6 221.2,13.2 219.5,13.3 219.9,13.6 			"/>
			<polygon class="st2" points="195.5,22 193.1,22 190.7,22.7 189.8,23.2 190.1,24 189.3,24.3 189.3,24.8 191.1,25.1 192.8,24.4 
				193.2,23.9 194.9,23.3 193,23.3 196,22.3 			"/>
			<polygon class="st2" points="182.2,25.8 182.9,25.8 185.5,25 186.2,24.4 187.8,23.7 186.5,23.9 184.1,24.6 			"/>
			<polygon class="st2" points="189.9,25.9 191,25.5 189.7,25.6 188.6,26.1 188.2,26.4 187.4,26.7 187,27.4 187.3,27.6 187.3,27.6 
				188.2,27.6 189.2,26.8 189.1,26.6 189.9,26.4 			"/>
			<polygon class="st2" points="172.4,46.9 173.6,47.1 174.5,47.7 176,47.9 177.3,46.6 176,46 173.8,46 			"/>
			<polygon class="st2" points="106.7,54.5 108.9,53.3 111.9,51.2 114.6,49.7 114.3,49.6 111.4,51.3 112.1,50.7 107.1,53.7 
				104.1,55.9 103.6,56 97.5,60.2 95.4,61.9 91.7,64.5 88.7,67 90.9,65.4 88.1,68 89.6,66.9 94,63.1 97.7,60.6 98,60.5 94.8,63.4 
							"/>
			<polygon class="st2" points="87.7,67.9 87.6,67.8 85.9,69.3 82.4,72.2 83.9,70.7 81.9,72.4 79.1,75.1 79.2,75.1 80.8,73.5 
				81.4,73 80.4,74.1 77.1,77.5 79.2,75.8 78.6,76.7 78.9,76.7 79.7,75.7 81.5,74.1 81.1,74.3 82.5,72.8 			"/>
			<polygon class="st2" points="69.4,85.1 70.6,83.7 69.7,84.7 			"/>
			<polygon class="st2" points="69.7,84.7 69.7,84.7 70.1,84.3 			"/>
			<polygon class="st2" points="70.6,83.7 71.1,83.3 71,83.3 			"/>
			<polygon class="st2" points="77.3,76.8 74.2,79.9 71.1,83.3 72.5,81.8 75.4,78.8 76.5,77.7 76.5,77.7 77.7,76.5 			"/>
			<g>
				<path class="st2" d="M304.6,13.9l0.5,0.3l0.3,0.2l1.2,0.2l0.1,0.2l4.4,0.8l-1.2-0.1l-1.8-0.2l2.8,0.8l2.5,0.4l-0.5,0.1l0.4,0.3
					l1.4,0.4l-0.2-0.3l1.6,0.3l0,0.5l1.9,0.6l1,0l0.9,0.3l-0.5,0.2l1.3,0.3l0.8,0.4l0.7-0.2l2.3,0.8l-1.6-0.2l0.7,0.3l-0.3,0
					l5.9,1.8l-3.1-1.2l0.2-0.2l2.3,0.9l0.4-0.1l1,0.6l2.5,1l0.6,0l2,0.9l3.6,1.1l1.1,0.3l4.1,1.9l0.1-0.4l1.9,0.9l0,0.2l1,0.5
					l-0.7,0.1l1.7,0.7l1.7,0.4l1.1,0.6l-1.1-0.1l1.1,0.7l3.3,1.4l0.7,0.8l0.9,0.1l0.9,0.6l0.8,0.3l-1.8-1.4l0.8,0l2.8,2.1l0.4-0.1
					l1.4,0.7l-0.1-0.4l-1.8-1.1l3,1.4l1.2,1l2.8,1.1l-0.1-0.5l1.1,0.5l-2-1.4l0.2,0l-3.4-1.8l-0.6-0.4l-1.2-0.5l-0.4-0.4l-2.2-1
					l1.6,0.4l0.2,0.1l-1.2-0.7l-1.7-0.7l-1.6-0.9l-2.5-0.9c-0.2-0.1-0.4-0.3-0.6-0.4l-1.7-0.7l-0.7,0l-1.6-0.6l-2.7-0.8l-3.5-1.4
					l-0.7-0.6l-1.7-0.5l-0.5,0l-2.7-1c-0.9-0.2-1.7-0.4-2.6-0.7l-1.4-0.6l-0.6-0.1l-2.1-0.7l-1.5-0.3l-2.7-0.9l-0.5-0.4l-1.9-0.4
					l-0.7-0.6l-0.8-0.3l-1.8-0.2l-1.1-0.4l-1.3-0.5l0.3-0.1l0.3-0.1l-0.7-0.4l-1-0.3l-0.3-0.4l-2.1-0.5l-0.7,0l-2-0.4l-2.3-0.7
					l0-0.3l1.2,0.2l0.4-0.1l-2.5-0.6l-0.6-0.2l-1.4-0.1l0,0l1.1,0.5l-2.4-0.6L304.6,13.9z"/>
			</g>
			<polygon class="st2" points="363.8,34.8 367.4,36.9 368.2,37.2 370.3,38.5 373.6,40.2 373.9,40.2 375.8,41.2 374.3,40.1 
				373.8,40 370.7,38.2 368.6,37.1 368.5,37 366.6,36 366.9,36.3 365.3,35.5 			"/>
			<polygon class="st2" points="359.8,32.1 359.8,32.1 359.8,32.1 			"/>
			<path class="st2" d="M318.4,17.9L318.4,17.9l1.1,0.4l1.8,0.2l0.8,0.3l0.7,0.6l1.9,0.4l0.5,0.4l2.7,0.9l1.5,0.3l2.1,0.7l0.6,0.1
				l1.4,0.6c0.9,0.2,1.7,0.4,2.6,0.7l2.7,1l0.5,0l1.7,0.5l0.7,0.6l3.5,1.4l2.7,0.8l1.6,0.6l0.7,0l1.6,0.7l0,0
				c0.2,0.1,0.4,0.3,0.6,0.4l2.5,0.9l1.6,0.9l1.7,0.7l1.2,0.7l3.1,1.3l1,0.3l0.2,0l1,0.5l0.6,0.4l1.1,0.5l1.2,0.6l-1.4-0.9l-3-1.6
				l-1.4-0.8l-3.6-1.8l-1.6-0.8l-0.5-0.2l-0.7-0.4l-0.9-0.4l0,0.1l-0.9-0.4l-1.6-0.9l-2.2-1l1.4,0.8l-2.5-1.1l0.4,0.1l-1.8-0.9
				l-1.1-0.2l0.7,0.4l-2.7-0.9l-0.7-0.3l-2.2-0.7l-2.1-0.9l-3.6-1.4l-2.2-0.9l-3-1l-0.4,0l-1.3-0.4l-0.4,0l-1.4-0.5L326,19l-0.9-0.3
				l-1.9-0.8l-0.7-0.1l-1.2-0.3l-0.4,0.1l-1-0.2l0.3,0.2l-1.3-0.3l0,0.3c0.3,0.1,0.5,0.2,0.8,0.4l-0.2,0.1L318.4,17.9z M357.4,31.4
				l-1-0.5l-1.3-0.7l1.3,0.5l2.1,1.1l1.4,0.8L357.4,31.4z M356.5,30.5l3.3,1.6l0,0l0,0l0,0l-2.1-0.9l-2.8-1.4L356.5,30.5z"/>
			<path class="st2" d="M311,14.7l-1.2-0.3l-0.2,0.1l-1.2-0.2l0,0.3l2.3,0.7l2,0.4l0.7,0l2.1,0.5l0.3,0.4l1,0.3l0.8,0.4l-0.3,0.1
				l-0.3,0.1l1.3,0.5h0l1,0l0.2-0.1c-0.3-0.1-0.5-0.2-0.8-0.4l0-0.3l1.3,0.3l-0.3-0.2l1,0.2l0.4,0l1.2,0.3l0.7,0.1l-0.1-0.1
				c0,0,0,0,0,0l-0.2-0.3l1.3,0.3l1.6,0.6l3.3,1l1,0.3l0.3,0.2l1.8,0.6l1.3,0.6l0.8,0.2l1.5,0.6l2.6,0.7l3.2,1.2l-0.4-0.2l-1.2-0.5
				l0.1,0l1.6,0.6l-3.3-1.4c-0.3-0.1-0.5-0.2-0.8-0.3l-1.6-0.6l0,0l-2-0.7l0.3,0.1l-1.3-0.5l-4.9-1.7l-0.6-0.2l-4.6-1.5l-1.7-0.5
				l-0.3-0.1l0.5,0.2l-1.5-0.4l-0.6-0.2l0.5,0.2l-1.2-0.3l-0.3,0l-1.8-0.5l-1.6-0.1l-1.9-0.5l-1.1-0.2l-0.3,0.1l0.8,0.3l-1-0.2
				L311,14.7z"/>
			<path class="st2" d="M429.3,87.5l3.3,3.2l3.8,4.4l0.2,0.4l1.6,1.8l0.3-0.1l2.9,3.3c-0.3-0.6-0.6-1.3-0.9-1.9l-2.6-3.1l-0.3-0.2
				l-0.8-1.1l-1-0.8l-1.2-1.6l-3.4-3.5l-2-2.4l-1.2-0.9l1.3,2l-1.6-1.4L429.3,87.5z"/>
			<path class="st2" d="M434.4,89.9l-0.8-0.9l-1.4-1.6L430,85l-0.5-0.5l-1.4-1.5l-4.3-4.5l-1.9-1.9l-2-2l-2-1.9l0.6,0.6l1,0.9
				l-0.4-0.3l1.2,1.2l0.7,0.8l-0.8-0.4l1.3,1.6l-0.1,0.1l1.1,1.4l0.2,0.8l1.3,1.9l-0.3,0.2l2.7,3.3l0.2,0.2l2.9,2.4l-1.4-1.8
				l1.6,1.4l-1.3-2l1.2,0.9l2,2.4l3.4,3.5l1.2,1.6l1,0.8l0.8,1.1l0.3,0.2l2.6,3.1l-0.8-1.1l0.8,0.7l1.5,1.7l-0.4-0.8c0,0,0,0,0,0
				l-2.2-2.9l-2.2-2.9l0,0L434.4,89.9z"/>
			<path class="st2" d="M395.6,54.1c-0.8-0.6-1.6-1.2-2.3-1.7l0,0c0,0-0.1,0-0.1,0c0,0,0,0-0.1,0l1.6,1.1l0,0L395.6,54.1z"/>
			<path class="st2" d="M400,57.3c-0.3-0.2-0.5-0.4-0.8-0.6l-0.1-0.1l-0.8-0.6l-0.5-0.4l4.8,3.8l-0.5-0.4L400,57.3z"/>
			<polygon class="st2" points="403.3,59.9 402.7,59.4 405,61.3 			"/>
			<polygon class="st2" points="403.3,59.9 403.9,60.5 405,61.3 			"/>
			<path class="st2" d="M400,57.3c-0.3-0.2-0.5-0.4-0.8-0.6l-0.1-0.1l-0.8-0.6l-2.7-2l-2.2-1.7l-0.9-0.7c0.6,0.4,1.1,0.8,1.7,1.3
				c0.1,0.2,0.1,0.2,1.5,1.2l-0.4-0.2l0.8,0.9l-1.2-0.7c0.3,0.3,0.6,0.6,0.9,0.9l-1.7-1l1.2,1l2.2,1.5l2.5,2.3l0.5,0.2l0.9,0.8
				l0.1,0.6l0.5,0.6l2.5,1.5l1.5,1.7l-0.7-0.3l2.2,2.5l1.9,1.2l-0.8-1.2c0.3,0.2,0.6,0.4,0.9,0.7l-0.7-0.9l0.2,0l1.6,1.3l1.7,1.1
				l3.7,3l4.3,4l0.8,0.4l-0.7-0.8l-1.2-1.2l0.4,0.3l-1-0.9l-0.6-0.6l-0.1-0.1l-0.5-0.5l0,0l-0.4-0.4l-1.7-1.5l-2-1.9l-0.1-0.1
				l-5-4.3l-4.1-3.4l-1.8-1.5L400,57.3z"/>
			<path class="st2" d="M390.6,50.9l2.2,1.8l-1-0.6l2.3,1.8l1.7,1c-0.3-0.3-0.6-0.6-0.9-0.9l1.2,0.7l-0.8-0.9l-0.5-0.3l0,0l-1.6-1.1
				c0,0,0,0,0.1,0l-0.1-0.1l-2-1.4l0.4,0.4l-1.1-0.7L390.6,50.9z"/>
			<path class="st2" d="M389,50.1l1.6,1l1,0.8l0.2,0.2l1,0.6l-2.2-1.8l-0.1-0.2l-1.6-1.1L388,49l-1.2-0.9l-1.2-0.8l-0.7-0.4
				l-1.8-1.2c-0.8-0.5-1.5-0.9-2.3-1.4l0.7,0.5l3,2.1l1.6,0.9l1.2,0.9l-1.8-1L389,50.1z"/>
			<path class="st2" d="M395.6,54l-2.2-1.7l-0.9-0.7c0.6,0.4,1.1,0.8,1.6,1.2c1.1,0.8,2.1,1.5,3,2.2L395.6,54z"/>
			<path class="st2" d="M369.3,37L369.3,37l1.3,0.8l0.5,0.3l1.7,1l2.1,1.3l-0.7-0.2l1.4,1.1l0.9,0.5l1,0.5l0.8,0.6l2.4,1.5l-0.3-0.1
				l0.3,0.2c0.8,0.4,1.5,0.9,2.3,1.4l1.8,1.2l0.7,0.4l1.2,0.8L388,49l0.9,0.5l0,0l1.6,1.1l1.1,0.7l-0.4-0.4l2,1.4l0.1,0.1l0.1,0
				c0.3,0.3,0.7,0.5,1,0.8l-0.2-0.2c0,0,0,0-0.1,0c-3.5-2.5-7.5-5.2-10.6-7.4l-9.3-5.8l0,0l-3.4-2l0,0l-0.4-0.2L369.3,37z"/>
			<path class="st2" d="M397.8,55.6c-0.2-0.2-0.5-0.4-0.7-0.5l1.2,0.9L397.8,55.6z"/>
			<g>
				<polygon class="st2" points="370.8,37.8 369.4,36.9 366.6,35.4 374.2,39.7 374.2,39.7 				"/>
				<polygon class="st2" points="374.2,39.7 374.2,39.7 374.2,39.7 				"/>
				<polygon class="st2" points="365.2,34.6 365.2,34.6 365.7,34.9 365.7,34.9 				"/>
			</g>
			<polygon class="st2" points="338.3,22.2 342.4,23.9 342.2,23.8 			"/>
			<path class="st2" d="M262.1,6.1l4.1,0.3l1.6,0.3l1.2,0l-2-0.3l-0.9-0.1l2.4,0.1l0.6,0.1l2.2,0.2l0.6,0c1,0.1,2,0.2,2.9,0.3
				l1.3,0.1l2,0.3l-1.4-0.1l-1.2-0.1c3,0.4,6.9,0.8,9.9,1.2l-0.3-0.1l1.9,0.3l1.4,0.2l2.4,0.4l0.9,0.2l-1.2-0.2l-2.1-0.4l0.1,0.1
				l3.4,0.7l-0.3-0.2l2,0.3L293,9.5l1.1,0.2l0.9,0.1l0.5,0.1l1.4,0.3l1.4,0.3l3.9,0.8c-6.1-1.4-7.1-1.5-11.8-2.3
				c-10.4-1.6-10.4-1.6-15.7-2.1C265,6,265,6,260.1,5.8c-1.1,0-2.4-0.1-3.7-0.1l0.5,0L262.1,6.1z"/>
			<path class="st2" d="M248.5,5.7l0.3,0.2l-0.5,0.1l1.5,0.2l-1.3,0.3l0.1,0.2l4.1,0.1l0.7-0.1l1-0.3l2.7-0.1L256,6l1.1-0.2
				l-1.9-0.1l-0.5-0.1l-1.1,0l0.3,0C251.9,5.6,250,5.6,248.5,5.7l-0.6,0l0.4,0l-1,0L248.5,5.7z"/>
			<path class="st2" d="M322.7,16.8l-1.7-0.5l-0.3-0.1l0.5,0.2l-1.5-0.4l-0.1,0c2.7,0.8,5.3,1.6,7.6,2.3L322.7,16.8z"/>
			<polygon class="st2" points="307.7,12.6 307.7,12.6 307.7,12.6 			"/>
			<path class="st2" d="M304.8,11.9l-1.4-0.3l-1.1-0.2l0,0c1,0.2,2.2,0.5,3.6,0.8L304.8,11.9z"/>
			<path class="st2" d="M255.2,5.7l-0.7,0l-0.7,0c0.8,0,1.7,0,2.5,0.1L255.2,5.7z"/>
			<path class="st2" d="M307.8,12.6c0,0-0.1,0-0.1,0l1.5,0.4L307.8,12.6z"/>
			<path class="st2" d="M308.8,12.9l-1.2-0.3c-0.6-0.1-1.2-0.3-1.8-0.4l1.8,0.5L308.8,12.9z"/>
			<path class="st2" d="M237.4,5.9l1.8-0.1c0.2,0,0.4,0,0.6,0L237.4,5.9z"/>
			<path class="st2" d="M105.1,53c0.2-0.2,0.5-0.3,0.7-0.5l0.1-0.1L105.1,53z"/>
			<path class="st2" d="M131.9,35.9c-16.6,9.8-17.7,10.5-26.1,16.6l-1.2,0.9l-1.2,0.9l-0.5,0.3l-1.2,0.9l-0.6,0.4l0.3-0.3l-1.1,0.8
				l-6.8,5.5l-1.4,1.2l1.7-1.3l4.2-2.9l1-0.5l3.6-2.5l0.3-0.1l2.2-1.5l2.8-1.5l3.3-2.1l1.4-0.8l1.5-1.1l2.2-1.4l1.3-1.2l-2.5,1.3
				l1.6-1.3l1.8-1.1l-0.2-0.1l2.5-1.3l0.6-0.7l1.8-1.1l1.2,0l1.7-0.6l-0.2,0.3l1.7-0.8l1.1,0.2l1.3-0.5l1.8,0.3l-1.3,1.9l-1.2,0.9
				L129,45l-0.9,0.8l0.7,0.1l-1.3,2.1l-1.4,0.8l-0.1-0.6l-1,0.7l-1.1,1.6l1.2-0.1l-0.2,1.2l1.3-0.7l0.6-1l2.4-0.6l1.3,0l1.9-0.4
				l1.3-0.6l0.8,0.2l0.3,1.1l-0.7,0.7l0.9,0.2l-1.3,0.7l-1.7,0.4l-1.7,1.3l3.8-0.4l-0.8,1l3.4-1.7l1.2,0.7l-1.3,1.3l-0.9-0.8
				l-2.9,1.5l-1.9,0.7l-1.9-0.5l-1.1,0.5l-4.6,0.6l-1.4,0.7l-0.2-0.7l-1.3,0.6l-0.4-1.1l-1.8,1.3l-1.9,0.3l-4,1.9l-8.9,6l-0.8,1
				l-1,0.4l-3.5,2.6l-0.1,0.4l-1.3,1l2.1-0.5l4.9-3l0.2,1.4l2-1.5l1.8-1l1.2-0.1l-1.1,1.5l1.5-0.4l1.4-1.3l2-1.2l2.5-0.8l-1.6,1.1
				l-0.2,0.7l2.3-1.4l0.3-0.8l2.2-1.4l1.4-0.4l0.6-0.9l-0.6-0.1l0.9-0.8l2.1-0.9l1.3,0l1.5-0.9l1.9-0.6l1.2,0l-1.2,1.1l-0.2,0.4
				l1.5-0.7l1.4,0l-2.3,1.2l0.6,0.3l1.9-0.9l0.9,1.6l-2.4,2.4l2.2-1l2.4,0.3l1.1-0.7l0.7,0.4l2.2-0.6l-0.6,0.8l2.3,0l2.4,0.3l1.6-1
				l-0.6,0.8l-0.7,0.5l0,1.7l1.5-0.2l1.5-1.2l0.8-1l1.6-1l1.4-1.4l-1,0.3l0.5-0.9l2.1-1.5l-0.6,1.8l1.2,0.3l3.8-1.1l0.7-0.8l1.4-0.9
				l0.5,0.4l-0.3,0.6l-2.3,1.4l1,0.8l1.6-0.5l-0.2,0.9l-2.6,2l0.9,0.8l-0.8,1.8l0.7,0.9l2.6-1.5l2.8-2.7l-0.5,2.1l1,0.3l2.7-0.7
				l0.2-1.4l0.7-1.7l-1-0.4l-0.2-1.5l-2.6,1.9l-0.3-0.9l1.7-1.2l1.3-0.5l1.7-3.1l-0.3-0.4l0.9-0.6l-1,0.1l1-0.9l1.2-2.7l0.1-1.7
				l0.5-0.7l-0.5-1.4l-1.1,0l0.6-1.1l-0.1-1.2l-0.7,0.2l-0.8,0.8l-1.6,1l-1.6,0.3l-0.1-0.7l1.1-0.6l0.4-0.8l1.6-0.6l0.1,0.4l1.1-0.1
				l0.2-0.9l-2.8,0.3l0.5-1.6l0.5-0.5l-1.3-1l-1.4,0.2l2.1-1.1l0.4-0.6l2.2-0.5l2.4-1.2l1.4-1.1l0.4-1.1l-0.8,0
				c0.1-0.2,0.1-0.5,0.2-0.7l-0.5-0.7l2.7-1.2l-0.3-0.6l1.5-0.2l0.5-0.3c0.1-0.1,0.1-0.2,0.2-0.4l1.6-0.1l1.1-0.4l0.6-0.9l-2.2,0
				l0.3-0.6l2.5,0.1l1.9-1.3l1.2-1.1l1.2-0.7l-2.7,0.3l-0.6-0.2l-1.8,0.4l0.9-0.5l-0.4-0.2l-1.3,0.1l1.6-0.5l1.5-0.7l-0.8-0.3
				l3.9-1.3l-3.6-0.1l2.3-0.8l2.5-0.4l1.6-0.4l2.7-0.2l1.9-0.7l-3.2,0.3l1.7-0.7l3.4,0.1l0.8-0.5l2.4-0.5l-1.4-0.1l0.4-0.3l-2.1,0.2
				l2.5-1l1.5-0.3l-0.1-0.2l1.8-0.4l0.9,0.1l3-1l0.8-0.5l-1.9-0.2l3.4-0.2l0.3-0.3l1.7-0.2l0.5-1l2.7-1l0.3,0.4l-0.3,0.4l-0.9,0.3
				l0.1,0.4l-0.6,0.2l0.5,0.5l-0.7,0.1l-0.1,0.6l3,0l1.6-0.2l1.7-0.1l0.3-0.3l1-0.1L216,13l1.2-0.4l0.1,0.4l0.8-0.1l0.7-0.4l1.4-0.2
				l-0.9,0.6l0.8,0l2.4-0.5l0.3-0.6l-2.9-0.1l2-0.2l1.3-0.3l-1.2-0.1l-2.1-0.3l1.8-0.1l1.7,0.3l0.4-0.3l1.6-0.4l0.6,0.1l2.5-0.4
				l-0.9-0.1l1.7-0.4l2.3-0.3l1-0.5l0.3-0.2l1.3-0.1L233.7,8L231,7.8l2.1-0.2l0.9,0.1l2-0.1l3.4-0.4l-1-0.3l-1.8,0l-0.4-0.1l-2.7,0
				l0.4-0.3L233,6.4l2,0l-0.1,0.3l1.7,0l1.7,0.1l2.9-0.1l0.3-0.2l1.7,0l0.7-0.2l-1.9,0l-0.6,0l-1.7,0l0.9-0.2l1.2,0.1l3.2-0.1l0,0.2
				l1.2,0.3l0.3-0.2l1.2-0.1l0.6-0.1l-1.9-0.2l0.9-0.1l-0.5-0.1l-2.7,0.1l-3.7,0.1l-0.3,0l-0.8,0c-2.6,0.1-5.9,0.3-8.4,0.5
				c-10.4,1-10.5,1-15.9,1.8c-11.3,1.9-11.8,1.9-18,3.3C167.7,18.6,153.8,24.5,131.9,35.9z"/>
			<path class="st2" d="M309.6,13.6l-2.5-0.7l0.5,0.1l-2.9-0.8l-0.9-0.2l-1.9-0.5l-4.1-0.8l0,0l-0.8-0.1l-0.4,0l2.5,0.7l1.1,0.5
				l2.7,0.9l1.9,0.6l-1.7-0.3l0.9,0.4l0.8,0.1l0.7,0.3l1.4,0.1l0.6,0.2l2.5,0.6l-0.2,0.1l1.2,0.3l0.2,0l1,0.2l-0.8-0.3l0.3-0.1
				l1.1,0.2l1.9,0.5l1.6,0.1l1.8,0.5l0.3,0l1.2,0.3l-0.5-0.2l0.5,0.1c-3.3-1-6.7-2-9.6-2.8l0.5,0.1l1.6,0.4l-3.2-0.7L309.6,13.6z"/>
			<polygon class="st2" points="242.9,5.7 245.9,5.7 244.8,5.7 241.5,5.7 241.7,5.8 			"/>
			<polygon class="st2" points="241.4,5.7 240.7,5.8 241.5,5.7 			"/>
			<polygon class="st2" points="244.8,5.7 244.8,5.7 244.9,5.6 			"/>
			<polygon class="st2" points="100.3,56.6 101.2,56 101.4,55.8 			"/>
			<polygon class="st2" points="101.7,55.6 102.9,54.7 103.4,54.4 104.6,53.5 105.8,52.5 105.1,53 101.2,56 101.1,56 			"/>
			<path class="st2" d="M154.7,70.5C154.8,70.4,154.8,70.4,154.7,70.5l0.3-2.5l-1.6-1.2l-1.6,1.5l1.5,0l-0.4,2.1L154.7,70.5z"/>
			<polygon class="st2" points="113.3,96.4 114.3,96 115,97.1 115.7,96.7 115.2,94.5 112.7,94.9 			"/>
			<polygon class="st2" points="111.4,95.3 111,93.4 108.9,94.6 			"/>
			<path class="st2" d="M121.5,98.4l1.1-0.8l-0.3-0.7l-2.1,0.6C120.7,97.9,121.1,98.1,121.5,98.4z"/>
			<path class="st2" d="M109,71.3l1-0.6l1.8-1.9c0-0.1-0.1-0.3-0.1-0.4l-1.4,1.3L109,71.3z"/>
			<path class="st2" d="M105.8,82.1l0.7-0.9c-0.1-0.2-0.2-0.4-0.4-0.7l-1,1.4L105.8,82.1z"/>
			<polygon class="st2" points="123.5,60.1 125.2,58.9 124.4,58.7 122.3,59.7 			"/>
			<polygon class="st2" points="120.1,44.7 121.5,43.7 121.2,43.7 119.2,45 			"/>
			<polygon class="st2" points="119.2,45 119.2,45 119.2,45 			"/>
			<polygon class="st2" points="95.2,69.7 93.7,71 94.5,71 96.3,70.2 96.9,69.6 96.4,69.4 95.5,69.9 			"/>
			<polygon class="st2" points="80.9,75.4 82.2,74 80.4,75.3 80.4,75.3 			"/>
			<path class="st2" d="M81.5,75l0.6,0.1l0.4,0.1c0.4-0.3,0.7-0.6,1.1-0.9l-0.4-0.2l0.4-0.4L81.5,75z"/>
			<polygon class="st2" points="83.7,75.2 84.6,74.5 83.8,74.5 82.7,75.3 			"/>
			<polygon class="st2" points="77.4,76.9 78.2,76 77.7,76.5 77.1,77.1 			"/>
			<polygon class="st2" points="37,344.8 38.1,345.1 36.5,342.5 35.6,342.3 			"/>
			<polygon class="st2" points="39.8,348.5 41,349 39.7,346.8 38.4,346.3 			"/>
			<polygon class="st2" points="41.8,368.6 41.9,368.2 40.8,366.3 40.2,366.3 			"/>
			<polygon class="st5" points="364,217.4 367.2,222.3 367.6,219.4 			"/>
			<path class="st5" d="M364.1,220.2l-1.3-1.8c-0.7,0.2-1.4,0.3-2.1,0.5c-0.5,0.1-0.9,0.2-1.4,0.3l1.3,1.8c0.2,0,0.4-0.1,0.6-0.1
				C362.2,220.6,363.1,220.4,364.1,220.2z"/>
			<polygon class="st5" points="383.5,236.8 382.9,239 385.2,238.8 385.9,236.6 			"/>
			<polygon class="st5" points="427.2,249.7 426.3,247.7 424.8,247.9 425.6,250 425.6,250 			"/>
			<path class="st5" d="M429,255.8l0-2.4l-1.2-1.4l-1.1-0.1l1.1,2.7l-0.2,1.8C428.1,256.2,428.6,256,429,255.8z"/>
			<polygon class="st5" points="428.3,258.8 427.6,260.7 428.3,262.1 429.1,260.5 			"/>
			<path class="st5" d="M424.3,244.5c-0.5,0.2-1.1,0.4-1.6,0.7l0.8,1.4c0.5-0.2,1-0.4,1.5-0.6L424.3,244.5z"/>
			<path class="st5" d="M420.4,241.6c-0.5,0.2-1.1,0.4-1.6,0.7l0.8,1.4c0.5-0.2,1-0.4,1.5-0.6L420.4,241.6z"/>
			<polygon class="st2" points="323.4,339.5 323.3,341.9 322.5,343.5 324.4,344.1 325.4,341.6 			"/>
			<path class="st2" d="M327.6,342.1c0,0.5,0,1,0,1.6l2-1.1l-0.5-1.4L327.6,342.1z"/>
			<path class="st5" d="M82.8,227c0.7,0.3,1.4,0.6,2.1,0.9l-0.3-2.9c-0.8-0.3-1.5-0.6-2.2-0.9L82.8,227z"/>
			<path class="st5" d="M77.9,219.8c0.3-0.8,0.5-1.6,0.8-2.4l-2-0.1c-0.3,0.8-0.5,1.6-0.8,2.4L77.9,219.8z"/>
			<path class="st2" d="M403.3,272.6l-1.2-0.9l-0.9,1.7l0.5,1.3c0.6-0.2,1.2-0.4,1.8-0.6C403.5,273.5,403.4,273.1,403.3,272.6z"/>
			<polygon class="st2" points="485,197.4 484.5,196.8 484.7,198.2 485.4,199.5 			"/>
			<polygon class="st2" points="483.6,191.1 483.6,192.1 484.2,193.9 484.3,193.1 			"/>
			<polygon class="st2" points="481.8,191.4 482,193.8 482.6,193.5 			"/>
			<polygon class="st2" points="466,140.6 466,140.6 466,140.6 			"/>
			<polygon class="st2" points="465.2,138.7 464.4,137.9 465.1,139.4 466,140.6 			"/>
			<polygon class="st2" points="463.7,137.1 464.4,139.5 465.5,140.8 			"/>
			<path class="st2" d="M462.7,133.1l-0.4-0.5l1.9,3.7c0-0.2-0.1-0.5-0.1-0.7L462.7,133.1z"/>
			<path class="st2" d="M441.4,119.1c-0.1,0.3-0.2,0.7-0.3,1l0.9,1.5l0.5-1.4L441.4,119.1z"/>
			<polygon class="st2" points="438.8,120.3 437.8,119.9 438.5,121.6 439.4,121.6 			"/>
			<polygon class="st2" points="7.5,216.7 7.7,215.2 7.6,215.8 7.3,217.9 			"/>
			<polygon class="st2" points="10.2,299.6 10.2,299.8 10.4,300.7 10.4,300.4 10.1,298.8 			"/>
			<polygon class="st2" points="20.9,336.6 20.4,335.1 20.7,336 			"/>
			<polygon class="st2" points="68.5,306.1 70,305.4 69.1,302.9 68,304.4 			"/>
			<polygon class="st2" points="100.6,389 102.2,389.1 100.4,386.6 99.3,387.1 			"/>
			<polygon class="st2" points="93.4,383.4 94.8,383.7 94.7,382.2 93.2,381.4 			"/>
			<polygon class="st2" points="131,370.9 132.6,370.8 131.7,368.6 130,369.2 			"/>
			<polygon class="st2" points="128.2,367.2 128.2,367.2 128.2,367.2 			"/>
			<polygon class="st2" points="126.2,364.6 128.2,367.2 129.6,366 			"/>
			<polygon class="st2" points="103.2,381.3 103.7,379.8 102.2,378.7 101,379.2 			"/>
			<polygon class="st2" points="107.2,384.3 109.2,385.8 108.9,383.9 107.3,383.2 			"/>
			<polygon class="st2" points="114.1,390 111.8,389.8 113.3,391.9 			"/>
			<polygon class="st2" points="248.9,437.2 247.6,436.5 246.5,437.4 248.2,438.1 			"/>
			<polygon class="st2" points="248.2,438.1 248.2,438.1 248.2,438.1 			"/>
		</g>
	</g>
</g>
</svg>
