<?xml version="1.0" encoding="utf-8"?>
<!-- Generator: Adobe Illustrator 25.2.3, SVG Export Plug-In . SVG Version: 6.00 Build 0)  -->
<svg version="1.1" id="Layer_1" xmlns="http://www.w3.org/2000/svg" xmlns:xlink="http://www.w3.org/1999/xlink" x="0px" y="0px"
	 viewBox="0 0 100 125" style="enable-background:new 0 0 100 125;" xml:space="preserve">
<style type="text/css">
	.st0{clip-path:url(#SVGID_3_);fill:none;stroke:#C9C9C9;stroke-width:0.5939;stroke-linecap:round;stroke-linejoin:round;}
</style>
<g>
	<image style="overflow:visible;" width="76" height="33" xlink:href="982D1C06.png"  transform="matrix(1 0 0 1 10 83)">
	</image>
	<g>
		<defs>
			<path id="SVGID_1_" d="M56.4,40.9l-4.1-2.7L18.1,91.2c-0.1,0.1-0.1,0.1-0.1,0.2l0,0h0c-0.1,0.1-0.1,0.3-0.1,0.4
				c0,0.8,1.2,1.5,2.8,1.5c1.2,0,2.3-0.5,2.6-1.1l0,0L56.4,40.9z"/>
		</defs>
		<linearGradient id="SVGID_2_" gradientUnits="userSpaceOnUse" x1="39.0215" y1="67.871" x2="34.888" y2="65.199">
			<stop  offset="0" style="stop-color:#CCCCCC"/>
			<stop  offset="0.2697" style="stop-color:#B3B3B3"/>
			<stop  offset="0.573" style="stop-color:#404040"/>
			<stop  offset="0.6175" style="stop-color:#313131"/>
			<stop  offset="0.6729" style="stop-color:#252525"/>
			<stop  offset="0.7303" style="stop-color:#212121"/>
			<stop  offset="0.7456" style="stop-color:#4D4D4D"/>
			<stop  offset="0.7652" style="stop-color:#7E7E7E"/>
			<stop  offset="0.7845" style="stop-color:#A7A7A7"/>
			<stop  offset="0.8034" style="stop-color:#C7C7C7"/>
			<stop  offset="0.8215" style="stop-color:#DDDDDD"/>
			<stop  offset="0.8387" style="stop-color:#EBEBEB"/>
			<stop  offset="0.8539" style="stop-color:#F0F0F0"/>
			<stop  offset="0.9051" style="stop-color:#ECECEC"/>
			<stop  offset="0.9506" style="stop-color:#E1E1E1"/>
			<stop  offset="0.9938" style="stop-color:#CFCFCF"/>
			<stop  offset="1" style="stop-color:#CCCCCC"/>
		</linearGradient>
		<use xlink:href="#SVGID_1_"  style="overflow:visible;fill:url(#SVGID_2_);"/>
		<clipPath id="SVGID_3_">
			<use xlink:href="#SVGID_1_"  style="overflow:visible;"/>
		</clipPath>
		<path class="st0" d="M17.5,90.9c0,0.2,0,1,0.4,1.6c0.5,0.5,1.5,0.9,2.7,0.9c1,0,1.9-0.2,2.4-0.6c0.5-0.4,1.7-1.6,1.8-1.7"/>
		<g style="opacity:0.8;clip-path:url(#SVGID_3_);">
			<image style="overflow:visible;" width="23" height="19" xlink:href="982D1C0A.png"  transform="matrix(1 0 0 1 41 36)">
			</image>
		</g>
	</g>
	<g>
		<defs>
			<path id="SVGID_4_" d="M85.1,28.7c0,12-9.7,21.7-21.7,21.7c-12,0-21.7-9.7-21.7-21.7S51.4,7,63.4,7C75.4,7,85.1,16.7,85.1,28.7z"
				/>
		</defs>
		<clipPath id="SVGID_5_">
			<use xlink:href="#SVGID_4_"  style="overflow:visible;"/>
		</clipPath>
		<g style="clip-path:url(#SVGID_5_);">
			<image style="overflow:visible;" width="57" height="57" xlink:href="982D1C0D.png"  transform="matrix(1 0 0 1 35 -2)">
			</image>
		</g>
	</g>
</g>
</svg>
