<?xml version="1.0" encoding="utf-8"?>
<!-- Generator: Adobe Illustrator 25.2.3, SVG Export Plug-In . SVG Version: 6.00 Build 0)  -->
<svg version="1.1" id="Layer_1" xmlns="http://www.w3.org/2000/svg" xmlns:xlink="http://www.w3.org/1999/xlink" x="0px" y="0px"
	 viewBox="0 0 1920 50" style="enable-background:new 0 0 1920 50;" xml:space="preserve">
<style type="text/css">
	.st0{fill:#717880;}
	.st1{fill:#323B42;}
	.st2{fill:#FFFFFF;}
</style>
<g>
	<rect x="1914.8" y="11.8" class="st0" width="5.2" height="0.9"/>
</g>
<g>
	<rect class="st1" width="1920" height="50"/>
	<g>
		<rect x="1288.8" y="19.6" class="st2" width="10.4" height="1.6"/>
		<rect x="1247.1" y="19.6" class="st2" width="10.4" height="1.6"/>
		<rect x="1267.9" y="19.6" class="st2" width="10.4" height="1.6"/>
		<rect x="1205.3" y="19.6" class="st2" width="10.4" height="1.6"/>
		<rect x="1226.2" y="19.6" class="st2" width="10.4" height="1.6"/>
		<rect x="1184.5" y="19.6" class="st2" width="10.4" height="1.6"/>
		<rect x="1351.4" y="19.6" class="st2" width="10.4" height="1.6"/>
		<rect x="1372.3" y="19.6" class="st2" width="10.4" height="1.6"/>
		<rect x="1393.1" y="19.6" class="st2" width="10.4" height="1.6"/>
		<rect x="1330.5" y="19.6" class="st2" width="10.4" height="1.6"/>
		<rect x="1309.7" y="19.6" class="st2" width="10.4" height="1.6"/>
		<rect x="1038.4" y="19.6" class="st2" width="10.4" height="1.6"/>
		<rect x="1017.6" y="19.6" class="st2" width="10.4" height="1.6"/>
		<rect x="1163.6" y="19.6" class="st2" width="10.4" height="1.6"/>
		<rect x="955" y="19.6" class="st2" width="10.4" height="1.6"/>
		<rect x="1414" y="19.6" class="st2" width="10.4" height="1.6"/>
		<rect x="975.8" y="19.6" class="st2" width="10.4" height="1.6"/>
		<rect x="996.7" y="19.6" class="st2" width="10.4" height="1.6"/>
		<rect x="1121.9" y="19.6" class="st2" width="10.4" height="1.6"/>
		<rect x="1142.7" y="19.6" class="st2" width="10.4" height="1.6"/>
		<rect x="1059.3" y="19.6" class="st2" width="10.4" height="1.6"/>
		<rect x="1080.1" y="19.6" class="st2" width="10.4" height="1.6"/>
		<rect x="1101" y="19.6" class="st2" width="10.4" height="1.6"/>
		<rect x="1476.6" y="19.6" class="st2" width="10.4" height="1.6"/>
		<rect x="1768.7" y="19.6" class="st2" width="10.4" height="1.6"/>
		<rect x="1747.9" y="19.6" class="st2" width="10.4" height="1.6"/>
		<rect x="1727" y="19.6" class="st2" width="10.4" height="1.6"/>
		<rect x="1685.3" y="19.6" class="st2" width="10.4" height="1.6"/>
		<rect x="1434.9" y="19.6" class="st2" width="10.4" height="1.6"/>
		<rect x="1706.1" y="19.6" class="st2" width="10.4" height="1.6"/>
		<rect x="1893.9" y="19.6" class="st2" width="10.4" height="1.6"/>
		<rect x="1810.5" y="19.6" class="st2" width="10.4" height="1.6"/>
		<rect x="1873" y="19.6" class="st2" width="10.4" height="1.6"/>
		<rect x="1852.2" y="19.6" class="st2" width="10.4" height="1.6"/>
		<rect x="1831.3" y="19.6" class="st2" width="10.4" height="1.6"/>
		<rect x="1664.4" y="19.6" class="st2" width="10.4" height="1.6"/>
		<rect x="1539.2" y="19.6" class="st2" width="10.4" height="1.6"/>
		<rect x="1518.3" y="19.6" class="st2" width="10.4" height="1.6"/>
		<rect x="1497.5" y="19.6" class="st2" width="10.4" height="1.6"/>
		<rect x="934.1" y="19.6" class="st2" width="10.4" height="1.6"/>
		<rect x="1455.7" y="19.6" class="st2" width="10.4" height="1.6"/>
		<rect x="1643.5" y="19.6" class="st2" width="10.4" height="1.6"/>
		<rect x="1622.7" y="19.6" class="st2" width="10.4" height="1.6"/>
		<rect x="1560.1" y="19.6" class="st2" width="10.4" height="1.6"/>
		<rect x="1601.8" y="19.6" class="st2" width="10.4" height="1.6"/>
		<rect x="1580.9" y="19.6" class="st2" width="10.4" height="1.6"/>
		<rect x="1789.6" y="19.6" class="st2" width="10.4" height="1.6"/>
		<rect x="287.2" y="19.6" class="st2" width="10.4" height="1.6"/>
		<rect x="266.4" y="19.6" class="st2" width="10.4" height="1.6"/>
		<rect x="182.9" y="19.6" class="st2" width="10.4" height="1.6"/>
		<rect x="224.7" y="19.6" class="st2" width="10.4" height="1.6"/>
		<rect x="203.8" y="19.6" class="st2" width="10.4" height="1.6"/>
		<rect x="245.5" y="19.6" class="st2" width="10.4" height="1.6"/>
		<rect x="391.6" y="19.6" class="st2" width="10.4" height="1.6"/>
		<rect x="370.7" y="19.6" class="st2" width="10.4" height="1.6"/>
		<rect x="329" y="19.6" class="st2" width="10.4" height="1.6"/>
		<rect x="308.1" y="19.6" class="st2" width="10.4" height="1.6"/>
		<rect x="913.2" y="19.6" class="st2" width="10.4" height="1.6"/>
		<rect x="349.8" y="19.6" class="st2" width="10.4" height="1.6"/>
		<rect x="36.9" y="19.6" class="st2" width="10.4" height="1.6"/>
		<rect x="16" y="19.6" class="st2" width="10.5" height="1.6"/>
		<rect y="19.6" class="st2" width="5.6" height="1.6"/>
		<rect x="78.6" y="19.6" class="st2" width="10.4" height="1.6"/>
		<rect x="57.7" y="19.6" class="st2" width="10.4" height="1.6"/>
		<rect x="141.2" y="19.6" class="st2" width="10.4" height="1.6"/>
		<rect x="120.3" y="19.6" class="st2" width="10.4" height="1.6"/>
		<rect x="162" y="19.6" class="st2" width="10.4" height="1.6"/>
		<rect x="99.5" y="19.6" class="st2" width="10.4" height="1.6"/>
		<rect x="412.4" y="19.6" class="st2" width="10.4" height="1.6"/>
		<rect x="683.7" y="19.6" class="st2" width="10.4" height="1.6"/>
		<rect x="788" y="19.6" class="st2" width="10.4" height="1.6"/>
		<rect x="767.2" y="19.6" class="st2" width="10.4" height="1.6"/>
		<rect x="433.3" y="19.6" class="st2" width="10.4" height="1.6"/>
		<rect x="704.6" y="19.6" class="st2" width="10.4" height="1.6"/>
		<rect x="746.3" y="19.6" class="st2" width="10.4" height="1.6"/>
		<rect x="871.5" y="19.6" class="st2" width="10.4" height="1.6"/>
		<rect x="892.4" y="19.6" class="st2" width="10.4" height="1.6"/>
		<rect x="829.8" y="19.6" class="st2" width="10.4" height="1.6"/>
		<rect x="850.6" y="19.6" class="st2" width="10.4" height="1.6"/>
		<rect x="808.9" y="19.6" class="st2" width="10.4" height="1.6"/>
		<rect x="725.4" y="19.6" class="st2" width="10.4" height="1.6"/>
		<rect x="495.9" y="19.6" class="st2" width="10.4" height="1.6"/>
		<rect x="537.6" y="19.6" class="st2" width="10.4" height="1.6"/>
		<rect x="516.8" y="19.6" class="st2" width="10.4" height="1.6"/>
		<rect x="475" y="19.6" class="st2" width="10.4" height="1.6"/>
		<rect x="454.2" y="19.6" class="st2" width="10.4" height="1.6"/>
		<rect x="642" y="19.6" class="st2" width="10.4" height="1.6"/>
		<rect x="662.8" y="19.6" class="st2" width="10.4" height="1.6"/>
		<rect x="621.1" y="19.6" class="st2" width="10.4" height="1.6"/>
		<rect x="579.4" y="19.6" class="st2" width="10.4" height="1.6"/>
		<rect x="558.5" y="19.6" class="st2" width="10.4" height="1.6"/>
		<rect x="600.2" y="19.6" class="st2" width="10.4" height="1.6"/>
	</g>
</g>
</svg>
