<?xml version="1.0" encoding="utf-8"?>
<!-- Generator: Adobe Illustrator 25.2.3, SVG Export Plug-In . SVG Version: 6.00 Build 0)  -->
<svg version="1.1" id="Layer_1" xmlns="http://www.w3.org/2000/svg" xmlns:xlink="http://www.w3.org/1999/xlink" x="0px" y="0px"
	 viewBox="0 0 1920 650" style="enable-background:new 0 0 1920 650;" xml:space="preserve">
<style type="text/css">
	.st0{fill:#EF6F65;}
	.st1{fill:#E5645A;}
	.st2{fill:#F7857C;}
</style>
<g>
	<path class="st0" d="M1920,307.8V650H0V307.8c25.8,0,48.7-0.4,68.3-2c4.3-0.4,20.6-0.6,24.6-0.8c18.1-0.8,68.6-10.6,87.3-10.5
		c9.9,0,21.1,0,31.4-0.2c16.1-0.3,30-0.9,33.3-1.7c14.6-3.6,71.1-57.5,74.7-70.2c3.6-12.8,12.7-130.2,20-133.8
		c7.3-3.6,30-11.8,30.9-6.4c0.9,5.5,7.6,12,7.6,12l8.8-2.9c0,0,6.4-66.5,8.2-73.8c1.8-7.3,36.4-19.1,50.9-17.3
		c13.1,1.6,78.7,16.6,106.7,16.4c3.1,0,6.8-16.6,8.8-16.6c2.4,0,4.9,0.2,7.4,0.4c18.5,1.8,38.9,9.1,45.3,17.1
		c7.3,9.1,9.1,30.1,11.8,38.3c2.7,8.2,7.3,28.2,10,39.2c2.7,10.9-0.9,20-0.9,27.3c0,7.3,0.9,15.4,15.5,34.6
		c14.1,18.6,32.5,33.6,34.4,39.5l0,0.1l0.1,0.5c0.1,0.5,0.1,0.5,0.1,0.1c0.3-4-1.8-52.7,3.2-56.1c0.8-0.6,1.8-0.8,2.8-0.8
		c5.8,0.1,14.4,7.8,19,11.3c5.5,4.1,11.5,90.1,14.7,97.9c3.1,7.8,18.5,45.7,32.3,51.3c11.3,4.5,94.4,10,136.5,12.3
		c4.7,0.3,8.9,0.5,12.4,0.6c3.5,0.2,6.4,0.3,8.4,0.3c3.5,0.1,7.2-0.2,11-0.8l0.4-0.1c19.4-3.2,40.5-14,50.3-13.3
		c5.4,0.4,25.3,3.8,46.4,7.6c25.1,4.4,51.9,9.2,57.3,9.7c10,0.9,70-20.9,73.7-26.4c3.6-5.5,32.7-51,34.6-63.7
		c1.8-12.7,19.1-24.6,26.4-23.7c0.7,0.1,1.4,0.5,2.1,1.2c5.5,6,7,31.6,7,31.6s13.6-106.5,24.5-114.7c10.9-8.2,22.8-13.6,36.4-14.6
		c4.5-0.3,9.2-0.7,14-1.3c9.7-1.1,19.3-2.6,26-4.3c2.2-0.6,4.5-1.2,7.2-1.7h0c7.8-1.5,18.3-2.3,35.9-0.3c4.2,0.5,8.9,1.1,14,2
		c3.4,0.6,0.6,55.7,3.8,57.1c0,0,0.1,0,0.1,0c0,0,0.1,0,0.1,0c2.2-0.4,4-22.1,5.9-37.8v0c1.1-9,2.2-16,3.4-15.8
		c24.1,4,42.4,7.3,46,9.5c4.6,2.7,20.9,51.9,29.1,54.6c8.2,2.7,31.8,2.3,35.9,8.9c4.1,6.6,40.3,108.2,44.9,116.4
		c4.5,8.2,3.3,13.3,105.6,14.6c15.9,0.2,53.5-7.1,70.9-6.9c48.5,0.6,88.2,7,120.3,8.4C1878.2,311.4,1901.9,307.8,1920,307.8z"/>
	<path class="st1" d="M1385.5,158.2c-3.6-0.8-17.2-10.3-18-30.2c-0.8-20.1,0-28.5,0-28.5l0.2-0.3c4.2,0.5,8.9,1.1,14,2
		C1385.1,101.7,1382.3,156.8,1385.5,158.2z"/>
	<path class="st1" d="M1920,307.8v118.6c-214.4-18.4-501.4-42.9-502.4-43c-1.7-0.1-53.5-43.8-53.5-43.8s6.8-6.6,12.8-8
		c6-1.4,77.7-6.8,89.1-15c3.2-2.3,5.2-13.5,6.3-28.6c0.4-5.4-91.7-0.2-91.5-6.3c0.2-5.8,92.2-14.2,92.2-20.3
		c-0.2-33.5-2.8-76.3-7-76.6c-7.9-0.6-28.9-19.8-28.9-19.8s-7.1-30-9.1-30s-36.5-14.7-36.5-14.7v0c1.1-9,2.2-16,3.4-15.8
		c24.1,4,42.4,7.3,46,9.5c4.6,2.7,20.9,51.9,29.1,54.6c8.2,2.7,31.8,2.3,35.9,8.9c4.1,6.6,40.3,108.2,44.9,116.4
		c4.5,8.2,3.3,13.3,105.6,14.6c15.9,0.2,53.5-7.1,70.9-6.9c44.7,0.5,89.6,7.1,120.3,8.4C1881.9,311.5,1900.5,307.8,1920,307.8z"/>
	<path class="st1" d="M685.4,196.9c0.3-4-1.8-52.7,3.2-56.1c0.8-0.6,1.8-0.8,2.8-0.8c0,0-1.8,26.1,1.4,30.7
		c3.2,4.5,4.5,33.9,4.5,33.9L685.4,196.9z"/>
	<path class="st1" d="M1223.6,236c0,0-11,5.3-10.9,3.6c0.1-1.6,3.8-34.4,3.9-35.2C1222.1,210.4,1223.6,236,1223.6,236z"/>
	<path class="st2" d="M691.4,140.1c0,0,14.9,8.9,17.1,14.8c2.2,5.9-0.5,14.1-0.7,17.7s6.7,40.4,6.7,62.3c0,21.9,17.4,60.2,29.1,72.2
		c7.7,7.9,70.5,7.9,112.5,7c18.5,2.7,61.2,8,63.4,7.7c17.4-2.4,62.8-16.3,64.3-16.3c2.6,0,38.8,1.9,38.8,1.9
		c-21-3.7-41-7.1-46.4-7.6c-9.8-0.8-30.9,10-50.3,13.3c0,0,0,0,0,0c-0.1,0-0.2,0-0.4,0.1c-3.7,0.6-7.4,0.9-11,0.8
		c-4-0.1-11.4-0.5-20.8-1c0,0,0,0,0,0c-11.8-0.6-26.9-1.5-42.7-2.6c-0.2,0-0.4,0-0.5,0c-1.3-0.1-2.6-0.2-4-0.3
		c-1.3-0.1-2.7-0.2-4-0.3c-1.3-0.1-2.7-0.2-4-0.3c-1.5-0.1-2.9-0.2-4.3-0.3c-1-0.1-2-0.2-3-0.2c-3.1-0.2-6.2-0.5-9.3-0.7
		c-1.1-0.1-2.1-0.2-3.2-0.3c-2-0.2-3.9-0.3-5.9-0.5c-0.6,0-1.2-0.1-1.8-0.2c-0.7-0.1-1.3-0.1-2-0.2c-0.6,0-1.2-0.1-1.8-0.2
		c-0.7-0.1-1.3-0.1-1.9-0.2c-0.6,0-1.2-0.1-1.8-0.2c-0.2,0-0.5,0-0.7-0.1c-1.6-0.1-3.2-0.3-4.8-0.4c-1.2-0.1-2.4-0.2-3.5-0.3
		c-2.7-0.3-5.3-0.5-7.8-0.8c-0.4,0-0.7-0.1-1.1-0.1c-0.7-0.1-1.4-0.1-2.1-0.2c-0.4,0-0.7-0.1-1.1-0.1c-1.7-0.2-3.3-0.4-4.8-0.6
		c-0.7-0.1-1.4-0.2-2-0.2c-1.2-0.1-2.3-0.3-3.3-0.4c-0.8-0.1-1.7-0.2-2.4-0.3c-0.8-0.1-1.5-0.2-2.3-0.3c-0.2,0-0.5-0.1-0.7-0.1
		c-0.5-0.1-0.9-0.1-1.4-0.2c-2.2-0.4-4.1-0.7-5.6-1.1c-0.2-0.1-0.5-0.1-0.7-0.2c-0.7-0.2-1.3-0.4-1.8-0.6
		c-13.8-5.6-29.1-43.5-32.3-51.3c-3.1-7.8-9.2-93.8-14.7-97.9C705.7,147.9,697.2,140.2,691.4,140.1L691.4,140.1z"/>
	<path class="st1" d="M689.2,334.5c0,0,97.8-1.5,119.1,0s116.9,2.4,140.6,2.4c23.7,0,62-17.7,73.7-16.7c11.7,1,79.4,12.7,92.6,13.9
		s68-18.7,95.3-19.6c27.4-1,127.9,16.9,186.9,14.8c58.9-2.1,1,98.7,1,98.7l-661.2-25.6L689.2,334.5z"/>
	<path class="st1" d="M658.8,336.6l-177.1,30.7L0,348.9v-41.2c25.8,0,48.7-0.4,68.3-2c17.3,2.7-30.4,7.8-9.5,8.6
		c70.8,2.9,93.9-10.7,129-9.7c35.1,1,60.6,0,23.8-10.4c16.1-0.3,30-0.9,33.3-1.7c14.6-3.6,71.1-57.5,74.7-70.2
		c3.6-12.8,12.7-130.2,20-133.8c7.3-3.6,30-11.8,30.9-6.4c0.9,5.5,7.6,12,7.6,12l8.8-2.9c0,0,6.4-66.5,8.2-73.8
		c1.8-7.3,36.4-19.1,50.9-17.3c13.1,1.6,78.7,16.6,106.7,16.4c0,0-25.2,9.4-55,8.6c-29.8-0.8-58-4.2-60.8,0.1
		c-2.7,4.3-16.9,38.4-14.9,46.6s-12.9,26.5-12.9,26.5s-26.7,11.9-31.7,14.6c-3.1,1.7-18.5,82.3-0.4,114.2
		c11.5,20.2,170.9,33.5,175.8,38.2c1.6,1.6-115.2,7.3-109.1,12.5c4.4,3.7,149.1,4.1,154.7,8.8C624.3,308.3,658.8,336.6,658.8,336.6z
		"/>
	<path class="st2" d="M685.2,196.8c0,0-21.1-21.1-42.7-43c-21.6-21.9-16.1-31.6-16.5-52c-0.3-20.3-12.4-65.2-19-75.7
		C600.4,15.7,561.5,0,561.5,0l7.5,0.4c18.5,1.8,38.9,9.1,45.3,17.1c7.3,9.1,9.1,30,11.8,38.2c2.7,8.2,7.3,28.2,10,39.2
		c2.7,10.9-0.9,20-0.9,27.3c0,7.3,0.9,15.4,15.5,34.6C665.2,176,684.3,191.4,685.2,196.8z"/>
	<path class="st2" d="M1331.8,99.4L1331.8,99.4c0,0-10.1,8.4-26.1,11.6c-16,3.1-40.4,13.6-42.9,14.7c-2.4,1.1-5.1,14.7-6.4,16
		c-1.3,1.3-10.9,6.9-14.2,24c-3.3,17.1-13.3,65.6-15.3,67.8c-2,2.2-3.3,2.5-3.3,2.5s13.6-106.5,24.6-114.7
		c10.9-8.2,22.7-13.7,36.4-14.6c4.5-0.3,9.2-0.7,14-1.3c9.7-1.1,19.3-2.6,26.1-4.4C1326.7,100.5,1329.1,99.9,1331.8,99.4z"/>
	<path class="st2" d="M1214.5,203.2c0,0-0.1,4-5.2,8.1c-5.1,4.1-16.3,8.4-16,17.3c0.3,8.9-5.9,35.6-17.8,47.9
		c-11.9,12.2-20.8,22.6-29.5,23.7c-8.7,1.1-44.9,18.2-56.8,19.4c-11.9,1.2-66.9-12.2-66.9-12.2l0.2-0.2c25.1,4.4,51.9,9.2,57.3,9.7
		c10,0.9,70-20.9,73.7-26.4c3.6-5.5,32.7-51,34.6-63.7S1207.2,202.3,1214.5,203.2z"/>
</g>
</svg>
