<?xml version="1.0" encoding="utf-8"?>
<!-- Generator: Adobe Illustrator 25.2.3, SVG Export Plug-In . SVG Version: 6.00 Build 0)  -->
<svg version="1.1" id="Layer_1" xmlns="http://www.w3.org/2000/svg" xmlns:xlink="http://www.w3.org/1999/xlink" x="0px" y="0px"
	 viewBox="0 0 1130 610" style="enable-background:new 0 0 1130 610;" xml:space="preserve">
<style type="text/css">
	.st0{fill:#231F20;}
	.st1{fill:#D8D8D8;}
	.st2{fill:#9B9B9B;}
	.st3{fill:#3D3D3D;}
	.st4{fill:#757575;}
	.st5{fill:#606060;}
	.st6{fill:#444444;}
	.st7{fill:#3A0909;}
	.st8{fill:#911313;}
	.st9{fill:#7A7A7A;}
	.st10{fill:#3F3F3F;}
	.st11{fill:#5B5B5B;}
	.st12{fill:#848383;}
	.st13{fill:#B5B5B5;}
	.st14{fill:#3A0808;}
	.st15{fill:#424242;}
	.st16{fill:#D1D1D1;}
	.st17{fill:#727272;}
	.st18{fill:#D32424;}
	.st19{fill:#681111;}
	.st20{fill:#848484;}
	.st21{fill:#5E5E5E;}
	.st22{fill:#C1C1C1;}
	.st23{fill:#B2B2B2;}
	.st24{fill:#6D6D6D;}
	.st25{fill:#E5E5E5;}
	.st26{fill:#353535;}
</style>
<g>
	<g>
		<g>
			<path class="st0" d="M755.5,66.5c-13.3-4.8-27.4-7.3-41.6-7.3h-79.1c-20.7-13.5-98.9-9.9-98.9-9.9l-0.3-29.1c0-3.9,3.1-7.1,7-7.1
				h0.1V6.8c0-3.7-3-6.8-6.8-6.8h-3c-10.4,0-18.9,8.4-18.9,18.9V50l-151.1,6.4c-23.2,1-45.9,7.8-65.4,20.3
				c-28.3,18.2-43.2,42.3-43.2,42.3l-0.8-83.7c0-1.1,0.1-2.3,0.3-3.4l3.1-14.6h-0.2c-12.3,0-22.3,10-22.3,22.3v108.8
				c-5.6,4.8-5.8,22.8-5.8,22.8h-16.7c-5.6,2.4-16.4,41.6-16.4,41.6h-57.9c-9.7,0-17.6,7.9-17.6,17.6v61.8
				c-0.8,6.4,59.6,7.9,59.6,7.9l-78.6,15.1c-12.3,0-22.2,10-22.2,22.2v60.4c-15.1,0-34.9,8.7-48.5,18.3c-13.5,9.5-16.7,58-16.7,58H0
				v71l25.5,1c5.8,27.7,19.1,46.1,35.1,46.1c5.5,0,23.3-0.4,27.2-0.4c14.7,0,27.5-16.9,34.2-41.9l191,7.6
				c5,31.2,19.1,52.4,36.3,52.4c5.5,0,23.3-0.4,27.2-0.4c14.7,0,27.5-16.9,34.1-41.8l19.5,2l0.7-21.7l55.8-6.7l99.9-14
				c0,0,3.1-11.2,0.2-10.8l-5.3,0.5l5.6-5.9l31.8-1.1l21.2,0.6c1.5,31,11.8,53.2,24.8,53.2c3.6,0,22.1-0.3,24.6-0.3
				c0.8,0,1.6-0.1,2.3-0.3c1.1,0.4,2.3,0.6,3.5,0.6c3.6,0,22.1-0.3,24.6-0.3c5.3,0,10.2-4.1,14.3-11c3.2,3.8,6.8,5.9,10.6,5.9
				c3.4,0,20.8-0.3,23.2-0.3c10.9,0,20.1-18.2,23-43.1l6.3,0.2h16.9c2.5,4.1,5.5,6.4,8.7,6.4c2.3,0,14.3-0.2,15.9-0.2
				c0.5,0,1-0.1,1.5-0.2c0.7,0.2,1.5,0.4,2.2,0.4c2.3,0,14.3-0.2,15.9-0.2c3.4,0,6.6-2.8,9.3-7.7c2.1,2.6,4.4,4.1,6.9,4.1
				c2.2,0,13.5-0.2,15-0.2c7.1,0,13.5-14.9,15.4-32.3l31,0.8c0,0,7.4,13.8,19.6,14c14.3,0.3,18.3-6.6,18.3-6.6
				c1.8,18.8,8,31.8,15.7,31.8c2.3,0,14.3-0.2,15.9-0.2c0.5,0,1-0.1,1.5-0.2c0.7,0.2,1.5,0.4,2.2,0.4c2.3,0,14.3-0.2,15.9-0.2
				c3.4,0,6.6-2.8,9.3-7.7c2.1,2.6,4.4,4.1,6.9,4.1c2.2,0,13.5-0.2,15-0.2c8.6,0,15.6-18.8,15.6-42l45.9-1.2v-13.2l-46.8,0.2
				c-0.6-4.5-1.5-8.6-2.6-12.2l19-8.1v11.1h30.2v-10.1h12.7V202.5L755.5,66.5z M195.7,295.5l-48.3-4c-2.2-0.2-3.2-2.8-1.7-4.4
				l54.1-56.9L195.7,295.5z M146.7,278.3v-53.9c0-2.1,1.7-3.8,3.8-3.8h49.8L146.7,278.3z"/>
		</g>
	</g>
	<g>
		<g>
			<path class="st1" d="M755.5,66.5c-13.3-4.8-27.4-7.3-41.6-7.3h-60.4h-14.6l13.5,15.1l-0.5,344.1l66.4-1.2l411.5,13.7l0.2-228.3
				L755.5,66.5z"/>
		</g>
	</g>
	<g>
		<path class="st2" d="M0,545.1v-71l342.1,10.6c0,0-6.8,61.4-2.8,73.4L0,545.1z"/>
	</g>
	<g>
		<ellipse class="st3" cx="1057.4" cy="480" rx="8" ry="25.2"/>
	</g>
	<g>
		<ellipse class="st3" cx="1025.7" cy="480.7" rx="8" ry="26.5"/>
	</g>
	<g>
		<ellipse class="st4" cx="722.1" cy="502.5" rx="11.5" ry="37.9"/>
	</g>
	<g>
		<ellipse class="st4" cx="771" cy="498.3" rx="11.5" ry="36.4"/>
	</g>
	<g>
		<path class="st5" d="M576.7,463.3l48.7,1.5c0,0-1.9,33.8-1,47.1l78.7-1.8l-2.4-61l-94.2,1.1c-10.1,0.1-19.8,3.9-27.3,10.7
			L576.7,463.3z"/>
	</g>
	<g>
		<ellipse class="st2" cx="382.6" cy="529.4" rx="20.9" ry="54.7"/>
	</g>
	<g>
		<g>
			<path class="st2" d="M431.6,459.3l-0.4,81.9l37-4.4c0,0,115.9-19.2,113-18.8l-0.1,0l5.6-6.7c0,0,5.1-22.5-0.9-38.9
				c-2.9-7.9-10.6-13.1-19-13.1l-105.9,0h-6H431.6z"/>
		</g>
	</g>
	<g>
		<path class="st6" d="M587.1,516.7c0,0,1.5,1.3-0.2,6.7l-96.4,13.2l-22-1.7l-1-9.7h20.1L587.1,516.7z"/>
	</g>
	<g>
		<path class="st7" d="M339.3,402.7c0,0,9.2,27,21.1,59.3c1.8-2.3,3.8-4.4,6.1-6.1c3.4-2.6,7.6-4.3,12-4c4.5,0.3,8.6,2.5,11.8,5.5
			c6.9,6.3,11,15.5,13.9,24.2c2.9,8.7,4.6,17.9,5.5,27c0.6,5.8,2.1,17.4,1.8,25.2c-0.4,8.8-2.6,37.2-1.8,34.3l20.8,1.8l0.4-24.8
			l0.9-0.1V407.4L339.3,402.7z"/>
	</g>
	<g>
		<polygon class="st6" points="577,469.8 481.9,476.2 460.9,472.7 460.4,464.8 576.7,463.3 		"/>
	</g>
	<g>
		<g>
			<path class="st8" d="M634.9,59.2c-20.7-13.5-98.9-9.9-98.9-9.9l-0.3-29.1c0-3.9,3.1-7.1,7-7.1h0.1V6.8c0-3.7-3-6.8-6.8-6.8h-3
				c-10.4,0-18.9,8.4-18.9,18.9V50l-151.1,6.4c-23.2,1-45.9,7.8-65.4,20.3c-28.3,18.2-43.2,42.3-43.2,42.3l-0.8-83.7
				c0-1.1,0.1-2.3,0.3-3.4l3.1-14.6h-0.2c-12.3,0-22.3,10-22.3,22.3v108.8c-5.6,4.8-5.8,22.8-5.8,22.8h-16.7
				c-5.6,2.4-16.4,41.6-16.4,41.6h-57.9c-9.7,0-17.6,7.9-17.6,17.6v61.8c-0.8,6.4,59.6,7.9,59.6,7.9l-78.6,15.1
				c-12.3,0-22.2,10-22.2,22.2v60.4c-15.1,0-34.9,8.7-48.5,18.3c-13.5,9.5-16.7,58-16.7,58H0l335.8,11.7c6.6,0.2,12.6-4,14.6-10.3
				c6.2-19.8,21.4-58.9,43.2-54.9c29,5.3,35.7,99.8,35.7,99.8c9.9-2.3,9.4-74.2,9.4-74.2l215.7-6c0,0-1.5-265.7-7-354.1
				C646.4,70.2,634.9,59.2,634.9,59.2z M195.7,295.5l-48.3-4c-2.2-0.2-3.2-2.8-1.7-4.4l54.1-56.9L195.7,295.5z M146.7,278.3v-53.9
				c0-2.1,1.7-3.8,3.8-3.8h49.8L146.7,278.3z"/>
		</g>
	</g>
	<g>
		<g>
			<path class="st2" d="M254.4,119.1l-0.8-83.7c0-1.1,0.1-2.3,0.3-3.4l3.1-14.6h-0.2c-12.3,0-22.3,10-22.3,22.3v108.8
				C231.7,151,254.4,119.1,254.4,119.1z"/>
		</g>
	</g>
	<g>
		<g>
			<path class="st9" d="M151.5,298.8v-7l-4.1-0.3c-2.2-0.2-3.2-2.8-1.7-4.4l5.8-6.1v-7.8l-4.8,5.2v-53.9c0-2.1,1.7-3.8,3.8-3.8h1
				v-7.7h-13.7c-9.7,0-17.6,7.9-17.6,17.6v61.8C119.8,295.6,135.9,297.6,151.5,298.8z"/>
		</g>
	</g>
	<g>
		<g>
			<path class="st10" d="M199.9,212.9l-61.8-0.1c9.5,3.5,8.5,11.5,8.5,11.5c0-2.1,1.7-3.8,3.8-3.8l53.1-0.1v-3.9
				C203.6,214.6,201.9,212.9,199.9,212.9z"/>
		</g>
		<g>
			<path class="st10" d="M147.4,291.4c-5,4.5-15.8,5-15.8,5c12.6,2,34.9,3.3,42.9,3.6h21.6v-10.9l-0.4,6.3L147.4,291.4z"/>
		</g>
		<g>
			<path class="st10" d="M146.7,278.3c0,0-1.3,9-1,8.7l57.5-60.5l0.1-9.2L146.7,278.3z"/>
		</g>
	</g>
	<g>
		<g>
			<path class="st2" d="M535.9,220.5l-0.2-200.4c0-3.9,3.1-7.1,7-7.1h0.1V6.8c0-3.7-3-6.8-6.8-6.8h-3c-10.4,0-18.9,8.4-18.9,18.9
				L514,220.5H535.9z"/>
		</g>
	</g>
	<g>
		<path class="st11" d="M594.6,168c0,0-4.3-53.6,21.3-59.6c0,0,9,0.7,9.3,10l-0.3,55.2c0,0,2.6,4.7-6,4.1l-17.6-2.7
			C601.3,174.9,596,172.3,594.6,168z"/>
	</g>
	<g>
		<path class="st2" d="M455.9,407.3l13.5,0.2c0,0,7-1.7,7-9.5l-0.7-84.9c0,0-3.2-7.7-13-6.7c0,0-8,5-7.7,10.2L455.9,407.3z"/>
	</g>
	<g>
		<path class="st9" d="M494.8,291.5l0.5-62.6c0,0-0.8-10.6,14.9-10.8c0,0,7.7,0.7,7.2,21l-0.5,55.4
			C517.1,294.5,499.3,302,494.8,291.5z"/>
	</g>
	<g>
		<path class="st11" d="M451.3,284.8l36.8,0.7l-0.5-59.3l-4.2-3.8l-29.1-1.5c-3.2-0.2-5.9,2.3-6,5.5l-1.5,54.6L451.3,284.8z"/>
	</g>
	<g>
		<path class="st10" d="M424.7,299.4l-9.5-2.6l77.3-7.3c0,0-1.6,1.7,2.3,5.3L424.7,299.4z"/>
	</g>
	<g>
		<path class="st10" d="M445.8,214.9c0,0-2.6-6.4,0.5-7.2l59.1,1.2c0,0,11.7,0.3,12.7,6.7L445.8,214.9z"/>
	</g>
	<g>
		<path class="st10" d="M437,219.8c0,0-1.9-5.9,4.5-6.4l53,67.4l-0.5,8.8l-5.9-4.1L437,219.8z"/>
	</g>
	<g>
		<path class="st2" d="M517.1,392.2c0,0,5.5,6.6,30,1.7V220.5l-31,0L517.1,392.2z"/>
	</g>
	<g>
		<path class="st11" d="M306.8,106.7l3.5,3.5l86.4-0.5c0,0,8-1.5,13.5-6.5L425.7,88c0,0,2-2.2-2-3l-92.1-0.5c0,0-5.5,1.5-6.5,2.5
			L306.8,106.7z"/>
	</g>
	<g>
		<path class="st12" d="M76.4,420.5l0.5,24.2l-50-1.1V427c0,0,4-7.7,10-8.3L76.4,420.5z"/>
	</g>
	<g>
		<path class="st12" d="M272.2,451.1l-0.8-20.8c0,0,2.7-4.7,6.3-4.7l44.9,0.1c0,0,8.4,2.9,9.4,8.8l-0.4,18.4L272.2,451.1z"/>
	</g>
	<g>
		<path class="st11" d="M205.3,273.3l2.9-43.6c0.6-6.5,6-11.4,12.5-11.4l206.7-1.3c4,0,7.2,3.4,7,7.4l-2.9,51.8
			c-0.2,4-3.5,7.1-7.5,7.1H214.3C209,283.1,204.8,278.6,205.3,273.3z"/>
	</g>
	<g>
		<path class="st2" d="M424.1,285.6H214.3c-3.2,0-6.3-1.4-8.5-3.8c-2.2-2.4-3.3-5.6-3-8.8l2.9-43.6c0.7-7.9,7.1-13.7,15-13.7
			l206.7-1.3c2.6,0,5.1,1.1,6.9,3c1.8,1.9,2.7,4.4,2.6,7l-2.9,51.8C433.8,281.5,429.4,285.6,424.1,285.6z M427.5,219.4l-206.7,1.3
			c-5.3,0-9.6,3.9-10,9.1l-2.9,43.6c-0.2,1.9,0.4,3.7,1.7,5.1c1.3,1.4,3,2.1,4.8,2.1h209.7c2.7,0,4.9-2.1,5-4.7l2.9-51.8
			c0.1-1.2-0.4-2.4-1.2-3.3C429.9,219.9,428.7,219.4,427.5,219.4z"/>
	</g>
	<g>
		<path class="st2" d="M89.3,469.3l-5.1-0.3l0.4-133.8c0,0,13.5-16.2,21.2-15.5l0.9,4.8c0,0-11.9,3.2-12.9,12.2l-0.5,115.9
			L89.3,469.3z"/>
	</g>
	<g>
		<path class="st2" d="M220.9,315.4l25,1.7c0,0,9.5,4.8,10.5,15.8l1.8,96.9l-7.9,37.4c-0.6,3.6-1.7,6.4-5.3,6.4H242l-1.6-133.2
			C240.4,340.4,241.1,319.8,220.9,315.4z"/>
	</g>
	<g>
		<g>
			<path class="st13" d="M76.8,432.3c0.3,4.5,0.5,9,0.7,13.5c-12.7,0.1-25.4-0.2-38.1-0.5c-4.3-0.1-8.7-0.2-13-0.4
				c-1.3,0-1-0.2-1-1.5c0-0.6,0-1.2,0-1.8c0-3.8,0-7.6,0-11.4c0-5.1,2.6-9.8,7.3-12c3.8-1.8,8.3-1,12.4-0.7c7.5,0.5,15,1,22.4,1.6
				c1.9,0.2,3.7,0.3,5.6,0.5c0.8,0.1,1.7,0.1,2.5,0.2c0.2,0,1.5-0.1,1.7,0.2c0,0,0,1.2,0,1c0,1-0.1,2.1-0.1,3.1
				c-0.1,2.1-0.2,4.1-0.3,6.2c-0.2-3.3-0.3-6.6-0.5-10c0.2,0.1,0.3,0.3,0.4,0.5c-9.2,0-18.3-0.2-27.5-0.5c-3.2-0.1-6.4-0.2-9.6-0.3
				c-2.5-0.1-4.8,0.2-7,1.6c-4.5,3.1-4.2,8-4.2,12.8c0,3,0,5.9,0,8.9c-0.5-0.5-1-1-1.5-1.5c16.6,0.7,33.3,1.5,49.9,2.8
				c-0.2,0.2-0.4,0.4-0.6,0.6C76.5,441,76.6,436.7,76.8,432.3C77.1,436.7,76.6,436.7,76.8,432.3z"/>
		</g>
	</g>
	<g>
		<path class="st14" d="M92.6,475.2l1-137.3c0,0,5-16,25-17.5l111.9-0.5l10,14l1.5,147.8L92.6,475.2z"/>
	</g>
	<g>
		<g>
			<path class="st15" d="M74.1,442.1c-10.6,0.2-21.2,0-31.7-0.3c-2.5-0.1-5.1-0.1-7.6-0.3c-0.7,0-1.4-0.1-2.2-0.1
				c-0.5,0-0.3-0.6-0.3-1.1c0-1.9,0-3.7,0-5.6c0-1.5-0.1-3.1,0-4.6c0.2-4.3,2.9-8,7.2-9c2-0.4,4-0.1,6,0.1c2.7,0.2,5.4,0.5,8.1,0.8
				c5.2,0.5,10.4,1.1,15.5,1.7c1.7,0.2,3.3,0.4,5,0.6c-10.7,0-22-0.5-32.4-1.2c-2.8,0.1-5.6,1.9-6.5,4.7c-0.5,1.3-0.4,2.8-0.4,4.2
				c0,2.7,0,5.5,0,8.2c-0.4-0.4-0.8-0.8-1.2-1.2C47.1,439.6,60.7,440.5,74.1,442.1C70.7,442.1,70.8,441.7,74.1,442.1z"/>
		</g>
	</g>
	<g>
		<g>
			<path class="st13" d="M332,445.1c0.1,2.4,0.3,4.9,0.4,7.3c0,0.5,0.3,1-0.3,1.1c-1.3,0.1-2.6,0.1-3.9,0.2
				c-5.2,0.2-10.4,0.4-15.6,0.6c-10.4,0.3-20.8,0.5-31.2,0.6c-2.5,0-5,0.1-7.5,0.1c-0.3,0-3.5,0.3-3.8,0c-0.3-0.3,0-3.5,0-4.1
				c0-3.4-0.1-6.9,0-10.3c0-3.6-0.3-7.4,0.1-10.9c0.8-5.7,6.5-5,10.8-4.9c7.4,0.1,14.8,0.2,22.1,0.4c4.1,0.1,8.2,0.2,12.2,0.4
				c2.4,0.1,4.8,0.1,7.1,0.3c5.4,0.5,9.4,4.8,9.4,10.2c-0.6-4.3-3.5-7.7-7.8-8.5c-1.6-0.3-3.4-0.1-5,0c-3.8,0.1-7.5,0.3-11.3,0.4
				c-6.7,0.2-13.4,0.4-20,0.5c-2.4,0-4.7,0.1-7.1,0.1c-1.7,0-6.7-0.8-6.7,1.9c0-0.1,0-0.1,0-0.2c-0.2,3.9,0,7.8,0.1,11.7
				c0,3.8,0,7.5-0.1,11.3c-0.6-0.6-1.3-1.3-1.9-1.9c19.9,0,39.9,0.5,59.8,1.5c-0.1,0.2-0.3,0.3-0.5,0.5
				C331.7,450.3,331.9,447.7,332,445.1C332.2,447.7,331.9,447.7,332,445.1z"/>
		</g>
	</g>
	<g>
		<g>
			<path class="st15" d="M326.3,448.7c-13.1,0.9-26.2,1.1-39.3,1.3c-2.5,0-5.1,0.1-7.6,0.1c-0.7,0-1.4,0-2.1,0
				c-0.7,0-0.5-0.1-0.5-0.8c0-1.8,0-3.5,0-5.3c0-3.4,0-6.8,0-10.2c0-5.1,5.8-4.3,9.3-4.3c2.9,0,5.9,0.1,8.8,0.1
				c6.2,0.1,12.4,0.2,18.6,0.5c5,0.2,12.7-0.6,14.9,5.1c-2.2-4.2-7.2-3.9-11.3-3.7c-2.5,0.1-5,0.2-7.4,0.3
				c-6.8,0.2-13.7,0.3-20.5,0.4c-1.5,0-3.1,0-4.6,0.1c-1.1,0-2.2,0-3.3,0c-1.6,0-1.7,1.1-1.7,2.4c0,3.5,0,7,0,10.6
				c0,1.2,0,2.3,0,3.5c-0.5-0.5-0.9-0.9-1.4-1.4C294.2,447.3,310.3,447.6,326.3,448.7C322.3,449,322.3,448.4,326.3,448.7z"/>
		</g>
	</g>
	<g>
		<g>
			<path class="st13" d="M289,445.6c-3.2,1.3-4.7-3.6-4.9-5.8c0.1-2.2,1.6-7,4.8-5.9c-1.7,1.3-1.6,4-1.7,5.8
				C287.4,441.7,287.2,444.3,289,445.6z"/>
		</g>
	</g>
	<g>
		<g>
			<path class="st13" d="M305.4,445.1c-5-0.3-4.9-10.8,0.1-10.8c-0.6,1.6-0.6,3.4-0.6,5.1C304.8,441.3,304.7,443.3,305.4,445.1z"/>
		</g>
	</g>
	<g>
		<g>
			<path class="st13" d="M53.1,436.9c-3.2,1.3-4.7-3.6-4.9-5.8c0.1-2.2,1.6-7,4.8-5.9c-1.7,1.3-1.6,4-1.7,5.8
				C51.5,433,51.3,435.7,53.1,436.9z"/>
		</g>
	</g>
	<g>
		<g>
			<path class="st13" d="M69.5,436.5c-5-0.3-4.9-10.8,0.1-10.8c-0.6,1.6-0.6,3.4-0.6,5.1C68.9,432.6,68.8,434.7,69.5,436.5z"/>
		</g>
	</g>
	<g>
		<g>
			<path class="st16" d="M84.2,469c-2.7-15.9-3.5-32.4-3.8-48.5c-0.4-19.7-0.1-39.4-0.2-59c0-8.6-0.4-17.4,0-26
				c0.4-8.7,6.5-16.4,14.9-18.8c2.3-0.7,4.6-0.9,7-0.9c4.6,0,9.2,0,13.8,0c10.4,0,20.9,0,31.3,0c21,0,41.9,0,62.9,0
				c8.2,0,17-1.1,24.4,3.2c7.6,4.4,11.5,12.4,11.5,21c0.1,18.4,0,36.8,0,55.1c0,9.8,0,19.6,0.3,29.4c0.2,9.3,0,18.5-0.9,27.7
				c-0.7,7.2-1.5,14.4-3.3,21.4c-1.2-4.6-1.9-9.3-2.5-13.9c-1.2-9-1.9-18.1-1.9-27.2c-0.1-9.9,0.4-19.7,0.4-29.6
				c0-9.8,0-19.6,0-29.5c0-10.2,0-20.3,0-30.5c0-2.4,0.2-4.9-0.4-7.3c-0.9-3.9-3.2-7.3-6.5-9.4c-2.8-1.9-6-2.5-9.3-2.5
				c-4.9,0-9.8,0-14.7,0c-10.5,0-20.9,0-31.4,0c-20.9,0-41.9,0-62.8,0c-4,0-8.2-0.4-12.2,0c-3.3,0.1-6.4,1.4-8.7,3.8
				c-2.4,2.5-3.6,5.7-3.7,9.1c-0.1,4.3,0,8.7,0,13c0,20,0,40-0.1,59.9c-0.1,17.7-0.8,35.6-3.1,53.2C84.8,464.9,84.5,467,84.2,469z"
				/>
		</g>
	</g>
	<g>
		<g>
			<path class="st4" d="M245.9,317.1c4.1,1.7,7.6,4.6,9.8,8.5c2.5,4.4,2.5,8.9,2.5,13.8c0,3.4,0,6.8,0,10.3c0,7.5,0,15,0,22.4
				c0,14.6,0,29.3,0,43.9c0,4.6,0.7,9.2,0,13.7c-8.1,50.4-10.8,41.1-10.9,42.9c3.5-8.5,6.7-34.8,7.7-41.9c0,0.1,0,0.2,0,0.2
				c0.4-16.1,0-32.2,0-48.3c0-14,0-28,0-42.1c0-4.6,0.5-9.5-1.1-13.9C252.3,322.8,249.5,319.4,245.9,317.1
				C248.2,318.1,248,318.4,245.9,317.1z"/>
		</g>
	</g>
	<g>
		<g>
			<path class="st4" d="M89.3,469.3c-0.7-7.7,2.3-15.6,2.3-23.3c0-9.1,0-18.1,0-27.2c0-20.4,0-40.8,0-61.2c0-6.5-0.5-13.2,0.2-19.7
				c0.4-3.7,3.1-7,5.7-9.4c2.5-2.5,5.9-3.4,9.2-4.1c-3.3,1.3-5.9,2.9-8.2,5.6c-2.5,2.9-3.3,6.8-3.6,10.6c-0.3,3.6,0,7.3,0,10.9
				c0,4.7,0,9.4,0,14.1c0,20.4,0,40.8,0,61.3c0,7.6,0.3,15.3,0,22.9C94.6,456.3,89.9,462.9,89.3,469.3z"/>
		</g>
	</g>
	<g>
		<g>
			<path class="st16" d="M340,556.3c-0.9-12.2-0.3-24.6,0.1-36.8c0.4-10.5,1-21,1.7-31.5c0.1-1.1,0.1-2.1,0.2-3.2
				c-4.8-0.1-9.7-0.2-14.5-0.4c-12.8-0.3-25.5-0.6-38.3-1c-18.1-0.5-36.1-0.9-54.2-1.4c-20.7-0.5-41.4-1-62.2-1.6
				c-20.7-0.5-41.5-1-62.2-1.6c-18.1-0.5-36.3-0.9-54.4-1.4c-12.9-0.3-25.7-0.6-38.6-1c-5-0.1-10-0.2-14.9-0.4c0,0,0,0,0,0
				c5.1,0.3,10.2,0.5,15.3,0.8c13.3,0.7,26.7,1.4,40,2.1c18.6,1,37.2,1.9,55.8,2.9c20.9,1.1,41.8,2.1,62.7,3.2
				c20.3,1,40.5,2.1,60.8,3.1c16.6,0.9,33.3,1.7,49.9,2.6c10.1,0.5,20.2,1,30.2,1.6c1.7,0.1,3.3,0.2,5,0.3
				c-5.9-0.1-11.8-0.3-17.7-0.4c-15-0.3-29.9-0.7-44.9-1c-19.9-0.5-39.9-0.9-59.8-1.4c-20.8-0.5-41.7-1-62.5-1.5
				c-17.7-0.4-35.3-0.8-53-1.2c-10.4-0.2-20.8-0.5-31.2-0.7c-1.2,0-2.4-0.1-3.6-0.1c6.9,0.4,13.7,0.7,20.6,1.1
				c16.7,0.9,33.4,1.8,50.2,2.7c20.8,1.1,41.6,2.2,62.4,3.3c19,1,38.1,2,57.1,3c11.5,0.6,23,1.2,34.5,1.8c1.2,0.1,2.4,0.1,3.6,0.2
				c-9.1-0.1-18.3-0.3-27.4-0.4c-19.7-0.3-39.4-0.6-59.1-1c-18.7-0.3-37.4-0.6-56.1-0.9c-6.5-0.1-13-0.2-19.5-0.3
				c8.4,0.6,16.7,1.1,25.1,1.7c18.9,1.3,37.8,2.6,56.7,3.8c20.1,1.4,40.2,2.7,60.3,4.1c12,0.8,24,1.6,36,2.4c0.6,0,1.3,0.1,1.9,0.1
				c-7.3-0.1-14.7-0.2-22-0.3c-17.5-0.3-35-0.5-52.4-0.8c-20.9-0.3-41.8-0.6-62.6-0.9c-17.5-0.3-35-0.5-52.5-0.8
				c-7.4-0.1-14.8-0.2-22.2-0.3h0c8.7,0.6,17.4,1.2,26.1,1.7c19.3,1.3,38.5,2.6,57.8,3.8c19.5,1.3,39,2.6,58.6,3.9
				c9.5,0.6,19,1.3,28.5,1.9c0,0,0.1,0,0.1,0c-10.7,0-21.4,0-32.1,0c-20.4,0-40.8,0-61.2,0c-12.5,0-25.1,0-37.6,0
				c-0.1,0-0.3,0-0.4,0c8,0.4,16.1,0.9,24.1,1.3c18.5,1,37,2,55.5,3c20.5,1.1,41,2.2,61.5,3.4c14,0.8,28,1.5,42.1,2.3
				c1.9,0.1,3.9,0.2,5.8,0.3c-13.4,0.2-26.7,0.5-40.1,0.7c-17.1,0.3-34.1,0.6-51.2,0.9c-0.8,0-1.7,0-2.5,0
				c14.7,1.1,29.4,2.2,44.1,3.3c10.9,0.8,21.8,1.7,32.7,2.5c-10.1-0.1-20.2-0.2-30.3-0.3c-20.3-0.2-40.6-0.5-60.9-0.7
				c-15.4-0.2-30.9-0.3-46.3-0.5c-1.5,0-3,0-4.4,0c9.8,0.7,19.5,1.3,29.3,2c20.1,1.4,40.2,2.7,60.3,4.1c16.7,1.1,33.4,2.3,50.1,3.4
				c2.8,0.2,5.6,0.4,8.3,0.6c-15.4,0.1-30.8,0.2-46.1,0.4c-7.3,0.1-14.6,0.1-21.9,0.2c13.6,0.9,27.3,1.8,40.9,2.7
				c15.9,1,31.8,2.1,47.7,3.1c0.3,0,0.6,0,0.8,0.1c0,0,0,0,0,0c-5.2-0.1-10.5-0.3-15.7-0.4c-13.4-0.4-26.8-0.8-40.3-1.1
				c-18.6-0.5-37.3-1-55.9-1.6c-20.9-0.6-41.9-1.2-62.8-1.8c-20.3-0.6-40.5-1.1-60.8-1.7c-16.7-0.5-33.3-0.9-50-1.4
				c-10.1-0.3-20.2-0.6-30.3-0.9c-1.7,0-3.4-0.1-5.1-0.1c4.9,0.2,9.7,0.5,14.6,0.7c12.8,0.6,25.6,1.2,38.4,1.9
				c18.1,0.9,36.2,1.8,54.3,2.6c20.7,1,41.4,2,62.2,3c20.7,1,41.4,2,62.1,3c18,0.9,36,1.8,54,2.6c12.6,0.6,25.3,1.2,37.9,1.8
				C330.7,555.8,335.3,556,340,556.3z"/>
		</g>
	</g>
	<g>
		<g>
			<g>
				<path class="st16" d="M105.5,328.2c0.7,7.6,1.1,15.1,1.2,22.7c0,9.1-0.1,18.3-0.1,27.4c-0.1,20.4-0.1,40.7-0.2,61.1
					c0,6.3,0.2,12.7-0.3,19c-0.3,5-0.7,10-1.1,15c-0.6-7.6-1.1-15.1-1.2-22.7c0-9.1,0.1-18.3,0.1-27.4c0.1-20.4,0.1-40.7,0.2-61.1
					c0-6.3-0.2-12.7,0.3-19C104.8,338.2,105.1,333.2,105.5,328.2z"/>
			</g>
		</g>
		<g>
			<g>
				<path class="st16" d="M113.2,328.1c0.7,7.6,1.1,15.1,1.2,22.7c0,9.2,0,18.3-0.1,27.5c0,20.4-0.1,40.8-0.1,61.2
					c0,6.3,0.2,12.7-0.3,19c-0.3,5-0.7,10-1.1,15c-0.6-7.6-1.1-15.1-1.2-22.7c0-9.2,0-18.3,0.1-27.5c0-20.4,0.1-40.8,0.1-61.2
					c0-6.3-0.2-12.7,0.2-19C112.4,338.1,112.7,333.1,113.2,328.1z"/>
			</g>
		</g>
		<g>
			<g>
				<path class="st16" d="M120.9,328.1c0.7,7.6,1.1,15.2,1.2,22.8c0,9.1,0,18.1,0,27.2c0,20.2-0.1,40.5-0.1,60.7
					c0,6.5,0.2,13-0.2,19.4c-0.4,5.2-0.7,10.4-1.1,15.6c-0.6-7.6-1.1-15.2-1.2-22.8c0-9.1,0-18.1,0-27.2c0-20.2,0.1-40.5,0.1-60.7
					c0-6.5-0.3-13,0.2-19.4C120.1,338.5,120.4,333.3,120.9,328.1z"/>
			</g>
		</g>
		<g>
			<g>
				<path class="st16" d="M128.6,328c0.7,7.6,1.1,15.2,1.3,22.8c0,9.1,0,18.2,0,27.3c0,20.3,0,40.6,0,60.8c0,6.5,0.2,13-0.2,19.5
					c-0.3,5.2-0.7,10.4-1.1,15.6c-0.6-7.6-1.1-15.2-1.3-22.8c0-9.1,0-18.2,0-27.3c0-20.3,0-40.6,0-60.8c0-6.5-0.3-13,0.2-19.5
					C127.8,338.4,128.1,333.2,128.6,328z"/>
			</g>
		</g>
		<g>
			<g>
				<path class="st16" d="M136.3,328c0.7,7.6,1.1,15.2,1.3,22.9c0,9.1,0,18.2,0,27.3c0,20.3,0,40.6,0,61c0,6.5,0.3,13-0.2,19.5
					c-0.3,5.2-0.7,10.4-1.1,15.7c-0.6-7.6-1.1-15.2-1.3-22.9c0-9.1,0-18.2,0-27.3c0-20.3,0-40.6,0-61c0-6.5-0.3-13,0.1-19.5
					C135.5,338.4,135.8,333.2,136.3,328z"/>
			</g>
		</g>
		<g>
			<g>
				<path class="st16" d="M144.1,327.9c0.7,7.6,1.1,15.3,1.3,22.9c0,9.1,0,18.2,0,27.4c0,20.4,0.1,40.7,0.1,61.1
					c0,6.5,0.3,13.1-0.1,19.5c-0.3,5.2-0.7,10.5-1.1,15.7c-0.6-7.6-1.1-15.2-1.3-22.9c0-9.1,0-18.2,0-27.4c0-20.4-0.1-40.7-0.1-61.1
					c0-6.5-0.3-13.1,0.1-19.5C143.3,338.4,143.6,333.1,144.1,327.9z"/>
			</g>
		</g>
		<g>
			<g>
				<path class="st16" d="M151.8,327.9c0.7,7.4,1.3,14.9,1.3,22.4c0,9.1,0,18.3,0.1,27.4c0,20.4,0.1,40.8,0.1,61.3
					c0,6.7,0.3,13.4-0.1,20.1c-0.3,5.2-0.7,10.5-1.1,15.7c-0.6-7.4-1.3-14.9-1.3-22.4c0-9.1,0-18.3-0.1-27.4
					c0-20.4-0.1-40.8-0.1-61.3c0-6.7-0.3-13.5,0.1-20.1C151.1,338.4,151.4,333.1,151.8,327.9z"/>
			</g>
		</g>
		<g>
			<g>
				<path class="st16" d="M159.7,327.8c0.7,7.4,1.3,14.9,1.3,22.4c0,9.1,0.1,18.3,0.1,27.4c0.1,20.5,0.1,40.9,0.2,61.4
					c0,6.7,0.3,13.5-0.1,20.2c-0.3,5.3-0.7,10.5-1,15.7c-0.6-7.5-1.3-14.9-1.3-22.4c-0.1-9.1-0.1-18.3-0.1-27.4
					c-0.1-20.5-0.1-40.9-0.2-61.4c0-6.7-0.3-13.5,0.1-20.2C158.9,338.3,159.2,333.1,159.7,327.8z"/>
			</g>
		</g>
		<g>
			<g>
				<path class="st16" d="M167.5,327.8c0.7,7.5,1.3,15,1.4,22.5c0.1,9,0.1,18.1,0.1,27.1c0.1,20.3,0.2,40.6,0.2,60.9
					c0,6.8,0.4,13.8-0.1,20.6c-0.3,5.4-0.7,10.9-1.1,16.3c-0.6-7.5-1.3-15-1.3-22.5c-0.1-9-0.1-18.1-0.1-27.1
					c-0.1-20.3-0.2-40.6-0.2-60.9c0-6.8-0.4-13.8,0-20.6C166.8,338.7,167,333.2,167.5,327.8z"/>
			</g>
		</g>
		<g>
			<g>
				<path class="st16" d="M175.4,327.7c0.7,7.5,1.3,15,1.4,22.5c0.1,9.1,0.1,18.1,0.1,27.2c0.1,20.3,0.2,40.7,0.3,61
					c0,6.9,0.4,13.8,0,20.6c-0.3,5.5-0.7,10.9-1.1,16.4c-0.6-7.5-1.3-15-1.4-22.5c-0.1-9.1-0.1-18.1-0.1-27.2
					c-0.1-20.3-0.2-40.7-0.3-61c0-6.8-0.4-13.8,0-20.6C174.7,338.6,174.9,333.2,175.4,327.7z"/>
			</g>
		</g>
		<g>
			<g>
				<path class="st16" d="M183.3,327.7c0.7,7.5,1.3,15,1.4,22.5c0.1,9.1,0.1,18.2,0.2,27.3c0.1,20.4,0.2,40.7,0.3,61.1
					c0,6.9,0.4,13.8,0,20.7c-0.3,5.5-0.7,10.9-1,16.4c-0.6-7.5-1.3-15-1.4-22.5c-0.1-9.1-0.1-18.2-0.2-27.3
					c-0.1-20.4-0.2-40.7-0.3-61.1c0-6.9-0.4-13.8,0-20.7C182.6,338.6,182.8,333.1,183.3,327.7z"/>
			</g>
		</g>
		<g>
			<g>
				<path class="st16" d="M191.2,327.6c0.7,7.5,1.3,15.1,1.4,22.6c0.1,9.1,0.1,18.2,0.2,27.3c0.1,20.4,0.3,40.8,0.4,61.2
					c0,6.9,0.4,13.8,0,20.7c-0.3,5.5-0.7,11-1,16.4c-0.6-7.5-1.3-15-1.4-22.6c-0.1-9.1-0.1-18.2-0.2-27.3
					c-0.1-20.4-0.3-40.8-0.4-61.2c0-6.9-0.4-13.8,0-20.7C190.5,338.6,190.8,333.1,191.2,327.6z"/>
			</g>
		</g>
		<g>
			<g>
				<path class="st16" d="M199.2,327.6c0.7,7.5,1.4,15.1,1.4,22.6c0.1,9.1,0.1,18.2,0.2,27.4c0.1,20.5,0.3,40.9,0.4,61.4
					c0.1,6.9,0.4,13.9,0,20.7c-0.3,5.5-0.6,11-1,16.5c-0.6-7.5-1.4-15.1-1.4-22.6c-0.1-9.1-0.1-18.2-0.2-27.4
					c-0.1-20.5-0.3-40.9-0.4-61.4c-0.1-6.9-0.4-13.9,0-20.7C198.5,338.6,198.8,333.1,199.2,327.6z"/>
			</g>
		</g>
		<g>
			<g>
				<path class="st16" d="M207.2,327.5c0.7,7.5,1.4,15.1,1.4,22.7c0.1,9.1,0.2,18.3,0.2,27.4c0.2,20.5,0.3,41,0.5,61.5
					c0.1,6.9,0.4,13.9,0,20.8c-0.3,5.5-0.6,11-1,16.5c-0.6-7.5-1.4-15.1-1.4-22.7c-0.1-9.1-0.2-18.3-0.2-27.4
					c-0.2-20.5-0.3-41-0.5-61.5c-0.1-6.9-0.4-13.9,0-20.8C206.5,338.5,206.8,333,207.2,327.5z"/>
			</g>
		</g>
		<g>
			<g>
				<path class="st16" d="M215.2,327.5c0.7,7.5,1.4,15.1,1.5,22.7c0.1,9,0.2,18.1,0.3,27.1c0.2,20.3,0.4,40.7,0.6,61
					c0.1,7,0.5,14.2,0.1,21.2c-0.3,5.7-0.6,11.4-1,17.1c-0.6-7.6-1.4-15.1-1.5-22.7c-0.1-9-0.2-18.1-0.3-27.1
					c-0.2-20.3-0.4-40.7-0.6-61c-0.1-7-0.5-14.2-0.1-21.2C214.5,338.9,214.8,333.2,215.2,327.5z"/>
			</g>
		</g>
		<g>
			<g>
				<path class="st16" d="M223.3,327.4c0.7,7.6,1.4,15.2,1.5,22.8c0.1,9.1,0.2,18.1,0.3,27.2c0.2,20.4,0.4,40.7,0.6,61.1
					c0.1,7,0.5,14.2,0.1,21.2c-0.3,5.7-0.6,11.4-1,17.2c-0.6-7.6-1.4-15.2-1.5-22.8c-0.1-9.1-0.2-18.1-0.3-27.2
					c-0.2-20.4-0.4-40.7-0.6-61.1c-0.1-7-0.5-14.2-0.1-21.2C222.6,338.9,222.9,333.1,223.3,327.4z"/>
			</g>
		</g>
		<g>
			<g>
				<path class="st16" d="M231.4,327.4c0.7,7.6,1.4,15.2,1.5,22.8c0.1,9.1,0.2,18.2,0.3,27.2c0.2,20.4,0.4,40.8,0.7,61.2
					c0.1,7.1,0.5,14.2,0.1,21.3c-0.3,5.7-0.6,11.5-1,17.2c-0.6-7.6-1.4-15.2-1.5-22.8c-0.1-9.1-0.2-18.2-0.3-27.2
					c-0.2-20.4-0.4-40.8-0.7-61.2c-0.1-7.1-0.5-14.2-0.1-21.3C230.7,338.8,231,333.1,231.4,327.4z"/>
			</g>
		</g>
	</g>
	<g>
		<g>
			<path class="st3" d="M410.4,526.1c-0.9-16.8-3.3-33.8-10-49.4c-3.4-8-8.5-17.3-16.8-21.1c-8.8-4.1-17,2.3-21.9,9.3
				c-5.2,7.5-8.4,16.3-10.7,25.1c-2.5,9.7-3.9,19.7-4.4,29.6c-1,19.8,0.6,40.6,7.6,59.3c3.1,8.2,7.5,17.4,14.9,22.6
				c3.4,2.4,7.5,3.5,11.6,2.6c4.4-0.9,8.1-3.9,11-7.3c6.2-7,9.9-16.2,12.6-25c2.6-8.4,4.2-17,5.3-25.6c0.2-1.7,0.4-3.5,0.6-5.2
				c-0.9,16.6-3.5,34-11.5,48.9c-4.1,7.7-10.7,16.2-20.1,16.8c-9,0.6-16-6.6-20.5-13.6c-5-8-8.2-17.1-10.4-26.2
				c-2.4-9.8-3.7-19.9-4.1-30c-0.9-19.7,1.2-40.3,8.4-58.8c3.1-8.1,7.6-16.8,14.6-22.1c3.4-2.6,7.6-4.3,12-4
				c4.5,0.3,8.6,2.5,11.8,5.5c6.9,6.3,11,15.5,13.9,24.2c2.9,8.7,4.6,17.9,5.5,27C410.1,514.4,410.3,520.2,410.4,526.1z"/>
		</g>
	</g>
	<g>
		<g>
			<path class="st3" d="M342,562c2.3,7.9,4.5,15.9,7.9,23.4c3.3,7.5,7.6,14.6,14.3,19.6c-7.5-4-12.4-11.3-15.8-18.9
				C345.1,578.4,343.1,570.3,342,562z"/>
		</g>
	</g>
	<g>
		<g>
			<path class="st16" d="M402.9,527c-0.6-7.8-1.7-15.5-3.6-23.1c-1.2-4.7-2.6-9.3-4.6-13.7c-1.8-4-4.2-8.3-7.7-11
				c-7.7-6-13.8,3.7-16.5,10c-3.9,8.9-5.6,18.9-6.4,28.5c-1,12.6-0.5,25.5,2.1,37.9c1.2,5.8,2.8,11.6,5.6,16.8
				c1.8,3.5,5.5,9.4,10,9.2c4-0.1,6.9-3,9.1-6.1c2.9-4,4.9-8.7,6.5-13.4c2.7-7.9,4.2-16.2,5.3-24.4c-0.1,7.9-0.8,15.7-2.6,23.4
				c-1.1,4.6-2.5,9-4.6,13.2c-2,3.9-4.6,7.9-8.6,10c-7.6,4-14.7-2.1-18.6-8.4c-4.9-8.1-7.4-17.8-8.8-27.1c-1.5-10.1-1.8-20.4-1-30.5
				c0.8-9.9,2.6-19.9,6.5-29.1c2.8-6.6,7.8-15.9,16.1-16.2c9-0.4,14.2,9.5,16.8,16.7C402.4,501.4,403.3,514.4,402.9,527z"/>
		</g>
	</g>
	<g>
		<g>
			<path class="st3" d="M317.5,561.9c3.4,9.3,6.5,18.5,11.5,27.1c4.6,8.3,12.1,16.4,22.2,16.3c-10.5,1.9-18.8-6.5-23.7-14.8
				C322.3,581.8,319.2,572,317.5,561.9z"/>
		</g>
	</g>
	<g>
		<g>
			<path class="st3" d="M59,549.2c2.7,7.7,5.6,15.4,10,22.4c2.4,3.7,5.1,7.4,8.7,10.1c2.9,2.2,6,3.3,9.6,3.7c0,0-0.1,0-0.1,0
				c7.6-0.5,13-5.8,17.2-11.9c4.9-7.1,8-15.1,11-23.2c-1.5,7.9-3.8,15.8-7.8,22.9c-4,7.1-10.2,14.5-18.9,15.2
				c-7.2,0.6-13.4-4-17.7-9.4c-5.8-7.5-8.8-16.5-11.1-25.5C59.6,552,59.3,550.6,59,549.2z"/>
		</g>
	</g>
	<g>
		<g>
			<path class="st3" d="M51.8,543.3c2.3,7.9,4.5,15.9,7.9,23.4c3.3,7.5,7.6,14.6,14.3,19.6c-7.5-4-12.4-11.3-15.8-18.9
				C54.9,559.7,52.9,551.6,51.8,543.3z"/>
		</g>
	</g>
	<g>
		<g>
			<path class="st3" d="M27.3,543.2c3.4,9.3,6.5,18.5,11.5,27.1c4.6,8.3,12.1,16.4,22.2,16.3c-10.5,1.9-18.8-6.5-23.7-14.8
				C32.1,563.1,28.9,553.3,27.3,543.2z"/>
		</g>
	</g>
	<g>
		<g>
			<path class="st16" d="M402.9,527.8c-0.5-8.7-1.7-17.4-5.4-25.4c-1.6-3.5-4.6-8.1-9.1-7.6c-4.2,0.5-6.7,6.2-8,9.5
				c-3.7,9.3-4.4,19.9-3.9,29.8c0.3,5,0.9,9.9,2.1,14.7c1.1,4.3,2.7,8.9,5.7,12.3c1.9,2.1,4.5,3.4,7.2,2.1c3.3-1.6,5.3-5.6,6.7-8.9
				c2.6-6.3,3.7-13,4.4-19.7c-0.4,8.2-1.4,17.1-5.6,24.3c-2.1,3.5-5.7,7.3-10.2,5.5c-3.9-1.6-6.2-6-7.7-9.7
				c-3.7-9.1-4.6-19.6-4.2-29.3c0.4-9.1,1.8-19.9,7.3-27.5c2.3-3.2,5.9-5.6,9.8-3.8c3.5,1.7,5.6,5.9,7,9.3
				C402.2,511.2,402.8,519.7,402.9,527.8z"/>
		</g>
	</g>
	<g>
		<g>
			<path class="st4" d="M391.3,514.3c-2.2,0.6-3,3.4-3.6,5.3c-0.7,2.7-1,5.5-1,8.2c0,2.9,0.2,5.8,0.8,8.6c0.5,2.1,1.3,5.4,3.6,6.2
				c-2.3-0.1-3.6-2.8-4.4-4.6c-1.2-3-1.6-6.4-1.7-9.6c0-3.1,0.4-6.2,1.5-9.1C387.4,517.3,388.9,514.3,391.3,514.3z"/>
		</g>
	</g>
	<g>
		<g>
			<path class="st16" d="M403.5,527.8c-0.1-1.9-0.4-3.8-0.9-5.6c-0.6-2.3-1.4-5.9-3.7-7.1c-1.9-1.2-3.4,2-4,3.3
				c-1.1,2.7-1.5,5.8-1.6,8.7c-0.1,2.8,0.1,5.6,0.7,8.4c0.4,1.9,1.3,6.1,3.7,6.5c2.4,0.5,3.8-3.7,4.4-5.3c0.7-2,1-4,1.3-6.1
				c0,2.2-0.2,4.5-0.8,6.6c-0.6,2.2-2.1,6.4-5.1,5.9c-2.7-0.4-4-3.9-4.7-6.2c-0.9-3.1-1.2-6.6-1.1-9.8c0.1-3,0.5-6.1,1.7-8.9
				c0.9-2.1,2.8-5.5,5.7-4.3c2.6,1.2,3.5,4.9,4,7.5C403.5,523.5,403.6,525.7,403.5,527.8z"/>
		</g>
	</g>
	<g>
		<g>
			<path class="st17" d="M371.9,519.2c-0.1,1.8-1.3,3.7-3.3,3.6c-2-0.1-3.4-2-3.6-3.9c-0.3-2.2,0.9-4.9,3.3-5.2
				c2.3-0.3,3.8,2,3.7,4.1c-0.4-1.2-1.2-2.5-2.5-2.8c-1.8-0.4-2.8,1.7-2.9,3.1c-0.1,1.4,0.6,3.2,2.1,3.5
				C370.2,521.9,371.3,520.5,371.9,519.2z"/>
		</g>
	</g>
	<g>
		<g>
			<path class="st17" d="M372.3,542.4c0.3,0-1.2,2.2-1.4,2.4c-0.5,0.4-1.1,0.5-1.8,0.5c-2.2-0.1-3.6-2.4-3.6-4.4
				c0-2.1,1.1-3.9,3.1-4.6c2.3-0.1,3.9,1.4,3.9,3.8c-0.5-1.3-1.3-2.2-2.6-2.6c-1.6-0.3-2.8,1.5-2.8,3
				C366.6,544.2,370.5,545.5,372.3,542.4z"/>
		</g>
	</g>
	<g>
		<g>
			<path class="st17" d="M377.5,497.9c0.1,1.7-0.9,4.2-3,3.7c-2.3-0.5-2.7-3.4-2.6-5.3c0.3-1.6,1.2-3.9,3.2-3.7
				c1.7,0.1,2.4,2,2.4,3.5c-0.5-1.1-1.1-2.3-2.5-2.4c-1.5-0.1-1.7,3.4-1.5,4.5c0.1,0.6,0.3,1.2,0.7,1.7c0.1,0.1,0.9,0.6,0.9,0.5
				C376.4,500.6,377.1,498.8,377.5,497.9z"/>
		</g>
	</g>
	<g>
		<g>
			<path class="st17" d="M376.8,561.3c0.1,1.7-0.9,4.2-3,3.7c-2.3-0.5-2.7-3.4-2.6-5.3c0.3-1.6,1.2-3.9,3.2-3.7
				c1.7,0.1,2.4,2,2.4,3.5c-0.5-1.1-1.1-2.3-2.5-2.4c-1.5-0.1-1.7,3.4-1.5,4.5c0.1,0.6,0.3,1.2,0.7,1.7c0.1,0.1,0.9,0.6,0.9,0.5
				C375.7,564,376.5,562.2,376.8,561.3z"/>
		</g>
	</g>
	<g>
		<g>
			<path class="st17" d="M385.2,491.5c0.1,0-1,0.9-1.3,0.9c-0.5,0.1-1.1-0.2-1.5-0.5c-0.9-0.8-1.3-2.1-1.3-3.3
				c0-1.4,0.6-3.3,2.1-3.8c1.7-0.5,2.8,1.1,2.7,2.6c-0.4-0.7-1.3-1.9-2.2-1.4c-0.8,0.5-1,1.9-1.1,2.7c0,1,0.2,2.1,0.9,2.8
				C383.9,491.9,385.2,491.9,385.2,491.5C385.2,491.5,385.2,491.5,385.2,491.5z"/>
		</g>
	</g>
	<g>
		<g>
			<path class="st17" d="M384.2,575.5c0.1,0-1,0.9-1.3,0.9c-0.5,0.1-1.1-0.2-1.5-0.5c-0.9-0.8-1.3-2.1-1.3-3.3
				c0-1.4,0.6-3.3,2.1-3.8c1.7-0.5,2.8,1.1,2.7,2.6c-0.4-0.7-1.3-1.9-2.2-1.4c-0.8,0.5-1,1.9-1.1,2.7c0,1,0.2,2.1,0.9,2.8
				C382.9,575.9,384.2,576,384.2,575.5C384.2,575.5,384.2,575.5,384.2,575.5z"/>
		</g>
	</g>
	<g>
		<g>
			<path class="st18" d="M258,476.3c16.2-0.7,32.4-1.2,48.5-1.6c10.1-0.2,20.2-0.4,30.3-0.6c4.6-0.1,8.8-0.4,12-4.2
				c2.9-3.4,3.3-8.5,4.6-12.7c2.8-8.9,6.6-17.7,11.9-25.4c5.1-7.4,12.4-14,21.6-15.5c4.7-0.7,9.3-0.2,13.4,2.2
				c4,2.3,7.1,5.9,9.7,9.6c5.4,7.8,8.8,17,11.5,26.1c6.3,21.9,8.1,45.1,7.4,67.8c-1-16.3-2.9-32.5-6.5-48.5c-2.1-9.5-4.8-19-8.6-28
				c-3.5-8.2-8.1-18-16.2-22.6c-8.3-4.7-18.1,0.7-23.8,7c-6.2,6.8-10.3,15.3-13.5,23.8c-1.7,4.6-2.9,9.3-4.5,13.9
				c-1.5,4.1-4.7,7.5-8.6,9.4c-4.2,2-8.8,1.5-13.4,1.4c-5.1-0.1-10.3-0.2-15.4-0.3C298.3,477.9,278.1,477.3,258,476.3z"/>
		</g>
	</g>
	<g>
		<g>
			<path class="st18" d="M324.6,470.5c6.1-0.5,13.5,0.3,18.4-4.1c2.9-2.6,3.8-5.9,4.8-9.5c1.1-4.3,2.5-8.5,4.1-12.6
				c5.3-13.8,15-30,31.3-31.3c-15.7,4-23.6,20.2-29,34.2c-1.5,4-2.9,8.1-4.1,12.2c-1.1,3.7-3,7.1-6.3,9.4
				C338.1,472.5,331,471,324.6,470.5z"/>
		</g>
	</g>
	<g>
		<g>
			<path class="st19" d="M258,468.4c0-10.2,1.5-20.5,4.3-30.3c2.6-9.1,6.5-18.1,12.8-25.3c5.9-6.6,14.4-11.5,23.4-11.8
				c10.3,0.2,20.7,0.7,30.9,1.6c7.2,0.7,14.4,1.5,21.5,2.7c7.1,1.2,14.3,2.7,21,5.5c-11.5-3.7-23.9-4.7-35.9-5.6
				c-12.5-1-25-1.5-37.6-1.6c0,0,0.1,0,0.1,0c-13.9,1.2-23.7,10.9-29.8,22.8C262.3,439.2,259.2,454.1,258,468.4
				C258,464.8,258.3,464.8,258,468.4z"/>
		</g>
	</g>
	<g>
		<g>
			<path class="st18" d="M258,317.1c9.5-1.1,18.9-2.2,28.4-3.3c19.9-2.3,39.7-4.6,59.6-6.9c17.5-2,34.9-4.1,52.4-6.1
				c3.8-0.4,7.5-0.9,11.3-1.3c1.1-0.1,2,0.2,3,0.5c4.4,1.2,10.5,3.5,12,8.3c-6.1-3-12.8-2.1-19.2-1.4c-6.5,0.8-13.1,1.6-19.6,2.4
				c-20.3,2.5-40.7,5-61,7.5c-17.5,2.2-35.1,4.3-52.6,6.5c-2.6,0.3-5.2,0.6-7.8,1c-0.4,0.1-0.9,0.1-1.3,0.2c-0.2,0-0.8-1.5-0.9-1.7
				C261.1,320.8,259.8,318.7,258,317.1z"/>
		</g>
	</g>
	<g>
		<g>
			<path class="st18" d="M264.2,330.7c7.6-1.6,15.2-3.1,22.8-4.1c9-1.1,18.1-2.2,27.1-3.4c20.4-2.5,40.7-5.1,61.1-7.6
				c7.2-0.9,14.5-2.2,21.8-2.6c6-0.4,12-0.7,18.1-1c-7.6,1.5-15.2,3.1-22.8,4.1c-9,1.1-18.1,2.3-27.1,3.4
				c-20.4,2.5-40.7,5.1-61.1,7.6c-7.2,0.9-14.5,2.2-21.8,2.7C276.3,330,270.3,330.5,264.2,330.7z"/>
		</g>
	</g>
	<g>
		<g>
			<path class="st16" d="M433.9,512.4c-1.3-9-2.2-18-3.1-27c-0.2-2.3-0.5-4.6-0.7-6.8c-0.3-3.4-0.1-6.9-0.1-10.3c0-7.5,0-15,0-22.5
				c0-1.3,0-2.7,0-4c0-0.8,0-1.6,0-2.4c0-1-0.4-1.5,0.7-1.5c1.6,0,3.2,0,4.8,0c5.8-0.1,11.7-0.1,17.5-0.2c20-0.2,39.9-0.4,59.9-0.6
				c10.1-0.1,20.1-0.2,30.2-0.3c16.7-0.2,33.5-0.3,50.2-0.5c4.9,0,9.8,0,14.6-0.2c4.5-0.2,8.9,0.4,13.4,0.8
				c8.9,0.8,17.9,1.8,26.8,2.8c-9.1,1.2-18.2,2.4-27.3,3.4c-4.7,0.5-9.3,1-14,1c-5.7,0-11.5,0.1-17.2,0.1
				c-16.1,0.2-32.3,0.3-48.4,0.5c-11.8,0.1-23.7,0.2-35.5,0.3c-19.5,0.2-38.9,0.4-58.4,0.6c-4.4,0-8.8,0.1-13.2,0.1
				c1.3-1.3,2.6-2.6,3.9-4c0,6.8,0,13.7,0,20.5c0,5.3,0.4,10.8-0.1,16.1c-0.6,6.1-1.2,12.2-1.9,18.2
				C435.3,501.9,434.7,507.2,433.9,512.4C433.1,506.5,434.8,506.5,433.9,512.4z"/>
		</g>
	</g>
	<g>
		<g>
			<path class="st19" d="M513,430.8c17.3-1.4,34.8-1.5,52.2-1.6c17.4,0.1,34.9,0.1,52.2,1.6c-17.3,1.5-34.8,1.5-52.2,1.6
				C547.8,432.3,530.3,432.3,513,430.8z"/>
		</g>
	</g>
	<g>
		<g>
			<path class="st16" d="M438.6,460.7c8.5,1.4,15.4,5.6,20.9,12.3c5.9,7.2,8.8,16.6,9.2,25.7c0.6,13.3-4.6,27.1-15.2,35.5
				c-6.1,4.9-13.7,7.3-21.5,6.6c8.9-1.1,16.5-5.4,22.3-12.2c5.8-6.8,9.2-16.1,9.6-25c0.8-16.1-5.5-31.7-19.6-40.3
				C442.5,462.2,440.5,461.5,438.6,460.7z"/>
		</g>
	</g>
	<g>
		<g>
			<path class="st4" d="M487.3,488.1c0.4,1.8,0.7,3.6,1,5.4c0.8-0.1,1.6-0.2,2.5-0.4c0.6,0.1,0.8-0.1,0.5-0.7
				c-0.1-0.6-0.2-1.1-0.3-1.7c-0.3-1.8-0.7-3.7-1.2-5.5c-1-3.6-2.8-6.2-5.4-8.8c0.3,1.9,0.8,3.7,1.1,5.6
				C485.8,484.1,486.9,486,487.3,488.1C487.7,489.8,486.9,486,487.3,488.1z"/>
		</g>
	</g>
	<g>
		<g>
			<path class="st4" d="M488,507.5c0.1,0-2,6.9-2.3,7.6c-1.1,2.8-1.8,5.8-2.6,8.8c2.3-2,4.5-4.3,5.6-7.2c1.1-3,2-6,2.5-9.2
				C490.1,507.5,489,507.5,488,507.5z"/>
		</g>
	</g>
	<g>
		<g>
			<path class="st4" d="M564.5,495.3c0,6.8-2.7,13.2-4.6,19.7c1.3-1.2,2.8-2.6,3.7-4.2c0.8-1.4,1.2-3,1.7-4.5
				c1-3.6,1.7-7.4,1.6-11.2C566.1,495.2,565.3,495.2,564.5,495.3C564.5,495.6,565.3,495.2,564.5,495.3z"/>
		</g>
	</g>
	<g>
		<g>
			<path class="st4" d="M564,489.3c0.8,0,1.6,0,2.4,0c-0.3-2.2-0.7-4.5-1.4-6.7c-0.8-2.3-2.4-4.1-4-5.9
				C561.7,481,563.3,485,564,489.3z"/>
		</g>
	</g>
	<g>
		<g>
			<path class="st16" d="M577,471.9c11.6,11.5,11.4,33.5-0.6,44.7c1-3.3,2.1-6.4,2.9-9.8c0.9-4.1,1.4-8.3,1.4-12.6
				c0.4-3.9-0.4-8-1-11.9C578.8,478.8,577.9,475.4,577,471.9z"/>
		</g>
	</g>
	<g>
		<g>
			<path class="st16" d="M453.7,477.6c5.8,8,8.9,19,7.2,28.9c-0.9,5.6-2.5,10.6-5.2,15.6c-2,4.2-5.7,7.6-9.4,10.4
				c2.6-3.5,5.3-7,7-11c2.1-5,3.5-9.9,4.4-15.3c0.5-2.5,0.5-5.2,0.4-7.8c0-2.5-0.2-5.2-0.7-7.7C456.6,486.1,455.3,481.9,453.7,477.6
				z"/>
		</g>
	</g>
	<g>
		<g>
			<path class="st17" d="M462.5,466c7.7-0.1,15.3,0.1,23-0.1c10-0.2,19.9-0.4,29.9-0.6c17.6-0.4,35.3-0.7,52.9-1
				c1.8,0,3.6-0.1,5.4-0.1c0.3,0,0.5,0,0.8,0c0,0,0.1,2,0.1,2c-3.7,0.2-7.4,0.4-11.1,0.6c-18.8,0.9-37.6,1.9-56.5,2.8
				c-10.5,0.5-21.1,1.2-31.7,1.3c-4.1,0-8.1,0-12.2,0c-0.9,0-0.6-0.8-0.6-1.6C462.5,468.1,462.5,467,462.5,466z"/>
		</g>
	</g>
	<g>
		<g>
			<path class="st17" d="M467.8,472.9c5.2-0.2,10.9-0.3,15.8-0.1c12.8-1,78.1-4.5,91-4.5c-9.3,1.2-71,4.7-80.3,5.4
				c-4.3,0.3-8.7,0.8-13.1,0.5C476.8,473.8,472.3,473.4,467.8,472.9C469.2,472.8,469.2,473,467.8,472.9z"/>
		</g>
	</g>
	<g>
		<g>
			<path class="st17" d="M468.7,526c3.3-0.1,6.6-0.1,9.8-0.1c1.6,0,3.3,0,4.9,0c0.8,0,1.6,0,2.5,0c0.2,0,2.2,0,1.6,0
				c21-1.6,41.9-3.3,62.9-4.9c5.2-0.4,10.5-0.8,15.7-1.2c2.5-0.2,15.8-1.8,18.3-2c1-0.1,1.2-0.4,1.3,0.6c0.1,0.8,0.4,1.2-0.5,1.4
				c-10.4,1.2-31.7,3.7-42.1,4.9c-15.1,1.6-30.1,3.2-45.2,4.9c-3.3,0.4-6.8,1.1-10.2,1.1c-3.5,0-7,0.1-10.5,0.1c-1.8,0-3.7,0-5.5,0
				c-0.7,0-3.1,0.4-3.1-0.4C468.7,528.9,468.7,527.4,468.7,526z"/>
		</g>
	</g>
	<g>
		<g>
			<path class="st17" d="M474,532.8c5.3-0.3,10.6-0.2,15.9-0.1c0,0-0.1,0-0.1,0c12.7-1.8,69.2-8.3,82-9.1
				c-9.2,1.7-62.1,8.1-71.3,9.3c-4.3,0.6-8.7,1.4-13.1,1.1C482.9,533.7,478.4,533.4,474,532.8C475.3,532.8,475.3,533,474,532.8z"/>
		</g>
	</g>
	<g>
		<g>
			<path class="st16" d="M471.4,497.7c15.7-2.8,31.8-4.1,47.7-5.2c18.4-1.3,36.9-2,55.4-1.3c0.8,0,1.6,0.1,2.4,0.1
				c-15.5,2.8-31.3,4.1-47.1,5.2c-18.6,1.3-37.4,2.1-56,1.3C473,497.8,472.2,497.7,471.4,497.7z"/>
		</g>
	</g>
	<g>
		<g>
			<path class="st16" d="M477.6,503.9c23.2-2.8,46.8-4.4,70.2-4.8C524.5,501.9,501,503.5,477.6,503.9z"/>
		</g>
	</g>
	<g>
		<g>
			<path class="st20" d="M601.5,449.3c9.8-0.7,19.6-1.4,29.4-2c9.4-0.6,18.8-0.4,28.3-0.4c15.6,0,31.1,0,46.7,0
				c-1.5,15.1-2,30.3-1.4,45.4c0.3,7.5,0.8,15,1.4,22.5c-14.3,0-28.6,0-42.9,0c-9.3,0-18.5,0-27.8,0c-2.4,0-4.8,0-7.2,0
				c-0.4,0-0.7,0-1.1,0c-1,0-1.8,0.4-1.9-0.7c-0.1-0.7-0.2-1.5-0.3-2.2c-2.1-14.6-1.4-29.4,0.7-44c0,5.7,0.1,11.4,0.6,17
				c0.9,9.1,2.1,18.1,3.5,27.1c-0.8-0.7-1.6-1.3-2.4-2c14.8,0,29.6,0,44.5,0c10.6,0,21.2,0,31.8,0c-0.8,0.9-1.6,1.7-2.4,2.6
				c-1.6-21.2-2.1-42.4,0-63.6c0.8,0.9,1.6,1.8,2.4,2.6c-15.7,0-31.4,0-47.1,0c-9.1,0-18.2,0.1-27.4-0.5
				C619.7,450.6,610.6,450,601.5,449.3C605.8,449,605.8,449.6,601.5,449.3z"/>
		</g>
	</g>
	<g>
		<g>
			<path class="st20" d="M636.5,465.2c-0.3,5.7-0.7,11.5-0.6,17.3c0.1,3.7,0.1,7.4,0.2,11.2c0.1,2.4,0.4,4.8,0.4,7.2
				c-2-5.6-2.8-11.3-2.9-17.2C633.4,477.5,634.2,470.8,636.5,465.2z"/>
		</g>
	</g>
	<g>
		<g>
			<path class="st20" d="M658.7,465.2c-0.3,5.7-0.7,11.5-0.6,17.3c0.1,3.7,0.1,7.4,0.2,11.2c0.1,2.4,0.4,4.8,0.4,7.2
				c-2-5.6-2.8-11.3-2.9-17.2C655.7,477.5,656.4,470.8,658.7,465.2z"/>
		</g>
	</g>
	<g>
		<g>
			<path class="st20" d="M683.5,465.2c-0.3,5.7-0.7,11.5-0.6,17.3c0.1,3.7,0.1,7.4,0.2,11.2c0.1,2.4,0.4,4.8,0.4,7.2
				c-2-5.6-2.8-11.3-2.9-17.2C680.5,477.5,681.2,470.8,683.5,465.2z"/>
		</g>
	</g>
	<g>
		<g>
			<path class="st20" d="M649.2,457.2c16.1-1.8,32.7-1.9,48.9-1.4c-1.3,13.7-2.3,27.6-1.6,41.3c-2.4-13.2-2.2-26.7-1.5-40
				c0.5,0.5,1,1.1,1.5,1.6C680.8,459.2,664.7,458.9,649.2,457.2C653.1,456.8,653.1,457.7,649.2,457.2z"/>
		</g>
	</g>
	<g>
		<g>
			<path class="st3" d="M632.5,460.7c-1.5,0.5-3,0.9-4.6,1.2c-2,0.5-4,0.4-6.1,0.4c-4.7,0-9.4,0-14,0c-4.7,0-9.4,0-14,0
				c-2.1,0-4.1,0.1-6.1-0.4c-1.5-0.3-3.1-0.8-4.6-1.2c1.5-0.5,3-0.9,4.6-1.2c2-0.5,4-0.4,6.1-0.4c4.7,0,9.4,0,14,0c4.7,0,9.4,0,14,0
				c2.1,0,4.1-0.1,6.1,0.4C629.5,459.8,631,460.2,632.5,460.7z"/>
		</g>
	</g>
	<g>
		<g>
			<path class="st18" d="M120.9,312c11.3-2.6,22.6-5.1,33.9-7.6c7.5-1.7,15.2-2.8,22.8-4.2c7.3-1.4,14.6-2.7,21.9-4.1
				c0.9-0.2,1.8,0,2.7,0c2.6,0,5.3,0,7.9,0c19.2,0,38.5,0,57.7,0c10.9,0,21.8,0,32.7,0c15.9,0,31.8,0,47.7,0
				c16.6,0,33.2,0.5,49.8,1.3c-16.9,0.7-33.7,1.3-50.6,1.3c-8.2,0-16.4,0-24.6,0c-10.9,0-21.7,0-32.6,0c-18.9,0-37.8,0-56.8,0
				c-11.3,0-22.5,0-33.8,0c0.1,0,0.2,0,0.2,0c-7.1,1.3-14.2,2.6-21.3,4c-7.7,1.4-15.4,3.1-23.2,4.3C144,308.6,132.4,310.4,120.9,312
				C127.4,310.4,127.5,311,120.9,312z"/>
		</g>
	</g>
	<g>
		<g>
			<path class="st18" d="M214.7,301c7.7-0.4,15.5-0.8,23.2-0.8c9.5,0,19,0,28.5,0c19.7,0,39.3,0.2,59,0c6.4-0.1,12.8,0.5,19.2,0.8
				c-7.7,0.4-15.5,0.8-23.2,0.8c-9.5,0-19,0-28.5,0c-19.7,0-39.3-0.2-59,0C227.5,301.9,221.1,301.4,214.7,301z"/>
		</g>
	</g>
	<g>
		<g>
			<path class="st16" d="M144.2,290.7c-2.6,1-5.1,1.9-7.9,2.3c-3.1,0.4-6.8,0.7-9.8-0.3c-3-1.1-4.4-3.8-4.5-6.9c-0.1-4-0.1-8-0.1-12
				c-0.1-13.6,0.1-27.4,1.2-41c1.1,12.8,1.1,25.7,1.2,38.6c0,3.6,0,7.3-0.1,10.9c0,2.9-0.7,7,2.6,8.6c0.9,0.7,2.8,0.8,3.9,0.9
				c1.8,0.3,3.7,0.3,5.6,0.3C138.9,291.9,141.6,291.3,144.2,290.7z"/>
		</g>
	</g>
	<g>
		<g>
			<path class="st16" d="M123.1,228.5c0.5-7,5.3-13.9,13.1-12.8c3.9,0.5,7.4,3.3,8.7,7.1c1.5,4.3,0.9,9.3,0.9,13.8
				c0.1,17.1-0.2,34.4-1.7,51.4c0,0.1,0,0.2,0,0.3c-1.3-15.6-1.4-31.4-1.4-47c0-4.8,0.3-9.5,0.2-14.3c-0.1-3.4-1.6-6.9-4.9-8.4
				C130.5,214.8,124.6,222,123.1,228.5z"/>
		</g>
	</g>
	<g>
		<g>
			<path class="st20" d="M146,214.6c1.6-0.5,3.3-0.9,4.9-1.2c2.1-0.5,4.2-0.4,6.4-0.4c5.1,0,10.2,0,15.3,0c5.1,0,10.2,0,15.3,0
				c2.2,0,4.2-0.1,6.4,0.4c1.6,0.3,3.3,0.7,4.9,1.2c-1.6,0.5-3.3,0.9-4.9,1.2c-2.1,0.5-4.2,0.4-6.4,0.4c-5.1,0-10.2,0-15.3,0
				c-5.1,0-10.2,0-15.3,0c-2.2,0-4.2,0.1-6.4-0.4C149.3,215.5,147.6,215.1,146,214.6z"/>
		</g>
	</g>
	<g>
		<g>
			<path class="st16" d="M127.2,230.3c1.2,17.7,1.2,35.6,0,53.2C126,265.9,126,248,127.2,230.3z"/>
		</g>
	</g>
	<g>
		<g>
			<path class="st16" d="M131.3,221.2c0.5,2,0.9,4.1,1.2,6.2c0.5,2.8,0.4,5.5,0.4,8.3c0,6.4,0,12.7,0,19.1c0,6.4,0,12.7,0,19.1
				c0,2.8,0.1,5.5-0.4,8.3c-0.3,2.1-0.7,4.1-1.2,6.2c-0.5-2.1-0.9-4.1-1.2-6.2c-0.5-2.8-0.4-5.5-0.4-8.3c0-6.4,0-12.7,0-19.1
				c0-6.4,0-12.7,0-19.1c0-2.8-0.1-5.5,0.4-8.3C130.4,225.3,130.8,223.3,131.3,221.2z"/>
		</g>
	</g>
	<g>
		<g>
			<path class="st21" d="M517.3,295.4c-2.9,1.2-5.7,2-8.8,2.4c-3.1,0.4-7.4,0.7-10.3-0.7c-3.2-1.3-4.2-4.4-4.2-7.6
				c-0.1-4-0.1-8.1-0.1-12.1c-0.1-14.3,0-28.8,1.2-43.1c1.1,13.5,1.1,27.1,1.2,40.6c0,3.9,0,7.8-0.1,11.6c0,3-0.7,6.8,2.4,8.7
				c2.7,1.6,6.8,1.5,9.8,1.5C511.4,296.7,514.3,296.1,517.3,295.4z"/>
		</g>
	</g>
	<g>
		<g>
			<path class="st16" d="M495,229.9c0.4-7,4.8-13.8,12.4-13.8c4.2,0,8.3,2.4,10.2,6.2c1.8,3.7,1.6,7.7,1.6,11.7
				c0.1,18.8-0.1,37.6-1.9,56.3c-0.1,0.8-0.2,1.7-0.2,2.5c-1.6-16-1.8-32.2-1.8-48.2c0-5.1,0-10.2,0.2-15.2c0.1-3.5-0.8-7-3.8-9
				c-3.3-2.3-8.5-2.4-11.5,0.6c-2.4,1.9-3.8,5.1-4.8,7.9C495.2,229.2,495.1,229.6,495,229.9z"/>
		</g>
	</g>
	<g>
		<g>
			<path class="st16" d="M499.3,231.9c1.2,18.6,1.2,37.4,0,56C498.1,269.3,498.1,250.5,499.3,231.9z"/>
		</g>
	</g>
	<g>
		<g>
			<path class="st16" d="M503.9,222.3c1.4,6.9,1.8,14.1,1.9,21.1c0.1,5.2-0.3,10.3-0.5,15.5c-0.2,5.1-0.3,10.1-0.5,15.2
				c-0.2,4.4-0.4,8.9-0.6,13.3c-0.1,1.4-0.1,2.9-0.2,4.3c0,0.1,0,1.8-0.4,1.4c-0.3-0.3-0.1-1.3-0.1-1.6c-0.1-1.7-0.2-3.4-0.2-5
				c-0.2-4.5-0.4-9-0.6-13.5c-0.2-5.1-0.3-10.2-0.5-15.3c-0.2-5.1-0.6-10.3-0.5-15.4c0.1-4.6,0.4-9.3,0.9-13.9
				c0.2-1.6,0.4-3.2,0.7-4.8C503.2,223.5,503.7,221.6,503.9,222.3z"/>
		</g>
	</g>
	<g>
		<g>
			<path class="st20" d="M147,280c-2.3,0,1.3-3.3,1.5-3.6c2.1-2.3,4.3-4.6,6.4-6.9c6.7-7.1,13.3-14.2,20-21.3
				c6.5-6.9,13-13.8,19.5-20.7c2-2.1,3.9-4.1,5.9-6.2c0.4-0.5,0.9-0.9,1.3-1.4c0.7-0.8,2.2,0,1.3,1c-10.4,11-20.7,22.1-31.1,33.1
				c-5.6,6-11.3,12-16.9,18c-1.8,1.9-3.6,3.8-5.4,5.7C149,278.2,147.9,280,147,280z"/>
		</g>
	</g>
	<g>
		<g>
			<path class="st20" d="M191.7,296.4c-2,0-4-0.3-6-0.5c-4.6-0.4-9.3-0.8-13.9-1.2c-8.4-0.7-16.7-1.4-25.1-2.2c-0.3,0-0.6,0-0.8-0.1
				c-1-0.1-1.2-1.7,0-1.6c0.5-0.1,1.2,0.1,1.7,0.1c3.6,0.3,7.3,0.6,10.9,0.9c9.6,0.8,19.1,1.7,28.7,2.5c1.2,0.1,2.4,0.2,3.7,0.3
				c0.3,0,0.6,0,0.8,0.1C192.6,294.9,192.8,296.4,191.7,296.4z"/>
		</g>
	</g>
	<g>
		<g>
			<path class="st21" d="M465.7,407.6c3.7-0.4,7.8-2,8.7-6.1c0.6-4,0.4-8.1,0.4-12.2c0-10,0-19.9,0-29.9c0-10.1,0-20.3,0-30.4
				c0-4.3,0.1-8.6,0-12.9c0-2-0.1-3.7-1.2-5.5c-1.1-1.8-2.9-3.1-5-3.6c-0.7-0.2-1.3-0.3-2-0.4c3.8-0.5,7.4,1.3,9.4,4.5
				c1.7,2.3,1.4,5.3,1.4,8c0,9.4,0,18.9,0,28.3c0,10.4,0,20.7,0,31.1c0,4.6,0,9.2,0,13.9c0,4.1,0.7,8.5-2.2,11.9
				C472.7,407.3,469.4,408,465.7,407.6z"/>
		</g>
	</g>
	<g>
		<g>
			<path class="st16" d="M455.3,408.4c-1.2-3.2-2.2-6.6-3.1-9.9c-0.3-1.1-0.6-2.2-0.9-3.3c-0.3-1.1,0-2.5,0-3.6c0-2.2,0-4.3,0-6.5
				c0-9.9,0-19.8,0-29.7c0-10,0-19.9,0-29.9c0-3.4,0-6.8,0-10.2c0-1.5,1-3.3,1.7-4.5c1.4-1.9,2.8-3.5,5-4.5c1.9-0.9,4-1,6-0.4
				c-2.2,1.1-3.3,2.3-4.5,4.4c-0.3,1.1-0.5,2.1-0.4,3.3c0.2,0.9,0.2,1.8,0.2,2.7c0-0.1,0-0.3,0-0.4c-0.4,3.1-0.1,6.5-0.1,9.7
				c0,4,0,8,0,12c0,8.9,0,17.8,0,26.7c0,8.2,0,16.4,0,24.5c0,1.8,0,3.6,0.1,5.3c0.1,2-0.9,4.3-1.5,6.2
				C457.2,403.1,456.3,405.8,455.3,408.4z"/>
		</g>
	</g>
	<g>
		<g>
			<path class="st16" d="M464,315.5c0.5,2.7,0.9,5.3,1.2,8c0.5,3.7,0.4,7.3,0.4,11.1c0,8.1,0,16.2,0,24.3c0,8.1,0,16.2,0,24.3
				c0,3.5,0.2,7.1-0.3,10.6c-0.4,2.8-0.8,5.7-1.3,8.5c-0.5-2.7-0.8-5.3-1.2-8c-0.5-3.7-0.4-7.3-0.4-11.1c0-8.1,0-16.2,0-24.3
				c0-8.1,0-16.2,0-24.3c0-3.5-0.2-7.1,0.3-10.6C463.1,321.1,463.5,318.3,464,315.5z"/>
		</g>
	</g>
	<g>
		<g>
			<path class="st19" d="M428.9,317.1c0.4,3.3,0.6,6.6,0.9,9.9c0.4,4.4,0.4,8.8,0.4,13.3c0,9.8,0,19.5,0,29.3c0,10.1,0,20.3,0,30.4
				c0,4.3,0,8.7,0,13c-0.1,4.5-0.4,9-0.9,13.5c-0.1,1.4-0.3,2.9-0.4,4.3c-0.4-3.3-0.6-6.6-0.9-9.9c-0.4-4.4-0.4-8.8-0.4-13.3
				c0-9.8,0-19.5,0-29.3c0-10.1,0-20.3,0-30.4c0-4.3,0-8.7,0-13c0.1-4.5,0.4-9,0.8-13.5C428.6,320,428.7,318.6,428.9,317.1z"/>
		</g>
	</g>
	<g>
		<g>
			<path class="st22" d="M205.5,249.6c-0.3,3.8-0.5,7.7-0.8,11.5c-0.3,4.4-0.6,8.7-0.9,13.1c-0.3,3.7,1.5,7.4,5.4,8.3
				c1.9,0.5,4.1,0.2,6.1,0.2c2.5,0,5-0.1,7.6-0.1c4.9-0.1,9.9-0.2,14.8-0.3c9.8-0.2,19.5-0.1,29.3-0.1c39.3,0,78.6,0,117.8,0
				c10.5,0,21,0,31.5,0c4.5,0,10.5,1.1,13.1-3.4c1-1.7,0.9-3.8,1-5.7c0.1-2.1,0.3-4.1,0.4-6.2c0.7-9.7,1.4-19.4,2.1-29
				c0.3-4.2,0.6-8.3,0.9-12.5c0.2-3.1-1.9-6.3-5.3-7c-2.6-0.5-5.5-0.2-8.1-0.2c-5.2,0-10.4,0-15.5,0c-20.7,0-41.4,0-62,0
				c-38.5,0-77,0.2-115.4-0.5c-3.9-0.1-7.9-0.3-11.9-0.2c-1,0.2-2,0.2-3,0.6c-2,0.8-3.6,2.5-4.2,4.6c-0.6,2.1-0.6,4.3-0.9,6.5
				c-0.3,2.3-0.5,4.7-0.8,7c-0.3,3-0.7,6.1-1,9.1c0.2-2.9,0.4-5.8,0.6-8.7c0.3-4.4,0.2-9.1,1.1-13.5c1.5-8.4,11.5-6.9,17.7-7
				c19.4-0.3,38.8-0.5,58.1-0.5c39.7,0,79.4,0,119.1,0c8,0,16,0,24,0c4.1,0,8.2,2.1,9.5,6.2c0.9,3,0.3,6.3,0.1,9.4
				c-1.1,14.9-1.8,30-3.2,44.9c-0.3,3.5-2.3,6.6-5.6,8c-1.9,0.8-3.8,0.7-5.8,0.7c-8.6,0-17.3,0-25.9,0c-20.7,0-41.4,0-62,0
				c-38.5,0-77,0.2-115.5-0.4c-4.8-0.1-10.6,0.7-13.7-3.7c-2.8-4-1.1-9.8-0.6-14.2C204.2,260.9,204.9,255.2,205.5,249.6z"/>
		</g>
	</g>
	<g>
		<g>
			<path class="st10" d="M237,221.2c-6.2,0.2-12.5,0.4-18.7,0.5c-2.4,0-4.5,1.5-5.6,3.6c-1,1.9-0.8,4.3-1,6.3
				c-0.2,2.5-0.4,5-0.6,7.4c-0.8,9.6-1.7,19.2-2.8,28.8c-0.4,3.8-1.3,7.9,2.3,10.5c2.6,1.8,6.3,1.3,9.3,1.4
				c-3.1,0.1-6.8,0.9-9.5-0.8c-4.1-2.4-3.6-6.7-3.3-10.7c0.7-9.8,1.5-19.6,2.5-29.4c0.2-2.5,0.5-5,0.7-7.4c0.2-2.1,0.1-4.5,1.1-6.5
				c1.3-2.7,3.9-4.2,6.8-4.3C224.3,220.4,230.7,221,237,221.2z"/>
		</g>
	</g>
	<g>
		<g>
			<path class="st10" d="M312.2,221.2c-1,19.2-3.2,38.4-6.6,57.3C306.5,259.4,308.8,240.1,312.2,221.2z"/>
		</g>
	</g>
	<g>
		<g>
			<path class="st10" d="M317.6,221.9c0.3,1.8,0.5,3.6,0.6,5.4c0.2,2.4-0.2,4.7-0.5,7.1c-0.6,5.4-1.3,10.8-1.9,16.3
				c-0.6,5.4-1.3,10.8-1.9,16.3c-0.3,2.4-0.4,4.7-1.2,7c-0.5,1.7-1.2,3.5-1.8,5.1c-0.3-1.8-0.5-3.6-0.6-5.4
				c-0.2-2.4,0.2-4.7,0.4-7.1c0.6-5.4,1.3-10.8,1.9-16.3c0.6-5.4,1.3-10.8,1.9-16.3c0.3-2.4,0.4-4.7,1.2-7
				C316.4,225.3,317,223.6,317.6,221.9z"/>
		</g>
	</g>
	<g>
		<g>
			<path class="st20" d="M415.1,296.8c-1.9,0-1.2-2.3,0.3-2.4c0.7-0.1,1.5-0.1,2.2-0.2c3.1-0.2,6.2-0.5,9.3-0.7
				c9.8-0.7,19.5-1.5,29.3-2.2c9.1-0.7,18.3-1.4,27.4-2c2.3-0.2,4.6-0.3,6.9-0.5c0.7-0.1,1.6-0.2,1.9,0.7c0.5,1.2-0.7,1.6-1.6,1.7
				c-16.5,1.2-33,2.5-49.5,3.7c-6.1,0.5-12.3,0.9-18.4,1.4C420.4,296.4,417.7,296.8,415.1,296.8z"/>
		</g>
	</g>
	<g>
		<g>
			<path class="st20" d="M517.3,215.8c-1.1,0-2.3-2.4-3.3-3.1c-1.2-0.9-2.7-1.5-4.1-2c-1.9-0.5-4-0.8-6-0.7c-1.5,0.1-3,0-4.6,0
				c-9.2,0-18.3,0-27.5,0c-8,0-16.1,0-24.1,0c-0.5,0-1,0-1.5,0c-1.5,0-1.5-2.4,0-2.4c0.1,0,0.3,0,0.4,0c2.5,0,5.1,0,7.6,0
				c16.4,0,32.8,0,49.1,0c2,0,3.9,0,5.9,0.5c2.1,0.4,4.1,1.2,5.8,2.4C516,211.2,520.6,215.8,517.3,215.8z"/>
		</g>
	</g>
	<g>
		<g>
			<path class="st20" d="M491.4,281c-1.2,0-2.4-2.3-3-3.1c-1.9-2.5-3.9-5-5.8-7.5c-5.9-7.7-11.9-15.4-17.8-23.1
				c-5.8-7.6-11.7-15.2-17.5-22.8c-1.8-2.4-3.6-4.7-5.5-7.1c-0.5-0.6-0.9-1.2-1.4-1.8c-0.7-0.9-0.6-2.7,1-2.2
				c1.1,0.3,2.1,2.4,2.7,3.2c2,2.5,3.9,5.1,5.9,7.6c6,7.7,11.9,15.4,17.9,23.2c5.8,7.5,11.6,15,17.4,22.5c1.8,2.3,3.6,4.7,5.4,7
				C491.1,277.6,494.3,281,491.4,281z"/>
		</g>
	</g>
	<g>
		<g>
			<path class="st20" d="M437,219.8c17.6,21.1,34.4,42.9,50.3,65.2C469.7,264,452.8,242.2,437,219.8z"/>
		</g>
	</g>
	<g>
		<g>
			<path class="st20" d="M424.7,299.4c20.9-2.3,42.2-3.6,63.2-3.8C467,297.9,445.7,299.2,424.7,299.4z"/>
		</g>
	</g>
	<g>
		<g>
			<path class="st20" d="M448.5,214.6c18.3-1.2,36.8-1.2,55.2,0C485.3,215.8,466.8,215.8,448.5,214.6z"/>
		</g>
	</g>
	<g>
		<g>
			<path class="st20" d="M253.2,222.3c-2,15.7-4.1,31.5-6.1,47.2c-0.4,3.2-0.8,6.4-1.3,9.7c7.9,0,15.9,0,23.8,0c1.3,0,2.7,0,4,0
				c0.4,0,0.3-0.2,0.4-0.6c0.3-2.7,0.5-5.4,0.8-8.1c1.6-16,3.2-32.1,4.7-48.1c0,0,0,0,0,0C270.8,222.3,262,222.3,253.2,222.3z"/>
		</g>
	</g>
	<g>
		<g>
			<path class="st20" d="M290.6,221.2c2.8,0,5.6,0,8.3,0c-1.7,15.7-3.4,31.5-5.2,47.2c-0.4,3.3-0.7,6.7-1.1,10
				c-0.1,1-0.1,0.8-1.2,0.8c-2.3,0-4.5,0-6.8,0c1.6-15.7,3.2-31.5,4.9-47.2C289.8,228.4,290.2,224.8,290.6,221.2z"/>
		</g>
	</g>
	<g>
		<g>
			<path class="st22" d="M448.3,235.9c0.3,2.4,1,5.5,1.2,7.9c0,0-0.4,9.8-0.6,13c-0.3,6.7-0.7,13.5-1,20.2c-0.1,1.6-0.2,3.2,0.9,4.5
				c2.2,3,27.4,2.1,30.7,2.5c2.6,0.3,5.1,0.5,7.6,1c0,0-3.6,0.3-6.4,0.6c-3.7,0.5-31,0.8-33.5-2c-1.4-1.5-2-3.5-2-5.5
				c0-6.4,0.6-12.9,0.9-19.3c0.2-3.3,0.8-14.5,0.8-14.5S447.7,238.8,448.3,235.9z"/>
		</g>
	</g>
	<g>
		<g>
			<path class="st22" d="M452.1,221.2c2.7-0.3,8.7-0.6,11.5-0.8c3.7-0.3,7.6,0.1,11.3,0.2c4.8,0.2,12.9-1.1,14.1,5.5
				c0.4,1.9,0.1,4,0.1,6c0,2.3,0,4.6,0,6.9c0,4.2,0,8.3,0,12.5c0,3.6,0.3,7.3-0.1,10.9c-0.4,2.9-0.7,5.8-1.1,8.7
				c-0.4-2.4-0.7-4.9-1-7.3c-0.4-3.4-0.3-6.7-0.3-10.1c0-8,0-16,0-24c0-2.7-0.2-5.6-3.5-6.1c-3.1-0.4-6.4-0.2-9.5-0.4
				c-3.5-0.1-7.1-0.1-10.6-0.6C460.5,222.1,454.7,221.7,452.1,221.2z"/>
		</g>
	</g>
	<g>
		<g>
			<path class="st20" d="M349.7,222.3c4.8,0,9.5,0,14.3,0c-2,15.7-4,31.5-5.9,47.2c-0.1,0.6-1,9.7-1.2,9.7
				c-5.2,0.1-10.4,0.2-15.6,0.4c2.3-15.7,4.6-31.3,7-47C348.7,229.2,349.2,225.7,349.7,222.3z"/>
		</g>
	</g>
	<g>
		<g>
			<path class="st20" d="M471.4,248.9c0.3-6.3,0.6-12.6,0.9-18.9c0.1-1.3,0.1-2.7,0.2-4c0-0.7,0.2-0.9-0.5-0.9
				c-3.1-0.3-6.2-0.6-9.4-0.9c-0.1,2.4-0.3,4.9-0.4,7.3c-0.1,1.4-0.1,2.8-0.2,4.1c0,0.6-0.1,0.8,0.2,1.3
				C465.2,240.8,468.3,244.9,471.4,248.9z"/>
		</g>
	</g>
	<g>
		<g>
			<path class="st20" d="M459.6,256c-0.6,8.6-1.2,17.3-1.8,25.9c3.6,0,7.2,0,10.7-0.1c0.5,0,0.7-9.2,0.7-10.1c0.1-1.5,0.2-3,0.2-4.5
				c0-0.6-1.9-2.2-2.3-2.6C464.7,261.8,462.2,258.9,459.6,256z"/>
		</g>
	</g>
	<g>
		<g>
			<path class="st19" d="M498.8,299.4c0.8,7.7,1.3,15.4,1.3,23.1c0,9.5,0,19.1,0,28.6c0,10.4,0,20.8,0,31.1c0,4.8,0,9.6,0,14.3
				c0,4.3,0.2,8.6,0,12.9c-0.2,5.3-0.8,10.7-1.3,16c-0.7-7.5-1.3-15-1.3-22.6c0-9.5,0-19,0-28.5c0-10.4,0-20.8,0-31.2
				c0-9.2-0.3-18.5,0-27.7C497.7,310.1,498.3,304.7,498.8,299.4z"/>
		</g>
	</g>
	<g>
		<g>
			<path class="st19" d="M514.7,170.2c-29.3,1.5-58.7,2.5-88,3.2c-20.6,0.5-41.1,0.8-61.7,1.2c-13,0.2-25.9,0.4-38.9,0.5
				c-17.2,0.2-34.4,0.4-51.6,0.5c-20.5,0.1-41.1,0.2-61.6,0.1c0.2-0.1,0.4-0.3,0.6-0.4c-3.1,6.2-6,12.6-8.5,19.1
				c-1.9,5.1-3.7,10.2-4.3,15.6c0.7-8.4,3.8-16.4,6.8-24.2c0.9-2.2,1.8-4.5,2.8-6.7c0.5-1.1,1-2.2,1.5-3.3c0.2-0.4,0.4-0.9,0.6-1.3
				c0.2-0.3,0.2-0.1,0.5-0.2c5.2-0.1,10.5-0.3,15.7-0.4c19.9-0.4,39.9-0.9,59.8-1.2c13.3-0.2,26.5-0.4,39.8-0.6
				c14-0.2,28-0.4,42-0.6c24.7-0.3,49.4-0.5,74-0.7C467.7,170.7,491.2,170.2,514.7,170.2C502.1,170.9,502.1,170.2,514.7,170.2z"/>
		</g>
	</g>
	<g>
		<g>
			<g>
				<path class="st18" d="M440.9,175.5c-2.2,6.8-4.3,13.6-6.2,20.4c-0.7,2.8-1.5,5.6-2.1,8.4c-0.2,0.8-0.4,1.5-0.5,2.3
					c0,0.2,1.4,0.4,1.6,0.4c0.2,0,1.3,0.4,1.4,0.2c0.2-0.8,0.4-1.5,0.5-2.3c0.7-2.9,1.5-5.8,2.3-8.7c2-7,4.1-14,6.4-20.9
					C443.2,175.5,442,175.5,440.9,175.5z"/>
			</g>
		</g>
		<g>
			<g>
				<path class="st18" d="M444.7,168.4c0.4,0,0.9,0,1.3,0c0.9,0,0.8-0.1,1.1-1.1c0.8-2.2,1.6-4.3,2.4-6.5c1.8-4.7,3.6-9.3,5.6-14
					c4-9.4,8.4-18.7,13.4-27.6c4.9-8.7,10.4-17.1,16.7-24.9c5.3-6.6,10.7-12.9,16.7-18.8c-6.7,4.5-13.2,9.4-18.3,15.8
					c-6,7.4-11.3,15.2-16.1,23.5c-9.8,16.9-17.6,35.1-24,53.5C443.8,168.4,444.2,168.4,444.7,168.4z"/>
			</g>
		</g>
	</g>
	<g>
		<g>
			<g>
				<path class="st18" d="M439.5,168.4c0.8,0.2,0.9-1.1,1.1-1.7c0.4-1.1,0.8-2.2,1.2-3.3c0.8-2.3,1.7-4.7,2.5-7
					c1.6-4.2,3.3-8.4,5-12.6c3.2-7.4,6.6-14.7,10.5-21.8c6-11.1,12.8-21.7,20.8-31.5c7.6-9.4,16.5-18.8,27.1-25.1
					c0.3-0.2,0.6-0.4,0.9-0.5C495.8,69,484.9,77.7,476,87.6c-10,11.1-18.1,24-25,37.3c-7.3,14-13.4,28.6-18.7,43.5
					C434.7,168.4,437.1,168.4,439.5,168.4z"/>
			</g>
		</g>
		<g>
			<g>
				<path class="st18" d="M429.8,175.8c-3.5,10.5-6.8,21.2-9.3,32c1.8,0,3.5,0,5.3,0c1,0,2,0,3,0c1.1,0,1.2-3.3,1.5-4.2
					c2.2-9.4,4.7-18.7,7.6-28C435.1,175.7,432.4,175.8,429.8,175.8C423.5,194.5,432.5,175.8,429.8,175.8z"/>
			</g>
		</g>
	</g>
	<g>
		<g>
			<path class="st18" d="M403.1,147.8c7.2-14.5,16.2-28.4,26-41.3c6.1-7.9,12.7-15.5,20-22.4c6.8-6.3,14.3-12.4,22.7-16.4
				c3.2-1.7,6.6-2.9,10.1-4c-17.4,6.3-31.2,18.9-42.9,33c-11.7,14.1-21.5,29.8-29.9,46.1c-1,2-2,4-2.9,6
				C405.2,150.9,402.1,149.9,403.1,147.8z"/>
		</g>
	</g>
	<g>
		<g>
			<path class="st18" d="M254.8,149.1c2.4-7.3,6-14.4,9.8-21.1c4.9-8.6,10.7-16.8,17.4-24.2c13.1-14.5,29.5-26.2,48-32.5
				c1.2-0.4,2.4-0.8,3.6-1.2c-7.6,2.8-15,6-21.9,10.3c-8.5,5.3-16.2,11.6-23.2,18.8c-13,13.5-23.3,30.2-29.7,47.8
				c-0.4,1-0.6,2.4-1.2,3.4C256.7,152,254.2,150.9,254.8,149.1z"/>
		</g>
	</g>
	<g>
		<g>
			<path class="st18" d="M233,168.1c9.5-31.6,29.5-60.4,55.1-81.2c10.6-8.6,22.5-15.5,35.1-20.6c7.9-3.2,16.1-5.3,24.5-7
				c4-0.8,8.4-0.6,12.4-0.7c9.5-0.4,19.1-0.9,28.6-1.3c13.9-0.6,27.7-1.3,41.6-1.9c7-0.3,13.9-0.6,20.9-1c4.9-0.2,9.9-0.4,14.8-0.7
				c10.3-0.6,20.7-0.3,31.1-0.4c4.8,0,9.6-0.1,14.4,0c-17.9,1.7-35.9,3.2-53.8,4c-7.8,0.4-15.5,0.7-23.3,1.1
				c-12.8,0.6-25.5,1.2-38.3,1.7c-15.6,0.7-31.2,1.4-46.8,2.1c-0.1,0-0.2,0-0.3,0c0.1,0,0.1,0,0.2,0c-8.2,1.7-16.4,3.6-24.2,6.8
				c-11.8,4.7-22.8,11-32.8,18.7c-10.7,8.2-20.1,17.9-28.4,28.5c-6.2,7.9-11.7,16.4-17,24.9C241.5,149.7,236.7,158.8,233,168.1
				C235,161.5,234.3,164.9,233,168.1z"/>
		</g>
	</g>
	<g>
		<g>
			<path class="st19" d="M271.1,132.6c1.7-4.9,4.3-9.6,7-14.1c3.5-5.9,7.6-11.6,12.3-16.6c4.6-4.7,9.3-9.1,14.8-12.7
				c4.8-3.1,9.8-5.4,15.1-7.5c-4.8,2.4-9.6,4.9-14,8.1c-5.4,3.9-10.2,8.4-14.8,13.2c-4.6,4.7-8.5,10.2-12.3,15.6
				C276.3,123.1,273.5,127.8,271.1,132.6z"/>
		</g>
	</g>
	<g>
		<g>
			<path class="st22" d="M382.3,84.5c14.1-0.6,28.2-0.9,42.3-1.2c2.9-0.1,4.9,3.9,2.4,5.9c-3.5,3.6-7,7.2-10.4,10.8
				c-2.6,2.7-5.1,5.8-8.1,8c-3.9,2.9-8.2,3.7-13,3.8c-20.7,0.3-41.4,0.5-62.1,0.4c-5.2,0-10.4,0-15.6,0c-2.5,0-5,0.2-7.5-0.1
				c-3.8-0.4-6-4.7-3.7-7.9c1.2-1.7,2.8-3.1,4.1-4.6c1.8-1.9,3.5-3.9,5.3-5.8c3.3-3.7,6.5-8.5,11.5-9.9c2.3-0.7,4.8-0.5,7.2-0.4
				c2.9,0.1,5.8,0.1,8.7,0.2c8.2,0.2,16.3,0.4,24.5,0.8c-11.3,0.5-22.5,0.8-33.8,1c-3.3,0.1-6.4,0.1-9.1,2.3c-2.8,2.3-5,5.6-7.3,8.3
				c-2.3,2.8-4.7,5.5-7,8.3c-0.7,0.9-2.1,1.9-1.6,3.2c0.3,0.8,1,0.9,1.7,1c-0.6,0,0.9,0,1.2,0c2.1,0,4.2-0.1,6.3-0.1
				c5.2-0.1,10.4-0.1,15.6-0.2c10.4-0.1,20.8-0.2,31.2-0.2c10.3,0,20.6,0,30.8,0c4.2,0,8.2-0.8,11.4-3.7c3.1-2.8,6-5.8,9-8.7
				c2.2-2.1,4.4-4.2,6.5-6.3c0.6-0.6,4.2-3.7,1.4-3.8c0.1,0,0.1,0,0.2,0C410.6,85.4,396.4,85.1,382.3,84.5z"/>
		</g>
	</g>
	<g>
		<g>
			<path class="st10" d="M328.8,88.2c29.1-1.2,58.3-1.2,87.4,0C387.1,89.4,357.9,89.4,328.8,88.2z"/>
		</g>
	</g>
	<g>
		<g>
			<path class="st16" d="M535.9,220.5c3.8,0,7.5,0,11.3,0c0.7,0,0.4,0.9,0.4,1.5c0,4.3,0,8.6,0,12.9c0,17.5,0,34.9,0,52.4
				c0,20.5,0,41,0,61.6c0,13.1,0,26.2,0,39.4c0,0.9,0,1.9,0,2.8c-3.8-0.2-7.7-0.3-11.5-0.5c-0.9,0-0.6-0.5-0.6-1.4
				c0-4.2,0-8.5,0-12.7c0.1-17.4,0.1-34.8,0.2-52.2c0.1-20.5,0.1-41,0.2-61.5c0-13.1,0.1-26.3,0.1-39.4
				C535.9,222.4,535.9,221.5,535.9,220.5z"/>
		</g>
	</g>
	<g>
		<g>
			<path class="st16" d="M525.3,220c0.4,0,4.2,0,4.2,0c0,0.2,0,0.4,0,0.7c0,1.3,0,2.7,0,4c0,5.7,0,11.4,0,17.1c0,18.8,0,37.6,0,56.4
				c0,19.9,0,39.8,0,59.8c0,10.5,0,21.1,0,31.6c0,0.1,0,0.4,0,0.4c-0.2,0.2-1.9,0-2.2,0c-0.8,0-1.7,0-2.5,0c0-8.8,0.1-17.6,0.1-26.4
				c0.1-19.4,0.1-38.8,0.2-58.1c0.1-19.5,0.1-38.9,0.2-58.4C525.2,238.1,525.3,229,525.3,220C525.3,220,525.3,220,525.3,220z"/>
		</g>
	</g>
	<g>
		<g>
			<path class="st21" d="M516.3,300.5c1.3,16.4,1.4,32.8,1.6,49.2c0.2,14.5,0.5,29,0.7,43.5c-0.1-0.2-0.2-0.4-0.3-0.6
				c1.7,1.3,4.3,2,6.4,2.2c4.1,0.6,8.1,0.7,12.2,0.7c3.9,0,7.8-0.4,11.6-0.7c-3.8,0.8-7.6,1.5-11.4,1.9c-4.2,0.5-8.2,0.3-12.4-0.3
				c-2.3-0.3-4.7-1.1-6.7-2.2c-1-0.6-0.9-1-0.9-2c-0.1-8.4-0.3-16.8-0.4-25.2c-0.2-14.3-0.5-28.5-0.7-42.8
				C515.8,316.3,515.9,308.4,516.3,300.5C516.6,304.4,516.1,304.4,516.3,300.5z"/>
		</g>
	</g>
	<g>
		<g>
			<path class="st16" d="M538,5.3c-0.3-0.4-3.1,3.4-3.3,3.7c-0.9,2.1-1.8,4.3-2.1,6.6c-0.3,2.2-0.5,4.3-0.5,6.5
				c0,2.4,0.3,4.8,0.3,7.3c0.2,8.9-0.1,17.8-0.1,26.7c0,20.4-0.1,40.8-0.1,61.1c0,17.2,0.1,34.4,0.1,51.7c0,3.8,0,7.6,0,11.3
				c0,4.3-0.3,8.5-0.7,12.7c-0.5,5.8-1,11.5-1.6,17.3c-0.8-7.1-1.4-14.2-2-21.3c-0.8-8.9-0.4-18-0.4-26.9
				c-0.1-20.2-0.1-40.4-0.1-60.5c0-17.7,0.1-35.4,0.1-53.1c0-7.8-0.3-15.6,0.3-23.3c0.2-3.8,1.3-8.3,2.9-11.7
				c0.9-1.7,1.8-3.3,2.9-4.9C534,8.1,537.8,4.8,538,5.3C538,5.3,538,5.3,538,5.3z"/>
		</g>
	</g>
	<g>
		<g>
			<path class="st16" d="M527.7,3.7c-2.8,1.8-5.3,4.4-7,7.3c-2.5,4.1-2.1,8.4-1.8,13c0.5,8.9,0.1,17.9,0.1,26.7
				c0,20.3,0,40.6,0,60.9c0,17.5,0,35.1,0,52.6c0,8.1,0,16.2-0.4,24.4c-0.4,6.2-0.7,12.4-1.2,18.5c-0.5-7.1-0.9-14.2-1.3-21.3
				c-0.5-8.9-0.3-17.9-0.3-26.9c0-20.2,0-40.3,0-60.5c0-18.1,0-36.1,0-54.2c0-8.3-0.1-16.5,0.3-24.8C516.5,12.3,521.4,6.6,527.7,3.7
				z"/>
		</g>
	</g>
	<g>
		<g>
			<path class="st16" d="M252.1,22.5c-1.7,7.9-2.4,15.9-2.4,24c0,10.2,0,20.4,0,30.7c0,9.4,0,18.9,0,28.3c0,4-0.2,8.1-0.2,12.1
				c0,1.1,0.1,2.3-1,3c-1.5,0.9-3.2-0.2-3.3-1.8c-0.4-16.2-0.3-32.3-0.3-48.5c0-9.1,0-18.2,0-27.2c0-2.1,0-4.3,0.2-6.4
				c0.1-2.1,0.8-3.9,1.7-5.9C248.2,27.8,250,25,252.1,22.5z"/>
		</g>
	</g>
	<g>
		<g>
			<path class="st16" d="M242.5,29.9c-1.8,3.2-2.7,7.2-2.7,10.9c0.1,4.3,0,8.6,0,12.8c0,10.1,0,20.2,0,30.2c0,10,0,20,0,30
				c0,4.3,0.1,8.7-0.3,13c-0.4,3.5-0.8,7-1.3,10.5c0,0,0,0,0,0c-0.4-3.3-0.8-6.7-1.2-10c-0.5-4.3-0.4-8.6-0.4-13c0-10,0-20,0-29.9
				c0-10.1,0-20.2,0-30.3c0-4.2-0.5-8.8,0.2-12.9c0.7-3.9,2.4-7.8,5.1-10.8C242.2,30.3,242.4,30.1,242.5,29.9z"/>
		</g>
	</g>
	<g>
		<g>
			<path class="st18" d="M537.8,108.8c4.3-15.2,13.3-29.8,25.5-39.7c6.2-5.3,14.4-9.8,22.4-11.6c7.2-1.7,14.2-2.3,21.6-2.2
				c-7.7,0.2-15.5,1-22.8,3.7c-8.7,3.3-16.5,8.3-23,15c-6.5,6.8-11.5,14.9-15.1,23.5c-1.5,3.6-2.8,7.3-3.7,11
				c-0.3,1.4-0.6,3-2.3,3.2C538.7,112,537.3,110.4,537.8,108.8z"/>
		</g>
	</g>
	<g>
		<g>
			<path class="st18" d="M558.1,88.7c6-9.4,15.5-17.4,25.4-22.5c5.8-3,11.9-4.9,18.4-5.8c5.5-0.6,10.7-0.2,16.1,0.9
				c-5.1-0.5-10.2-0.5-15.3,0.2c-6.4,1-12.6,3.2-18.4,6.2C574.3,72.6,565.2,80.2,558.1,88.7z"/>
		</g>
	</g>
	<g>
		<g>
			<path class="st19" d="M630.7,62.2c7.6,1.8,13.3,8.7,15.4,16c1.3,4.6,2,9.4,2.7,14c0.7,4.9,1.6,9.7,1.9,14.6
				c1.3,19.9,2.7,39.8,3.5,59.8c1.7,41,2,82.2,1.8,123.3c-0.1,20.3-0.1,40.5-0.6,60.8c-0.2,9.7-0.1,19.4-0.8,29.1
				c-0.7,9.1-1.3,18.2-2,27.3c-0.4,5-0.8,10.1-1.2,15.1c-0.3-7.3-0.5-14.7-0.7-22c-0.3-9.6-0.9-19.2-0.6-28.7
				c0.7-19.9,0.8-39.8,0.9-59.6c0.3-41.1,0.2-82.1-1-123.2c-0.6-20.2-1.2-40.5-2.6-60.7c-0.7-9.6-1.7-19.2-2.2-28.9
				c-0.3-4.8-0.5-9.7-1-14.5c-0.5-4.5-0.8-8.9-3.1-13C638.9,67.6,635,63.9,630.7,62.2z"/>
		</g>
	</g>
	<g>
		<g>
			<path class="st22" d="M625.6,142.2c-0.4-7.5-0.7-14.9-1-22.4c-0.1-3.8-0.8-7.3-4.5-9.2c-3-1.5-5.8-0.7-8.6,0.7
				c-3.9,1.8-6.9,5.9-8.8,9.6c-2.1,4.2-3.5,8.8-4.4,13.3c-2,9.9-2.3,20.1-2.1,30.2c0,0.7,0,1.4,0,2.2c0,0,0,0,0-0.1
				c0.5,4.5,3.3,7.2,7.8,7.8c5.7,0.9,11.3,1.9,17,2.6c1.8,0.2,3.8-1.1,4-3.4c0.2-3.3,0.2-6.7,0.2-10c0.1-4.8,0.2-9.6,0.4-14.4
				c0.4,7.5,0.7,14.9,1,22.4c0.1,2,0.2,3.9-1,5.5c-1.2,1.5-2.9,2.1-4.7,2.1c-3.9-0.2-8-0.9-11.9-1.4c-4.3-0.5-9.2-0.5-12.5-3.8
				c-2-1.9-3-4.5-3.2-7.2c-0.6-8.2-0.3-16.9,0.8-25c1-8.2,2.8-16.7,7.2-23.8c3.2-5.1,8.7-10.5,15.2-10.4c3.7,0.1,7.2,2.2,8.8,5.5
				c1.5,3,1.1,6.5,1,9.8C626,129.1,625.9,135.6,625.6,142.2z"/>
		</g>
	</g>
	<g>
		<g>
			<path class="st20" d="M621.1,121.5c1.1,8.1,1.3,16.2,1.5,24.3c0,8.1,0,16.3-0.9,24.4c-1.1-8.1-1.3-16.2-1.5-24.3
				C620.2,137.8,620.2,129.6,621.1,121.5z"/>
		</g>
	</g>
	<g>
		<g>
			<path class="st19" d="M553.9,221.6c2.8-0.4,5.7-0.8,8.5-1c3.8-0.4,7.6-0.2,11.4-0.1c8.7,0.2,17.4,0.4,26.2,0.6
				c8.7,0.2,17.4,0.4,26.2,0.6c3.8,0.1,7.6,0.1,11.4,0.6c2.8,0.4,5.7,0.9,8.5,1.4c-2.8,0.4-5.7,0.7-8.5,1c-3.8,0.4-7.6,0.2-11.4,0.1
				c-8.7-0.2-17.4-0.4-26.2-0.6c-8.7-0.2-17.4-0.4-26.2-0.6c-3.8-0.1-7.6-0.1-11.4-0.6C559.5,222.6,556.7,222.2,553.9,221.6z"/>
		</g>
	</g>
	<g>
		<g>
			<path class="st19" d="M625.4,380.2c0.5,5.7,1.3,11.5,1.4,17.3c-0.1,3.7-1.4,6.8-4.5,9c-3.8,2.8-8.5,2.3-12.9,2.3
				c-2.8,0-5.5,0-8.1-1.4c-3.4-1.8-5.6-5.1-6-8.9c-0.4-4.3-0.1-8.7-0.1-13c0-5.2,0-10.4,0-15.6c0-4.8,0-9.5,0-14.3
				c0-1.4-0.1-3,0.3-4.3c0.8-2.7,2.1-5.1,4.3-6.8c3.8-2.9,8.5-2.4,13-2.4c2.3,0,4.3,0,6.5,0.7c3.7,1.1,6.8,4.8,7.5,8.6
				c0.4,2.1,0,4.3-0.2,6.4c-0.2,2.2-0.3,4.4-0.5,6.6c-0.2,2.9-0.4,5.8-0.7,8.7c-0.5-5.5-0.9-11-1.3-16.5c-0.3-3.4-0.4-6.7-3.1-9.2
				c-1.6-1.5-3.5-1.9-5.6-2.1c0,0,0.1,0,0.1,0c-2.3-0.1-4.6,0-6.9,0c-2.7,0-5.1,0.2-7.3,2c-1.9,1.6-2.9,4-3,6.5
				c-0.2,10.1,0,21.7,0,32.3c0,3.1,0,6.1,0,9.2c0,1.8,0,3.6,0.7,5.3c1.3,3.2,4.6,4.9,7.8,5.1c2.4,0.1,6.2,0.3,8.9,0
				c1.8-0.2,3.4-0.6,4.9-1.7c1.6-1.2,2.2-2.9,3-4.6c0.7-1.4,0.5-3.4,0.6-4.9c0.2-2.1,0.3-4.3,0.5-6.4
				C624.9,385.4,625.1,382.8,625.4,380.2z"/>
		</g>
	</g>
	<g>
		<g>
			<path class="st19" d="M620.6,382c-0.5,0-1.9,0.3-1.9-0.3c0-1.1,0-2.3,0-3.4c0-1.5,0-3,0-4.6c0-0.3-0.2-2.1,0-2.3
				c0.3-0.2,1.9-0.2,1.9,0.3c0,1.1,0,2.3,0,3.4C620.6,377.5,620.6,379.8,620.6,382z"/>
		</g>
	</g>
	<g>
		<g>
			<path class="st3" d="M752.5,494.6c0-7.9,0.3-15.8,1.4-23.6c1.2-9.2,3.2-19,8-27c1.9-3.2,5.1-7,9.2-6.7c4.1,0.3,7,3.6,9,6.9
				c4.9,8.1,6.9,18.1,8.4,27.3c3,19.9,2.7,41.2-2.2,60.8c-1.1,4.6-2.6,9.2-4.7,13.4c-1.8,3.7-4.5,8.1-8.7,9.3
				c-8.5,2.5-13.2-10-15.2-16c-4-12.2-5-25.4-5.1-38.2c0.4,7.9,1.2,15.7,2.7,23.4c0.9,4.6,2,9.2,3.5,13.7c1.5,4.3,3.3,8.8,6.3,12.3
				c1.3,1.5,2.9,2.9,4.9,3.2c2.1,0.4,4.1-0.8,5.5-2.2c3.2-3.1,5.1-7.8,6.5-11.9c3.2-9.4,4.7-19.3,5.4-29.1
				c0.8-10.2,0.7-20.4-0.2-30.6c-0.9-9.8-2.5-19.8-6.1-28.9c-1.5-3.8-3.6-8.4-7.2-10.7c-4.2-2.7-8.1,1-10.3,4.5
				c-5.1,7.8-7.1,17.6-8.7,26.6C753.4,478.9,752.8,486.7,752.5,494.6z"/>
		</g>
	</g>
	<g>
		<g>
			<path class="st3" d="M734.5,549.7c1.3,1.1,2.3,2.6,3.5,3.9c1.4,1.6,2.9,2.8,4.6,4C738.4,557.8,735.2,553.5,734.5,549.7z"/>
		</g>
	</g>
	<g>
		<g>
			<path class="st3" d="M742.7,441.4c-4.9,2.9-6.9,7.9-10.2,12.3C733.3,448.6,736.8,441.8,742.7,441.4z"/>
		</g>
	</g>
	<g>
		<g>
			<path class="st3" d="M755.4,451.7c-5,15.1-6.8,31.4-6.4,47.3c0.3,16,1.7,32.1,7.6,47.1c-6.6-14.9-8.3-30.9-8.7-47.1
				C747.6,483,749.6,466.7,755.4,451.7z"/>
		</g>
	</g>
	<g>
		<g>
			<path class="st21" d="M872.4,469.2c-0.4-4.6-1-9.1-2.1-13.6c-0.7-2.6-1.5-5.1-2.7-7.5c-0.9-1.7-2.3-4.3-4.5-4.4
				c0.1,0,0.1,0,0.2,0c-3.7,0.2-5.4,6.7-6.1,9.5c-1.4,5.7-1.9,11.5-1.9,17.3c0,5.8,0.6,11.6,2.2,17.2c0.7,2.4,1.6,4.9,3.1,6.8
				c0.5,0.6,1.1,1.2,1.9,1.5c0.1,0,0.9,0.1,0.5,0.2c4.2-0.1,6.2-7.4,7.1-10.6c1.3-4.4,1.9-9,2.4-13.5c0.1,3.9-0.1,7.7-0.6,11.6
				c-0.6,4.4-1.7,9.5-4.8,12.9c-1.9,2.1-4.6,2.7-7,1c-3.7-2.6-5.2-8.1-6.3-12.3c-2.3-9.5-2.3-20.1-0.3-29.6
				c1-4.6,4.6-17.5,11.7-13.9c4.5,2.3,5.8,9.2,6.6,13.6C872.4,460,872.6,464.6,872.4,469.2z"/>
		</g>
	</g>
	<g>
		<g>
			<path class="st21" d="M866.3,470.9c-0.3-1.8-0.5-4.1-1.8-5.5c-1.2-1.3-1.8,3.3-1.8,3.8c-0.1,1.3-0.1,2.7,0,4
				c0.1,1.1,0.3,3.1,1.2,3.8c1.1,0.7,2.2-4.7,2.3-5.4c0.2,1.8,0.3,6.2-2,6.6c-2.6,0.5-3.1-4.6-3.2-6.2c-0.1-2-0.1-7.9,2.8-8.1
				C866.7,463.6,866.5,469.2,866.3,470.9z"/>
		</g>
	</g>
	<g>
		<g>
			<path class="st21" d="M857.8,442.7c-3,0.4-6,0.8-9,1.1c0.3,0,0.4-0.2-0.1,0.2c-0.5,0.3-1,0.8-1.3,1.3c-0.7,0.9-1.2,2-1.7,3
				c-1.2,2.7-1.9,5.6-2.4,8.6c-1,5.8-1.3,11.8-1,17.7c0.2,5.7,1,11.9,3.1,17.3c0.8,1.9,2.1,5,4.5,5.2c2.7,0.6,5.4,0.9,8.1,1.5
				c-1.9,0-3.8,0-5.7,0c-1.5,0-3,0.2-4.4-0.5c-2.8-1.3-4.4-4.5-5.5-7.2c-2.6-6.4-3.5-13.6-3.5-20.5c0-6.9,0.8-14.1,3.4-20.5
				c1.1-2.7,2.7-6.1,5.6-7.3c1.1-0.5,2.5-0.2,3.7-0.1C853.8,442.4,855.8,442.5,857.8,442.7C854.8,443.1,854.8,442.5,857.8,442.7z"/>
		</g>
	</g>
	<g>
		<g>
			<path class="st23" d="M761.6,480.9c0.3-3.8,0.8-7.5,2-11c0.9-2.7,3.1-6.7,6.6-6.1c4,0.7,6,5.8,7.2,9.1c1.6,4.6,2.5,9.4,3,14.3
				c1,9.9,0.8,20.2-1.4,30c-1,4.3-2.3,9-5,12.6c-1.8,2.4-4.8,3.8-7.3,1.4c-2.4-2.4-3.2-6.2-3.8-9.4c1,2.4,3.2,8.6,6.6,8.4
				c0.9,0,2.2-2,2.6-2.9c1.3-2.7,2-5.7,2.5-8.7c1.2-6.5,1.6-13.1,1.6-19.7c0-6.8-0.4-13.6-1.6-20.2c-0.5-2.9-1.2-5.8-2.4-8.5
				c-0.5-1.2-1.5-3.4-3-3.5c0,0,0.1,0,0.1,0c-2.7-0.1-4.6,5.1-5.4,7C763.1,476,762.3,478.4,761.6,480.9z"/>
		</g>
	</g>
	<g>
		<g>
			<path class="st23" d="M764.2,498.5c-0.1-2.2,0-4.5,0.2-6.7c0.3-2.4,1-7.3,3.8-8.2c3.1-1,4.6,4.2,5.1,6.3c0.8,3.4,1.1,7,1,10.4
				c-0.1,3.4-0.5,6.9-1.7,10.1c-0.6,1.6-1.9,4.5-4.2,3.9c-2.6-0.8-3.3-4.7-3.7-7c-0.4-2.4-0.5-4.8-0.4-7.2c0.2,1.8,0.4,3.6,0.7,5.3
				c0.5,2.3,1.1,6.3,3.3,7.6c2.2,1.3,3.4-4.6,3.7-5.8c0.6-3,0.8-6.1,0.8-9.2c0-2.9-0.3-5.8-1-8.6c-0.3-1.3-1.7-6.2-3.8-4.2
				c-1.9,1.8-2.4,5-2.9,7.4C764.6,494.6,764.4,496.6,764.2,498.5z"/>
		</g>
	</g>
	<g>
		<g>
			<path class="st3" d="M705,472.4c1.2-7.9,2.7-16,6.1-23.3c1.7-3.6,4.3-8.1,8.4-9.3c2.9-0.8,5.7,0.7,7.8,2.7
				c3.1,3.1,5,7.4,6.5,11.5c1.7,4.4,2.8,9.1,3.7,13.7c1.9,9.8,2.8,19.8,3,29.9c0.2,10.1-0.5,20.3-2.1,30.4c-1.5,9.3-3.5,19.8-9,27.7
				c-1.8,2.7-4.8,5.9-8.3,5.7c-3.6-0.2-6.2-2.9-8.1-5.8c-4.9-7.5-6.7-17-8-25.7c-0.4-2.6-0.7-5.3-0.9-8c1.2,7.9,2.7,15.8,5.5,23.3
				c1.9,5.3,7.8,19.2,15.4,12.9c3.4-2.8,5.3-7.4,6.8-11.5c1.7-4.5,2.8-9.2,3.7-13.9c1.9-9.8,2.6-19.8,2.8-29.8
				c0.2-10.1-0.4-20.3-1.9-30.3c-1.4-9-3.3-18.9-8.3-26.7c-1.4-2.2-4-5.5-7-5.2c-4.3,0.5-7,4.6-8.8,8.2
				C708.5,456.4,706.6,464.5,705,472.4z"/>
		</g>
	</g>
	<g>
		<g>
			<path class="st3" d="M644.7,519.4c2.2,7.5,4.1,15,6.7,22.4c1.4,4,3,8,5.1,11.7c1.9,3.3,4.2,6.4,7.9,7.7c-8.4-0.7-12.4-11.4-15-18
				C646.9,535.4,645.2,527.6,644.7,519.4z"/>
		</g>
	</g>
	<g>
		<g>
			<path class="st3" d="M673.3,519.4c2.2,7.5,4.1,15,6.7,22.4c1.4,4,3,8,5.1,11.7c1.9,3.3,4.2,6.4,7.9,7.7c-8.4-0.7-12.4-11.4-15-18
				C675.5,535.4,673.8,527.6,673.3,519.4z"/>
		</g>
	</g>
	<g>
		<g>
			<path class="st23" d="M712.1,484.4c0.3-4,0.8-8,2.1-11.8c1-2.7,2.8-6,6.1-5.9c3.9,0.1,6.1,5.5,7.3,8.5c1.7,4.6,2.6,9.6,3.2,14.5
				c1.2,10.2,1,20.7-1,30.7c-0.9,4.4-2,9.1-4.4,13c-1.3,2.1-3.5,4.8-6.3,4.1c-4.1-1.1-5.1-7.3-5.7-10.8c0.8,2,1.6,3.9,2.8,5.7
				c0.8,1.3,2.1,3.1,3.8,3.1c0,0-0.1,0-0.1,0c2-0.4,3-3.4,3.5-5c1-3,1.6-6.2,2.1-9.3c1-6.6,1.3-13.4,1.2-20
				c-0.1-6.5-0.5-13.1-1.7-19.5c-0.6-3.1-1.3-6.3-2.7-9.1c-0.5-0.9-1.3-2.7-2.6-2.8c-0.4,0-1.6,0.9-2.2,1.6c-1.2,1.5-2,3.3-2.8,5.1
				C713.8,479,712.9,481.7,712.1,484.4z"/>
		</g>
	</g>
	<g>
		<g>
			<path class="st23" d="M714.7,502.7c-0.1-2.5,0-4.9,0.3-7.4c0.4-2.7,1-6.6,3.7-8c2.3-0.8,3.7,2.2,4.3,3.9c1.3,3.5,1.7,7.3,1.8,11
				c0.1,3.5-0.2,7.1-1.1,10.6c-0.5,1.8-1.8,6.8-4.5,6.3c-2.7-0.3-3.6-4.7-4-6.8c-0.5-2.6-0.6-5.3-0.5-7.9c0.2,2.1,0.4,4.2,0.9,6.2
				c0.5,2.2,1.1,6.2,3.4,7.3c2,0.4,2.8-3.7,3.1-4.9c0.8-3.3,1-6.7,1-10.1c0-2-0.7-15.7-4.3-14.2c-2.2,0.9-2.9,5.5-3.3,7.4
				C715.1,498.2,714.9,500.5,714.7,502.7z"/>
		</g>
	</g>
	<g>
		<g>
			<path class="st3" d="M1045,477.8c0-8.1,0.4-16.3,2.3-24.2c1-4.2,2.3-9,5.1-12.4c2.6-3.2,6.2-3.4,8.9-0.3c3,3.4,4.4,8.3,5.5,12.7
				c1.2,4.8,1.9,9.7,2.3,14.7c0.9,10.2,0.6,20.6-1.2,30.6c-1,5.6-2.3,11.9-5.5,16.7c-1.4,2.1-3.5,4.4-6.3,3.9
				c-2.8-0.5-4.5-3.3-5.7-5.6c-2.7-5.3-3.8-11.4-4.6-17.2c-0.6-4.8-0.9-9.7-0.9-14.5c0.3,7.4,1.2,14.9,3,22.1
				c1.1,4.2,2.5,9.2,5.6,12.5c3.9,4,7.3-0.7,9-4.3c4.1-8.8,5-19.3,5.3-28.8c0.3-10-0.2-20.3-2.6-30c-0.6-2.6-1.4-5.2-2.5-7.6
				c-1-2.2-2.3-4.8-4.5-5.9c-4.7-2.3-7.8,6.3-8.9,9.4C1046.3,458.5,1045.4,468.3,1045,477.8z"/>
		</g>
	</g>
	<g>
		<g>
			<path class="st3" d="M1046.9,448.4c-3.1,10.5-4.2,21.5-4,32.4c0.2,11,1.1,21.9,4.8,32.3c-4.5-10.2-5.6-21.2-5.9-32.3
				C1041.7,469.9,1043,458.7,1046.9,448.4z"/>
		</g>
	</g>
	<g>
		<g>
			<path class="st24" d="M1051,468.4c0.2-2.7,1.1-13.6,6.1-11.6c3.2,1.3,4.3,5.9,5,8.9c1,4.1,1.4,8.2,1.5,12.4
				c0.1,4-0.1,7.9-0.7,11.8c-0.5,3.6-1.3,7.6-3.2,10.8c-0.9,1.6-2.3,3.3-4.3,2.8c-2.6-0.6-3.2-5-3.6-7.2c0.8,1.9,1.9,5.6,4.3,5.8
				c-0.2,0-0.1,0,0.1-0.1c0.8-0.3,1.3-1.3,1.6-2.1c0.9-2,1.3-4.3,1.7-6.5c0.7-4.7,1-9.5,0.9-14.3c-0.1-4.5-0.3-9.1-1.2-13.6
				c-0.3-1.6-1.1-7-3.3-7.2c0.1,0,0.1,0,0.2,0c-1.6-0.2-2.8,3.1-3.2,4.2C1052.1,464.7,1051.5,466.5,1051,468.4z"/>
		</g>
	</g>
	<g>
		<g>
			<path class="st24" d="M1052.7,480.5c-0.1-1.5-0.1-3.1,0-4.6c0.2-1.7,0.5-4.8,2.3-5.7c4-2.1,4.5,9.1,4.5,10.9
				c0,2-0.4,11.1-4.1,10.4c-1.9-0.4-2.4-3.3-2.6-4.8c-0.3-1.7-0.3-3.4-0.2-5.1c0.2,1.3,0.3,2.6,0.6,3.9c0.3,1.4,0.7,3.9,2.1,4.7
				c1.9,1.2,2.6-9.3,2.6-10.3c0-0.9-0.9-9.9-2.6-8.6c-1.3,1-1.7,3.2-2,4.7C1053.1,477.5,1052.9,479,1052.7,480.5z"/>
		</g>
	</g>
	<g>
		<g>
			<path class="st3" d="M1012.8,478.3c0-8,0.4-16,2.1-23.9c1-4.8,5.5-22.4,13.6-16.3c3.5,2.6,5.1,7.6,6.3,11.6
				c1.4,4.7,2.3,9.6,2.9,14.5c1.2,10.3,1.2,20.8-0.1,31.1c-0.8,6.7-2.1,13.5-4.9,19.7c-1.2,2.7-3.1,6-6.1,6.9
				c-3.2,1-5.7-1.8-7.2-4.3c-3.3-5.4-4.6-12.1-5.5-18.3c-0.8-5.5-1.1-11-1.1-16.5c0.2,7.1,1.1,14.3,2.7,21.2
				c1.1,4.6,2.4,9.5,5.1,13.5c1,1.5,2.4,3.2,4.3,3.4c2.1,0.3,3.9-1.6,4.9-3.2c2.6-3.9,3.9-8.6,4.9-13.1c1.1-4.9,1.7-10,2.1-15
				c0.7-10.2,0.5-20.5-1.2-30.6c-0.9-5.8-2.3-12-5.4-17.1c-1.3-2-3.4-4.6-6.1-3.6c-2.7,1-4.3,4.3-5.3,6.7
				C1014.2,455.3,1013.2,467.2,1012.8,478.3z"/>
		</g>
	</g>
	<g>
		<g>
			<path class="st3" d="M988.9,438.6c-0.2-0.6-3.2,1.7-3.3,1.9c-1.1,1.1-1.9,2.5-2.5,4c-1.6,3.4-2.6,7.1-3.4,10.8
				c-1.7,8.2-2.3,16.5-2.3,24.9c0,8.4,0.6,16.7,2.2,25c0.7,3.7,1.7,7.5,3.2,11c1.2,2.7,3.1,6.4,6.4,6.6c-3,0.1-5.1-2.8-6.4-5.1
				c-1.9-3.3-3.1-7.1-4.1-10.8c-2.2-8.4-2.9-17.3-2.9-25.9c0-8.7,0.7-17.5,2.9-26c0.9-3.7,2.1-7.5,4-10.8c0.7-1.3,1.6-2.6,2.7-3.7
				C985.5,440.1,988.8,438,988.9,438.6C988.9,438.6,988.9,438.6,988.9,438.6z"/>
		</g>
	</g>
	<g>
		<g>
			<path class="st3" d="M1005.8,439.1c-0.2-0.6-3.2,1.7-3.3,1.9c-1.1,1.1-1.9,2.5-2.5,4c-1.6,3.4-2.6,7.1-3.4,10.8
				c-1.7,8.2-2.3,16.5-2.3,24.9c0,8.4,0.6,16.7,2.2,25c0.7,3.7,1.7,7.5,3.2,11c1.2,2.7,3.1,6.4,6.4,6.6c-3,0.1-5.1-2.8-6.4-5.1
				c-1.9-3.3-3.1-7.1-4.1-10.8c-2.2-8.4-2.9-17.3-2.9-25.9c0-8.7,0.7-17.5,2.9-26c0.9-3.7,2.1-7.5,4-10.8c0.7-1.3,1.6-2.6,2.7-3.7
				C1002.4,440.6,1005.8,438.5,1005.8,439.1C1005.8,439.2,1005.8,439.2,1005.8,439.1z"/>
		</g>
	</g>
	<g>
		<g>
			<path class="st3" d="M900.5,492.2c-0.3,4.8-1,9.7-2.5,14.3c-0.9,2.6-1.9,5.4-4,7.3c-2.2,2.3-5.3,1.8-7.4-0.4
				c-4-4.3-5.2-11.3-6-16.8c-0.7-5-1-10.1-0.8-15.1c0.4,4.4,0.9,8.9,1.7,13.3c1,5.7,2.2,12.2,5.7,16.9c4.4,5.8,8.4-2.2,9.8-6.1
				C898.6,501.3,899.6,496.7,900.5,492.2z"/>
		</g>
	</g>
	<g>
		<g>
			<path class="st3" d="M865.4,501.6c1.3,2.6,2.2,5.4,3.4,8.1c1.1,2.4,2.5,5.6,5.2,6.3c-3.1,0.5-5.2-2.7-6.4-5.1
				C866.2,508.1,865.3,504.8,865.4,501.6z"/>
		</g>
	</g>
	<g>
		<g>
			<path class="st3" d="M865,502.4c-0.3,3.1-0.9,6.3-2,9.3c-1.1,3-3.5,7.3-7.3,7c-7-0.4-8.7-10.6-9.3-16.1c1,3,1.9,5.9,3.2,8.8
				c1,2,2.8,5.6,5.4,5.7c3.4,0.2,5.3-2.8,6.6-5.6C863.1,508.6,864,505.5,865,502.4z"/>
		</g>
	</g>
	<g>
		<g>
			<path class="st3" d="M815.8,513.7c1.1,0.8,1.9,2,3,2.9c0.8,1,2.1,1.6,3.2,2.3C818.8,520,816,516.7,815.8,513.7z"/>
		</g>
	</g>
	<g>
		<g>
			<path class="st3" d="M828,502.3c1.2,3.1,2,6.2,3.2,9.3c1.3,3.3,2.9,6.6,6.5,7.8C830.1,519.8,828,508,828,502.3z"/>
		</g>
	</g>
	<g>
		<g>
			<path class="st3" d="M1014.8,447.3c-3.3,11-4.5,22.7-4.2,34.2c0.2,11.5,1.2,23.1,5,34c-4.7-10.8-5.8-22.4-6.2-34
				C1009.3,469.9,1010.7,458.2,1014.8,447.3z"/>
		</g>
	</g>
	<g>
		<g>
			<path class="st24" d="M1019.1,468.4c0.2-2.8,1.2-14.3,6.4-12.1c3.1,1.3,4.3,5.8,5.1,8.8c1.1,4.2,1.5,8.6,1.7,13
				c0.2,4.1,0,8.4-0.6,12.5c-0.5,3.9-1.3,8-3.1,11.5c-0.8,1.6-2.3,3.9-4.4,3.5c-3-1.1-3.6-4.8-4.1-7.6c0.8,2,2,5.9,4.6,6.2
				c-0.3,0,0.2-0.1,0.3-0.2c0.7-0.4,1.1-1.2,1.5-2c1-2.1,1.4-4.4,1.8-6.7c0.8-4.8,1.1-9.8,1-14.7c-0.1-5-0.3-10-1.3-14.9
				c-0.4-1.8-1.1-7.3-3.6-7.6c0.1,0,0.1,0,0.2,0c-1.7-0.2-3,3.3-3.4,4.5C1020.3,464.4,1019.6,466.4,1019.1,468.4z"/>
		</g>
	</g>
	<g>
		<g>
			<path class="st24" d="M1020.9,481.1c-0.2-1.6-0.1-3.4,0.1-5c0.2-1.8,0.6-4.9,2.4-5.8c4-2.1,4.7,9.1,4.7,10.9c0,2.5-0.2,5-0.9,7.4
				c-0.4,1.4-1.3,4.4-3.3,4.1c-2-0.2-2.6-3.4-2.8-4.9c-0.3-1.8-0.4-3.7-0.2-5.5c0.2,1.4,0.3,2.8,0.7,4.2c0.4,1.6,0.8,4.1,2.3,5.1
				c2.3,0.8,2.6-9.8,2.6-10.9c0-0.9-0.9-10.5-2.8-9.1c-1.4,1.1-1.8,3.4-2.1,5C1021.2,478,1021.1,479.6,1020.9,481.1z"/>
		</g>
	</g>
	<g>
		<g>
			<path class="st3" d="M659.5,440.3c6-0.5,12-0.6,18-0.7c1.4,0,2.9,0,4.3-0.1c0.7,0,1.3-0.2,1.8,0.2c0.9,0.8,1.9,1.5,2.8,2.3
				c-0.3,0-0.6-0.1-0.8-0.1c1.5-0.7,3.1-1.4,4.6-2.2c1.1-0.5,1.7-0.5,3-0.6c6.9-0.1,13.9-0.1,20.8,0.3c-7.5,0.7-15,1-22.5,1.3
				c0.1,0,0.2,0,0.3-0.1c-1.8,0.9-3.6,1.7-5.4,2.6c-0.7,0.3-0.8,0.1-1.4-0.3c-0.8-0.7-1.7-1.4-2.5-2.1c0.2,0,0.3,0.1,0.5,0.2
				C675.2,441,667.3,440.9,659.5,440.3C661.5,440.1,661.5,440.4,659.5,440.3z"/>
		</g>
	</g>
	<g>
		<g>
			<path class="st3" d="M728.9,438.2c2.1-0.2,4.3-0.3,6.5-0.3c1.8,0,3.3,0.3,5.1,0.7c-0.1,0-0.2,0-0.3,0c3.4-0.7,6.5-1.2,10-1.2
				c3.8,0,7.6,0,11.3,0.3c-5,0.7-10,1.1-15.1,1.3c0,0,0.1,0,0.1,0c-2,0.4-4.1,0.7-6.1,1c-1.1-0.1-2.4-0.6-3.5-0.9
				c-0.6,0-2.4-0.2-3.4-0.3C732,438.6,730.4,438.4,728.9,438.2C730.3,438,730.2,438.4,728.9,438.2z"/>
		</g>
	</g>
	<g>
		<g>
			<path class="st25" d="M1123.6,207.3c-35.2-10.9-70.4-21.9-105.6-33.1c-8.3-2.6-16.5-5.3-24.8-7.9c-16.3-5.2-32.2-11.2-48.3-17
				c-9.4-3.4-18.8-6.7-28.3-10.1c-12.2-4.3-24.3-8.7-36.5-13c-18.7-6.7-37.5-13.4-56.2-20.1c-19-6.8-38-13.6-57-20.4
				c-12.9-4.6-25.9-9.2-38.8-13.9c-2.2-0.8-4.5-1.6-6.7-2.4c2.5-1.7,5-3.5,7.4-5.2c0,4.8,0,9.5,0,14.3c0,12.6,0,25.2,0,37.8
				c0,17.9,0,35.8,0,53.6c0,20.6,0,41.3,0,61.9c0,20.9,0,41.7,0,62.6c0,18.5,0,37.1,0,55.6c0,13.7,0,27.4,0,41.1
				c0,6.3,0,12.6,0,18.9c0,0.2,0,0.3,0,0.5c-1.8-1.9-3.6-3.7-5.4-5.6c7.7,0.3,15.3,0.6,23,0.8c18,0.7,35.9,1.3,53.9,2
				c20.8,0.8,41.5,1.5,62.3,2.3c16.1,0.6,32.1,1.2,48.2,1.8c7.7,0.3,15.4,0.6,23.2,0.9c7.4,0.3,14.7,0.5,22.1,0.8
				c14.7,0.5,29.3,1.4,44,2.4c13.8,1,27.5,2,41.3,3c22.5,1.7,45.1,3.3,67.6,5.2c5.2,0.4,10.4,0.8,15.7,1.2
				c-25.2,0.1-50.5,0.2-75.7,0.2c-14.7,0-29.4,0-44.1,0c-14.5,0-29,0-43.5-0.6c-6.6-0.3-13.3-0.5-19.9-0.8c-9-0.3-18-0.7-27-1
				c-14.9-0.6-29.9-1.1-44.8-1.7c-20.6-0.8-41.2-1.5-61.8-2.3c-18.7-0.7-37.5-1.4-56.2-2.1c-9.4-0.3-18.7-0.7-28.1-1
				c-3.1-0.1-5.8-2.3-5.8-5.6c0-0.4,0-0.8,0-1.1c0-2.5,0-5.1,0-7.6c0-11,0-22.1,0-33.1c0-16.9,0-33.8,0-50.7c0-20.2,0-40.5,0-60.7
				c0-21,0-42.1,0-63.1c0-19.3,0-38.6,0-57.9c0-15,0-30,0-45c0-8.2,0-16.4,0-24.6c0-0.7,0-1.4,0-2.1c0-3,2-5.6,5.1-5.9
				c2.3-0.2,5.2,1.3,7.3,2.1c12.2,4.4,24.4,8.7,36.6,13.1c18.8,6.7,37.5,13.4,56.3,20.1c19,6.8,38,13.6,57,20.3
				c12.9,4.6,25.8,9.2,38.6,13.8c9,3.2,17.9,6.4,26.9,9.6c14.2,5.1,28.5,9.7,42.5,15.2c9.7,3.8,19.4,7.7,29,11.5
				c32.4,12.9,64.8,25.8,97.1,39C1117.5,204.8,1120.6,206,1123.6,207.3C1106.7,202.1,1107.2,200.6,1123.6,207.3z"/>
		</g>
	</g>
	<g>
		<g>
			<path class="st25" d="M737.1,402.7c-3,0-2.4-3.8-2.4-5.7c0-3.6,0-7.1,0-10.7c0-13.1,0-26.1,0-39.2c0-18.5,0-36.9,0-55.4
				c0-20.9,0-41.8,0-62.7c0-20.4,0-40.7,0-61.1c0-16.8,0-33.6,0-50.5c0-10.3,0-20.6,0-30.9c0-1.8,0-3.6,0-5.3c0-3.2,4.8-3.2,4.8,0
				c0,0.5,0,1.1,0,1.6c0,8.1,0,16.3,0,24.4c0,15.4,0,30.8,0,46.2c0,19.7,0,39.4,0,59.2c0,21,0,42.1,0,63.1c0,19.4,0,38.8,0,58.2
				c0,14.8,0,29.5,0,44.3c0,7.1,0,14.3,0,21.4C739.5,401,739,402.7,737.1,402.7z"/>
		</g>
	</g>
	<g>
		<g>
			<path class="st25" d="M745,84.5c30.9,10,61.7,20.2,92.5,30.7c39,13.3,78,26.9,116.9,40.7c37.3,13.2,74.5,26.7,111.6,40.5
				c17.2,6.4,34.3,12.9,51.3,19.4c-30.2-9.7-60.2-19.7-90.2-29.9c-39-13.3-77.9-26.8-116.7-40.6c-38.1-13.5-76.1-27.2-113.9-41.3
				C779.2,97.5,762.1,91,745,84.5z"/>
		</g>
	</g>
	<g>
		<g>
			<path class="st25" d="M748.7,397.9c35.1,0.6,70.2,1.8,105.3,3.2c41.7,1.6,83.4,3.6,125.1,6c37.7,2.1,75.4,4.5,113.1,7.2
				c6.8,0.5,13.5,1,20.3,1.6c-34.5-0.6-68.9-1.7-103.3-3.1c-41.7-1.7-83.5-3.6-125.2-6c-38.3-2.1-76.7-4.6-115-7.3
				C762.3,399,755.5,398.5,748.7,397.9z"/>
		</g>
	</g>
	<g>
		<g>
			<g>
				<path class="st22" d="M744,103.6c32.5,9.7,65,19.6,97.4,29.9c39.4,12.5,78.7,25.6,118,38.5c36.1,11.9,72.2,23.7,108.3,35.6
					c18.9,6.2,37.8,12.4,56.8,18.7c0.4,0.1,0.9,0.3,1.3,0.4c0.4,0.1,0.1,0.4-0.2,0.3c-1.6-0.5-3.2-1-4.7-1.5
					c-8.5-2.7-16.9-5.4-25.4-8c-31.8-10.1-63.7-20.2-95.5-30.2c-39.7-12.6-79.3-25.1-119-37.7c-37.6-11.9-75.1-24.3-112.4-37.1
					c-5.8-2-11.6-4-17.4-6.1c-1.8-0.6-3.7-1.3-5.5-1.9c-0.4-0.2-0.9-0.3-1.3-0.5C744,104,743.5,103.5,744,103.6z"/>
			</g>
		</g>
		<g>
			<g>
				<path class="st22" d="M743.9,111.1c32.5,9.5,65,19.2,97.4,29.2c39.5,12.2,78.7,25.1,118,37.7c36.2,11.6,72.3,23.3,108.5,34.9
					c18.9,6.1,37.8,12.1,56.6,18.2c0.4,0.1,0.9,0.3,1.3,0.4c0.4,0.1,0,0.3-0.3,0.2c-1.6-0.5-3.3-1-4.9-1.5
					c-8.6-2.6-17.1-5.3-25.7-7.9c-32-9.9-64-19.8-96.1-29.7c-39.7-12.3-79.4-24.6-119.1-36.9c-37.6-11.6-75-23.8-112.2-36.3
					c-5.6-1.9-11.2-3.8-16.8-5.7c-1.7-0.6-3.4-1.2-5.1-1.7c-0.4-0.1-0.9-0.3-1.3-0.4C744,111.5,743.4,111,743.9,111.1z"/>
			</g>
		</g>
		<g>
			<g>
				<path class="st22" d="M743.6,133.5c32.7,8.8,65.4,17.9,98,27.3c39.7,11.5,79.3,23.5,118.9,35.4c36.2,10.9,72.4,21.7,108.6,32.6
					c18.5,5.6,37.1,11.1,55.6,16.7c0.3,0.1,0.7,0.2,1,0.3c0.4,0.1-0.3,0.2-0.5,0.2c-1.8-0.5-3.6-1-5.4-1.6
					c-8.9-2.6-17.8-5.1-26.7-7.7c-32.5-9.4-65.1-18.7-97.6-28.1c-40-11.5-80-23-119.9-34.5c-37.5-10.8-74.9-22.1-112.1-33.9
					c-4.9-1.6-9.8-3.1-14.7-4.7c-1.3-0.4-2.7-0.9-4-1.3c-0.3-0.1-0.7-0.2-1-0.3C743.6,133.8,743.2,133.4,743.6,133.5z"/>
			</g>
		</g>
		<g>
			<g>
				<path class="st22" d="M743.5,141c33,8.6,65.9,17.5,98.7,26.8c39.9,11.3,79.6,23.1,119.4,34.7c36.2,10.6,72.3,21.2,108.5,31.7
					c18.2,5.3,36.5,10.7,54.7,16c0.8,0.2,1.2,0.7,0.2,0.4c-1.9-0.5-3.8-1.1-5.8-1.6c-9.1-2.6-18.2-5.1-27.4-7.7
					c-32.9-9.2-65.8-18.4-98.6-27.7c-40-11.2-80-22.5-120.1-33.7c-37.6-10.6-75.2-21.6-112.5-33.3c-4.3-1.4-8.6-2.7-12.9-4
					c-1.1-0.3-2.2-0.7-3.3-1c-0.3-0.1-0.5-0.2-0.8-0.2C743.4,141.3,743.2,140.9,743.5,141z"/>
			</g>
		</g>
		<g>
			<g>
				<path class="st22" d="M743.2,163.4c33,7.9,65.9,16.1,98.7,24.7c40.2,10.5,80.2,21.5,120.3,32.3c36.3,9.8,72.6,19.7,108.9,29.5
					c17.9,4.9,35.9,9.7,53.8,14.6c1,0.3,0.5,0.5-0.3,0.3c-2.1-0.5-4.2-1.1-6.3-1.6c-9.5-2.5-19-4.9-28.5-7.4
					c-33.5-8.7-67-17.3-100.6-26c-40.3-10.4-80.6-20.9-120.9-31.3c-37.6-9.7-75-20.1-112.3-30.9c-3.3-1-6.6-1.9-9.8-2.9
					c-0.8-0.2-1.6-0.5-2.4-0.7C743.6,163.9,742.8,163.3,743.2,163.4z"/>
			</g>
		</g>
		<g>
			<g>
				<path class="st22" d="M743.2,170.9c33.2,7.7,66.3,15.7,99.3,24.1c40.2,10.2,80.2,20.9,120.3,31.5c36.3,9.6,72.5,19.1,108.8,28.7
					c17.8,4.7,35.6,9.4,53.5,14.1c0.2,0.1,0.9,0.6,0.5,0.5c-0.3-0.1-0.6-0.2-0.9-0.2c-2.1-0.5-4.3-1.1-6.4-1.6
					c-9.6-2.4-19.1-4.8-28.7-7.2c-33.6-8.4-67.2-16.9-100.8-25.3c-40.3-10.1-80.6-20.3-120.9-30.4c-37.6-9.5-75.1-19.6-112.4-30.1
					c-3.1-0.9-6.3-1.8-9.4-2.7c-0.7-0.2-1.5-0.4-2.2-0.6C743.6,171.4,742.7,170.8,743.2,170.9z"/>
			</g>
		</g>
		<g>
			<g>
				<path class="st22" d="M742.9,193.4c33.4,7,66.7,14.4,99.9,22.1c40.2,9.3,80.4,19.2,120.5,28.9c36.4,8.8,72.7,17.6,109.1,26.4
					c17.6,4.2,35.2,8.5,52.7,12.7c0.2,0.1,0.8,0.5,0.3,0.4c-0.4-0.1-0.8-0.2-1.1-0.3c-2.3-0.5-4.6-1-6.8-1.6
					c-9.8-2.3-19.7-4.5-29.5-6.8c-34-7.8-68.1-15.6-102.1-23.5c-40.4-9.3-80.8-18.6-121.1-27.9c-37.7-8.7-75.2-18.1-112.6-27.8
					c-2.4-0.6-4.8-1.2-7.1-1.9c-0.6-0.1-1.1-0.3-1.7-0.4C743.1,193.8,742.4,193.3,742.9,193.4z"/>
			</g>
		</g>
		<g>
			<g>
				<path class="st22" d="M742.8,200.9c33.4,6.8,66.7,13.9,99.9,21.4c40.5,9.1,80.8,18.7,121.2,28.2c36.4,8.5,72.7,17.1,109.1,25.6
					c17.4,4.1,34.8,8.2,52.1,12.2c0.3,0.1,0.6,0.5,0.2,0.4c-0.4-0.1-0.8-0.2-1.3-0.3c-2.4-0.5-4.7-1.1-7.1-1.6
					c-10-2.2-20-4.4-30-6.7c-34.3-7.6-68.6-15.3-102.9-22.9c-40.6-9-81.3-17.7-121.8-27.2c-37.4-8.7-74.8-17.5-112.1-26.9
					c-1.9-0.5-3.9-1-5.8-1.5c-0.5-0.1-0.9-0.2-1.4-0.3C742.9,201.2,742.3,200.8,742.8,200.9z"/>
			</g>
		</g>
		<g>
			<g>
				<path class="st22" d="M742.5,223.4c33.4,6.1,66.7,12.4,100,19.2c40.5,8.2,81,17,121.4,25.6c36.5,7.8,73,15.5,109.5,23.3
					c17.3,3.7,34.5,7.3,51.8,11c0.3,0.1,0.5,0.4,0.1,0.3c-0.5-0.1-0.9-0.2-1.4-0.3c-2.5-0.5-4.9-1-7.4-1.5
					c-10.2-2.1-20.4-4.1-30.6-6.2c-34.7-7-69.4-13.9-104.1-20.9c-40.7-8.2-81.5-16.1-122.1-24.6c-37.2-7.8-74.3-15.8-111.3-24.4
					c-1.5-0.4-3-0.7-4.6-1.1c-0.4-0.1-0.7-0.2-1.1-0.2C742.5,223.7,742.1,223.3,742.5,223.4z"/>
			</g>
		</g>
		<g>
			<g>
				<path class="st22" d="M742.4,230.9c33.4,5.8,66.7,12,100,18.5c40.6,7.9,81,16.4,121.5,24.8c36.6,7.5,73.1,15,109.7,22.5
					c17.2,3.5,34.4,7.1,51.6,10.6c0.3,0.1,0.4,0.4,0,0.3c-0.5-0.1-1-0.2-1.5-0.3c-2.5-0.5-5-1-7.6-1.5c-10.3-2-20.6-4-30.9-6
					c-34.9-6.8-69.8-13.5-104.6-20.3c-40.7-7.9-81.6-15.5-122.2-23.7c-37-7.5-74-15.2-110.9-23.5c-1.3-0.3-2.7-0.6-4-0.9
					c-0.3-0.1-0.6-0.1-0.9-0.2C742.4,231.2,742,230.8,742.4,230.9z"/>
			</g>
		</g>
		<g>
			<g>
				<path class="st22" d="M742.2,253.4c33.6,5.2,67.3,10.6,100.8,16.4c41,7.1,81.8,14.8,122.7,22.3c36.5,6.7,72.9,13.4,109.4,20.1
					c16.7,3.1,33.5,6.1,50.2,9.2c0.4,0.1,0.1,0.3-0.2,0.3c-0.6-0.1-1.2-0.2-1.7-0.3c-2.7-0.5-5.4-0.9-8.1-1.4
					c-10.6-1.8-21.2-3.6-31.8-5.5c-35.3-6.1-70.6-12.1-105.8-18.2c-41-7.1-82.1-13.9-123.1-21.3c-36.6-6.6-73.2-13.5-109.7-20.9
					c-0.7-0.1-1.4-0.3-2.1-0.4C742.5,253.8,741.7,253.3,742.2,253.4z"/>
			</g>
		</g>
		<g>
			<g>
				<path class="st22" d="M742.1,260.9c33.6,4.9,67.3,10.1,100.8,15.7c41,6.8,81.9,14.2,122.8,21.5c36.5,6.4,73.1,12.9,109.6,19.3
					c16.7,2.9,33.3,5.9,50,8.8c0.4,0.1,0,0.3-0.3,0.3c-0.6-0.1-1.2-0.2-1.8-0.3c-2.7-0.5-5.5-0.9-8.2-1.4
					c-10.7-1.8-21.4-3.5-32.2-5.3c-35.5-5.8-70.9-11.7-106.4-17.5c-41.1-6.8-82.2-13.3-123.2-20.4c-36.4-6.3-72.7-12.9-109-20
					c-0.6-0.1-1.2-0.2-1.7-0.3C742.3,261.3,741.6,260.8,742.1,260.9z"/>
			</g>
		</g>
		<g>
			<g>
				<path class="st22" d="M741.8,283.5c33.8,4.2,67.7,8.7,101.4,13.6c41,6,82,12.5,123,18.8c36.6,5.7,73.1,11.3,109.7,17
					c16.5,2.5,32.9,5.1,49.4,7.6c0.5,0.1-0.1,0.3-0.4,0.3c-0.7-0.1-1.3-0.2-2-0.3c-2.8-0.4-5.7-0.8-8.5-1.2
					c-10.9-1.6-21.8-3.1-32.7-4.7c-35.7-5.1-71.5-10.2-107.2-15.3c-41.1-5.9-82.3-11.6-123.4-17.7c-36.1-5.4-72.1-11.3-108.1-17.5
					c-0.4-0.1-0.7-0.1-1.1-0.2C741.8,283.8,741.4,283.4,741.8,283.5z"/>
			</g>
		</g>
		<g>
			<g>
				<path class="st22" d="M741.7,291c33.8,4,67.7,8.2,101.4,12.9c41,5.7,82,11.9,123,17.9c36.6,5.4,73.1,10.8,109.7,16.2
					c16.5,2.4,32.9,4.9,49.4,7.3c0.5,0.1-0.1,0.3-0.4,0.3c-0.7-0.1-1.3-0.2-2-0.3c-2.8-0.4-5.7-0.8-8.5-1.2
					c-10.9-1.5-21.8-3-32.7-4.4c-35.7-4.8-71.5-9.7-107.2-14.5c-41.1-5.6-82.3-11-123.4-16.9C815,303.1,779,297.5,743,291.5
					c-0.4-0.1-0.7-0.1-1.1-0.2C741.7,291.3,741.3,290.9,741.7,291z"/>
			</g>
		</g>
		<g>
			<g>
				<path class="st22" d="M741.4,313.6c34,3.2,68.1,6.8,102,10.8c41.1,4.8,82.1,10.1,123.2,15.3c36.6,4.6,73.2,9.2,109.8,13.8
					c16.3,2,32.5,4.1,48.8,6.1c0.4,0.1-0.3,0.3-0.5,0.3c-0.7-0.1-1.4-0.2-2.1-0.2c-2.9-0.3-5.8-0.7-8.8-1
					c-11.1-1.3-22.1-2.5-33.2-3.8c-36-4.1-72-8.2-108-12.3c-41.2-4.7-82.4-9.2-123.5-14.2c-35.7-4.3-71.4-9.1-107-14.3
					C741.9,313.9,741,313.5,741.4,313.6z"/>
			</g>
		</g>
		<g>
			<g>
				<path class="st22" d="M741.3,321.1c34.2,3,68.5,6.3,102.7,10.1c41.3,4.5,82.6,9.6,123.9,14.5c36.5,4.3,73.1,8.6,109.6,13
					c15.9,1.9,31.8,3.8,47.7,5.6c0.4,0-0.4,0.3-0.7,0.2c-0.8-0.1-1.5-0.2-2.3-0.2c-3.1-0.3-6.1-0.7-9.2-1
					c-11.3-1.2-22.6-2.4-33.9-3.6c-36.3-3.9-72.6-7.7-109-11.6c-41.4-4.4-82.8-8.7-124.1-13.4c-34.9-4-69.8-8.5-104.6-13.2
					C741.2,321.4,741,321.1,741.3,321.1z"/>
			</g>
		</g>
		<g>
			<g>
				<path class="st22" d="M741.1,343.7c34.2,2.3,68.5,4.8,102.7,7.8c41.4,3.6,82.7,7.8,124,11.8c36.6,3.5,73.1,7.1,109.7,10.6
					c15.9,1.5,31.8,3.1,47.7,4.6c0.4,0-0.4,0.3-0.7,0.3c-0.8-0.1-1.5-0.1-2.3-0.2c-3.1-0.3-6.1-0.5-9.2-0.8
					c-11.3-1-22.6-1.9-33.9-2.9c-36.3-3.1-72.7-6.2-109-9.2c-41.4-3.5-82.8-6.9-124.2-10.7c-34.9-3.2-69.8-6.9-104.7-10.9
					C741,344,740.7,343.7,741.1,343.7z"/>
			</g>
		</g>
		<g>
			<g>
				<path class="st22" d="M741,351.2c34.2,2,68.5,4.3,102.7,7.1c41.4,3.3,82.7,7.2,124.1,10.9c36.6,3.3,73.2,6.5,109.8,9.8
					c11.5,1,23.1,2.1,34.6,3.1c3.2,0.3,6.4,0.6,9.5,0.9c0.6,0.1,2.8-0.1,3.3,0.3c0.4,0,0,0.3-0.2,0.3c-0.2,0-0.4,0-0.6,0
					c-0.8-0.1-1.6-0.1-2.4-0.2c-3.1-0.2-6.2-0.5-9.3-0.7c-11.4-0.9-22.8-1.8-34.3-2.7c-36.5-2.8-73-5.7-109.6-8.5
					c-41.4-3.2-82.9-6.3-124.2-9.8c-34.6-3-69.1-6.4-103.6-10.1C740.8,351.5,740.7,351.2,741,351.2z"/>
			</g>
		</g>
		<g>
			<g>
				<path class="st22" d="M740.7,373.9c34.3,1.3,68.5,2.9,102.7,4.9c41.4,2.4,82.8,5.4,124.2,8.2c36.6,2.5,73.3,4.9,109.9,7.4
					c11.5,0.8,23.1,1.6,34.6,2.3c3.2,0.2,6.4,0.4,9.5,0.6c0.6,0,2.8-0.2,3.4,0.2c0.4,0,0,0.3-0.2,0.3c-0.2,0-0.4,0-0.6,0
					c-0.8,0-1.6-0.1-2.4-0.1c-3.1-0.2-6.2-0.3-9.3-0.5c-11.4-0.6-22.8-1.3-34.3-1.9c-36.5-2-73.1-4.1-109.6-6.1
					c-41.4-2.3-82.9-4.5-124.3-7.1c-34.6-2.2-69.2-4.9-103.7-7.8C740.5,374.2,740.4,373.8,740.7,373.9z"/>
			</g>
		</g>
		<g>
			<g>
				<path class="st22" d="M740.6,381.4c34.3,1,68.5,2.4,102.7,4.1c41.4,2.1,82.8,4.8,124.2,7.3c36.6,2.2,73.3,4.4,109.9,6.6
					c11.5,0.7,23.1,1.4,34.6,2.1c3.2,0.2,6.4,0.4,9.5,0.6c0.6,0,2.8-0.2,3.4,0.2c0.4,0,0,0.3-0.2,0.3c-0.2,0-0.4,0-0.6,0
					c-0.8,0-1.6-0.1-2.4-0.1c-3.1-0.2-6.2-0.3-9.3-0.5c-11.4-0.6-22.8-1.1-34.3-1.7c-36.5-1.8-73.1-3.5-109.6-5.3
					c-41.4-2-82.9-3.9-124.3-6.2c-34.6-2-69.2-4.4-103.7-7.1C740.5,381.7,740.3,381.4,740.6,381.4z"/>
			</g>
		</g>
	</g>
	<g>
		<g>
			<path class="st22" d="M654.8,70.4c9.3-2.3,20.1-3.5,29.4-0.9c4.6,1.3,9,4.1,10.8,8.7c0.5,1.4,0.3,2.7,0.3,4.2
				c0,2.7-0.1,5.4,0,8.1c0,7.8,0,15.6,0,23.5c0,12.6,0,25.2,0,37.8c0,18.3,0,36.6,0,54.8c0,11,0,21.9,0,32.9c0,14.6,0,29.1,0,43.7
				c0,4.5,0,9.1,0,13.6c0,5.7,0.2,11.4-0.3,17c-0.6,6.1-3.2,11.7-8.6,14.9c-5.7,3.4-12,2-18.2,1.1c-1-0.2-2.1-0.3-3.1-0.5
				c3.6-0.3,7.2-0.6,10.8-0.9c3.9-0.4,7.5-2.3,9.7-5.6c1.7-2.5,2.2-5.2,2-8.2c0,0.1,0,0.1,0,0.2c0-0.8-0.2-1.7-0.2-2.5
				c-0.2-2.1-0.2-4.1-0.2-6.2c0.1-2.8,0-5.6,0-8.4c0-4.6,0-9.1,0-13.7c0-4.4,0-8.8,0-13.3c0-17.9,0-35.8,0-53.7c0-12.5,0-25,0-37.5
				c0-12.9,0-25.8,0-38.8c0-15.7,0-31.4,0-47.2c0-4.6,0-9.2-0.1-13.7c0.1,0.4,0.1,0.8,0.2,1.1c-0.7-1.8-1.3-3-3-4.3
				c-2.6-1.9-5.8-3-8.8-3.8C668.8,71.2,661.7,70.6,654.8,70.4C658,69.6,658.1,70.5,654.8,70.4z"/>
		</g>
	</g>
	<g>
		<g>
			<path class="st22" d="M659.5,218.2c4.5-0.8,8.9-1.5,13.4-2.2c-0.4,0.5-0.9,0.9-1.3,1.4c-0.6-9-0.2-18.2-0.2-27.2
				c0-6.6,0-13.2,0-19.8c0-15.3,0-30.6,0-45.8c0-5.5,0-11,0-16.5c0-6.4-0.2-12.9,0.3-19.3c0.4,0.4,0.9,0.9,1.3,1.3
				c-5.6-0.4-11.1-0.8-16.7-1.3c6-0.5,11.9-1,17.9-1.4c0.5,7.5,0.4,14.9,0.4,22.4c0,6.6,0,13.2,0,19.9c0,15.6,0,31.3,0,46.9
				c0,6.6,0,13.2,0,19.9c0,3.3,0,6.6,0,9.9c0,2.7,0.1,5.5,0,8.2c0,1-0.1,2-0.2,3c0,0.2,0.1,1.2-0.1,1.4c-0.1,0.1-1,0-1.2,0
				c-1.4,0-2.9-0.1-4.3-0.1C665.7,218.5,662.6,218.4,659.5,218.2C664,217.3,664.1,218.4,659.5,218.2z"/>
		</g>
	</g>
	<g>
		<g>
			<path class="st25" d="M680.2,82.3c1.7,31.3,2.2,62.7,2.3,94.1c0.1,39.9,0,79.8-1.4,119.6c-0.2,6.9-0.5,13.7-0.9,20.6
				c-1.7-30.9-2.2-61.9-2.3-92.8c-0.2-40.3,0-80.6,1.4-120.9C679.5,96.1,679.8,89.2,680.2,82.3z"/>
		</g>
	</g>
	<g>
		<g>
			<path class="st25" d="M714.3,413.3c-1.5,0.4-3.1,0.8-4.7,1.1c-2.4,0.5-4.6,0.4-7.1,0.4c-5.5-0.1-10.9-0.1-16.4-0.2
				c-5.3,0-10.6-0.1-15.8-0.1c-2.4,0-4.7,0.1-7-0.4c-1.7-0.4-3.5-0.8-5.2-1.3c1.5-0.4,3.1-0.7,4.7-1.1c2.4-0.5,4.6-0.4,7.1-0.4
				c5.5,0.1,10.9,0.1,16.4,0.2c5.3,0,10.6,0.1,15.8,0.1c2.4,0,4.7-0.1,7,0.4C710.9,412.4,712.6,412.8,714.3,413.3z"/>
		</g>
	</g>
	<g>
		<g>
			<path class="st25" d="M714.3,407.5c-1.6,0.2-3.1,0.5-4.7,0.7c-2.4,0.3-4.7,0.3-7.1,0.2c-5.5-0.1-10.9-0.1-16.4-0.2
				c-9.3-0.1-18.8,0.4-28.1-1.3c9.2-1.6,18.7-0.9,28.1-0.8c5.3,0,10.6,0.1,15.8,0.1c2.4,0,4.7,0,7,0.3
				C710.9,406.9,712.6,407.2,714.3,407.5z"/>
		</g>
	</g>
	<g>
		<g>
			<path class="st21" d="M783.7,438.2c-0.4-4.8-0.7-9.6-1-14.4c9.2-0.3,18.5,0.2,27.7,0.5c5.6,0.2,11.2,0.1,16.7,0.2
				c9.3,0.1,18.5,0.2,27.8,0.2c0.8,0,1.7,0,2.5,0c0.8,0,1.2-0.3,1.2,0.6c0,0.5,0,1,0,1.5c0.1,3.9,0.2,7.8,0.4,11.6
				c0,0.4,0,0.8,0,1.2c-6.8,0-13.6,0.1-20.4,0.1c-8.4,0.1-16.7-0.5-25.1-1c8.1-0.7,16.1-1.3,24.2-1.3c6.7,0,13.3-0.1,20-0.1
				c-0.4,0.4-0.8,0.8-1.2,1.2c-0.1-4.2-0.3-8.4-0.4-12.6c0.4,0.4,0.8,0.8,1.2,1.2c-14.1-0.1-28.3-0.2-42.4-0.4
				c-10.4-0.1-21-0.2-31.3-1.1c0.3-0.3,0.7-0.6,1-1C784.3,429.2,784.1,433.7,783.7,438.2C783.3,433.7,784.1,433.7,783.7,438.2z"/>
		</g>
	</g>
	<g>
		<g>
			<path class="st21" d="M787.5,438.8c4-0.9,7.9-0.6,11.9-0.5c3.5,0.1,7.1,0.2,10.6,0.2c-0.3,0.3-0.5,0.5-0.8,0.8
				c0-3.1,0.1-5.9,0.8-8.9c0.7,3.3,0.8,6.4,0.8,9.7c-3.7-0.1-7.4-0.2-11.1-0.3C795.6,439.8,791.5,439.9,787.5,438.8
				C788.4,438.6,788.4,439,787.5,438.8z"/>
		</g>
	</g>
	<g>
		<g>
			<path class="st21" d="M812.4,467.6c-0.5-7.4-0.7-14.8-0.9-22.2c0-0.5-0.4-2.1,0.3-2.2c1.4-0.1,2.9-0.2,4.3-0.3
				c2.9-0.2,5.8-0.3,8.7-0.5c0.4,17.3,0.6,34.6,0.3,51.8c-0.1,5.8-0.2,11.7-0.2,17.5c-4.5-0.1-9-0.2-13.4-0.3
				c0.3-8.8,0.5-17.6,1.1-26.4c0.5,8.5,0.8,16.9,1,25.4c-0.3-0.3-0.7-0.7-1-1c3.7-0.1,7.4-0.2,11.1-0.3c-0.4,0.4-0.9,0.9-1.3,1.3
				c-0.2-14.2-0.3-28.3-0.2-42.5c0-8.1,0.1-16.2,0.3-24.2c0.4,0.4,0.9,0.8,1.3,1.2c-3.7,0.1-7.4,0.1-11.1,0.1c0.3-0.3,0.6-0.6,0.9-1
				C813.2,451.9,812.9,459.8,812.4,467.6C812.2,463.7,812.7,463.7,812.4,467.6z"/>
		</g>
	</g>
	<g>
		<g>
			<path class="st21" d="M827.9,478.3c3-6.5,6.4-12.8,9.8-19.1c0.1,5.5,0.1,11,0,16.5c0,1.2-0.7,2-1.4,3c-0.9,1.5-1.9,3-2.9,4.6
				c-1.8,2.9-3.7,5.7-5.6,8.5c2.6-5.4,5.5-10.7,8.5-15.9c0,0.1-0.1,0.2-0.1,0.4c-0.1-4.8-0.1-9.5,0-14.3c0.5,0.1,0.9,0.2,1.4,0.4
				C834.6,467.8,831.4,473.1,827.9,478.3C828.6,476.9,828.8,477,827.9,478.3z"/>
		</g>
	</g>
	<g>
		<g>
			<path class="st21" d="M828.3,454.1c3.4-4.5,8.5-8.6,13.5-11.1C838.4,447.4,833.3,451.6,828.3,454.1z"/>
		</g>
	</g>
	<g>
		<g>
			<path class="st21" d="M793,471.5c1-0.6,1.8-1,2.9-1c1.7,0,3.3,0,5,0c1.7,0,3.3,0,5,0c1.1,0,2,0.4,2.9,1c-1,0.6-1.8,1-2.9,1
				c-1.7,0-3.3,0-5,0c-1.7,0-3.3,0-5,0C794.8,472.6,793.9,472.2,793,471.5z"/>
		</g>
	</g>
	<g>
		<g>
			<path class="st21" d="M795.3,494.2c0.7-0.5,1.3-0.9,2.1-1c1.5,0,3.1,0,4.6,0c1.5,0,3.1,0,4.6,0c0.8,0.2,1.4,0.5,2.1,1
				c-0.7,0.5-1.3,0.9-2.1,1c-1.5,0-3.1,0-4.6,0c-1.5,0-3.1,0-4.6,0C796.7,495,796,494.7,795.3,494.2z"/>
		</g>
	</g>
	<g>
		<g>
			<path class="st3" d="M971.7,493.1c-6.1,4.5-14.5,6-21.6,3c-5.7-2.4-9.2-7.1-12.5-12.1c0.2,0.1,0.5,0.3,0.7,0.4
				c-10.5,0.1-21,0.1-31.5-0.4c8.6-0.6,17.2-0.9,25.8-1.1c2,0,3.9-0.1,5.9-0.1c0.5,0,1.1,1.3,1.3,1.7c1.2,1.8,2.4,3.4,3.7,5
				C950.7,497.9,962.5,498.3,971.7,493.1C971,493.6,970.2,493.9,971.7,493.1z"/>
		</g>
	</g>
	<g>
		<g>
			<path class="st21" d="M1072,477.9c13.9-1.6,28.1-1.4,42.1-1.7c-0.3,0.3-0.6,0.6-0.9,0.9c0-3.2,0-6.4,0-9.5
				c0.3,0.3,0.6,0.6,0.9,0.9c-14.1,0-28.3,0.4-42.4-0.9c7-0.6,14-0.9,21.1-0.9c3.3,0,6.7,0,10,0c3.7,0,7.5,0,11.2,0
				c0.9,0,0.9-0.1,0.9,0.9c0,0.6,0,1.3,0,1.9c0,2.3,0,4.7,0,7c0,0.4,0,0.8,0,1.2c0,0.5-0.5,0.3-1,0.3c-1.1,0-2.1,0-3.2,0.1
				c-4.1,0.1-8.3,0.2-12.4,0.2C1089.6,478.4,1080.8,478.5,1072,477.9C1075.5,477.5,1075.5,478.1,1072,477.9z"/>
		</g>
	</g>
	<g>
		<g>
			<path class="st21" d="M1088.6,443.3c0.3,3.8,0.4,7.7,0.6,11.5c-0.2-0.2-0.4-0.4-0.6-0.6c9-0.4,18-0.4,27,0
				c-0.2,0.2-0.4,0.4-0.6,0.6c0.1-4.1,0.2-8.2,0.6-12.3c0.3,3.5,0.4,7,0.5,10.4c0,0.3,0.3,2.1,0.1,2.5c-0.3,0.3-2.7,0.1-3.1,0.1
				c-1.6,0-3.3,0.1-4.9,0.1c-5.9,0.1-11.9,0.1-17.8-0.1c-0.3,0-2.4,0.1-2.4-0.2c0-1.1,0.1-2.2,0.1-3.3
				C1088.3,449.1,1088.4,446.2,1088.6,443.3C1088.8,445.3,1088.5,445.3,1088.6,443.3z"/>
		</g>
	</g>
	<g>
		<path class="st21" d="M517.1,219.2c0,0,12-2,18.8,1.3C535.9,220.5,528,213.2,517.1,219.2z"/>
	</g>
	<g>
		<g>
			<path class="st3" d="M733.4,501c-0.2-7.6-1.1-15.3-3-22.6c-1.1-4.2-2.5-9.5-5.9-12.4c-4.1-3.6-7.4,2.5-8.7,5.7
				c-3.7,9-4.5,19.4-4.6,29c-0.1,9.8,0.6,19.9,3.6,29.3c1,3,3.3,10.1,7.5,9.5c4.2-0.6,6.3-7.3,7.3-10.6c2.4-7.6,3.4-15.8,3.7-23.7
				c-0.1,8.2-0.7,16.7-3.1,24.6c-1.1,3.7-3,9.6-7.2,10.8c-4.6,1.3-7.4-4.6-8.8-8c-3.6-9.2-4.6-19.6-4.7-29.4
				c-0.1-9.9,0.8-20.4,4.1-29.8c1.2-3.5,3.6-9.6,8.1-9.7c4.5-0.4,7.1,6.6,8.2,9.9C732.8,482.3,733.5,491.8,733.4,501z"/>
		</g>
	</g>
	<g>
		<g>
			<path class="st3" d="M782.9,496.9c-0.2-7.4-1.1-14.8-3-21.9c-1.1-4.1-2.6-9.1-5.9-11.9c-4.2-3.5-7.5,2.7-8.9,5.9
				c-3.7,9.2-4.4,19.6-4.4,29.4c0,9.7,0.7,20.2,4.7,29.2c1.4,3.1,4.5,8.7,8.5,5.6c3.4-2.6,4.8-7.6,5.9-11.5
				c1.9-6.7,2.8-13.8,3.1-20.8c-0.1,8.2-0.7,16.6-3.3,24.4c-1.2,3.4-3.5,9.8-7.9,9.9c-4.3,0.6-7-5.6-8.2-8.8
				c-3.5-9.2-4.3-19.6-4.3-29.3c0.1-9.7,1-20.3,5-29.2c1.5-3.3,4.4-8.5,8.9-6.9c4,1.5,5.9,7.1,7,10.8
				C782.4,479.9,783,488.5,782.9,496.9z"/>
		</g>
	</g>
	<g>
		<g>
			<path class="st26" d="M1064.9,479.4c-0.2-3.6-0.5-7.3-1.2-10.9c-0.7-3.9-1.6-9.8-5-12.4c-2.8-2.9-5.5,4.8-5.9,6.3
				c-1.4,4.7-1.9,9.7-2.1,14.6c-0.2,5.1,0,10.3,0.9,15.4c0.4,2.3,0.9,4.6,1.7,6.9c0.6,1.7,1.6,4.5,3.5,5.2c3.8,1.4,5.8-7.8,6.4-10
				c0.9-4,1.4-8,1.7-12c0-0.1,0-0.3,0-0.4c0,4-0.2,7.9-0.9,11.9c-0.6,3.6-1.8,10.4-5.9,11.8c-3.9,1.1-5.9-4.9-6.7-7.6
				c-1.4-4.7-2-9.6-2.2-14.4c-0.2-5,0-9.9,0.8-14.8c0.7-4.3,1.6-9.9,4.7-13.2c7.4-6,9.7,11.7,10,15.9
				C1064.9,474.2,1064.9,476.8,1064.9,479.4z"/>
		</g>
	</g>
	<g>
		<g>
			<path class="st26" d="M1033.7,479.9c-0.2-3.6-0.5-7.1-1.1-10.6c-0.7-4.3-1.6-9.8-4.7-13.2c-2.9-3.3-5.3,1.2-6.3,3.8
				c-1.8,4.6-2.4,9.7-2.8,14.6c-0.3,5.1-0.3,10.3,0.3,15.4c0.5,4.6,1.3,9.7,3.5,13.9c0.8,1.5,2.2,3.5,4.1,2.6c2-0.9,3-3.8,3.7-5.7
				c1.5-4.1,2.3-8.6,2.8-13c0.1-1.6,0.3-3.2,0.4-4.8c0,3.8-0.2,7.6-0.8,11.5c-0.6,4.1-1.5,9.2-4.5,12.2c-3.4,3.5-6.7-1-7.9-4.1
				c-1.8-4.4-2.6-9.3-3.1-14c-0.9-9.4-0.7-20.1,2.9-29c1-2.6,3.4-7,6.8-5.4c3.8,1.8,4.8,8.2,5.5,11.8
				C1033.6,470.5,1033.7,475.2,1033.7,479.9z"/>
		</g>
	</g>
</g>
</svg>
