<?xml version="1.0" encoding="utf-8"?>
<!-- Generator: Adobe Illustrator 25.2.3, SVG Export Plug-In . SVG Version: 6.00 Build 0)  -->
<svg version="1.1" id="Layer_1" xmlns="http://www.w3.org/2000/svg" xmlns:xlink="http://www.w3.org/1999/xlink" x="0px" y="0px"
	 viewBox="0 0 79 79" style="enable-background:new 0 0 79 79;" xml:space="preserve">
<style type="text/css">
	.st0{fill:url(#SVGID_1_);}
	.st1{fill:url(#SVGID_2_);}
	.st2{fill:url(#SVGID_3_);}
	.st3{fill:url(#SVGID_4_);}
</style>
<g id="wheel-4">
	
		<radialGradient id="SVGID_1_" cx="-915.1026" cy="39.0998" r="39.4838" gradientTransform="matrix(-1.0004 0 0 1.0004 -875.979 0.3842)" gradientUnits="userSpaceOnUse">
		<stop  offset="0.6569" style="stop-color:#0D0D0D"/>
		<stop  offset="0.8745" style="stop-color:#333333"/>
		<stop  offset="0.9135" style="stop-color:#2E2E2E"/>
		<stop  offset="0.9596" style="stop-color:#202020"/>
		<stop  offset="1" style="stop-color:#0D0D0D"/>
	</radialGradient>
	<path class="st0" d="M39.5,0C61.3,0,79,17.7,79,39.5C79,61.3,61.3,79,39.5,79C17.7,79,0,61.3,0,39.5C0,17.7,17.7,0,39.5,0z
		 M15.5,39.5c0,13.3,10.7,24,24,24c13.3,0,24-10.7,24-24c0-13.3-10.7-24-24-24C26.2,15.5,15.5,26.2,15.5,39.5z"/>
	
		<radialGradient id="SVGID_2_" cx="-915.1026" cy="39.1141" r="20.8734" gradientTransform="matrix(-1.0004 0 0 1.0004 -875.979 0.3842)" gradientUnits="userSpaceOnUse">
		<stop  offset="0.477" style="stop-color:#9F9F9F"/>
		<stop  offset="0.4927" style="stop-color:#A4A4A4"/>
		<stop  offset="0.5114" style="stop-color:#B2B2B2"/>
		<stop  offset="0.5314" style="stop-color:#CACACA"/>
		<stop  offset="0.5951" style="stop-color:#CFCFCF"/>
		<stop  offset="0.6705" style="stop-color:#DDDDDD"/>
		<stop  offset="0.7364" style="stop-color:#F0F0F0"/>
		<stop  offset="0.761" style="stop-color:#EBEBEB"/>
		<stop  offset="0.7902" style="stop-color:#DDDDDD"/>
		<stop  offset="0.8217" style="stop-color:#C5C5C5"/>
		<stop  offset="0.8549" style="stop-color:#A3A3A3"/>
		<stop  offset="0.889" style="stop-color:#797979"/>
		<stop  offset="0.8954" style="stop-color:#707070"/>
	</radialGradient>
	<circle class="st1" cx="39.5" cy="39.5" r="20.9"/>
	
		<radialGradient id="SVGID_3_" cx="-915.1026" cy="39.1141" r="9.7694" gradientTransform="matrix(-1.0004 0 0 1.0004 -875.979 0.3842)" gradientUnits="userSpaceOnUse">
		<stop  offset="0.3598" style="stop-color:#1A1A1A"/>
		<stop  offset="0.6695" style="stop-color:#292929"/>
		<stop  offset="0.7842" style="stop-color:#2E2E2E"/>
		<stop  offset="0.841" style="stop-color:#333333"/>
		<stop  offset="0.8827" style="stop-color:#2E2E2E"/>
		<stop  offset="0.9322" style="stop-color:#202020"/>
		<stop  offset="0.9854" style="stop-color:#080808"/>
		<stop  offset="1" style="stop-color:#000000"/>
	</radialGradient>
	<path class="st2" d="M39.5,29.7c5.4,0,9.8,4.4,9.8,9.8c0,5.4-4.4,9.8-9.8,9.8c-5.4,0-9.8-4.4-9.8-9.8
		C29.7,34.1,34.1,29.7,39.5,29.7z"/>
	
		<radialGradient id="SVGID_4_" cx="-914.3879" cy="39.5905" r="23.9974" gradientTransform="matrix(-1.0004 0 0 1.0004 -875.979 0.3842)" gradientUnits="userSpaceOnUse">
		<stop  offset="0.7741" style="stop-color:#F0F0F0"/>
		<stop  offset="0.8029" style="stop-color:#EBEBEB"/>
		<stop  offset="0.8371" style="stop-color:#DDDDDD"/>
		<stop  offset="0.8741" style="stop-color:#C5C5C5"/>
		<stop  offset="0.913" style="stop-color:#A3A3A3"/>
		<stop  offset="0.953" style="stop-color:#797979"/>
		<stop  offset="0.9791" style="stop-color:#595959"/>
	</radialGradient>
	<path class="st3" d="M15.5,39.5c0,13.3,10.8,24,24,24c13.3,0,24-10.8,24-24c0-13.2-10.8-24-24-24C26.2,15.5,15.5,26.3,15.5,39.5z
		 M18.6,39.5c0-11.5,9.4-20.9,20.9-20.9c11.6,0,20.9,9.4,20.9,20.9c0,11.5-9.3,20.9-20.9,20.9C28,60.4,18.6,51,18.6,39.5z"/>
	<path d="M36,60.1c1.1,0.2,2.3,0.3,3.5,0.3c1.2,0,2.4-0.1,3.5-0.3c-0.3-1.4-1.8-2.5-3.5-2.5C37.8,57.6,36.3,58.7,36,60.1z"/>
	<path d="M36,18.9c1.1-0.2,2.3-0.3,3.5-0.3c1.2,0,2.4,0.1,3.5,0.3c-0.3,1.4-1.8,2.5-3.5,2.5C37.8,21.4,36.3,20.3,36,18.9z"/>
	<path d="M22.5,51.6c0.7,1,1.4,1.9,2.3,2.7c0.8,0.8,1.8,1.6,2.7,2.3c0.7-1.2,0.5-3-0.7-4.2C25.5,51.1,23.6,50.8,22.5,51.6z"/>
	<path d="M51.5,22.5c1,0.7,1.9,1.4,2.7,2.3c0.8,0.8,1.6,1.8,2.3,2.7c-1.2,0.7-3,0.5-4.2-0.7C51.1,25.5,50.8,23.7,51.5,22.5z"/>
	<path d="M18.9,36c-0.2,1.1-0.3,2.3-0.3,3.5c0,1.2,0.1,2.4,0.3,3.5c1.4-0.3,2.5-1.8,2.5-3.5C21.4,37.8,20.3,36.3,18.9,36z"/>
	<path d="M60.1,36c0.2,1.1,0.3,2.3,0.3,3.5c0,1.2-0.1,2.4-0.3,3.5c-1.4-0.3-2.5-1.8-2.5-3.5C57.6,37.8,58.7,36.3,60.1,36z"/>
	<path d="M51.6,56.5c0.9-0.7,1.9-1.4,2.7-2.3c0.8-0.9,1.6-1.8,2.3-2.7c-1.2-0.7-3-0.5-4.2,0.8C51.1,53.5,50.8,55.3,51.6,56.5z"/>
	<path d="M22.4,27.5c0.7-1,1.4-1.9,2.3-2.7c0.8-0.9,1.8-1.6,2.7-2.3c0.8,1.2,0.5,3-0.7,4.2C25.4,28,23.6,28.3,22.4,27.5z"/>
	<g>
		<path d="M27.5,38.5c-0.6,0.2-0.8,0.8-0.6,1.4c0.2,0.6,0.8,0.8,1.4,0.6c0.6-0.2,0.8-0.8,0.6-1.4C28.7,38.6,28.1,38.3,27.5,38.5z"/>
		<path d="M29.1,32.7c-0.6,0.2-0.8,0.8-0.6,1.4c0.2,0.6,0.8,0.8,1.4,0.6c0.6-0.2,0.8-0.8,0.6-1.4C30.3,32.7,29.7,32.4,29.1,32.7z"/>
		<path d="M33.3,28.5c-0.6,0.2-0.8,0.8-0.6,1.4c0.2,0.6,0.8,0.8,1.4,0.6c0.6-0.2,0.8-0.8,0.6-1.4C34.4,28.6,33.8,28.3,33.3,28.5z"/>
		<path d="M39.1,26.9c-0.6,0.2-0.8,0.8-0.6,1.4c0.2,0.6,0.8,0.8,1.4,0.6c0.6-0.2,0.8-0.8,0.6-1.4C40.3,27,39.7,26.7,39.1,26.9z"/>
		<path d="M45,28.5c-0.6,0.2-0.8,0.8-0.6,1.4c0.2,0.6,0.8,0.8,1.4,0.6c0.6-0.2,0.8-0.8,0.6-1.4C46.2,28.6,45.5,28.3,45,28.5z"/>
		<path d="M49.1,32.7c-0.6,0.2-0.8,0.8-0.6,1.4c0.2,0.6,0.8,0.8,1.4,0.6c0.6-0.2,0.8-0.8,0.6-1.4C50.3,32.7,49.7,32.4,49.1,32.7z"/>
		<path d="M50.7,38.5c-0.6,0.2-0.8,0.8-0.6,1.4s0.8,0.8,1.4,0.6c0.6-0.2,0.8-0.8,0.6-1.4C51.9,38.6,51.3,38.3,50.7,38.5z"/>
		<path d="M29.1,46.4c-0.6-0.2-0.8-0.8-0.6-1.4c0.2-0.6,0.8-0.8,1.4-0.6c0.6,0.2,0.8,0.8,0.6,1.4C30.3,46.3,29.7,46.6,29.1,46.4z"/>
		<path d="M33.3,50.5c-0.6-0.2-0.8-0.8-0.6-1.4c0.2-0.6,0.8-0.8,1.4-0.6c0.6,0.2,0.8,0.8,0.6,1.4C34.4,50.5,33.8,50.7,33.3,50.5z"/>
		<path d="M39.1,52.1c-0.6-0.2-0.8-0.8-0.6-1.4c0.2-0.6,0.8-0.8,1.4-0.6c0.6,0.2,0.8,0.8,0.6,1.4C40.3,52.1,39.7,52.3,39.1,52.1z"/>
		<path d="M45,50.5c-0.6-0.2-0.8-0.8-0.6-1.4c0.2-0.6,0.8-0.8,1.4-0.6c0.6,0.2,0.8,0.8,0.6,1.4C46.2,50.5,45.5,50.7,45,50.5z"/>
		<path d="M49.1,46.4c-0.6-0.2-0.8-0.8-0.6-1.4c0.2-0.6,0.8-0.8,1.4-0.6c0.6,0.2,0.8,0.8,0.6,1.4C50.3,46.3,49.7,46.6,49.1,46.4z"/>
	</g>
</g>
</svg>
